<svg id="Layer_1" data-name="Layer 1" xmlns="http://www.w3.org/2000/svg" viewBox="0 0 100 100"><title>f</title><path d="M34.37,49.2a16.19,16.19,0,0,1-3.49,6.11c-1.76,1.91-2.66,4.73-4.11,7.05-.77.71-.83,1.84-1.56,2.59a3.56,3.56,0,0,1-4.07,1,2.63,2.63,0,0,1-1.39-3.53,12.32,12.32,0,0,0-.12-10,1.69,1.69,0,0,1-.11-1c.6-2.52.91-4.86-1.61-6.75-.75-.56-.56-2-.28-3,1.4-5,3.13-9.82,6.79-13.69,3.53-4.12,7.16-7,13.41-7.11,5.3-.08,10.53.71,15.75.46a104,104,0,0,0,13-1.27C71,19.28,74.06,22,77.19,24c2.28,1.45.79,5.55-2.21,5.51-4.7-.06-8.83,3.47-13.75,1.7-1.54-.55-3.46.12-5,.9-2.11,1-3.6.91-4.79-1.48s-2.65-2.43-3.91,0c-1.42,2.68-3.06,3.71-6.14,2.71-2.41-.79-4.09.53-4.46,3C36.26,40.64,34.72,44.8,34.37,49.2Z" fill="#f68c6a"/><path d="M88.41,80.47c-1.64-.37-3.29-1.21-4.61.77-.49.74-1.45.57-2.23.2a11.33,11.33,0,0,0-5.35-1.09c-1.78.06-2.41-.93-2.37-2.62a23.6,23.6,0,0,1,1.11-5c.69-2.84,1.53-5.47.68-8.67-1-3.92-1.08-8.11-3.8-11.47a4.58,4.58,0,0,1,.83-4.86c3.86-4.21,4-9.44,4.38-14.61.19-2.5-.36-5.25,3.15-6.06,2.91-.68,5.75.63,7.46,3.72a17.35,17.35,0,0,1,2.22,10.88c-.41,3.67-.1,7.33-1,11.12-.52,2.12.85,5.45,2.48,7.58a10.83,10.83,0,0,1,2.18,6,38.34,38.34,0,0,1-.25,10.35C92.73,79.72,91.22,80.8,88.41,80.47Z" fill="#f68f6d"/><path d="M88.41,80.47a3.26,3.26,0,0,0,3.25-2.09,17.8,17.8,0,0,0,1.63-10.12c-.15-1.36-.57-2.69-.64-4.09a2.47,2.47,0,0,0-1.58-2.48c-1.74-.53-1.91-1.82-1.83-3.29.1-1.69,0-3.21-1.86-4.08a1.15,1.15,0,0,1-.23-2,14.34,14.34,0,0,0,1.75-2.94C90,47.6,90.33,46,89,44.24c-.82-1.14-.49-2.4-.12-3.66,1.36-4.69-1.1-9.67-4.91-12.33-1.09-.76-4.68-.5-5.5.4a2.49,2.49,0,0,0-.4,2c.28,4.08-.62,8-1.28,12a6.53,6.53,0,0,1-2,3.85,9,9,0,0,0-3,6.08,8.11,8.11,0,0,1-.95-4.88c.27-5,.19-9.94.22-14.91,0-.55,0-1.2-.58-1.52a1.39,1.39,0,0,0-1.81.58c-1.46,1.91-3.72,2.69-5.54,4.08-3.28,2.51-7.11,3.12-11.05,3.53a9.79,9.79,0,0,1-7.87-2.87c-.34-.31-.64-.67-1-1-2-1.72-2.76-1.58-3.75.83-1.75,4.24-3.43,8.51-5.14,12.77-.06-3.32-.51-6.64,1.1-9.85.69-1.38.06-3.17.72-4.74A4.46,4.46,0,0,1,41.75,32c3.33,1.3,3.36,1.31,4.73-1.91.49-1.16.66-2.44,2.33-2.62,2.22-.24,3,.26,3.55,2.57s.67,2.24,2.93,1.28c2.69-1.14,5.44-2.34,8.45-.72a2.84,2.84,0,0,0,3.54-.43c1.28-1.35,2.83-1.37,4.47-1.33a21.18,21.18,0,0,0,3.12-.06c1.13-.14,3-2.1,2.59-2.73-.68-1-.53-3-2.57-2.76a4.11,4.11,0,0,1-3.64-1.6,3.23,3.23,0,0,0-4.65-.47,3,3,0,0,1-2.95.38c-2.69-1-5.3-.28-7.71.77-1.23.53-2,.68-3.08-.1s-2.25-.3-3.39-.39c-1.8-.15-3.58.2-5.41-.71a4.79,4.79,0,0,0-4.28.56,3.22,3.22,0,0,1-2.9.48c-3.33-1-6.09.21-8.54,2.46-1.27,1.17-2.3,2.61-3.82,3.51a.5.5,0,0,1-.24-.54q.09-.29.19-.29c1.7-3.6,7.08-7.46,10.8-7.42,3.43,0,6.79-.57,10.28-.31a24.78,24.78,0,0,0,9.16-1.27c3.55-1.13,7.36-.83,11-.38s7,1.07,10.46-.62c2.37-1.15,5.1.23,6.22,2.88s3.2,5,4.62,7.52c2.29,4.07,5.09,8.14,3.92,13.52a20.09,20.09,0,0,0,1.17,12.59c1.48,3.33,1.69,6.95,1.89,10.48.27,5,.06,9.95.05,14.92a8.35,8.35,0,0,1,0,1.39c-.4,2.37-2.05,3-3.91,1.48A22.09,22.09,0,0,1,88.41,80.47Z" fill="#f8a791"/><path d="M24.49,27.4l.05.83c-2.47,3-2.68,7.05-5.17,10.09-1,1.17-.95,3.29-1,5S19,46.14,21.11,46c1.28-.09,1.87,1.28.88,1.93-2.9,1.9-2,4.49-.77,6.36,1.57,2.39.45,4.35.11,6.49-.08.53-.71,1-.83,1.49-.25,1.13-.43,2.39.77,3.14s2.16.28,3.15-.54,1.24-2,2.34-2.5c-.44,2.08-.86,4.12-3.63,4.32-.94.07-1.56.89-2.06,1.72A7.8,7.8,0,0,1,19.82,70a2.11,2.11,0,0,1-2.57.35A1.75,1.75,0,0,1,16.42,68a1.78,1.78,0,0,0,0-1.86c-1.12.59-2.35,1.54-3.68.94a51.57,51.57,0,0,1-5.11-2.8c-.52-.31-.51-1-.51-1.59a3.49,3.49,0,0,0-.59-2.63,2.05,2.05,0,0,1,0-3.08,1.37,1.37,0,0,0,.36-1.58C5.64,53,7.1,51.52,8.69,50c.93-.87,1.74-1.86,2.65-2.76s1.83-1.87.15-3c-1.14-.78-.89-1.76-.06-2.65.63-.68,1.27-1.36,2-2,1.45-1.28,2.62-2.5,1.55-4.73-.59-1.22.37-2.08,1.5-2.72C19.15,30.65,21.81,29,24.49,27.4Z" fill="#f8a792"/><path d="M45.76,70.77a8.14,8.14,0,0,1-3.7-.75c-3.06-1.44-3.69-2.52-2.38-5.7.53-1.29-.27-3,1-3.77,1.44-.83,2.36,1.06,3.69,1.37a9.56,9.56,0,0,0,5.44,0,40.58,40.58,0,0,1,4-1.28c2.43-.56,3.68.64,3.49,3.18a5.55,5.55,0,0,1-3.47,5.13A21.79,21.79,0,0,1,45.76,70.77Z" fill="#6d93c0"/><path d="M60.7,45.51A11.38,11.38,0,0,1,66.91,47a3.32,3.32,0,0,1,1.9,3.73c-.36,1.6-.86,3.14-2.89,3.43a14.83,14.83,0,0,0-2.68.68c-1.69.57-3.13.59-4.18-1.19A5.51,5.51,0,0,0,57.5,52.3a3.7,3.7,0,0,1-1.57-3.93c.32-1.59,1.67-2.12,3-2.57A7.33,7.33,0,0,1,60.7,45.51Z" fill="#6a8db8"/><path d="M45.6,51.13a12.32,12.32,0,0,1-5.92-1.65A3.85,3.85,0,0,1,37.8,45c.54-1.74,1.92-2,3.53-2.19A13.89,13.89,0,0,1,50,44.6c1.82,1.09,2,2,.8,3.66S48.06,51.46,45.6,51.13Z" fill="#5c81b0"/><path d="M46.64,68c-1.87.07-3.12-.05-4.07-1.09a1.67,1.67,0,0,1-.25-2.2,1.31,1.31,0,0,1,1.8-.51,8.29,8.29,0,0,0,7.62-.25c.64-.33,1.43-.43,1.77.37a1.46,1.46,0,0,1-.82,2A20.51,20.51,0,0,1,46.64,68Z" fill="#e6e6f0"/><path d="M61.41,47.72a8.11,8.11,0,0,1,1.5.21c1.51.47,2.83,2.06,2.37,2.93-.78,1.49-2.17.89-3.37.77a8,8,0,0,1-1.3-.45c-1.07-.31-2-.79-1.83-2.09S60.19,47.8,61.41,47.72Z" fill="#deb0ad"/><path d="M43.2,45a6.75,6.75,0,0,1,2.64.68c.79.28,1.54.74,1.3,1.71a1.6,1.6,0,0,1-1.61,1.06,4.83,4.83,0,0,1-3.83-1.13c-.42-.37-1.06-.64-.85-1.31A1.45,1.45,0,0,1,42.18,45C42.52,45,42.86,45,43.2,45Z" fill="#cc9ea0"/></svg>