<svg id="Layer_1" data-name="Layer 1" xmlns="http://www.w3.org/2000/svg" viewBox="0 0 100 100"><title>f</title><path d="M59.91,15.05l1,.63c1.23,1.66.17,2.71-.94,3.84-1.36,1.39-3.2,2.55-2.74,5-.14-1.6.31-2.93,2.06-3.05s3.86-.86,5,1.6c.92,1.93,5.23,4.12,6.7,3.7a6.28,6.28,0,0,1,2.76-2.1c1.07-.14,2.27-.33,2.8.85s-.43,2.13-1.26,2.94c-2,1.94-2,1.95.4,3.6,1.93,1.34,2.06,2.54.29,4.15A2.2,2.2,0,0,0,75.24,38c0,.83-.06,1.65-1.06,1.89A1.89,1.89,0,0,1,72,39.19C70.7,36.64,67.89,36.33,65.8,35c-2.4-1.57-4.72-.89-6.66,1.13a3.93,3.93,0,0,1-.69.33c-.32.13-.67.18-1,.28-1,.3-1.37,1.86-2.6,1.41s-.66-1.62-.86-2.51-1-.52-1.53-.6c-1.77,0-3,.5-3.07,2.56-1,2.46-1.33,2.54-3.91,1A2.85,2.85,0,0,0,43,39.73c-2.21,2.5-5,2.37-7.79,1.56A17.86,17.86,0,0,0,32.65,41c-2.7-.41-5.4.57-8.07-.17-1.21-.34-2.23.31-3.28.72-3.89,1.55-7.18-.65-7.19-4.81a8.29,8.29,0,0,1,1.84-5.66,4.06,4.06,0,0,0,.88-1.6c.35-1.28,1-2.24,2.57-2.17,1.22.05,1.7-1.18,2.63-1.64l.19-.19c2.22-2,4-4.45,6.06-6.53,1.35-1.35,2.76-.62,3.37,1.25.16.49,0,1.09.52,1.47,1.08-.15,1.25-1.11,1.6-1.88a6.47,6.47,0,0,1,5-3.58c1-.22,2-.15,2.38,1.06.49,1.8,1.39,1.11,2.33.5a4.89,4.89,0,0,0,.41-.33c4.09-3.35,4.51-3.23,6.18,1.8.48,1.43,1.52,1.69,2.86.6a19.62,19.62,0,0,0,2.94-3.4C56.89,15.09,58.12,14.3,59.91,15.05Z" fill="#eca1c7"/><path d="M71.58,27.25c-1.94,1.44-2.24,1.49-3.63-.19a4.28,4.28,0,0,0-3-1.92c-.95-.08-1.33-.79-1.33-1.68,0-1.18-.66-1.51-1.7-1.46-.53,0-1.06,0-1.59,0-2.5.06-2.64.25-1.83,2.69a1,1,0,0,1-.23,1.17c-.53.44-1,.14-1.39-.23a2,2,0,0,1-.53-2.41A8.62,8.62,0,0,1,59.46,19a3.16,3.16,0,0,0,1.47-3.36,12.34,12.34,0,0,1,2.72,1,8.25,8.25,0,0,0,5.72,1.59,2,2,0,0,1,1.71.62,3.68,3.68,0,0,0,3.15,1.61,1.13,1.13,0,0,1,.87.54c.92,2,2.92,2,4.66,2.49,2.08.56,2.31.75,2.52,2.79.18,1.74.6,3.18,2.29,4.18s2.31,2.68,1.73,4.81C85,40,84.66,38.72,88.78,42c.11.09.33,0,.5,0a.73.73,0,0,0,.4-.63c.13-1-.08-2.28,1.66-2,2,.28,2.3.47,2.07,2.57a53.22,53.22,0,0,0-.54,7.4,4.44,4.44,0,0,0,.87,3c2,2.19,1.23,4.51.29,6.7a25.52,25.52,0,0,1-2.72,4.22,2.07,2.07,0,0,1-1.56.92c-1-2.23,0-4.49-.07-6.74-.06-1.13.2-2.29-.83-3.32-1.05.8-2.21,2.32-3.48.55-1.06-1.48-.65-3,.62-4.32.77-.81,2.62-1.56,1.49-2.85-.92-1-2.75.18-3.22.92C82.49,51.21,78.58,53,80,57.54c.95,3-1.2,4.9-4.39,4.46a6.19,6.19,0,0,1-1.29-.3c-1.82-.67-2.81,0-3.13,1.86-3.34-.21-3.5-3.09-4.39-5.49-.73,1.72.13,3.56-1,5-1,.45-2.06.1-3.09,0a8.6,8.6,0,0,0-2-.19c-2.56.22-2.94.91-1.76,3.22a37.33,37.33,0,0,0-3.55,6,2,2,0,0,1-1.89,1.25c-1.28-.14-1.86.83-2.71,1.39a11.61,11.61,0,0,1-1-4.83c.65-2.75,1.88-5.26,2-8.28.05-2.07,2.12-4.1,3.33-6.12h0c1.36-1.65,3.27-3,2.87-5.58,3.35,1.67,6.86-.37,10.25.44a2.86,2.86,0,0,0,2.22-.69c.67-.44,1.48-1.14,2.16-.83C75,50,76,48.71,77,46.85c.56-1,1.79-1,2.88-.86.58.06,1.42.29,1.35-.7s.07-2.21-.76-3-1.34-.11-1.81.42a18.82,18.82,0,0,1-3.43,2.91,4.38,4.38,0,0,1-3.24.93,7.75,7.75,0,0,0-4.17.36c-1.89.73-3.18-.47-4.48-1.77-.88.86-.45,1.93-.76,2.78-.46,1.24-1.14,1.81-2.36.83-1-.83-2.38-1.51-2.66-2.86-.36-1.78-1.61-2.28-3-3-1.83-.93-2.6-.3-3,1.43-1.79.41-2.54-.9-3.38-2.06-1.41-.87-1.56-2.63-2.66-3.73.26,0,.52.06.77.13,2.19.55,2.19.56,2.46-1.75.7-.52,1.07-.08,1.44.46s.15,1.65,1.21,1.25a2.15,2.15,0,0,0,1.26-2.1c0-.76-.6-1.47-.2-2.26.92.05,2.05-.28,2.44.92.25.77-.7,1.63.11,2.6,1.11-.59,1.67-2.31,3.32-1.92.35,1.36-.84,2.26-1,3.46-.1.6-.44,1.23.07,1.76s1.16.33,1.74.13c2.17-.75,3.69-2.42,5.26-3.95.78-.76.29-1.48-.73-1.67a4.87,4.87,0,0,0-2.34.34c-.83.25-1.68.72-2.45-.13,1.91-3.24,5.34-2.88,8-1.13a5,5,0,0,0,2.82,1.23c1,0,1.51.79,2,1.59A3.43,3.43,0,0,0,72.68,39c.53.32,1.1.75,1.71.34s.26-.92.12-1.44c-.36-1.35-.45-2.45,1.58-2.4.88,0,1-.94.57-1.62a3.65,3.65,0,0,0-2.49-1.78c-1.69-.3-2-1.74-.8-3,.55-.56,1.29-.92,1.88-1.44s1.23-1,1-1.73c-.29-1.07-1.31-.6-2-.72a4.13,4.13,0,0,0-.53,0c-.39-.4-.16-1.33-1-1.31-.58,0-.76.65-.84,1.14A5.56,5.56,0,0,0,71.58,27.25Z" fill="#ebb4d3"/><path d="M62.55,62.5a5,5,0,0,1,3.13.56c.81.11,1,.88,1.49,1.36,1.55,1.58,2.92,1.27,3.89-.84-.5-3.31.08-3.78,3.46-2.62a6.25,6.25,0,0,0,2,.48c2,0,3.14-1.08,3-3.1a5.81,5.81,0,0,0-.53-2,3,3,0,0,1,1.21-4.15,4.19,4.19,0,0,0,2.05-3.2c.06-.57.37-1.15.9-1.19a7.53,7.53,0,0,0,3.1-1.4,1.71,1.71,0,0,1,2.36.44c.74.82.2,1.5-.2,2.16a4.92,4.92,0,0,1-1.91,1.81c-1.33.69-1.13,1.88-1,3a1.22,1.22,0,0,0,1,1.12c.65.15,1-.26,1.22-.76a7.71,7.71,0,0,1,.53-1.21c.5-.69,1.1-.65,1.35.17.47,1.53,1.18,2.89.77,4.76s-.23,4.2-.65,6.29c-1.83,2.27-2,4.85-1.31,7.54a7.73,7.73,0,0,1-.64,5.67c-1.14,2.16-2.6,3.81-5.42,3.3-1.7-.31-2.84.57-3.77,1.92a8.91,8.91,0,0,1-6.15,4.14c-2.16.35-4.28,1-6.43,1.57-4.47,1.1-8.16-.58-11.7-2.94a5.12,5.12,0,0,1-2.17-3.27,56,56,0,0,1-1.35-7.28,4.16,4.16,0,0,1,.76-2c.25-.39.68-.76,1.08-.42,1.35,1.16,1.83,0,2.41-.84a3.45,3.45,0,0,0,.69-1.42c.21-2,1.51-3,3.1-3.88C59.64,64.58,61.78,64.2,62.55,62.5Z" fill="#eca1c7"/><path d="M5,72.71a11.93,11.93,0,0,1,.29-2.36c.37-1.87,1.14-3.73.33-5.7a2.9,2.9,0,0,1,0-1.84c1.21-3.76,1.82-7.72,3.66-11.28a2.68,2.68,0,0,1,1-1.22,4,4,0,0,0,2.34-3.56A2.42,2.42,0,0,1,15,44.63c1.18-.15,1.34,1,1.81,1.88,1.67,3.1.63,6.21.3,9.32a7.7,7.7,0,0,0-.28,1.29c.27,3.35-.83,6.45-1.68,9.6A7.6,7.6,0,0,0,15,70.6a12,12,0,0,1-1.09,7.5A3.61,3.61,0,0,1,8.1,79.19,8.4,8.4,0,0,1,5,72.71Z" fill="#eca8cb"/><path d="M59.91,15.05a3.64,3.64,0,0,0-3.57,1.82c-.81,1.15-1.69,2.26-2.55,3.38a3.33,3.33,0,0,1-2,1.16c-1.58.33-2.33-.23-2.5-1.84,0-.44,0-.89,0-1.33-.16-1-.37-2.12-1.4-2.36A2.39,2.39,0,0,0,45.31,17a6.54,6.54,0,0,1-3.13,2.38c-1.34.55-1.73.29-1.72-1.12s-.24-1.84-1.52-1.44c-2.1.66-4.35,1.22-4.71,4-.11.84-.84,1.32-1.45,1.83a1.18,1.18,0,0,1-1.47.14,1,1,0,0,1-.42-1.37c.35-1,.45-2-.72-2.48-.72-.32-2.83,1-3.19,2a1.16,1.16,0,0,0-.09.52c.26,2.16-.83,2.88-2.83,2.73-1.08-.08-1.29,1.11-2,1.53,0-.53.07-1.07,0-1.6a4.9,4.9,0,0,1,3-4.9c1.33-.67,2.3-1.41,2.42-3.14s1.31-2.46,3.07-1.92c2.07.63,4.25.09,6.29.86a2.14,2.14,0,0,0,2.2-.63A19.86,19.86,0,0,1,40.94,13a4.94,4.94,0,0,1,6.17-.18,1.81,1.81,0,0,0,2.59,0c1-.92,2.46-1,3.72-1.31a3.24,3.24,0,0,1,3.3,1.28A12.91,12.91,0,0,0,59.91,15.05Z" fill="#efc2db"/><path d="M22.11,52.48c2.72-.9,5.39-1.05,7.92.59a2.47,2.47,0,0,0,2.74-.17,10,10,0,0,1,7.49-.64,7,7,0,0,1,2.59,1.32c2.32,1.84,1.89,4.83-.93,5.79-3,1-6,1-8.51-1.2-1.13-1-1.74-.86-2.8.05-1.68,1.44-3.78,1.29-5.84,1-1-2,.67-1.91,1.72-2.33.56-.23,1.42-.29,1.4-1,0-.9-1-.9-1.63-1-1.33-.19-2.63.41-4,.26s-2.7-.21-1.78-2.17h0C20.94,52.39,21.64,52.82,22.11,52.48Z" fill="#6589bc"/><path d="M33.25,74.76c-2.23.28-4-.78-5.76-1.83a3.94,3.94,0,0,1-1.73-3.69c.09-2.24.92-2.83,3-2a11.31,11.31,0,0,0,6.79.3c1.33-.29,2.66-.6,3.6.79s.42,2.53-.26,3.74C37.61,74.28,35.54,74.8,33.25,74.76Z" fill="#7197c3"/><path d="M57.74,50.26c.88,1,1.34,2-.1,3.06-.92.66-1.5,1.73-2.57,2.24,0-1,.82-1.5,1.37-2.17,1.11-1.33.9-2-.7-2.8a6.35,6.35,0,0,0-2.86-.35A8.16,8.16,0,0,1,48.37,49c-2.18-1.41-2.46-3.78-.82-5.84.22-.27.4-.58.6-.86,1.31.35,2.12,1.46,3.24,2.1.88-.27,1.33.37,1.71.92A28,28,0,0,0,57.74,50.26Z" fill="#efc8df"/><path d="M55.08,55.56c-.72,1.85-.93,3.94-2.57,5.33-.52.44-.28.89-.24,1.41.15,2.58-.89,4.89-1.85,7.2-.09.21-.41.32-.62.47a8.5,8.5,0,0,1,1.08-5.08,1.75,1.75,0,0,0-.46-2.54,17.79,17.79,0,0,1-3.18-3.88,4.2,4.2,0,0,1-.62-3,.87.87,0,0,1,1.56-.49A5.21,5.21,0,0,1,49,56.26,12.39,12.39,0,0,0,49.74,58c1.21,1.76,2.27,1.8,3.34,0A5,5,0,0,1,55.08,55.56Z" fill="#efc8df"/><path d="M20.52,53c-.08.91.12,1.64,1.23,1.55a20.84,20.84,0,0,0,2.61-.38,7.12,7.12,0,0,1,3.9.35c.52.19,1,.38,1.14,1,.18.78-.45,1-.9,1.45a3.66,3.66,0,0,1-2.7.86c-1,0-1.13.64-1,1.44-2.19-.2-3.4-1.7-4.39-3.41C19.86,54.9,19.45,53.87,20.52,53Z" fill="#c9b2d3"/><path d="M22.11,52.48a1.9,1.9,0,0,1-1.56.49C20.89,52.25,21.51,52.39,22.11,52.48Z" fill="#c9b2d3"/><path d="M58.81,35.81a3.8,3.8,0,0,0,2.51-.66,4.75,4.75,0,0,1,2.85-.33c1.5.18,2.23,1.68,1.14,2.64-2,1.73-3.72,3.79-6.33,4.65a3.38,3.38,0,0,1-.51.12c-2,.32-2.63-.37-2.13-2.36a9.91,9.91,0,0,1,2-4A4,4,0,0,0,58.81,35.81Z" fill="#faeff6"/><path d="M52.43,34.26c1.56,2.44,1.44,3.45-.63,5.14-1.26,1-1.78.87-2-.71-.11-.78,0-1.64-1.07-1.78C49.17,34.69,49.48,34.47,52.43,34.26Z" fill="#efc8df"/><path d="M71.58,27.25c-.84-.93-.56-2-.26-3,.39-1.29,1.28-1.93,2.08-1.53,1.29.63.8,1.56.31,2.46A6.89,6.89,0,0,0,71.58,27.25Z" fill="#f7f4f9"/><path d="M57.74,50.26a5.4,5.4,0,0,1-3.59-2.44,18.05,18.05,0,0,0-2.77-3.45A5.55,5.55,0,0,1,51,43.08a1.59,1.59,0,0,1,2.28-1.6A12.13,12.13,0,0,0,57,43c.58.14,1.29.72,1.11,1.33-.56,1.88.8,2.48,1.92,3.3.48.35.91.78,1.41,1.22,1-1,.48-2.24.61-3.33.07-.6-.1-1.33.69-1.54a1.21,1.21,0,0,1,1.36.65c1.21,2.3,2.9,2.25,4.88,1.11a2.61,2.61,0,0,1,2.31,0A3.49,3.49,0,0,0,75,45c1.1-1,2.57-1.56,3.3-3a1.79,1.79,0,0,1,2.23-1,2.09,2.09,0,0,1,1.24,2.17,4.26,4.26,0,0,0,.46,2.57c.62,1-.1,1.24-.89,1.32a3.72,3.72,0,0,1-1-.16c-2.42-.48-3.23,0-3.85,2.26-.5,1.84-.57,1.95-2.09.93a2.5,2.5,0,0,0-3.56.29,2.56,2.56,0,0,1-2.87.87c-2.18-.92-4.24-.14-6.2.45-1.08.33-1.64.35-2.16-.55A1.67,1.67,0,0,0,57.74,50.26Z" fill="#eca1c7"/><path d="M71.07,63.57c1.07,1.78,1.07,1.78-.75,2.27-2.62.71-3.27.32-4.63-2.79.07-1.66.09-3.33.23-5a8,8,0,0,1,.69-1.86,2.69,2.69,0,0,1,1.19,2.28C67.89,60.88,69.28,62.33,71.07,63.57Z" fill="#f7e3ee"/><path d="M72.9,57.7c-2.26,0-2.37-.11-2.37-2.37a4.8,4.8,0,0,1,.62-2.53c1-1.68,1.86-1.8,3.32-.48a4.1,4.1,0,0,1,.56.56c.6.8,1.93,1.19,1.67,2.48S74.4,57.68,72.9,57.7Z" fill="#faeaf2"/><path d="M62.55,62.5A2.2,2.2,0,0,1,61,65.17a21,21,0,0,0-2.12,1.1c-1.36-.15-1.72-1-1.62-2.24s1-1.5,2-1.56S61.46,61.61,62.55,62.5Z" fill="#efc8df"/><path d="M53,69.43a4.29,4.29,0,0,1,.14-1.14c.23-.63.39-1.53,1.3-1.39s1.16,1,1.14,1.82A3.26,3.26,0,0,1,55,70.16c-.3.51-.64,1.2-1.36,1S53,70.2,53,69.43Z" fill="#efc8df"/><path d="M72.64,77.17c0-.55,0-.93-.43-1.08s-.67.11-.92.35c-.45.43-.86.9-1.32,1.31s-.78.9-1.32.36a1.67,1.67,0,0,1,.23-1.94,13.66,13.66,0,0,0,3.81-6.55,1.47,1.47,0,0,1,1.79-1.19,1.42,1.42,0,0,1,1.35,1.66c-.14,2.21,1,4.08,1.59,6.09.65,2.16.69,2.42-1.31,3.21-1.07.42-1.91.63-1.54,2.18.22.92-.75,1.52-1.69,1.69-1.18.21-1.95-.69-1.3-1.69C72.51,80.1,71.82,78.38,72.64,77.17Z" fill="#f6e0ed"/><path d="M65.92,72.11c-1.51,0-2.52-1.74-1.58-3.48A1,1,0,0,1,65.4,68a30.75,30.75,0,0,1,3.78,1.1c.86.33.86,1,.22,1.68A4.48,4.48,0,0,1,65.92,72.11Z" fill="#f8e6f0"/><path d="M14,55.68l-1,1.18c-.57.71-.71,1.22.18,1.95a2.27,2.27,0,0,1-.08,3.75A4.31,4.31,0,0,0,11.26,65c-.32,1.25-1.61.71-2.51.71s-1.08-.73-1.08-1.49c0-.53,0-1.06,0-1.59s.2-1.08.95-.86,1.78.52,2.31-.53A4.39,4.39,0,0,0,11,57.14c-.26-.54-.79-.95-1.07-1.48a1.06,1.06,0,0,1,.27-1.21.79.79,0,0,1,1.17-.16C12,54.92,13,55,14,55.68Z" fill="#f9e8f1"/><path d="M37.74,54a4.42,4.42,0,0,1,3.23.69,1.46,1.46,0,0,1-.26,2.7,7.69,7.69,0,0,1-4.93.08c-1.07-.29-1.24-1.51-1.24-2.43s1-1,1.82-1C36.8,54,37.24,54,37.74,54Z" fill="#dfafd1"/><path d="M32.31,70.06c1.05-.08,2.11-.11,3.15-.26.56-.08,1.05-.21,1.34.42a1.33,1.33,0,0,1-.32,1.45,4.89,4.89,0,0,1-3.27,1.53c-1.7.27-3-.72-4.37-1.56a1,1,0,0,1-.29-1.19c.13-.42.5-.47.84-.48,1,0,1.94,0,2.91,0Z" fill="#eae9f5"/></svg>