<svg id="Layer_1" data-name="Layer 1" xmlns="http://www.w3.org/2000/svg" viewBox="0 0 100 100"><title>f</title><path d="M29.57,55.66c-1.5,4.53-2.22,9.34-4.78,13.49-2.81-.07-4.73,1.6-6.67,3.32-1,.89-1.72,2.45-3.52,1.91-1-1-1.2-2.66-2.75-3.35-.19,2,1.75,2.22,2.65,3.25.53.53,1.4.71,1.61,1.57a6.14,6.14,0,0,1-8.43-2.66A9.37,9.37,0,0,1,6.9,67,146.19,146.19,0,0,1,17.42,35.3c1.17-2.53,1.82-5.31,3.78-7.42a34.68,34.68,0,0,1,10.55-7.6c7.21-3.45,15-5,22.82-6.16a14,14,0,0,1,4.35.14,8.84,8.84,0,0,0,3,.23c3.13-.59,6.2.09,9.3.12a25.85,25.85,0,0,1,11.23,3.06c7.1,3.49,10.08,9.81,10.74,17.39.57,6.44-1,12.64-2.09,18.91A63.81,63.81,0,0,1,85.81,70.8c-1.2,2.47-2,5.17-3.1,7.74a12.32,12.32,0,0,1-8.93,7.29c-.6-1.4-3.18-1-3-2.78.41-3.69-2-7.38.19-11.07.63-1.07,2.08-3,.23-3.64-1.6-.52-1.5,1.94-2.1,3.15-1.64,3.34-.77,7.26-2.54,10.58-.67,1.26,1.74,1.74,1.14,3.17a4,4,0,0,1-3.1-1c-3.19-2.9-4.6-8.77-2.56-12.64,4-7.5,6.09-15.56,7.93-23.74a50.93,50.93,0,0,0,1-12.66,3.56,3.56,0,0,0-1-2.77c-1.16,0-1.25,1.07-1.65,1.79-4.2,7.68-6.8,9.12-16.76,8.51-3.32-.21-6.84-.38-10-2.32-1.56-1-2.5-2.44-4.1-3.59a42.13,42.13,0,0,0-4.73,9.26c-.56,1.45-.77,3-1.86,4.27-1.38-1.16-1.09-2.68-.56-4A74.31,74.31,0,0,1,34.65,37a8.83,8.83,0,0,1,8.84-4.79,5.43,5.43,0,0,0,5.3-2.75c1.46-2.25,3.56-4,4.81-6.43.3-.58.78-1.26.33-1.87s-1.27-.34-1.81,0c-2.15,1.39-4.59,1.47-7,1.93-3.2.61-5.66,2.94-7.76,5.29-1.86,2.09-3.72,3.76-6.62,4.08a7,7,0,0,0-5.61,3.14c-2.38,3.67-2.43,3.95,1.16,6.07a36.22,36.22,0,0,1-3.21,10.06c-1.33-1.09-2.28-1-2.92.77-.42,1.15-1.16,2.18-1.53,3.35-1.34,4.24-2.38,8.56-3.87,12.76,1.34.55,1.84-.24,2.32-1S17.8,66.2,18.67,66c4.13-1,5.62-4.68,7.76-7.67C27.27,57.14,27.32,55.15,29.57,55.66Z" fill="#a0d082"/><path d="M26,41.46c-1.21.34-2.36.62-3.26-.69a2.9,2.9,0,0,1,.27-3.7c.88-1.15,1.72-2.31,2.48-3.55,1.08-1.75,3.21-1.83,4.8-1.87,2.56-.05,4.06-1.5,5.77-2.89.48-.39.83-.82.67-1.4-.41-1.44,0-1.82,1.47-1.46,1.3.31,2-.82,2.71-1.64A5.75,5.75,0,0,1,46.46,22a5.29,5.29,0,0,0,4.36-1.22,10,10,0,0,1,2.07-1.08,1.74,1.74,0,0,1,2.17.17c.8.78.47,1.51,0,2.4-1.83,3.75-4.95,6.51-7.33,9.84a2.63,2.63,0,0,1-3,1.13c-1.42-.61-2.62.18-3.89.13-2.21-.1-3.29,1.09-4.56,2.7-2.55,3.23-3.55,7.16-5.36,10.7-.55,1.09-.22,2.42-.1,3.64a18.07,18.07,0,0,1-1.33,5.24A2.79,2.79,0,0,0,27.5,58,5,5,0,0,1,26,61c-1.4,1.66-3.4,2.79-4.12,5.06a1.43,1.43,0,0,1-1.67.86c-1.48-.47-2-.17-2.47,1.49-.53,2-1.12,2-4.8.93C15.52,66,15.89,61.81,17.05,58c.75-2.49,2-4.69,2.91-7.09.39-1.07,1-1.94,2.13-1.62s.44,1.56.66,2.37c.6.39.51,1.21,1.06,1.7,1.13-.68,2-1.79,1.55-3-.89-2.51.31-4.29,1.61-6.1C28.08,42.78,27.66,41.92,26,41.46Z" fill="#89c466"/><path d="M59.79,57.2a9,9,0,0,1-7-2.56c-1.24-1.27-2.2-1.55-3.89-.19-3.73,3-11.45,1.42-14-2.55-1.17-1.79-.67-3.23,1.33-3.82,3.1-.91,6.33-2.26,9.4-.52,3.25,1.83,6.14,2.57,9.77.8,1.86-.91,4.34-.2,6.54.51,2.37.76,3.23,2.62,4,4.58.51,1.28-.71,3-2.44,3.39A26.07,26.07,0,0,1,59.79,57.2Z" fill="#618cb4"/><path d="M36.23,69.36c0-2.63,2.22-4.31,4.5-3,2.75,1.63,4.95,1.32,7.3-.55,1.51-1.19,3.42-1.05,5.17-.82a2.82,2.82,0,0,1,2,4.37,8,8,0,0,1-4.27,4.05c-2.1.69-4.2,1.32-6.27,2.16C41.64,76.82,36.25,72.59,36.23,69.36Z" fill="#6990bf"/><path d="M67.72,85.25c-.81-1.18-2.51-1.52-3-3.3,3.19-.92,1.78-3.81,2.24-5.88.53-2.38,1.55-4.61,1.86-7a4,4,0,0,1,1-1.69,1.53,1.53,0,0,1,2-.55,1.92,1.92,0,0,1,1.23,1.8,4.69,4.69,0,0,1-.87,2.83c-1.07,1.55-1,3.38-1.49,5.08-.09.3-.18.81,0,.95,2,1.76,1.08,3.83.6,5.49.46,1.59,4-.14,2.44,2.91C71.73,86,69.66,86.32,67.72,85.25Z" fill="#87c261"/><path d="M16.11,75.85c-.84-.12-1.42-.49-1.46-1.43h0a13.57,13.57,0,0,0,3.46-3.14,16.36,16.36,0,0,1,5.44-3.23c.95-.43,1.05.47,1.24,1.09A9.89,9.89,0,0,1,16.11,75.85Z" fill="#89c466"/><path d="M70.44,53c-.06-2-.25-3.84,1.38-5.18a2.28,2.28,0,0,0,.62-1.85c0-1.84.07-3.64,2.69-3.58.3,0,.93-.76.86-.88-1-1.9.55-2.59,1.52-3.65A1,1,0,0,0,77,36.2a1.68,1.68,0,0,1-1-2.45c.68-1.52,1.17-3.09,1.75-4.63a1.22,1.22,0,0,1,1.58-.87,1.67,1.67,0,0,1,1.17,1.48A5.62,5.62,0,0,1,80,32a1.43,1.43,0,0,0,.7,1.72c.77.41,1.25-.1,1.65-.67.62-.87,1.19-2.47,2.35-1.79s.42,2.22,0,3.35c-.77,2-1.55,3.91-2.38,5.85a2.06,2.06,0,0,1-.83,1c-4.11,2-4.42,6.4-6,9.9-.51,1.1-1.42,3.27,1.18,3.93.64.16.52.91.54,1.45.08,2-.93,3.63-2,5.2a1.14,1.14,0,0,1-1.12.59,1,1,0,0,1-.77-1c.26-2.24-.88-3.77-2.31-5.29C70,55.3,70.57,53.91,70.44,53Z" fill="#83c05c"/><path d="M26,41.46c1-.48,2-.93,3.23-.2-.05,2.15-1.77,3.48-2.64,5.22-.38.76-1,1.33-.73,2.41,1,3.27.52,4.16-2.88,6.26-.71-1.16-.23-2.36-.21-3.53A39.35,39.35,0,0,1,26,41.46Z" fill="#deefda"/><path d="M78.52,75.75c0,.57.14,1.07.82,1.27s2.15-.79,1.63,1c-.37,1.26-.33,3.06-2.37,3.12-1.17,0-2.5-.36-2.88-1.31-.76-1.9-1.52-3.91-1.12-6a1.78,1.78,0,0,1,1.51-1.58c.83,0,1.32.75,1.57,1.51s0,1.58.85,2Z" fill="#87c261"/><path d="M78.53,75.75a11.44,11.44,0,0,1,1-6.44,1.45,1.45,0,0,1,1.6-.89,1.43,1.43,0,0,1,1.28,1.65A12.61,12.61,0,0,1,80,75.82c-.42.57-1,.09-1.5-.07Z" fill="#e4eddf"/><path d="M35.38,21.94c-.21,3.38-2.12,4.92-4,6.44-.48.39-1.09.16-1.24-.57a3.21,3.21,0,0,1,1.07-3.32A16.89,16.89,0,0,1,35.38,21.94Z" fill="#e0eedf"/><path d="M14.65,74.43c-3.53-.56-4.07-1.22-3.83-4.88,2.2,1,4.47,1.75,3.83,4.89Z" fill="#e2ece0"/><path d="M42.9,54.32a6.92,6.92,0,0,1-4.58-1.85c-1.5-1.27-.92-2.9.95-3.66a5.74,5.74,0,0,1,5.63.78c.84.53,1.91,1,1.76,2.17S45.57,53.38,44.77,54A3.2,3.2,0,0,1,42.9,54.32Z" fill="#9bc39c"/><path d="M58.86,55.62a6.29,6.29,0,0,1-4.69-3.2c-.34-.86.22-1.27.75-1.63,1.76-1.2,6.19-.06,7.23,1.87.48.9.41,1.79-.64,2.23A5.82,5.82,0,0,1,58.86,55.62Z" fill="#aacfa5"/><path d="M43.39,73.5c-2,0-3.64-1.13-3.94-2.72-.24-1.27.39-2,1.64-1.52a9.54,9.54,0,0,0,8.61-.86c.56-.34,1.24-.78,1.75,0s-.11,1.23-.55,1.74C49,72.36,46.37,73.19,43.39,73.5Z" fill="#e1e4ef"/></svg>