<svg id="Layer_1" data-name="Layer 1" xmlns="http://www.w3.org/2000/svg" viewBox="0 0 100 100"><title>f</title><path d="M32.85,55.23a19.18,19.18,0,0,1-3.85,10,2,2,0,0,0-.24,2.61c.78,1.28,1.48,2.58,2.34,3.82,1.76,2.55,2.8,5.27,1.61,8.46-1.25,3.36-6.06,6.68-9.61,6.5A7.57,7.57,0,0,1,16,79.91c-.35-3.46-.19-6.91,1.62-10a3,3,0,0,0-.4-4c-2.36-2.77-3.29-6.16-3.85-9.73a34.73,34.73,0,0,1,2.43-18.85,18.38,18.38,0,0,0,.88-3.08c1-4.86,3.65-8.89,6.88-12.52a13.55,13.55,0,0,1,7.31-3.84,159,159,0,0,1,17-3.36c3-.35,6-.45,8.92-.92a26,26,0,0,1,8.63.12c5.17.91,8.88,4.17,12,7.92A38.46,38.46,0,0,1,87,45c.3,6.14-2.63,10.2-7.11,13.52-1.43,1.06-2.33,2.1-2.35,3.88a9.59,9.59,0,0,1-1,3.7c-1.54,3.57-2.9,4.44-6.67,4.1a3.75,3.75,0,0,1-3.59-4.9c.12-.52.35-1,.51-1.52.28-.89,1.22-1.64.8-2.66s-1.54-.54-2.27-.93a11.69,11.69,0,0,1-5.07-5.57,7.54,7.54,0,0,1-2.95-7.2c-.62-1.7-.68-3.75-1.91-5-1.5-1.59-3.42.09-5.17.09a36.53,36.53,0,0,1-12.91-2.07c-1.46-.54-2-.19-2.19,1.13-.42,2.42-.81,4.84-1.21,7.26C33.56,51,34.32,53.28,32.85,55.23Z" fill="#1e2b39"/><path d="M48.61,72.69A8.13,8.13,0,0,1,40.27,68a4.18,4.18,0,0,1,3.18-6.07,1.62,1.62,0,0,1,1.61.84c2,2.91,4.49,2.2,7,1,1-.46,1.84-1.07,2.9-.14a3.32,3.32,0,0,1,1,3.18C55.53,70.63,53,72.67,48.61,72.69Z" fill="#e980b3"/><path d="M57.32,47.47c.9,2.44,1.48,5,2.95,7.2-1-.22-1.54.36-2.25.86a7.7,7.7,0,0,1-9.85-1c-1.76-2-1.49-3.37.92-4.4a15.54,15.54,0,0,1,5.56-1.25A3.33,3.33,0,0,0,57.32,47.47Z" fill="#6089b6"/><path d="M32.85,55.23c.46-2.12,0-4.39,1.09-6.41l.26,2.46c.78.47,1.31,0,1.82-.31,3.58-2,6.52-.72,9.29,1.7.84.73.77,1.28.09,2.12a4.83,4.83,0,0,1-5.14,1.74c-1.86-.39-3.83-.69-5.38-1.87C33.75,53.81,33.42,54.71,32.85,55.23Z" fill="#5b83b1"/><path d="M15.48,48.86a14.1,14.1,0,0,1,.85-6.42,9.92,9.92,0,0,0,.92-4,9.85,9.85,0,0,1,2.22-7.09c1.69-2.24,2.67-4.88,4.38-7.07,1.87-2.4,3.89-4.58,7.34-4.43a2.11,2.11,0,0,0,1.5-.4c1.58-1.8,3.65-1.67,5.66-1.47,2.37.23,4.14-1.58,6.43-1.62A18.83,18.83,0,0,1,47.3,16a8.78,8.78,0,0,0,4.28-.64,6.17,6.17,0,0,1,4.37-.24,6.21,6.21,0,0,0,3.8.1c2.13-.78,3.64.76,5.47,1a1,1,0,0,1,.79.9c.07.56-.4.71-.8.83a2.61,2.61,0,0,0-1.88,1.62,6.59,6.59,0,0,1-3.15,4.24,1.43,1.43,0,0,0-.6,2,10.08,10.08,0,0,0,.78,2.09c1.92,2.54,1.33,5.29.67,8-.37,1.51-.91,3.2-3,3.16-.55,0-.67.45-1,.66-1.49,1-1.91.81-1.92-1.08,0-1.16-.4-1.41-1.27-1.1-1.68.59-3.89.07-4.74,2.56-.2.59-1.9,1-2.91.94a14.6,14.6,0,0,1-6-1.91,1.13,1.13,0,0,1-.55-1.63,1.36,1.36,0,0,1,1.94-.54c.38.19.7.49,1.08.69a1.73,1.73,0,0,0,1.84.06c.74-.51.42-1.29.38-2-.17-3-2.44-4.37-4.56-5.73a2.14,2.14,0,0,0-3.12.58,16.19,16.19,0,0,1-1.26,1.45,2.77,2.77,0,0,1-3,1c-3-.65-3.79.11-3.9,3.31a14.41,14.41,0,0,1-.82,3.66c-.85,2.86-1.29,5.94,1,8.46a2.85,2.85,0,0,1,.74,3.17,26.64,26.64,0,0,0-.66,3.77c-.29,1.79-.58,3.52-2.15,4.82-1.12.93-.83,2.33-.39,3.6a3.59,3.59,0,0,1-.1,3.1c-1.7,3-3.48,3.14-5.85.59a6.92,6.92,0,0,1-2.19-4.49,13.18,13.18,0,0,0-.88-3.07c-.35-1.13-1.58-1.88-1.56-3.12C16.18,54,14.94,51.45,15.48,48.86Z" fill="#09131e"/><path d="M53,67a4.09,4.09,0,0,1-3.45,3.69,5.4,5.4,0,0,1-5.23-1.62A1.58,1.58,0,0,1,44,67a1.14,1.14,0,0,1,1.34-.61C47.8,67.3,50.38,66.59,53,67Z" fill="#f6e7f2"/><path d="M44.82,19.47c-.16.19-.32.54-.57.65a23,23,0,0,1-5.82,1.6,1.15,1.15,0,0,1-1.3-.71c-.24-.66.27-1,.75-1.19a24.76,24.76,0,0,1,5.88-1.29A.86.86,0,0,1,44.82,19.47Z" fill="#1e2b39"/></svg>