<svg id="Layer_1" data-name="Layer 1" xmlns="http://www.w3.org/2000/svg" viewBox="0 0 100 100"><title>f</title><path d="M57.48,18.11c1.05.24,1.74-.36,2.52-.95,2.28-1.72,3.58-1.7,6.08,0a3.6,3.6,0,0,0,2.16.53,7,7,0,0,1,5.66,2.7c1.38,1.62,3.32,2.72,4.64,4.47a5.8,5.8,0,0,1,1.29,2.48c.92,1.23.15,2.36-.21,3.52s-.69,2.18.82,2.52c2.28.52,2.77,2.32,3.26,4.18C83.24,39,82,38.9,80.88,38.91A11,11,0,0,1,77,38c-4.32-1.63-4.91-3.22-2.76-7.36a5.81,5.81,0,0,0,1-3.24c-1.6,1-2.45,2.46-3.77,3.34-.78.52-1.54,1.37-2.54.62-.79-.6-.55-1.53-.4-2.39.2-1.11,1.3-2.81-.56-3-1.64-.19-1.34,1.7-1.4,2.89,0,1-.55,1.9-.26,2.83.61,1.94.57,3.31-2.06,2.86-.4-.07-.59.08-.9.39-2.11,2.17-2.18,2.18-4.28-.08-.43-.47-.75-.82-1.4-.67-3,.71-5.88-.21-8.82-.28a28,28,0,0,0-8.21,2c-1.83.68-2.85,1.75-2.67,3.77-.1,1.77-1.18,2.5-2.82,2.62-1.3-.32-2.06.55-2.86,1.32-1.66,2.29-1.19,5.36-2.87,7.67-.52.71.38,1.43,1.07,1.75a6.48,6.48,0,0,1,3.07,3.61c1.09,2.42.33,3.57-2.3,3.59-.82,0-2.15-1.15-2.4.29-.2,1.18-.76,2.61.81,3.83,2.5,1.94,2,4.85-1,8.11.82-.31,1.69-1.1,2.47-.07s0,1.6-.6,2.24c-1,3.28-3.52,5-6.39,6.47-.76.38-1.59.92-2.38.18s-.52-1.57-.35-2.43.8-1.7,1-2.66c-1.38,1.59-2.79,2.23-4.77,1-3.58-2.28-4.24-3.2-3.38-6a10.45,10.45,0,0,0,.26-5.38A7.26,7.26,0,0,1,16,59.25a4.83,4.83,0,0,1,.85-.91c.49-.43,1.18-.74,1.27-1.47.51-3.88,2.31-7.41,2.92-11.26A5.06,5.06,0,0,1,21.45,44,1.54,1.54,0,0,0,21,41.77a5.44,5.44,0,0,1-1.47-3.35c-.26-1.47.29-2.82,1.95-2.94,1.9-.14,2.69-1.45,3.83-2.62,3.15-3.24,5.25-7.21,7.94-10.78,2.75-2,5.93-2.5,9.23-2.53A9.88,9.88,0,0,0,47,17.71a2.17,2.17,0,0,1,2.11-.64C51.79,18.22,54.71,17.53,57.48,18.11Z" fill="#117e47"/><path d="M48.64,33.16a11.23,11.23,0,0,1,3.94.38,10,10,0,0,0,4.55-.13c1.33-.43,2.24-.3,2.63,1.2a1.52,1.52,0,0,0,1.66,1.28c.92-.06,1.91-.2,1.06-1.52-.28-.44-.46-.88,0-1.28.64-.62,1,0,1.42.38a2.2,2.2,0,0,0,1.23.68,1.12,1.12,0,0,0,1-.41.62.62,0,0,0-.2-1c-1.12-.56-.72-1.36-.45-2.19a4.19,4.19,0,0,0,.22-3c-.52-1.35.72-2,1.58-2.74s1.43-.24,2,.34A2.3,2.3,0,0,1,69.71,28c-.41.92-1.43,2.14-.45,2.84s1.58-.93,2.43-1.4c1.3-.71,1.86-2.15,3-3,.3-.23.59-.56,1-.42a1.08,1.08,0,0,1,.66,1.16,7.16,7.16,0,0,1-1,3.22c-2.66,4.7-2.36,5.52,2.84,7.18,1.69.54,3.43,1.34,5.15,0,1.52.46.81,1.48.6,2.37v0a8.22,8.22,0,0,0,2.3,6.11c1.5,1.51.8,2.48-.8,3.23-.66.31-2-.23-1.8,1.15.17,1.13,1.27,1.31,2.25,1.28,1.57,0,2.09.62,1.52,2.1-.39.86-.74,1.75-1.19,2.59-.65,1.23-.22,1.86,1.07,1.79,1.6-.09,2.19.9,2.6,2.14a6.87,6.87,0,0,1,.45,1.94c.15,5.86-1.42,11.11-5.54,15.44a2.85,2.85,0,0,1-2.21,1.16c-1.88-.27-3,.77-4.26,1.84-1.44,1.26-2.94,2.19-4.8.62-.79-.66-1.61-.11-2.42.16-2.91.95-3.64.67-5.37-2-.1-.16-.17-.37-.31-.48-2.95-2.17-2.67-5.71-3.68-8.7-.47-1.4.55-2.42,1.3-3.3,1.24-1.46,2.37-2.7,1.13-4.76-.55-.92,0-1.89.81-2.53a2,2,0,0,0,.58-3c-.74-1.31-1-2.67.51-3.8a1.76,1.76,0,0,0,.35-2.12c-.28-.81-.65-1.59-1-2.38a4.57,4.57,0,0,1-2.73-3.6,22.75,22.75,0,0,0-5-9c-.74-.84-1.75-.5-2.69-.5C52.63,35.39,50.2,35.48,48.64,33.16Z" fill="#20874f"/><path d="M33.33,22.75l-3.29,6c-.09.17-.12.41-.26.5C27.4,30.81,26,33.19,24.39,35.4a2,2,0,0,1-2.22.78c-1.53-.29-2.09.35-2,1.85a5.17,5.17,0,0,0,2.31,4c1.24,1,1.13,1.11-.6,1.92-.4.44-1.44.29-1.3,1.15.06.38.83.23,1.23.45A15.82,15.82,0,0,1,20.31,51,20.83,20.83,0,0,0,19,56.68a2.27,2.27,0,0,1-1.9,2.15c-.66-.57-.12-1.37-.36-2.06a1.74,1.74,0,0,0-.19,2.52,4.64,4.64,0,0,1-1,2,3.13,3.13,0,0,0-.5,3,11.21,11.21,0,0,1-.44,7.79c-.75,1.54.49,2.31,1.43,3s1.87.77,2.55,1.71c.49.69,1.4.52,2.06,0a18.62,18.62,0,0,0,1.42-1.4c.46-.45.53-1.77,1.54-1,.82.61,0,1.47-.36,2a9.56,9.56,0,0,0-1.43,3.39,1,1,0,0,0,.24,1.07c.34.28.68.12,1-.09,1.45-.91,2.88-1.87,4.39-2.67s1.42-2.9,2.87-3.78q.29.18.2.38t-.18.2c-.25.84.2,1.11.91,1.44,2.51,1.19,2.61,2.09.39,3.79-1.59,1.22-3.31,2.27-4.94,3.44a4.91,4.91,0,0,1-2.69.88c-2.76.09-5.31-1.82-8.18-1a.32.32,0,0,1-.25-.12c-1.41-1.78-2.59-3.72-4-5.52-.79-1-.53-2.62,0-3.88a2,2,0,0,0-.49-2.29c-2-2.49-2-3.48-.06-6,.4-.53.76-1.1,1.18-1.62.84-1,1.22-1.86.29-3.24-1.33-2-1-3.7.8-5.38,1.61-1.52,2.84-3.35,4.37-4.92.61-.63.84-1.19-.22-1.77-2-1.11-2.45-2.61-1.25-4.62a39.17,39.17,0,0,1,2.35-3.25,1.59,1.59,0,0,0-.15-2.44c-1.84-1.93-1.57-3.07.39-5s3.94-3.61,4.31-6.52a3.76,3.76,0,0,1,2-2.65,25.2,25.2,0,0,0,6.48-5.6c1.22-1.52,3-2,4.77-2.36,5-1,10.05-1.41,14.93.71a7.38,7.38,0,0,0,3.08.5c1,0,2.12-.31,3,.53-2.71-.07-5.45.4-8.13-.45-.55-.17-1.31-.2-1.58.29-1.2,2.18-3.44,1.91-5.35,2.44C39.81,18.76,35.38,19.92,33.33,22.75Z" fill="#2e8a53"/><path d="M30.44,74.92l0-.57a7,7,0,0,0,.5-1,.74.74,0,0,0-.34-1c-.2-.08-.54.06-.78.18-.75.36-1.41,1.94-2.27.69-.63-.92.78-1.56,1.42-2.15a4.36,4.36,0,0,0,1.53-3.79c-.09-1.32-.12-2.53-1.84-2.68a1.37,1.37,0,0,1-.28-.07c-.55-.17-.9-.71-.62-1.07,1.2-1.52-1-3.4.56-4.8.43-.38.91-.06,1.28.25a3,3,0,0,0,2.16.56c.68,0,1.37,0,1.78-.68s-.35-1.15-.54-1.73c-.65-2-2.17-3.12-3.92-4.06-1.09-.59-1.5-1.25-.44-2.42a7.17,7.17,0,0,0,1.87-5.24c0-1.15.23-2.33,1.77-2.48,1.13.28,1.38-1.07,2.29-1.22,2.39-.32,2.4-.33,2.84-2.39,1.94-.6,3.15.48,3.68,2,.66,1.93-.65,3.11-2.23,4a1.65,1.65,0,0,1-.85.09c-2.11-1.45-3.52-.36-4.74,1.33-.71,1-.81,2,.36,2.67,1.53.82,2.06,2.43,3.16,3.58.37.64,0,1-.49,1.34s-.74.87-1.13,1.29a1.55,1.55,0,0,0,.24,2.64,5.6,5.6,0,0,1,1.25,1.15c.74,1,.87,2.12-.28,3s-2.59,1.95-3.85,3-1.15,1.52.29,2.19c2.74,1.27,3,2.46.87,4.62A11,11,0,0,1,30.44,74.92Z" fill="#368f5c"/><path d="M36.29,54.28l.45-1.13a1.86,1.86,0,0,1,1.78-1.46c1.53.11,3.08.35,4.51-.49.74-.2,1.57.09,2.25-.33a2,2,0,0,0,1-2.42c-.41-1-1.33-.36-2-.18a27.58,27.58,0,0,0-2.71.94c-1.06.11-1.6,1.72-2.94,1-1.11-1.56-1.94-3.16-.72-5h.44c1.25.88,2.46.52,3.91.4,7-.57,13.91-3.9,21-.44a15.52,15.52,0,0,0,2.16,3.38,1.48,1.48,0,0,0-1.82,1c-1.6,4.35-8,5.67-11.24,2.67-1.46-1.34-2.21-.77-3.14.44a6.47,6.47,0,0,1-5,2.38A28.15,28.15,0,0,1,36.29,54.28Z" fill="#6b97c0"/><path d="M48.8,68.8a6.8,6.8,0,0,1-5.15-2.24,3.35,3.35,0,0,1-.38-4.19c.44-.73,1.14-.64,1.77-.58a8,8,0,0,0,4.91-1.2,15.37,15.37,0,0,1,4.63-1.43,2.67,2.67,0,0,1,2.93,1.3,2.51,2.51,0,0,1-.07,3A12.43,12.43,0,0,1,48.8,68.8Z" fill="#6892bf"/><path d="M87.36,53.84c0-.92-.1-1.68-1.45-1.35a2.58,2.58,0,0,1-3.34-1.8c-.65-1.73-.3-2.32,1.51-2.21.19,0,.37.11.55.12,1.76.13,2.06-.35,1.48-2.34.2-.25.41-.27.63,0,3.8,1.43,4.1,2.17,2.14,5.56A21,21,0,0,1,87.36,53.84Z" fill="#569e73"/><path d="M83.88,40c-.17-.8.21-1.73-.6-2.37-.61-1.78-1.12-3.52-3.65-3.45-1.31,0-1.59-.78-1.25-2.26s1.51-2.89,1.44-4.59c1.82,1.07,2.35,2.9,2.74,4.77A8.41,8.41,0,0,0,84,36C85.3,37.49,85.1,38.72,83.88,40Z" fill="#5d9f79"/><path d="M86.73,46.25l-.63,0c-1.12-.18-2.85.23-1.85-2a1.74,1.74,0,0,0-.42-1.84c-.6-.82-1-1.68,0-2.49,0,.55-.17,1.22.28,1.63C85.57,42.86,86,44.65,86.73,46.25Z" fill="#5d9f79"/><path d="M63.24,45.13c-.16.76-.38,1.24-1.31.67a9.72,9.72,0,0,0-9.38-.86,8.6,8.6,0,0,1-5,.61c-2.18-.33-4.23-.36-6.11,1.23-1.31,1.11-2.46.42-3.11-1.61.32-.72,1.09-1,1.57-1.56,1.37-1.62,1.18-2.78-.7-3.76a11.15,11.15,0,0,0-1.85-.6c-.4-.42-.92-.87-.44-1.46s.73-1.82,1.78-2.14c3.26-1,6.37-2.6,9.91-2.49,1.22.5,2.44,1,3.67,1.49a5.36,5.36,0,0,0,4.14-.4c.95-.4,1.74-.25,1.92.89a2.33,2.33,0,0,0,1.32,1.71A2.94,2.94,0,0,1,60.95,39c.25,1.28.28,2.72,2.15,2.86.55,0,.71.61.5,1.11A2.85,2.85,0,0,0,63.24,45.13Z" fill="#f1eff4"/><path d="M33.33,22.75c-1-.74-.4-1.46.24-1.79,2.52-1.3,5.11-2.45,8.05-2.22,1.09.09,1.59.58.81,1.64A16.94,16.94,0,0,0,33.33,22.75Z" fill="#b7cec1"/><path d="M60.19,25.35c.29,1.18.49,2.31-.62,3.1a6.59,6.59,0,0,1-4.16,1.49c-.53,0-1-.7-.53-.94C56.76,28,57.73,25.65,60.19,25.35Z" fill="#c1d4cb"/><path d="M53.2,25.88c-.19,1.45-3.52,4-4.93,3.71a.61.61,0,0,1-.37-1.06A16,16,0,0,1,52,25.16C52.6,24.84,53.15,25.11,53.2,25.88Z" fill="#b7cec3"/><path d="M16.59,59.3c-1.89-.71-2-.92-1.14-2.17a.79.79,0,0,1,.18-.22c.84-.56,1.25-2.36,2.21-1.84,1.14.63-.47,1.69-.49,2.65a6.49,6.49,0,0,1-.21,1.12Z" fill="#b2ccbf"/><path d="M21.76,45.57l-.24.15c-.71.48-1.49,1-2.25.24-.59-.57-.12-1.19.27-1.73.67-.92,1.42-1.15,2.29-.26Z" fill="#9fc0ae"/><path d="M22.65,60.13a5.12,5.12,0,0,1,1.8-2.51c.36-.29.82-.56,1.25-.11a1,1,0,0,1,0,1.32C25,59.91,23.83,59.92,22.65,60.13Z" fill="#a7c7b8"/><path d="M54.35,23.86c-.91-1-1.29-1.84-.35-2.73a1,1,0,0,1,1.49.18C56.09,22.52,55,23.07,54.35,23.86Z" fill="#9cc0ab"/><path d="M34.56,41.64c-.68,1.86-.86,2-2.29,1.22C33,42.32,33.1,40.73,34.56,41.64Z" fill="#94bca7"/><path d="M86.83,65.24c-.62,2.3-1.16,4.62-1.91,6.88a1.79,1.79,0,0,1-2.16,1.42L85.9,65Z" fill="#93bba6"/><path d="M73.1,75.35c-.11.28-.37.61-.59.41-1.15-1-2.62-.8-3.94-1.16a.55.55,0,0,1-.29-.9,2.38,2.38,0,0,1,2.47-.95C71.52,72.93,73.15,74.8,73.1,75.35Z" fill="#9cbfae"/><path d="M66.1,70.32c.14-1.67,1.24-2.24,2-3.06.35-.4.77-.9,1.42-.51A1.37,1.37,0,0,1,70,68a1.17,1.17,0,0,1-.77,1.35C68.32,69.64,67.35,69.93,66.1,70.32Z" fill="#b9d0c3"/><path d="M67.94,38c-.71.21-1.06.33-1.42.41-.64.14-1.37.37-1.75-.39-.28-.55.11-1.08.41-1.55.53-.83,1.16-.93,1.78-.12A16.73,16.73,0,0,1,67.94,38Z" fill="#cad9d5"/><path d="M68.22,44.9c-.69-.08-1.12-.42-1-1.11s.46-1.31,1.23-1.33,1,.53,1,1.14A1.21,1.21,0,0,1,68.22,44.9Z" fill="#9cc1ad"/><path d="M72.27,31.94A4.11,4.11,0,0,1,71,34.63a.84.84,0,0,1-1.26-.08.72.72,0,0,1,.09-1A4.14,4.14,0,0,1,72.27,31.94Z" fill="#90bca4"/><path d="M78.53,71c0-.38,0-.95.64-1s1,.41,1,1.06a1,1,0,0,1-.86,1C78.73,72.1,78.56,71.63,78.53,71Z" fill="#a9c8b7"/><path d="M14.58,66.6a2.69,2.69,0,0,1,.32,1.82c0,.59-.07,1.3-.78,1.32s-1-.73-1-1.45A1.63,1.63,0,0,1,14.58,66.6Z" fill="#b8d0c6"/><path d="M19,80.22c-.41-.13-.92-.05-.88-.57a1.25,1.25,0,0,1,1.46-1.28c.49,0,1,.33,1,.82C20.57,80.27,19.61,80,19,80.22Z" fill="#b4cec2"/><path d="M38.46,52l-1.72,1.14c-.37-.05-1-.05-1.06-.17-.41-2.28-3-2.55-3.93-4.31-.28-.54.06-1.09.32-1.6a7.68,7.68,0,0,1,2.87-3c1.4-.87,1.84-.66,3,1.13-.43,1.9.66,3.46,1.17,5.14A1.29,1.29,0,0,1,38.46,52Z" fill="#117e47"/><path d="M33,60.69c.07.79-2.15,2.83-2.9,2.75-.29,0-.53-.18-.54-.51,0-.85,2.1-2.86,2.86-2.69C32.65,60.3,32.84,60.57,33,60.69Z" fill="#a1c5b2"/><path d="M56.68,50.32c-1.64,0-3.8-1.53-3.82-2.75,0-1,1.73-2.16,3.31-2.24s3.31,1,3.35,2.06A3.07,3.07,0,0,1,56.68,50.32Z" fill="#308164"/><path d="M41.34,48.56c1.41-.49,2.8-1.07,4.24-1.45s1.92.16,1.74,1.55c-.38,3.06-1.1,3.54-4.31,2.9C41.2,51.27,40.47,50.36,41.34,48.56Z" fill="#2a835a"/><path d="M41.34,48.56c-.12,1.38.73,2.22,1.68,3-1.35,1.95-3,1.15-4.56.44l.64-1.69C39.73,49.58,40,48.41,41.34,48.56Z" fill="#ccd7de"/><path d="M48.61,66.48c-.45,0-.93-.06-1.4-.15a1,1,0,0,1-.83-.71c-.15-.57.24-.87.71-1l6.41-2.46a.71.71,0,0,1,1,.29.86.86,0,0,1-.16,1.06C52.63,64.84,51.06,66.46,48.61,66.48Z" fill="#dbe0eb"/></svg>