<svg id="Layer_1" data-name="Layer 1" xmlns="http://www.w3.org/2000/svg" viewBox="0 0 100 100"><title>f</title><path d="M78.43,46.25c-1.23-1.8-2.65-3.49-2.4-5.93.12-1.19-.62-1.7-1.81-1.61s-2.48.2-3.72.18a16.56,16.56,0,0,1-11-4,45.55,45.55,0,0,1-5.08-5c-1.27-1.51-1.56-1.53-2.84,0-2,2.44-3.77,5.08-6.12,7.21-3.17,2.87-6.34,5.82-10.88,6.4-1.1.14-1.51.73-.94,1.79.09.17.16.35.24.52,2,4,1.87,5.12-1.26,8.24A4.66,4.66,0,0,0,31,58.15c.22,3.37-1.83,6.12-4.51,8.22a11.22,11.22,0,0,1-1.45.92c-.86.48-1.28,1.06-.83,2.1,1.39,3.17.41,6-1.46,8.6a3.75,3.75,0,0,0-.82,3.36c.59,2.82-.53,5.08-2.66,6a7.94,7.94,0,0,1-3.68.32,9.77,9.77,0,0,1-6.69-3.49c-1.85-2-1.52-6.21.65-8,1.22-1,1.16-1.81.27-2.85-.25-.29-.52-.56-.74-.87-1.77-2.49-1.57-3.93.79-5.88,1.9-1.57,1.9-1.57.8-3.84-2.09-4.32-1-7.78,3.24-10,1.85-1,1.94-1.23,1.08-3.09-.08-.17-.17-.34-.26-.51-2.26-4.55-1.65-7.2,2.61-9.9,1.43-.91,2-1.62,1.53-3.4a8.53,8.53,0,0,1,1-6.31,22,22,0,0,1,8.41-9.11c2.16-1.31,4.23-2.89,6.31-4.39,3.23-2.33,6.78-4.14,11-4.09,4.88.05,9.75.08,14.63,0,1.72,0,3.16.72,4.67,1.23,7.15,2.38,12.91,6.48,16.44,13.38,1.17,2.28,3,4.19,3.8,6.7a3,3,0,0,0,1.11,1.28,8.69,8.69,0,0,1,3.2,7c0,2.68.16,5.36-.75,7.94a3,3,0,0,0,.55,3.14c2.5,3.21,2.58,5.76.45,9.19-.67,1.08-1.47,2,0,3.15,1.06.85,2.35,1.69,2.43,3.36.12,2.4.36,4.88-1,7a4.85,4.85,0,0,0-.29,5.55c1.49,2.87.52,4.93-2.64,6.78a7.31,7.31,0,0,0-2.59-3.44c-2.59-1.94-2.58-5-1.8-7.85a24.13,24.13,0,0,0,.63-9.38c-2.07-.05-2.76,1.17-3.21,2.91-.7,2.66-.32,5.46-1.16,8.08-.64-.56-1.3-1.09-1.92-1.67a6.23,6.23,0,0,1-2.13-5c.12-2.63-.18-5.3,1.69-7.54.26-.31.16-.91.23-1.37,1.72-.32,3.64.4,5.16-1.06.43-.41,1.07-.16,1.64,0,2.67.58,3.39-.07,3.18-2.81a8,8,0,0,0-.17-1.13c-1.21-5.42-2.37-6-7.36-3.6-1.43.68-1.64,1.94-1.78,3.33-.16,1.64.6,3.47-.88,4.88-2.88-3-2.68-6.48-1.66-10.09A3.57,3.57,0,0,1,78,49.65a2,2,0,0,0,1.21-1.78c2,.39,3.85,1.82,6.26.2-2.42-.67-1.59-2.8-2.3-4.24-.92-1.85-1.19-4-2.88-5.51a2.74,2.74,0,0,1-.38-3.45,7.56,7.56,0,0,1,4.85,4.67c-.65-2.48-3.21-5.1-5.25-5.16-3.14.51-3.16.59-1.56,3.22A8.53,8.53,0,0,1,78.43,46.25Z" fill="#b68c68"/><path d="M80.11,77.87c-1.06-3.47.42-6.74.78-10.1a1.51,1.51,0,0,1,1.54-1.42,4.67,4.67,0,0,0,3-1.26c-.17,3.89.6,7.25-.66,10.52a10.09,10.09,0,0,0,0,6.46,2.66,2.66,0,0,0,1.88,2c.68.22,1.61-.24,2,.74.31.79-.16,1.49-.34,2.22a4,4,0,0,0-.06.57c-3.12,1.39-5.8.39-7.24-2.48C79.83,82.74,80.07,80.31,80.11,77.87Z" fill="#975b2f"/><path d="M77.79,61.83c0-1.91,0-3.82.12-5.72.09-2.3,1.2-3.43,3.52-3.55a3.65,3.65,0,0,0,2.6-.86c1.45-1.35,2.75-1.16,3.16.64.56,2.47,1.86,4.77,1.6,7.45-.12,1.26-.37,2.15-1.59,2.74s-2-.08-2.75-.81a3.85,3.85,0,0,0-.66-.36c-1.57,2.26-3.58,2.42-5.8.89A.8.8,0,0,1,77.79,61.83Z" fill="#9b5f30"/><path d="M51.76,71.35a13.92,13.92,0,0,1-5.26-1.23,4.25,4.25,0,0,1-2.56-4.65c.32-1.72,1.67-2.55,3.13-1.61A7,7,0,0,0,52.49,65c2.74-.54,5.43-1.18,7.34-3.47.24-.29.52-.56.79-.83a2.27,2.27,0,0,1,2.64-.47c1,.43.84,1.44.74,2.25a7.75,7.75,0,0,1-1.77,4.15C60.3,68.91,54.8,71.37,51.76,71.35Z" fill="#5884b7"/><path d="M45.9,42.81c2.7-.49,4.85,1,7,2.47,1.77,1.19,1.87,2.48.23,4A8.53,8.53,0,0,1,44.56,51c-2.64-.75-4.24-2.77-5.83-4.79-.63-.8,0-1.24.56-1.58A10.24,10.24,0,0,1,45.9,42.81Z" fill="#7599c5"/><path d="M80.16,34.75c.27,1.33-.63,3.24,1.74,3.55.15,0,.41.26.4.36-.4,2.51,2.27,4.09,2,6.61-.1.83-.45,2.51,1.51,1.3.35-.22.62.24.64.67.05,1,.05,2.07-1.17,2.26-2.22.34-4.54.81-6-1.63a3.65,3.65,0,0,1-.76-1.63,18.09,18.09,0,0,1,0-2.57,8.38,8.38,0,0,0-3.15-8c1.87-2.27,1.87-2.27,4.3-1.48A.6.6,0,0,1,80.16,34.75Z" fill="#8b481f"/><path d="M61.77,46.15c-1-1.22-2.13.84-3.1-.2,0-.18,0-.41.15-.51,2.71-2.46,8.38-2.08,10.61.7,1.48,1.84,1.27,3-.81,4.07a9,9,0,0,1-9-.1,5.94,5.94,0,0,1-1.24-1.17c-.46-.5-.92-1.1-.46-1.77s1.16-.51,1.82-.28c.27.09.53.22.79.34,1.27.39,2.09,1.59,3.41,1.89.68.15,1.37.12,1.56-.72.16-.69-.4-1-.93-1.2C63.65,46.8,62.47,47.11,61.77,46.15Z" fill="#88a6cc"/><path d="M61.77,46.15c1.2.25,2.49-.29,3.65.4.72.43,1.63.68,1.24,1.88-.44,1.38-1.29,2.1-2.51,1.71-1.55-.49-3-1.2-3.62-2.93A2.6,2.6,0,0,1,61.77,46.15Z" fill="#4273ac"/><path d="M30.71,24.27a3.42,3.42,0,0,0,1.72-1.83c1.31-2.83,4.16-3.7,6.4-5.34.63-.46,1.49-.21,2.24-.18a6,6,0,0,0,2.53-.28c2.85-1.1,2.87-1.06,4.66,1.34a11.81,11.81,0,0,1,5.12-4.36c2.56-1.07,4-.57,5.07,2,.46,1.14,1,2,2.55,1.54,2.29-.66,4.3.15,6.19,1.45,1,.68,1.91,1.63,3.28.49.83-.69,1.7.05,2.29.58,3,2.68,5.89,5.46,7.44,9.31.59,1.47.25,2.32-1.23,2.84a3,3,0,0,1-1.65.33c-1.53-.51-2.4,0-3.13,1.36-.39.7-1.31.67-2.09.68-1.53,0-3.06,0-4.58.07-2.09.84-3.45-.12-4.53-1.81a1.91,1.91,0,0,0-2.27-.71c-1.35.34-2.28-.33-3.33-1.14-1.6-1.24-2.37-3.18-4.13-4.3-1.06-.67-1.67-.64-2.4.23a24.23,24.23,0,0,0-1.65,2c-1.53,2.27-3.39,3.86-6.36,3.44a24.71,24.71,0,0,1-7,7.09c-.89.63-1.88,1.38-3.15,1a1.34,1.34,0,0,0-1.19.68c-.69,1.7-2,2.95-2.91,4.49-1.17,2.09,0,4.21.45,6.29.06.25.36.43.55.65.49.56.75,1.13.08,1.73s-1,.19-1.5-.21-1.05-1.14-1.94-1A4.89,4.89,0,0,0,24.69,56a3.07,3.07,0,0,1-1.32,2.86c-.81.64-.35,1.34-.13,2.07.3,1-.27,1.38-1.2,1.41a3.21,3.21,0,0,1-3-4.37,13.83,13.83,0,0,1,1.15-2A1,1,0,0,0,20,54.67a1.23,1.23,0,0,0-1.29-.38,3.14,3.14,0,0,0-1.95,3.88,5.31,5.31,0,0,1-.09,3.62c-.36.79-.74,1.65-1.81,1.52a2.15,2.15,0,0,1-1.75-1.69,9.09,9.09,0,0,1,3-9.18,2.51,2.51,0,0,0,1-2.22c0-1.43,0-2.86,0-4.29.13-4.19,2.44-6.45,6.61-6.59,1.55-.05,3.27.51,4.45-.93a.59.59,0,0,0-.31-.8c-1.42-.6-2.74-.91-3-3.05a5.39,5.39,0,0,1,1.12-4.45A3.35,3.35,0,0,0,26.29,29C26.55,26.33,28.42,25.11,30.71,24.27Z" fill="#985b2b"/><path d="M15.43,76.2c-3-.74-4.44-2.47-4.14-5.14.15-1.32,1-2.47,2-2.38a1.91,1.91,0,0,1,2,2.26,1.77,1.77,0,0,0,.43,1.45A2.17,2.17,0,0,0,17,69.93a2.45,2.45,0,0,1,1.54-2.46c1.94-1.15,3-.59,3.08,1.72,0,.67-.08,1.34,0,2,.13,1.62-.46,2.56-2.2,2.62-.22,0-.42.34-.63.53C18.19,75.89,17.3,76.93,15.43,76.2Z" fill="#9a5e2e"/><path d="M19.46,76.67c1.13,1,1.12,1.58,0,2.12-3.19,1.5-3.48,2.08-2.76,5.6.36,1.77,0,2.14-1.79,2-3.08-.25-5.43-3.55-4.28-6,.34-.73.67-1.32,1.7-1a2.12,2.12,0,0,0,2.42-1.08C15.8,76.3,17.76,76.87,19.46,76.67Z" fill="#a26a3c"/><path d="M80.16,34.75l-.58-.57c.09-.54-.13-1.28.51-1.51s1.06.33,1.16.93c.21,1.21,1.11,1.67,2.06,2.18,2.15,1.15,2.37,3.28,2.57,5.38a.88.88,0,0,1-.41.66c-.42.23-.75-.1-.94-.41a2.9,2.9,0,0,1-.34-1.07A4.38,4.38,0,0,0,82,36.87C81,36.38,81,35.26,80.16,34.75Z" fill="#d9cbc2"/><path d="M32.67,40c3.73-1.16,5.85-4.27,8.41-6.86.51-.52.8-1.32,1.75-1.2.31.56.81,1.08.25,1.78a27,27,0,0,1-8.62,6.64A1.33,1.33,0,0,1,32.67,40Z" fill="#d9ccc4"/><path d="M23.37,58.83A11.33,11.33,0,0,0,24,54.66c.16-1.94.09-1.95,2.22-2.11.24.4.69.81.43,1.28a2.67,2.67,0,0,0,.27,2.93c.39.65.86,1.47-.18,1.9-.88.36-.94-.68-1.3-1.13-1.08.2-.73,1.3-1.25,1.78S23.49,59.24,23.37,58.83Z" fill="#cebaaf"/><path d="M30.71,24.27c-1.53,1.54-3.32,2.84-4.43,4.77-.82.19-1.13,1.3-2.11,1.21a1,1,0,0,1-.05-1.09,14.66,14.66,0,0,1,5.22-5.49C30,23.24,30.62,23.26,30.71,24.27Z" fill="#dacdc5"/><path d="M85.8,76.4a48.4,48.4,0,0,0,.66-7.77c0-.45,0-1,.66-1.07s1,.52,1.07,1.11C88.45,71.34,88.69,74,85.8,76.4Z" fill="#e9e1df"/><path d="M63,32.43a13.45,13.45,0,0,0,4.53,1.81c.79.76,1.95.63,2.8,1.21-2.62.85-6.16.15-7.83-1.56C61.68,33.07,61.86,32.59,63,32.43Z" fill="#d9cac1"/><path d="M19.46,76.67c-1.27,1.45-3.26.79-4.75,1.6-.51,0-1.17.36-1.44-.3s.36-.75.75-1l1.42-.79a6.23,6.23,0,0,0,3.35-1.86C20.13,74.8,19.83,75.72,19.46,76.67Z" fill="#ddcec7"/><path d="M29.06,48c.14-.46-.41-1.58.72-1.61.83,0,1.05,1,1.36,1.65a1.52,1.52,0,0,1-.35,1.82c-.32.32-.59.81-1.15.64s-.52-.72-.57-1.18S29.06,48.62,29.06,48Z" fill="#ddcec8"/><path d="M25.1,64.29a.52.52,0,0,1-.53-.53,1.15,1.15,0,0,1,.81-1.28.48.48,0,0,1,.63.61C25.88,63.59,25.74,64.18,25.1,64.29Z" fill="#985b2b"/><path d="M59.32,65.57c-.08.5,0,.75-.14.85a12.41,12.41,0,0,1-7.92,3.39,4.76,4.76,0,0,1-3.8-1.64c-.42-.46-.5-1.31.3-1.23A33.4,33.4,0,0,0,59.32,65.57Z" fill="#e1e2ef"/><path d="M40.49,46a9,9,0,0,1,7.62-1.51c-.65.76-1.64.46-2.41.88-1.79,1-2,1.56-.67,3.22.17.22.33.45.52.71C44.09,49.1,44.09,49.1,40.49,46Z" fill="#ccd6e7"/><path d="M64.38,20.94c-.88,0-2.13-.59-3.48-.06-.74.29-1.43-.29-2-.89a1,1,0,0,1-.32-1c.17-.47.6-.92,1.06-.78,1.84.54,3.75.32,5.61.6a2.32,2.32,0,0,1,1,.58,1,1,0,0,1,.5,1c-.1.63-.64.58-1.1.62C65.36,21,65.08,20.94,64.38,20.94Z" fill="#b68c68"/><path d="M64.93,29.54c-2.27-1.17-3-3.21-4.25-4.83a.88.88,0,0,1,.16-1.06c.3-.36.68-.24,1-.13C64,24.14,65.25,26.36,64.93,29.54Z" fill="#bc997c"/></svg>