<svg id="Layer_1" data-name="Layer 1" xmlns="http://www.w3.org/2000/svg" viewBox="0 0 100 100"><title>f</title><path d="M18.53,79.63a3,3,0,0,1,.28-.88,5.77,5.77,0,0,0,.83-5.37c-.64-2.42.92-4.6,2.26-6.62.47-.71,1-1.36,1.45-2.1a3,3,0,0,0,.56-2.2c-.46-2-.17-4-.22-6a5,5,0,0,1,2.91-5.13c1.08-.5,1.23-1.13.85-2.22A18.13,18.13,0,0,1,26,43c0-1.84.12-3.58,2.16-4.46.92-.4.68-1.31.65-2.06a7.11,7.11,0,0,1,1.34-5c.32-.28.55-.8,1.11-.37.17,1.72-1.18,3.09-1,4.9s.69,3.55,2.44,4.13,3.49-.23,4.7-1.79c.56-.71.85-1.7,1.95-1.86a3.27,3.27,0,0,1,1.66,1c-.43,1.82-2,3.51-.59,5.64,1-.25,1.24-1.72,2.47-1.6,1.15.74.51,1.67.15,2.44a26.54,26.54,0,0,0-2,5.23,2.67,2.67,0,0,1-2.51,2.06c-2.9.51-3.2,1.1-2.27,3.95a4.22,4.22,0,0,1,.16,3.4,1.44,1.44,0,0,1-1.46,1c-.61-.08-.87-.6-1-1.18-.19-1.13,0-2.49-2-1.86-1.74.56-1.84,1.64-1.38,3.09a4,4,0,0,0,2.66,3c1.27.39,1.38,1.1.57,2.06-.25.3-.52.58-.76.89-2.26,2.84-2.35,2.85-5.23.55a11.2,11.2,0,0,1-1.19,4.5,1.27,1.27,0,0,0,.43,1.67c.63.48,1.15.19,1.64-.29s1-1.48,1.88-.76.52,1.56.27,2.41c-.88,2.92-2.92,4.32-6.45,4.44a.61.61,0,0,0,.06.44c.39.85,2,1,1.43,2.36-.5,1.13-4.4,2.2-5.78,1.67S17.93,81.3,18.53,79.63Z" fill="#dac8b1"/><path d="M18.53,79.63c.54,2.63,2.88,3.52,5.26,2,.63-.41,1.08-1.12,2.26-.76-.73-1.13-2-1.11-2.39-2.15-.15-.43-.49-.84-.14-1.3A1,1,0,0,1,25,77.09c1.51,1.08,2.65.3,3.66-.75,1.27-1.33,2.44-2.75,1.86-4.82-.79,0-.88.54-1.06.92-.44.9-1.1,1.39-2.06,1s-1.85-1.29-1.45-2.11c1-2.06,1-4.35,1.72-6.54,1.22.23,1.35,1.25,1.89,1.84.89,1,1.48,1.12,2.16,0a14.82,14.82,0,0,1,2.55-3,5.56,5.56,0,0,1-4.46-5.95c0-.78.17-1.43,1.12-1.41.76,0,1.29-.48,1.92-.75.85-.37,1.52-.22,1.66.89.08.68.49,1.31.14,2-.15.31.08.6.39.74s.57-.13.79-.33a1.91,1.91,0,0,0,.46-2,19.34,19.34,0,0,0-.83-2.42c-.75-1.9,0-3.78,2-3.69,2.71.12,3.25-1.33,3.59-3.43a10.55,10.55,0,0,1,1.88-4c.37-.57.64-1.09,0-1.62-.68-1.5,0-2.29,1.38-2.82A13.09,13.09,0,0,1,52,38.41a22.88,22.88,0,0,0,7.66.18c1.41-.16,2.78-.39,4,.69a1.46,1.46,0,0,0,1.94-.17c1.39-1.27,3.16-1.57,4.79-2.22,4.54-1.78,6.79-5.6,8.7-9.74a2.68,2.68,0,0,0-.3-2.86,2.77,2.77,0,0,0-1.91-1.57A2.41,2.41,0,0,1,75,20.86c-.39-1.65-1.6-1.81-2.89-1.47-1.5.4-2.57.38-3.57-1.12s-3.56-.69-4.16,1.26a8,8,0,0,1-2.78,3.91,1.9,1.9,0,0,1-2.56.13c-.9-.72-.65-1.59-.2-2.51,1-2.09,2.83-3.45,4.43-5,.19-.13.55-.19.59-.33.68-2.62,2.56-2,4-1.23A61.13,61.13,0,0,0,74.57,17a10.16,10.16,0,0,1,6.65,7.5,4.07,4.07,0,0,1,.49,3.95c-1.27,3.59-2.55,7.11-5.52,9.78a3.76,3.76,0,0,1-3.56,1.16,5,5,0,0,0-3.57.51,8.84,8.84,0,0,1-5.32,1c-2.12-.26-4.27.63-6.47.43a24.71,24.71,0,0,1-4.86-.43c-2.2-.64-4.45-.1-6.67,0-1.32,0-1.89.72-1.95,2.12s0,2.8,0,4.2c0,3.31-1.15,4.67-4.34,5.29-1.81.35-2,.68-1.42,2.54a13,13,0,0,1,.13,8c-.47,1.52-1.23,2.86-3.08,3.11-1,.13-1.16.91-1.11,1.76a17.3,17.3,0,0,1-.42,4.38c-.42,2.09-1.29,3.82-3.32,4.75a1.64,1.64,0,0,0-1,2.18,21.42,21.42,0,0,1,.13,4.88c-.06,1.51-2.21,3.46-4.23,3.86a9,9,0,0,1-3.71,0c-2.49-.56-3.35-1.66-3.25-4.26C18.15,82.35,17.64,80.91,18.53,79.63Z" fill="#ddcbb5"/><path d="M81.22,24.49c-.6-1.37-2.05-2.31-2-4a.6.6,0,0,0-.85-.53c-1.07.48-1.34-.16-1.61-1-.33-1-1-1.31-2.05-1.55a33.12,33.12,0,0,1-6-2c-1.3-.59-2.67-.59-4-1.11a2.09,2.09,0,0,0,0,.36c.08.56,1.17.82.58,1.53s-1.27.16-1.91-.07a13.81,13.81,0,0,1-6.4-.28,4.49,4.49,0,0,0-3.73.67c-2.59,1.63-5.74,1.71-8.58,2.72A14.24,14.24,0,0,0,38.46,23c-2.08,2.3-4.21,4.57-6.08,7.05a2.18,2.18,0,0,1-1.21,1l-1,.44c2-3.74,3.64-7.72,6.8-10.73.22-.21.41-.52.67-.64,4.21-1.92,7.67-5.63,12.78-5.42a2.58,2.58,0,0,0,2-1,4,4,0,0,1,4.45-1.13,4.1,4.1,0,0,0,3-.08c3.39-1.38,6.37-.61,9,1.81a2.6,2.6,0,0,0,2.07.84.52.52,0,0,1,.23,0c2.91,1.18,6.12,1.88,8.38,4.17C80.84,20.63,81.08,22.63,81.22,24.49Z" fill="#e5d6c3"/><path d="M62.19,66.7a9.05,9.05,0,0,1-8-3.9,3,3,0,0,1-.31-3.29c.6-1.43,1.17-1.7,2.47-.78,2,1.39,3.87.52,5.75,0,.62-.16,1.23-.63,1.89-.84a3.58,3.58,0,0,1,4.08.78,4,4,0,0,1,.12,4.39C66.72,65.58,64.7,67.06,62.19,66.7Z" fill="#5582b5"/><path d="M69.9,50.82c-2,0-3.47-1.39-3.23-3.1.22-1.55,1.49-2.36,2.73-2.91a5.92,5.92,0,0,1,4.08-.27c2,.59,2.5,2,1.36,3.73A5.72,5.72,0,0,1,69.9,50.82Z" fill="#5481b7"/><path d="M55.59,52.37a4.65,4.65,0,0,1-3.23-1.21c-.72-.77-1.31-1.54-.91-2.67a2.85,2.85,0,0,1,2.29-2.06,10.32,10.32,0,0,1,4.15.11,2.48,2.48,0,0,1,2.17,2.36A3.06,3.06,0,0,1,58,52,17.48,17.48,0,0,1,55.59,52.37Z" fill="#4d79ac"/><path d="M31.17,31c1.07-2.76,3.4-4.57,5.18-6.79,1.07-1.33,2.42-2.41,3.52-3.72a3.64,3.64,0,0,1,1.77-1c2.25-.81,4.68-1.09,6.77-2.37A2.52,2.52,0,0,1,49.79,17a4.22,4.22,0,0,0,3.4-1.21,2.93,2.93,0,0,1,3.38-.75,8.91,8.91,0,0,0,4.12.54,8.66,8.66,0,0,1,2.73.5c0,.84-.1,1.54-1.05,1.83-2.07.62-2.18,2.9-3.48,4.18-.31.3,0,.91.44,1.19a1.23,1.23,0,0,0,1.53,0c1.12-1.19,2.74-2,2.87-4,.07-1.07,2-2.53,3.39-2.7a2,2,0,0,1,2.26,1.6c.31,1,.88,1.38,1.69.74,1.09-.87,2.25-.16,3.36-.36.89-.15.86.85.94,1.34.24,1.39.7,2.29,2.35,2.25,1,0,1.2,1.08,1.61,1.8a4.57,4.57,0,0,0-2.78,3.57C76,30.52,72.81,31.9,70,30.74c-.94-.39-1.87-.82-2.77.09a4.12,4.12,0,0,1-4.78.13c-1.75-1-5.9-.42-7.43.88a1.74,1.74,0,0,0-.76,1.82,2.11,2.11,0,0,1-1.63,2.84C51.13,37,50.31,36,49.54,35a5.27,5.27,0,0,1-.69-3.1c-2.47,3.67-5.07,6-9.27,4.75-.81.33-1,1.16-1.38,1.81A6.1,6.1,0,0,1,32.38,41c-.66-.15-2.51-3-2.62-3.88A8.58,8.58,0,0,1,31.17,31Z" fill="#d4c0a2"/><path d="M39.58,36.65c.49-1,1.19-.92,2.14-.62,2.29.73,2.54.59,4-1.41a26,26,0,0,1,3.06-3.17c.24-.23.56-.33.81-.07a.7.7,0,0,1,.14.63c-.77,1.47,0,2.44.91,3.51s1.6.6,2.46.2.95-1.14.45-1.9-.23-1.45.43-2a6.48,6.48,0,0,1,3.49-1.69c.38,0,.9.1,1.14-.1,1.46-1.26,3-.45,4,.32a3.58,3.58,0,0,0,3.84.36,4,4,0,0,1,.68-.14c1.8.12,2.67,1.44,2,3a4.67,4.67,0,0,1-1.32,1.62,19,19,0,0,1-10.29,3.15c-5,.17-9.89-1-14.85-.22A1.85,1.85,0,0,1,41,37.58C40.3,37.59,39.64,37.58,39.58,36.65Z" fill="#ddcbb5"/><path d="M41,37.58a9.78,9.78,0,0,0,3.21-.35,3.62,3.62,0,0,1,2.28.06,3.55,3.55,0,0,0,1.35.26c1.76-.2,3.53-.73,5.15.46,5-.72,10.28.17,14.65-3.24C68.27,37,66,37,65.2,38c1.79-.78,3.53-2.37,5.71-.88a1.41,1.41,0,0,1-1.47.92,3.09,3.09,0,0,0-2.83,1.26c-.54.64-1.37.69-2.08,1s-1.24-.34-1.71-.87a1.89,1.89,0,0,0-2-.33c-3.94.91-7.81.32-11.68-.4a3.58,3.58,0,0,0-2.47.28c-.48.25-1,.72-1.46.64-1.92-.38-2.14.9-2.38,2.22-1.19.58-1.3,2.35-3,2.62C39.36,42,38.44,39.54,41,37.58Z" fill="#d4c0a2"/><path d="M70.91,37.12c-1.81-.11-3.56,0-5,1.31a2.76,2.76,0,0,1-1.28.51c-.35.07-.81.1-.94-.41a.67.67,0,0,1,.42-.75c.61-.35,1.23-.66,1.85-1,.85-.43,1.64-.92,1.7-2,.87-1,1.7-2,.84-3.41a1.51,1.51,0,0,0-1.29-.8c-.19-.51-.5-1.24.44-1.09a6.5,6.5,0,0,1,2.86.77c1.87,1.26,2.32,1.11,3.67-.58.3-.37.53-.8,1-.91.78-.19.91-.74.89-1.41a2.61,2.61,0,0,1,0-.47c.39-2.53.69-2.79,3.26-2.84a3.18,3.18,0,0,1,.42,3.33c-.82,2.75-3,4.52-4.22,6.9C74.64,35.93,72.57,36.35,70.91,37.12Z" fill="#c8b18d"/><path d="M55.8,61.45a15.52,15.52,0,0,0,7.66-1.13c.89-.4,2.2-.78,2.81.1S65.57,62,65,62.64c-1.71,2.17-3.8,1.95-6.79.79A4.74,4.74,0,0,1,55.8,61.45Z" fill="#ebecf6"/></svg>