<svg id="Layer_1" data-name="Layer 1" xmlns="http://www.w3.org/2000/svg" viewBox="0 0 100 100"><title>f</title><path d="M57.47,42.58c0-2.91.06-5.82,0-8.72,0-1.82-.51-2.2-2.25-1.72a4.13,4.13,0,0,0-1.79.83c-1.55,1.51-3.58,1.59-5.49,2a4.58,4.58,0,0,1-2.46-.17,6.42,6.42,0,0,0-4.12-.31,1.6,1.6,0,0,1-2.24-1,.75.75,0,0,0-.93-.59,3,3,0,0,1-2.71-.84c-.65-.53-1.3-.1-1.27.76,0,.57.23,1.14.28,1.71A44.62,44.62,0,0,1,35,41.3a2.37,2.37,0,0,0,.45,1.88,4.13,4.13,0,0,1,0,3,3.77,3.77,0,0,0-.29,2.44c.39,5.13,1,10.26,1.19,15.4.27,6.22.65,12.44-.6,18.66-1,5.16-3.63,6.53-8.45,7.26a11.5,11.5,0,0,1-2.49,0c-3-.21-4-1.15-4.81-4.08a124.47,124.47,0,0,1-3.81-20.32,120.47,120.47,0,0,1-.29-21.45C16.36,39,16.7,34,17,28.91a14.61,14.61,0,0,1,2.29-7.3,21.82,21.82,0,0,1,10.8-8.84c4.38-1.64,8.87-2,13.41-2.19,1.59-.08,3.09-.55,4.69-.57a54.34,54.34,0,0,1,9.17,1c3.45.54,6.92.93,10.37,1.44a35.55,35.55,0,0,1,11.82,4.51c1.93,1.06,2.88,3.41,3.52,5.53a31.76,31.76,0,0,1-.17,19.17c-.84,2.64-1.15,5.35-1.75,8a83.38,83.38,0,0,0-1.56,21.57,30.69,30.69,0,0,1,.12,5.42c-.52,3.84-2.48,6.8-4.71,9.7a3,3,0,0,1-2.82,1.15c-2.23-.16-4.49.07-6.73.08-3.34,0-5.21-1.78-5.33-5.16-.09-2.5-.12-5,0-7.5.17-6.1-.73-12.12-1.28-18.16Q58.4,52.4,58,48a4.15,4.15,0,0,0-.43-1.68A5.93,5.93,0,0,1,57.47,42.58Z" fill="#bb2e91"/><path d="M51.67,51.57a1.49,1.49,0,0,1,.43-.05c1.62.67,1.72,2.1,1.59,3.51A10.16,10.16,0,0,1,51,60.5a1.8,1.8,0,0,1-1.73.76C48,61,46.56,60.36,47.16,62.8c.11.44-.68.67-1.18.62A11.6,11.6,0,0,1,43.56,63a5.22,5.22,0,0,1-3.82-4.74c1.07-.53,2.25-.09,3.32-.38C47.13,57.43,49.75,55,51.67,51.57Z" fill="#3e6ea9"/><path d="M35.44,46.17a2.88,2.88,0,0,1,0-3,17,17,0,0,0,4.37-1.61c1.68-1.1,5.34.45,6.05,2.35a1.25,1.25,0,0,1,0,1,7,7,0,0,1-6.21,3.67,7.32,7.32,0,0,1-3.44-1.84C36,46.52,35.72,46.35,35.44,46.17Z" fill="#456ba3"/><path d="M57.47,42.58a4,4,0,0,1,.13,3.79c-1.61,1.52-3.69,1.79-5.73,2-1.62.18-4.18-1.69-4.7-3.16s-.21-2,1.13-2.8c2.37-1.34,4.75-1.84,7.28-.42A9.26,9.26,0,0,0,57.47,42.58Z" fill="#456ea7"/><path d="M43.56,63l3.21-.15c.09-1.21-1.37-.48-1.47-1.57,1-.74,2-1.88,3.5-.8.74.52,1.2.27,1.7-.25a15.33,15.33,0,0,0,2.6-4.15c.87-1.81-.28-3.16-1-4.61,1.44-.83,1.77.34,2,1.25.88,4.15-2.46,9.51-6.52,10.82A4.28,4.28,0,0,1,43.56,63Z" fill="#93b0d7"/><path d="M51.67,51.57a2,2,0,0,1-.78,2.5c-1.52,1.22-2.7,2.83-4.72,3.42a6.42,6.42,0,0,1-3.12.43A2.71,2.71,0,0,1,44.79,57,6.35,6.35,0,0,0,49.2,53.7C49.81,52.75,50.19,51.52,51.67,51.57Z" fill="#93b0d7"/><path d="M67.32,30.92a6.1,6.1,0,0,1,0-3.35c.81-3.79,1.32-7.66,2.78-11.28.12-.31.42-.51,1.18-.57C69.09,20.49,70,25.87,67.32,30.92Z" fill="#d392c1"/><path d="M71.29,28.58c-.81-1.31-.33-2.62-.17-3.88.28-2.19.21-4.47,1.16-6.56S74,16,76.17,17.72c-3,.57-3.3,2.79-3.62,5.15C72.28,24.79,71.72,26.68,71.29,28.58Z" fill="#e3bbd8"/><path d="M42.71,30.57A1.63,1.63,0,0,1,43,28.8c1.33-2.18,2.69-4.34,4-6.5a3.19,3.19,0,0,1,.66-.73c.24-.2.53-.44.88-.23a.72.72,0,0,1,.3,1.05,27.68,27.68,0,0,1-2,3.4,23,23,0,0,0-2.9,4A1.29,1.29,0,0,1,42.71,30.57Z" fill="#e7c9e1"/><path d="M64.73,47.48a14.45,14.45,0,0,1,.33,4,40.74,40.74,0,0,0,.24,4.19c.15,1-.11,1.51-1,1.6s-.76-.84-.88-1.41c-.55-2.47.12-4.91.23-7.37C63.69,48.12,64,47.78,64.73,47.48Z" fill="#eacfe5"/><path d="M22.4,33.62a45.49,45.49,0,0,1-.54,12.16C20.37,44.5,20.7,36.68,22.4,33.62Z" fill="#dcabcf"/><path d="M64.55,25.65c.18-3.64,1.9-6.81,2.68-10.25a.67.67,0,0,1,.67-.6.76.76,0,0,1,.66.89,1.56,1.56,0,0,1-.08.49C67.27,19.38,66.3,22.68,64.55,25.65Z" fill="#d595c2"/><path d="M20.77,77.75c.61.08.73.48.82.89.33,1.45.7,2.9,1,4.36s.43,2.6,1.64,3.48a.79.79,0,0,1,.07,1.29c-.47.43-.93.19-1.29-.21a4.79,4.79,0,0,1-1.16-2.18c-.48-2.09-.88-4.21-1.28-6.32A1.38,1.38,0,0,1,20.77,77.75Z" fill="#dbaacf"/><path d="M33.27,28.89c-.52-.09-.62-.44-.46-.89A13.07,13.07,0,0,1,35,23.36c.64-.71.67-2.62,1.93-2,1,.5-.46,1.64-.68,2.53a15.3,15.3,0,0,1-2.13,4.15A1.53,1.53,0,0,1,33.27,28.89Z" fill="#e3b8d7"/><path d="M63.4,38.79a3.31,3.31,0,0,1-.84-2.92,23.34,23.34,0,0,0-.55-4.4c-.07-.53-.19-1.28.56-1.42s1.4.42,1.48,1.27a11.21,11.21,0,0,1,0,2.23C63.87,35.29,63.62,37,63.4,38.79Z" fill="#e2bad8"/><path d="M79.53,25.68c-.57-.53-.06-1.07,0-1.6,0-1,.09-1.92-1.32-2.22-.93-.2-1.1-1.66-.45-2.43a.71.71,0,0,1,1.09-.07,7.35,7.35,0,0,1,2,2.49c.61,1.2,0,2-.67,2.9C79.9,25,80.12,25.61,79.53,25.68Z" fill="#e5c5df"/><path d="M27.62,56.1c0-2.13,0-4.26,0-6.39,0-.53.23-1.08.79-1.12s.69.6.68,1.08c0,2.19.28,4.44-.82,6.49Z" fill="#daa3cb"/><path d="M72.78,60.06A18.29,18.29,0,0,1,72,51.27,14.57,14.57,0,0,1,72.78,60.06Z" fill="#dda6cc"/><path d="M26.34,83.71c-1-1.87-.78-3.64-.78-5.37,0-.39-.06-.91.47-1a.84.84,0,0,1,1,.86,9.29,9.29,0,0,1-.12,3.46C26.72,82.28,26.56,82.92,26.34,83.71Z" fill="#e1b6d6"/><path d="M69.22,42.66c-.51-2.86.15-5.33.5-8C71,36.27,70.8,39.72,69.22,42.66Z" fill="#d89bc6"/><path d="M70.83,64.88a21.58,21.58,0,0,1,0,6.78A7.74,7.74,0,0,1,70.83,64.88Z" fill="#e1bad8"/><path d="M29.82,83a7.37,7.37,0,0,1-.3-5.83C30.54,79,29.92,81,29.82,83Z" fill="#e1b8d7"/><path d="M30.51,67.84c-1.3-1.29-1-2.84-.83-4.36a.53.53,0,0,1,.75-.41.5.5,0,0,1,.31.58C30.65,65,30.59,66.44,30.51,67.84Z" fill="#deb2d3"/><path d="M74.09,83.85A1.16,1.16,0,0,1,73,85a.72.72,0,0,1-.89-.61A1,1,0,0,1,73,83.12,1,1,0,0,1,74.09,83.85Z" fill="#e5bdd9"/><path d="M53.29,46.76a3.38,3.38,0,0,1-.15-1.86c0-.62-.13-1.53.71-1.59a1.92,1.92,0,0,1,2.07,1c.34.82-.16,1.43-.74,1.9A2.23,2.23,0,0,1,53.29,46.76Z" fill="#c9d0e4"/></svg>