<svg id="Layer_1" data-name="Layer 1" xmlns="http://www.w3.org/2000/svg" viewBox="0 0 100 100"><title>f</title><path d="M71.17,61.82a8.14,8.14,0,0,1-3.39-5.56c-.34-1.71-1-3.24-3.29-3.27a8.62,8.62,0,0,1-2.56-1c-1.95-.73-3.08-2-2.74-4.19.69-4.34-2.2-6.51-5.31-8.2-1.53-.83-2.45-2.91-4.09-2.74s-3,1.52-4.49,2.31c-1.22.64-2.59.39-3.88.54a6.79,6.79,0,0,0-5.84,4.47c-1.89,4.39-3.1,5-7.78,4.21-2-.35-3.25.16-4,2.12-1,2.74-.71,5.69-1.47,8.47a.88.88,0,0,0,.17.75c3.25,2.72,1.7,6.89,2.92,10.28,1,2.8.24,6.52-1.18,9.57-1.23,2.64-3.56,3.25-7,2.08.13-1.16,1-1.77,1.78-2.51,1.92-1.9,2.82-3.57.08-5.82-2.36-1.95-2.15-3.92.38-5.8,1.45-1.08,1.44-2,.76-3.29-.24-.47-.34-1.08-.7-1.41-4.46-4.09-2.62-9-1.77-13.72a2.24,2.24,0,0,1,.9-1.7c4.65-2.36,6.3-7,8.57-11.14,1.28-2.36,3.79-1.55,5.41,1.63-.73,1-2.05,1.5-2.62,2.69a1,1,0,0,0,.07,1c1.25-.61,1.2-2.17,2.15-2.89s2.58-1.14,1.88-2.93c-.57-1.48-1.18-3-3-3.27-2.35-.3-3.82-1.45-3.21-3.9s2.21-3.36,4.83-3.77c4.54-.7,8.51.65,12.56,2.14.93,1,.49,2.45,1.07,3.59,3.13-3.6,3.17-4.26.35-4.84-1.5-3.3-4.94-6.47-.58-10.15.86-.73-.14-1.38-.42-2a12.87,12.87,0,0,1,9.87.2A4.32,4.32,0,0,0,60,13.48c4.11-2.56,8.06-2.2,10.49,4.4.75,2,1.49,3.73,3.62,4.79,2.31,1.15,3.43,3.49,4.35,5.84a1.73,1.73,0,0,1-1.53.67c-1.54-.27-3-.95-4.64-.82s-2.54-.59-2.43-2.29c.15-2.54-1.37-2.93-3.3-2.45-2.91.72-4.85-.22-6-3a4.13,4.13,0,0,0-1.51-1.79c-1-.69-2.34-1.36-3.29-.57-1.52,1.26-.49,3.2-.56,4.82s1.21,1.35,2.31,1.15c3-.55,3.53.86,2.63,3.38-.26.72-.73,1.43-.27,2.33,1.53.72,2.63-.71,4-.94A3.06,3.06,0,0,1,67,30.14c.87,1.11,1.37,2.31-.1,3.39-2.27-.69-3.24.51-3.7,2.77,1.3.35,2.4-1.6,3.68-.47,1,1,1.57,2.15,3.44,2.1,6-.16,9.08,5.26,6.18,10.65-2,.31-2.92,1.34-2.47,3.44s1.54,2.48,3.38,1.89c.25-1.28-2.73-1.09-1.21-2.83a4.2,4.2,0,0,1,3-.49c2.18.41,5.06.68,5.22,3.27.15,2.43-2.77,2.4-4.51,2.68A13.14,13.14,0,0,0,71.17,61.82Z" fill="#aa8f73"/><path d="M32.43,38.19A3.41,3.41,0,0,0,30.35,36c-1.25-.44-2.52-.32-2.54,1.37,0,2-.38,3.5-2.57,4.27-.93.33-1.26,1.81-1.16,2.75.2,1.81-.57,2.29-2.13,2.5a7.84,7.84,0,0,0-2.53,1c-.75.4-1.34,1.22-.7,1.92,1.53,1.69.43,2.71-.58,4A7.31,7.31,0,0,0,17,56.65C16.69,58,18.12,58.2,18.7,59c1.87,2.51,2.76,5.52,4,8.13-.4,1-1.11,1-1.74,1-1.11.05-2.19.25-2.51,1.46a3.59,3.59,0,0,0,1.35,3.49c.76.74,2.67,0,2.41,2.19s-.74,3.82-2.7,4.89a27,27,0,0,0-2.27,1.54c-1.56-.2-2.1-1.38-2.58-2.65A33.33,33.33,0,0,1,13,74.62C11.66,68.71,8.84,63.39,6.49,57.9c-1.47-3.43-2-6.77.14-10.17a6.59,6.59,0,0,0,.75-2.64,13.21,13.21,0,0,1,5.4-9.2,6.75,6.75,0,0,0,2.12-2.3C19,25.17,26,20.59,35.05,19A9.07,9.07,0,0,0,40,16.64a11.65,11.65,0,0,1,5.8-3.11c.39,0,.78.06,1.16.1.62.07,1.38-.12,1.69.63s-.33,1.16-.84,1.54-1.09.71-1.59,1.12c-1.5,1.21-2.4,2.56-.39,4.05,1.65,1.23,0,3,.88,4.33A1.74,1.74,0,0,1,45.14,27c-2.09.78-4,.84-5.56-1.15-.85-1.09-1.87-1.35-3-.21S34.52,27.53,33,26c-1.35-1.3-2.34.16-3.26,1a2.85,2.85,0,0,0-.86,3.53c.3.65.94,1.15,1.57.88,2.82-1.23,3.26,1.19,4.3,2.7.14.2.12.51.22.75,1.68,3.62,1.68,3.62-2.36,4q-.34-.16-.3-.4T32.43,38.19Z" fill="#a28161"/><path d="M71.17,61.82c.67-3.28,2.25-5,5.09-5.56,2.55-.54,5.08-1.15,8-1.83-2.32-3.18-5.41-2.93-8.44-2.86C74,51,74.39,50,75.43,48.94a18.09,18.09,0,0,1,8.08,1.35c2.79,1.13,3.13-.29,3.19-2.47A5.59,5.59,0,0,0,84,42.49c-1.6-1-2.79-2.46-1.88-4.24,1.5-2.9-.42-3.83-2.23-5.17-1.49-1.11-4.25-1.5-3.18-4.48l1.76-.1c2.14,1,4.13,2.25,6.39,3,6.63,2.28,8.69,11.83,7.44,17.05A34,34,0,0,1,91.4,52a5.86,5.86,0,0,0,1,5.92,13.41,13.41,0,0,1,2.19,5.43,8.64,8.64,0,0,1-2,8.07c-2.12,2.34-4.27,4.65-6.49,6.89-2.68,2.72-6.46,3.35-9.77,4.8-1.83.8-3.63-.93-4.7-3.77C70.66,77,71,76,73.05,74.75a17.08,17.08,0,0,1,1.85-.83C74.06,69.68,71.68,66,71.17,61.82Z" fill="#a07c5b"/><path d="M42.46,88a14.45,14.45,0,0,1-4.26-.7c-5.08-1.53-5.5-3.72-4.87-8.75.35-2.79,2.28-3.64,4.8-2.37a13.22,13.22,0,0,0,6.4,1.56,7.4,7.4,0,0,0,5-1.72c3.3-2.7,5.68-2.73,8.14-.76,2.28,1.84,2.56,3.89.69,6.11a14.74,14.74,0,0,1-5.57,4.28A31.93,31.93,0,0,1,42.46,88Z" fill="#5d88b9"/><path d="M54.52,53.09c2,.12,3,0,4,.5C63,55.65,63.59,59,60.07,62.43c-3,3-6,3.52-9.29,1.74-1.86-1-3.31-2.64-3.06-4.62.3-2.37.8-5,3.84-5.86A13.31,13.31,0,0,1,54.52,53.09Z" fill="#748fae"/><path d="M36.22,54.74A8.45,8.45,0,0,1,41,56.21c2.4,1.48,2.52,2,.87,4.51a4.61,4.61,0,0,0-.79,1.75,2.69,2.69,0,0,1-2.51,2.16,30.18,30.18,0,0,1-8-.73c-2.44-.64-2.84-5.63-.6-6.93A16.35,16.35,0,0,1,36.22,54.74Z" fill="#5e83ae"/><path d="M76.73,28.6A2.36,2.36,0,0,0,78.42,31c2.16.71,3.44,2.79,5.68,3.45,1.2.36,1.38,1.12,0,2.2-1.91,1.52-1.86,3.87,0,4.64,3.51,1.5,3.82,4.3,3.69,7.48-.05,1.37-.73,2.49-1.06,3.85A29.35,29.35,0,0,0,77.61,50a2.32,2.32,0,0,1-1.7-.83A.44.44,0,0,1,76,48.4c1.4-4.64.94-6.28-2.46-9.12a2.17,2.17,0,0,0-2.71-.5c-2.93,1.34-3,1.23-4.08-1.67-.18-.48-.28-1-.41-1.49a1.56,1.56,0,0,1,.13-2.26c1.22-1.12.63-2.06-.27-3s-1.81-.76-2.84-.23-1.77,1.55-3.06,1.7c-1.94.22-2.71-.63-2-2.46.36-1,.87-1.91,1.3-2.87.21-.47.48-1,0-1.43a1.17,1.17,0,0,0-1.45-.12c-.47.23-.85.64-1.33.83-1.73.69-2.84,0-3-1.79s1-3.74-.46-5.61c-.44-.55.61-1.28,1.43-1.49a6,6,0,0,1,6.84,3.3C63,23.06,63,23.06,66.24,22.47c4.59-.83,5.36,0,4.43,4.91C72.8,27.33,75.14,26.49,76.73,28.6Z" fill="#8e653b"/><path d="M66.41,47.63c-1.19,0-2-.43-2.08-1.74a5.66,5.66,0,0,1,4.5-5.18,2.21,2.21,0,0,1,2.12.68,1.64,1.64,0,0,1-.16,2.14c-.85,1.14-1.78,2.22-2.67,3.33A2.15,2.15,0,0,1,66.41,47.63Z" fill="#e6dfdd"/><path d="M45.14,27l1.53-1.74c1.22-.14,2.12-2.18,3.41-1s.09,2.57-.49,3.58C48.53,29.73,48,32,45.91,33.18,43.9,31.35,45.49,29.08,45.14,27Z" fill="#e8dfdc"/><path d="M66.48,33.37l-.13,2.26c-1.38.93-2.22,2.58-4.13,3.14a2.29,2.29,0,0,1-.16-2.84c.77-1.5,1.08-3.45,2.63-4.28S66.17,32.47,66.48,33.37Z" fill="#e0d9d4"/><path d="M32.43,38.19a2.63,2.63,0,0,0,.17.68,8.42,8.42,0,0,1-1.12,3.65,1.72,1.72,0,0,1-1.9,1c-1.12-.28-1.18-1.26-1.13-2.17C28.54,39.49,29.74,38.58,32.43,38.19Z" fill="#e4dbd8"/><path d="M43.34,84.75c-2.26.11-4.33-.09-6-1.71-.57-.56-1.12-1.19-.78-2.06s1.22-.63,2-.5c1.55.25,3.11.45,4.67.6a8.89,8.89,0,0,0,7.26-2.26,10.34,10.34,0,0,1,1.85-1.44,1.83,1.83,0,0,1,2.41.68,1.61,1.61,0,0,1,0,2.16,8.25,8.25,0,0,1-4.63,3.47C47.91,84.24,45.63,85,43.34,84.75Z" fill="#e7e8f2"/><path d="M33.41,57.92c2-.08,3.48-.1,4.69.83.88.67.61,1.63-.24,1.72a18.85,18.85,0,0,0-4.32,1.33c-1.82.64-3.25-.1-3.41-1.42-.19-1.48.68-2.27,2.71-2.45C33.23,57.89,33.62,57.92,33.41,57.92Z" fill="#cdd2dd"/></svg>