<svg id="Layer_1" data-name="Layer 1" xmlns="http://www.w3.org/2000/svg" viewBox="0 0 100 100"><title>f</title><path d="M67.45,11.93c1.12.3,2.4.21,3.18,1.34-1.86.42-.84,2.54-2,3.43-.22.17.36.65.68,1a14.69,14.69,0,0,0,6.36,3.23c3.49,1,5,4.33,7.66,6.4.78,4.49,2.9,8.68,2.68,13.43-.14,2.91-.4,5.64-2,8.11a17.39,17.39,0,0,1-9.34,4.68c-2.77.48-5-2.1-7.87-2.58-1.51-.26-.45-2.39-1.28-3.41v0c-.56-1.73-.69-3.3,1.58-3.85,1.61-.39,1.41-1.4.9-2.53a2.09,2.09,0,0,0-.32-.58c-2-2.15,1.06-5.93-1.7-7.23a15.09,15.09,0,0,1-5.62-4.74c-2.71-3.44-5.17-4-9.15-2.29-4.89,2.12-5.19,2-8.13-2.43-1.09-1.66-2.63-2.48-4.49-1.94s-2.35,2.15-2.42,3.93c0,1.28.6,2.63-.31,3.84-.59,5-1.9,9.91-2,15a3.23,3.23,0,0,1-1.63,3c-2.22,1.41-3,3.65-3,6.22a27.29,27.29,0,0,0,1.43,10.05,7.24,7.24,0,0,1,.54,2.89,16.92,16.92,0,0,0,.88,5.11A43.37,43.37,0,0,1,33,80.7c.09,1.57-2.08,3.42-3.76,3.61-1.35.15-2.72-.9-3.39-2.6a1.89,1.89,0,0,1-.17-.64c-.07-5.35-3.15-9.4-5.91-13.58a4,4,0,0,1-.47-2.22c0-1.54-.16-3.08-.08-4.62.12-2.49-.44-4.51-2.83-5.82a4.08,4.08,0,0,1-1.79-3c-.83-4-.58-8.1-.58-12.16a3.3,3.3,0,0,1,1.63-3.07c2-1,2.58-2.79,3.08-4.77a34.7,34.7,0,0,1,8.86-15.52,7.42,7.42,0,0,1,5.86-2.48,7.23,7.23,0,0,0,3.83-.77,2.77,2.77,0,0,1,1.23-.44c6,0,12-1.75,18-.19a20.37,20.37,0,0,1,3.49.91c2.55,1.19,5-.2,7.42-.28C67.86,13.06,67.52,12.33,67.45,11.93Z" fill="#9293a3"/><path d="M65.47,47.5a2,2,0,0,1,.68,1.06c.73,2.22.94,2.37,3.2,2.14.79-.08,1.47-.69,2.18.49,1,1.66,3.39,2.5,4.65,1.3,2.27-2.18,5.33-2.19,7.79-3.67-.25,3.71.52,7.41,0,11.13a9.37,9.37,0,0,1-1,3.79c-2.56,4.15-2.85,8.89-3.68,13.48-.55,3.06-1.27,6-3.24,8.49-.87,1.13-1.88,1.68-3.08,1.29a4.49,4.49,0,0,0-4,.71,2.91,2.91,0,0,1-3.38-.16,8.09,8.09,0,0,0-3.36-1.19c-2.34-.29-3-1.32-2.42-3.65.9-3.73,1.83-7.45,2.9-11.13a25.72,25.72,0,0,0,1.37-9.39C63.69,57.22,65.26,52.42,65.47,47.5Z" fill="#9e9dac"/><path d="M35.8,29.7a12.31,12.31,0,0,0-.59-2.88c-.48-2.63.93-5.34,3-5.93,2.49-.7,4.81.57,6,3.25,1.36,3.12,1.76,3.24,4.83,2,1.39-.58,3-.72,4-2,.12-.15.46-.3.58-.23,2,1,4.56.67,6.13,2.51.77.9,1.53,1.86,2.22,2.82,1.05,1.47,1.6,3.24,4.15,2.67,1.13-.25,2.41,2.24,1.91,4-.56,2-.63,3.56,1,5.07.77.73.5,1.86.39,2.83-.07.63-.47.89-1.11,1-2.58.31-2.58.32-2.82,2.8-.54-.44-.6-1.11-.82-1.71a3.14,3.14,0,0,0-3.73-2.31c-.53-2.19-3.17-2.53-4-4.5,1.33,0,2-.61,1.88-2a1.87,1.87,0,0,0-2.16-1.93,9,9,0,0,1-8.09-3.44c-.54-.68-1.3-.51-2.1-.35a5.92,5.92,0,0,1-6.61-2.88c-.41-.72-.35-1.9-1.54-1.79s-1.14,1.16-1.41,2A2,2,0,0,1,35.8,29.7Z" fill="#a5a5b2"/><path d="M57,39c.88.41,1.79.76,2.63,1.25,1.23.72,2,1.72,1.33,3.25a6.77,6.77,0,0,1-9.78,2.37,29.57,29.57,0,0,1-2.57-2.18A11.72,11.72,0,0,1,45,46.11c-3.41,1.61-8.62-1-9.29-4.71-.23-1.26.19-2.17,1.59-2.36,3.54-.49,7.12-1.68,10.45.77a1.56,1.56,0,0,0,2.1-.18C52.1,37.71,54.49,38,57,39Z" fill="#7f98b7"/><path d="M48.79,68.63c-4.34.6-6.22-2.2-7-6.39-.24-1.29-1-3.26.45-3.93,1.8-.83,2.07,1.37,2.86,2.42,1,1.37,2,1.59,4.08.85,2.33-.85,4.07-2.58,5.93-4.1a2.69,2.69,0,0,1,3.58-.24,1.5,1.5,0,0,1,.75,2c-1.54,3.15-2.93,6.43-6.18,8.31A6.74,6.74,0,0,1,48.79,68.63Z" fill="#8cabd1"/><path d="M45,64.2a11.56,11.56,0,0,0,9.66-4.12,2.69,2.69,0,0,1,.79-.58c.47-.25,1-.59,1.51-.17s.41,1,.16,1.49A12.84,12.84,0,0,1,51.45,67C49,68.23,46.9,67.35,45,64.2Z" fill="#e5e8f2"/></svg>