<svg id="Layer_1" data-name="Layer 1" xmlns="http://www.w3.org/2000/svg" viewBox="0 0 100 100"><title>m</title><path d="M69.79,52.12c-1.58.29-1.84,1.52-2.48,2.41-1.26,1.76-2.49,3.55-4.66,4.35-2.56.94-4.25-.42-3.79-3.14.34-2,.83-4,1.19-6.06.46-2.57.13-4.79-2.09-6.67-2.72-2.29-5.16-1.91-6.46,1.32C50.38,47.1,49.31,49.88,47,52c-3.13,2.76-6.67,2.9-10.45,1.94a2.88,2.88,0,0,1-1.78-1.17C33,50,31.19,47.35,31.09,44a48.32,48.32,0,0,0-.85-6.26c-2.17.93-4,2.09-6.12,2.56A4.66,4.66,0,0,1,19,38.5c-1.43-1.85-2-4-.71-6.07,2.89-4.82,6.43-9,11.5-11.78,2.71-1.48,5.26-3.27,7.84-5a8.6,8.6,0,0,1,4.66-1.51c3.6,0,7.22-.52,10.8.37a3.59,3.59,0,0,0,1.23.11c4.8-.54,8.59,2,12.77,3.74C72.48,20.68,75,24.84,77.65,29.7a37.18,37.18,0,0,1,4.59,15.85,62.16,62.16,0,0,1-.07,11.29c-.59,4.87-2.8,9.1-4.74,13.46A5.15,5.15,0,0,1,74,73.09a2.76,2.76,0,0,1-3.29-1,7.13,7.13,0,0,1-1.78-4.5c-.21-4.47.75-8.83,1.06-13.24A3.72,3.72,0,0,0,69.79,52.12Z" fill="#54a0d5"/><path d="M49.26,58.1c1.73.07,3.73-.28,4.58,1.74.78,1.86-.4,3.37-1.44,4.8a10.38,10.38,0,0,1-5.54,3.76A4,4,0,0,1,42,66.65c-2.67-4.28-4.06-4.49,1.86-7.35A10.86,10.86,0,0,1,49.26,58.1Z" fill="#4f80b4"/><path d="M42.13,86a15.26,15.26,0,0,1-4.74-.71,4.51,4.51,0,0,1-2.66-2c-.72-1.14-1.42-2.63-.76-3.73s2-.24,3.1.09a4.92,4.92,0,0,0,3.6-.24c2.45-1.1,4.8-2.3,6.42-4.59a5.92,5.92,0,0,1,1.33-1.27A3.58,3.58,0,0,1,52,73.25c1.24.47.76,1.75.85,2.72a3.58,3.58,0,0,1-.54,2.37,18.83,18.83,0,0,1-9.1,7.51A3,3,0,0,1,42.13,86Z" fill="#6995c4"/><path d="M26.84,60c2.72-.75,5,.68,7.43,1.48a2,2,0,0,1,1.18,1.36c1,3-1.79,6.83-4.86,6.29C27.83,68.68,25,67.82,23,65.63c0-.1-.11-.27-.09-.28A11,11,0,0,0,26.84,60Z" fill="#4e7bae"/><path d="M26.84,60c-.6.85,0,1.77-.16,2.63-.25,1.24-.26,2.82-2.35,2.07-.75-.27-1,.41-1.36.89a1.72,1.72,0,0,1-1.62-1.17c-.13-.4,0-1.06.29-1.05,2.16.07,2.77-1.68,3.79-3A1.45,1.45,0,0,1,26.84,60Z" fill="#8eaacd"/><path d="M79,51.47c-1.61-.69-2.25-1-2.93-1.24a1.75,1.75,0,0,0-2.16.55c-1.15,1.34-1.66,1.23-2.36-.13-.09-.18-.05-.42-.14-.6-.75-1.58-1.6-1.73-2.47-.19s-1.83,1.52-3.3.91c-2.38-1-4-2.46-4.1-5.17a2.28,2.28,0,0,0-1.13-2,10.14,10.14,0,0,1-2.58-3c-1.33-1.88-1.39-2,.65-3.12a4.36,4.36,0,0,0,2.4-2.2c.35-.89,1.2-1.36,1.9-2,1.68-1.47,3.34-3,2.84-5.64a1.94,1.94,0,0,1,.83-2.16c.78-.4,1.38.23,1.85.77a4.92,4.92,0,0,0,2.77,1.28c2.24.55,3.66,2.07,5.2,3.66,3,3.12,2.81,7.33,4.15,11a2.65,2.65,0,0,1-.69,2.59,1.89,1.89,0,0,0-.18,2.71C80.48,48.93,78.09,49.53,79,51.47Z" fill="#2284c1"/><path d="M49.56,77c-.15,1.77-1.33,2.86-2.44,4a16,16,0,0,1-4.56,3.08,3.25,3.25,0,0,1-3.93-.71,1.09,1.09,0,0,1-.46-1.06c.12-.51.58-.53,1-.56,3.22-.25,5.78-1.84,8.13-3.91C47.83,77.38,48.39,76.65,49.56,77Z" fill="#e5e7f3"/></svg>