<svg id="Layer_1" data-name="Layer 1" xmlns="http://www.w3.org/2000/svg" viewBox="0 0 100 100"><title>m</title><path d="M31.66,20.48c4.2-1.56,8-4.19,12.68-4.49A35.51,35.51,0,0,1,63,18.7c2.79,1.29,5.76,2.23,8.35,4,5.72,3.91,7.54,9.37,8.15,16.13.72,8-2.36,14.78-4.7,21.89-.84,2.57-2.08,2.45-4.58-.16h0A47.41,47.41,0,0,0,68.93,56a17.09,17.09,0,0,1,.41-13.68c1.7-3.81.63-6.3-3.46-7.12a41.24,41.24,0,0,1-9.67-3.63c-9.64-4.58-20.92-.63-27,5.59-1.58,1.62-3.7,2.93-4.13,5.55-.22,1.32-.91,2.84-2.68,2.4-1.53-.37-2-1.88-1.95-3.26.16-4.79,1.25-9.33,4.21-13.22A59.47,59.47,0,0,1,31.66,20.48Z" fill="#b25827"/><path d="M31.66,20.48c-1.24,3.14-3.53,5.6-5.7,8-2,2.24-2.86,4.9-3.76,7.53-.54,1.56-.52,3.37-.92,5.05a3.45,3.45,0,0,0,.15,1.81c.27.77.49,1.85,1.63,1.65a1.51,1.51,0,0,0,1.1-1.73c-.32-2.68,1.9-3.48,3.2-5.14,3.83-4.89,9-7.11,14.57-8.56a20.64,20.64,0,0,1,15.72,2c2.45,1.38,4.83,2.79,7.89,2.8,2.41,0,4.26,1.76,5.72,3.64.88,1.13.42,2.33-.16,3.48a23,23,0,0,0-2.35,6.57,18,18,0,0,0,.93,9.37,7.8,7.8,0,0,1,.57,3.61c-1.75-2.62-2.29-5.69-3-8.66a40.44,40.44,0,0,0-4.42-11.36,15,15,0,0,0-.92-1.61c-2.21-2.81-4.66-2.78-6.4.3-1.53,2.7-2.85,5.48-5.18,7.62-.36.33-.62.77-1,1.1-1.65,1.51-3.83,2.06-5.06,1.16-1.65-1.19-1.59-2.92-1.26-4.71.45-2.4,1.4-4.73.63-7.28-.88-2.92-2.3-4.13-5.36-4a8.55,8.55,0,0,0-6.51,3.1C29.09,39.65,26.33,43,24,46.62a77.52,77.52,0,0,1-5.15,6.79c-.83,1-1.73,2.28-3.39,1.59-1.42-.58-2-2.35-1.91-4.37a22.23,22.23,0,0,1,2.14-7.45c2.46-5.78,4.47-11.84,8.67-16.72C26.4,24,28.49,21.58,31.66,20.48Z" fill="#c27545"/><path d="M70.23,60.55c.42.25.83.54,1.26.76,1.82.92,2.2.83,2.47-1,.53-3.6,2.25-6.78,3.49-10.12a14.87,14.87,0,0,0,1-6.13c-.22-3.89-.54-7.78-.78-11.67a4.24,4.24,0,0,0-.79-2.44c-2.65-3.21-5.18-6.6-9.38-8A15.66,15.66,0,0,1,62,19.17a5.83,5.83,0,0,0-3.35-1.45c-4.79-.35-9.43-1.94-14.28-1.73,2.66-1.56,5.58-.89,8.3-.58a105.29,105.29,0,0,1,13.45,2.53,20.56,20.56,0,0,1,12.82,8.78c1.68,2.59,3.33,5.2,5.08,7.74,1.27,1.85,1.13,4,1.5,6.05.73,4,1.5,8,.59,12.13-.68,3.08-1.58,5.92-4.19,8a6,6,0,0,0-2.2,3.77,7.18,7.18,0,0,1-.75,2.09c-1.45,2.81-3.44,3.06-5.44.65A19.62,19.62,0,0,1,70.23,60.55Z" fill="#cb7f53"/><path d="M60.11,66.54c-3.17.1-5.85-.51-8-2.76a7.28,7.28,0,0,1-1.81-3.17c-.81-3.1.24-4.8,3.39-5.22,3.62-.48,7.11-.55,9.66,2.92,1.27,1.72,2.88,3.28,2,5.55C64.46,66.31,62.26,66.76,60.11,66.54Z" fill="#988ac2"/><path d="M37.53,75.62a12.84,12.84,0,0,1,.2-1.89c.32-1.38,1.05-2.22,2.65-1.76,1.19.34,2.41.58,3.57,1a12.92,12.92,0,0,0,7.61.42c3.95-1,5.83,1.21,5,5.2-.64,3-2.23,4.91-5.27,5.47-2.61.48-5.09,1.66-7.93.42C39.37,82.72,37.45,80.21,37.53,75.62Z" fill="#5480b3"/><path d="M38.36,64.94a21.27,21.27,0,0,1-7.14-1.27,6.41,6.41,0,0,1-1.33-.62,4.66,4.66,0,0,1-2.22-4.4c0-1.57,1.56-2.12,2.77-2.67,3.05-1.38,10.6.86,12.47,3.64a3.28,3.28,0,0,1-1.91,5A11.4,11.4,0,0,1,38.36,64.94Z" fill="#8f83be"/><path d="M46.28,82.27c-4.48,0-6.29-2.33-5.12-5.6.38-1.06.92-1.46,1.88-1.07a19.78,19.78,0,0,0,8.32,1.32c1.63-.06,2.17,1.13,1.17,2.41A7.51,7.51,0,0,1,46.28,82.27Z" fill="#e8e8f1"/></svg>