<svg id="Layer_1" data-name="Layer 1" xmlns="http://www.w3.org/2000/svg" viewBox="0 0 100 100"><title>m</title><path d="M65,8.88A2.41,2.41,0,0,0,66.27,11c3.2,1.9,4.43,5.49,6.92,8,1.07,1.08,1,2.93,1.32,4.46s.6,2.86.93,4.28a4.72,4.72,0,0,0,3.13,3.53c3.34,1.43,5.89,3.83,5.39,7.95-.37,3,.77,5.82,1.46,8.62,1.25,5.09,1.56,10.33,2.82,15.41.42,1.69.1,3.56.13,5.34a2.62,2.62,0,0,1-.81,2A9.06,9.06,0,0,0,85,74.7c-.58,2.08-5.83,4.15-7.84,3.45a3,3,0,0,1-2-2.27,32.31,32.31,0,0,1-1.22-7.72c0-1.55,0-3.1,0-5a16,16,0,0,0-4.68,3.08c-1.93,1.6-3.38,1.78-5.35.35a25.44,25.44,0,0,0-3.37-2.29,3.27,3.27,0,0,1-1.79-2.76c-.28-2.28-.78-4.53-1.2-6.78-.39-2.08-1-2.73-2.89-2.24a49,49,0,0,1-10.46,1.62,2.23,2.23,0,0,0-1.14.5c-2,1.52-4.42,1.78-6.76,2.23a4.75,4.75,0,0,0-3.44,2.39,3.8,3.8,0,0,1-5.61,1.56A28.33,28.33,0,0,0,20,57.91a8.77,8.77,0,0,1-4.78-3.38c-1.64-2-1.58-3.51,0-5.62.38-.5.73-1,1.06-1.56,1.22-1.9,1.15-2-1-2.55a7.58,7.58,0,0,1-1.5-.44c-1.86-.86-2-1.83-.46-3.24C15.05,39.47,15,39.4,13,38s-1.92-1.34-.45-3.38c.52-.72,1.13-1.41.49-2.24-1.2-1.57-.31-2.42.89-3.33,2-1.48,1.78-1.46,1-4-.56-1.74-1.44-3.57-.6-5.5.57-1.31-.52-2.43-.34-3.69s-.68-3.28.87-4.06a5.49,5.49,0,0,1,5.7.41,14.36,14.36,0,0,1,2.75,2.57c1.57,1.88,3.24,2.37,5.77,1.76,4-.95,7.86-2.15,11.72-3.48a26.46,26.46,0,0,1,8.89-1.74,31.48,31.48,0,0,0,6.2-.84c1-.19,2.18-.3,2.35-1.7A11.57,11.57,0,0,1,65,8.88Z" fill="#b8cdd9"/><path d="M36.69,72.45c-2.11-.58-3.63-1.15-4.84-2.41-.9-.95-2.21-.29-3.33-.47-.73-.11-1.59-.1-1.82-1A1.63,1.63,0,0,1,28,66.68c3.37-1.13,6.77-2.45,10.41-1.4,1.42.41,1.9-.09,3-1.07A16.24,16.24,0,0,1,50,60.06a3.86,3.86,0,0,1,2.09.62,29.21,29.21,0,0,1,3.11,2.11c1.82,1.12,2.9,2.44,2.24,4.64-.72,2.37-2.15,4.09-4.74,4.49a13.1,13.1,0,0,1-6.83-.65c-2.4-.95-3.12-.75-4.37,1.76C39,78,31.45,78.58,28,74.1c-.51-.66-1.06-1.3-1.55-2s-.65-1.15-.13-1.71a1.53,1.53,0,0,1,1.76-.19,4.37,4.37,0,0,1,1.79,1.7C31.73,74.38,33.3,74.56,36.69,72.45Z" fill="#9e8ec3"/><path d="M49,91.56c-3.47.19-5.79-1.43-7.86-3.4-1.34-1.27-1-2.78.69-3.45a38.66,38.66,0,0,1,4.72-1.52c2.29-.58,4.76-1.24,6.35-3.55s3-1.86,4.25.5c1.5,2.84,1.26,4.79-.93,7.15a27.74,27.74,0,0,1-2.69,2.64C52.17,91.07,50.62,92,49,91.56Z" fill="#e98fbc"/><path d="M62,10.79c2.38-.54,3.83.68,5,3.4.81,1.92,1.47,4.51,4.2,5.13a1.25,1.25,0,0,1,.72.94,5.84,5.84,0,0,0,1.68,3.93,2.26,2.26,0,0,1,0,2.4,4,4,0,0,0,.8,4.41A14.12,14.12,0,0,1,77,36.27a98.87,98.87,0,0,0,6.69,15.53A4.63,4.63,0,0,1,84.22,56a5.89,5.89,0,0,0,.1,4c.67,1.93,0,4,.54,5.92a1.34,1.34,0,0,1-2.36,1c-2.1-2-4.6-3.55-4.93-6.86A4.87,4.87,0,0,0,76,56.73c-.92-.76-1.5-2-3.15-1.43A1,1,0,0,1,71.64,54c1.07-3.65-1.48-5.41-3.81-7.1-2.13-1.54-2.29-1.4-1-3.68a4.27,4.27,0,0,0-.1-5,25.93,25.93,0,0,1-1.63-3.37c-1.46-2.66-3.63-3.33-6.33-2-3.62,1.83-7.35,1.16-11.08.49-.26,0-.68-.35-.68-.54,0-1.75-1.18-3.4-.45-5.2a28.87,28.87,0,0,1,1.17-2.91A66.11,66.11,0,0,1,55.6,13.06C57,11.46,58.89,10.78,62,10.79Z" fill="#abc2d0"/><path d="M45.07,65.53a8.4,8.4,0,0,1,5.32-1.09,4.63,4.63,0,0,1,2.85,1.13c.54.47,1.2,1,.86,1.83a2.12,2.12,0,0,1-1.5,1.44A7.36,7.36,0,0,1,45.07,65.53Z" fill="#c6ccdf"/><path d="M48.3,89c-1.65.05-3.13.12-4.14-1.29-.65-.92-.44-1.77.63-1.76,3.18,0,5.78-1.57,8.52-2.79.56-.25,1.09-.69,1.67,0a1.23,1.23,0,0,1-.13,1.71C53,86.92,51.63,89.68,48.3,89Z" fill="#f6ebf4"/></svg>