<svg id="Layer_1" data-name="Layer 1" xmlns="http://www.w3.org/2000/svg" viewBox="0 0 100 100"><title>f</title><path d="M52.63,10c4.78.38,9.62.21,14.38,1.11a25,25,0,0,1,6.06,2.39,1.7,1.7,0,0,1,.84,1.55A17.54,17.54,0,0,1,74,17.93c-.18,2.06-.42,4.12-.7,6.17-.22,1.62-.63,1.77-2.2,2.27-3.57,1.15-7.28,1.14-10.93,1.53a13.55,13.55,0,0,1-4.51-.31c-.54-.13-1.1-.18-1.65-.29-.72-.13-1,.19-1.38.84a12.83,12.83,0,0,0-1.22,5c-.39,3.79-.69,7.58-1,11.37a5,5,0,0,1-2.07,3.33,7.6,7.6,0,0,0-2.12,3.36A2.66,2.66,0,0,0,46.7,54a5.61,5.61,0,0,0,.82.84c1.65,1.23,1.47,2.67.07,4.35-.79.94-1.58,1.89-2.34,2.85a2,2,0,0,0,.37,3.06c.56.47,1.18.87,1.69,1.38a4.75,4.75,0,0,1,1,5.7,9.15,9.15,0,0,1-3.1,3.67A4.39,4.39,0,0,0,43,80.08a9.28,9.28,0,0,0,0,1.17c.46,2.16-.66,3.91-1.42,5.76a.61.61,0,0,1-.18.28c-1.39.92-2.67,2.13-4.3,2.51a7.21,7.21,0,0,1-4.74-.47,10,10,0,0,1-5.76-5.94,7.13,7.13,0,0,1,.12-5.09c.39-1,.7-2,1.09-3a6.61,6.61,0,0,0-.41-5.84,10.22,10.22,0,0,1,0-10.38,9.46,9.46,0,0,0,.38-7.5,12.41,12.41,0,0,1-.94-4.23,13.66,13.66,0,0,1,2.34-6.91c.37-.56.76-1.11,1.09-1.69a4.9,4.9,0,0,0,.6-3.87c-.26-1-.4-2-.59-3a4.89,4.89,0,0,1,1.28-4.66,4,4,0,0,0,1.32-3.13,3.31,3.31,0,0,1,1.33-2.6c1.2-1.1,2.14-2.29,2.05-4a1.1,1.1,0,0,1,.21-.63c1.59-2.28,3.2-4.4,6.08-5.39A27.43,27.43,0,0,1,52.63,10Z" fill="#1758a8"/><path d="M66.91,31.33a2,2,0,0,1,.49.09c.88.4,1.77.85,1.81,2,0,.76-1.33,2-2.23,2.31a4.88,4.88,0,0,1-6-2,5.3,5.3,0,0,1-2.9,2.23,5.45,5.45,0,0,1-4.33-.7,2.1,2.1,0,0,1-1-2.13c.07-.86.69-1.1,1.29-1.36A9.53,9.53,0,0,1,58.83,31a1.41,1.41,0,0,1,1.05.45c.66.92,1.22.5,1.94,0A3.72,3.72,0,0,1,65.61,31c-.81.68-2,1-2.07,2.36.18,1.17.77,1.54,2.07,1.21,1.06-.27,1.76-.8,1-2A1.13,1.13,0,0,1,66.91,31.33Z" fill="#7095c2"/><path d="M59.09,45.41a4.48,4.48,0,0,1-3.36-1.89,3,3,0,0,1,.86-3.58,1.17,1.17,0,0,1,1.11,0c1.94.8,3.7.14,5.41-.74,1.06-.55,1.74-.33,2.21.77a2.68,2.68,0,0,1-.72,3.19A9.63,9.63,0,0,1,59.09,45.41Z" fill="#ea7ab0"/><path d="M63.16,33.42c.28-2,.53-2.21,2.45-2.45a2.24,2.24,0,0,1,1.31.37l0,1.38A2,2,0,0,1,65,34.65C64.14,34.75,63.32,34.52,63.16,33.42Z" fill="#2559a8"/><path d="M34.92,87.64a4,4,0,0,0,2.77-4.13,1.36,1.36,0,0,0-.8-1.18,1.16,1.16,0,0,1-.63-1.26c.11-.57.6-.6,1-.65a2.31,2.31,0,0,0,2.06-1.92,6.72,6.72,0,0,1,2.1-3.36c.18-.17.39-.44.8-.11a12.7,12.7,0,0,0-1.35,1.59,6.9,6.9,0,0,0-.73,5.3c.54,2.61-1.4,4.53-2.92,5.56A2.68,2.68,0,0,1,34.92,87.64Z" fill="#e0e3f2"/><path d="M31.9,86a6.13,6.13,0,0,1-1.47-9.19c1.23.88,1.92,1.9,1.3,3.52a8.66,8.66,0,0,0-.2,2.83A19.14,19.14,0,0,0,31.9,86Z" fill="#e5e5f3"/><path d="M40.48,57.92c.95,2.68-.66,4.47-1.56,6.6C37.91,62.78,38.55,60.14,40.48,57.92Z" fill="#d7dcef"/><path d="M29.76,61.19c.65,1,1.09,1.88.47,3a14.79,14.79,0,0,0-.77,2.22C28.36,65,28.48,63.12,29.76,61.19Z" fill="#d0d7ec"/><path d="M42.58,37.13c.57-2.59.48-4.93,1.19-7.16a.59.59,0,0,1,.07-.15c.27-.4.47-1.14,1-.89s.16.89,0,1.31A18.89,18.89,0,0,0,43.38,36C43.33,36.38,43.31,36.69,42.58,37.13Z" fill="#97b1db"/><path d="M33.78,55.64c-.34-1.45,1-2.15,1.54-3.2A1.64,1.64,0,0,1,37,51.51c.34,0,.71,0,.79.43a.57.57,0,0,1-.39.67c-1.68.27-2.17,1.78-3.06,2.87A.43.43,0,0,1,33.78,55.64Z" fill="#acbde0"/><path d="M41.35,23.84c1-.6,1-1.58,1.35-2.36.2-.43.25-1.08,1-.85s.76.74.52,1.35c-.06.15-.11.31-.18.46C43.34,24,43.18,24.06,41.35,23.84Z" fill="#cad3eb"/><path d="M45.71,26.06c-.16-.37-.29-.52-.27-.64a12.92,12.92,0,0,1,2-4.56c.17-.25.43-.4.7-.2s.15.5,0,.75c-.33.65-.68,1.28-1,1.92Z" fill="#9fb7de"/><path d="M41.83,64.84c1.2,1.46,2.69,2.32,3.8,3.84A4,4,0,0,1,41.83,64.84Z" fill="#a9bde0"/><path d="M36.38,72.53a11.39,11.39,0,0,1,.44,3,.59.59,0,0,1-.46.76.67.67,0,0,1-.79-.66A4.19,4.19,0,0,1,36.38,72.53Z" fill="#c7d1e9"/><path d="M43.92,73.26c-.24-1.46.05-2.19,1-2.52a.66.66,0,0,1,.62,0c.22.15.16.39.12.6A2.74,2.74,0,0,1,43.92,73.26Z" fill="#c0cbe7"/><path d="M35.49,41.58a14.46,14.46,0,0,1-.76,3.5C33.93,43.88,34.11,43,35.49,41.58Z" fill="#9cb7de"/><path d="M30,46.57a3.45,3.45,0,0,1,.49,2.77.54.54,0,0,1-.33.33.4.4,0,0,1-.5-.31A3.21,3.21,0,0,1,30,46.57Z" fill="#b6c7e5"/><path d="M44,55.81c0-.11.06-.31.16-.4s.4-.06.57.08c.42.35.87.7.8,1.33a.68.68,0,0,1-.43.64.5.5,0,0,1-.55-.26A2.75,2.75,0,0,1,44,55.81Z" fill="#aabee2"/><path d="M47.72,33.75c.53.54.33,1.06.34,1.52s-.06.73-.51.66-.45-.44-.46-.79A1.73,1.73,0,0,1,47.72,33.75Z" fill="#8eabd7"/><path d="M35.89,79.45c-.48-.73-.37-1.24.2-1.65a.28.28,0,0,1,.41.13A1.51,1.51,0,0,1,35.89,79.45Z" fill="#b0c0e1"/><path d="M57.21,35c-.28,0-.55,0-.83,0-.55,0-1.19.06-1.44-.57a2.47,2.47,0,0,1,.36-2.36c.42-.61,1.06-.53,1.66-.44,1,.16.82,1,1,1.69C58.26,34.19,57.76,34.62,57.21,35Z" fill="#2358a8"/><path d="M63.16,33.42c1.8,1.42,2.24,1.33,3.78-.71.85.18.69.78.44,1.28-.66,1.34-3.77,1.47-4.36.29C62.85,33.94,62.82,33.66,63.16,33.42Z" fill="#c8d1e5"/><path d="M57.21,35l.71-1.64a1.69,1.69,0,0,0,.19-.27c.16-.36,0-1,.72-.87a1.15,1.15,0,0,1,.56,1.56A2,2,0,0,1,57.21,35Z" fill="#c5cfe5"/><path d="M59.6,43.82c-1.47,0-2.17-.57-2.1-1.64,0-.38.18-.69.62-.56,1.62.46,3.09-.1,4.57-.62.36-.13.78-.36,1.06.06s0,.76-.22,1.09a3.46,3.46,0,0,1-2.21,1.4A7,7,0,0,1,59.6,43.82Z" fill="#f7e9f3"/></svg>