<svg id="Layer_1" data-name="Layer 1" xmlns="http://www.w3.org/2000/svg" viewBox="0 0 100 100"><title>f</title><path d="M79.11,26.2a21.13,21.13,0,0,1,3.23,9.1c.23,3.55.78,7.11.05,10.66S81.88,53.1,82,56.67a16.87,16.87,0,0,1-1.89,8.5,6.45,6.45,0,0,1-5.46,3.64c-.95.08-1.9.23-2.82.3a6.49,6.49,0,0,1-5.62-1.93C63.23,63.78,60.9,60,60.3,55.43c-.15-1.17-.39-2.34-.56-3.51a14.59,14.59,0,0,1,.1-6.15c.36-1.3.14-2.33-1.35-2.74a2.17,2.17,0,0,1,3,0c1,.86.4,1.92-.06,2.84-.58,1.17-1.14,2.3,0,3.63a10.65,10.65,0,0,0,2.84-7.12,3.69,3.69,0,0,1,.26-1.63c.35-.74.78-1.46,1.66-1.56s1.16.67,1.51,1.29A2.65,2.65,0,0,0,69,41.81c1-2.3,1.11-2.36,3.1-2.62-2.43-2.72-5.72-3.6-8.92-4.59-.88-.27-1.11.75-1.36,1.35-.74,1.72-1,3.7-2.93,4.71-.93.48.45,1.68-.39,2.37-1.72.12-3.26-.6-4.85-1.06-.79-.23-1.23-1-1.7-1.61-.85-1.15-1.73-2.27-2.57-3.43a1.76,1.76,0,0,0-2.31-.55c.57-1.78,1.07-2.06,2.7-1.16.93.51,1.66.88,2.32-.28,1.46-1.6.7-3.62.55-5.27a9.69,9.69,0,0,1,1.7-6,3.77,3.77,0,0,0,.47-2.93c-.77-3.55-.06-4.88,4.57-5.37,6.46-.68,11.15,3.09,15,7.37a10,10,0,0,1,2.55,8.82,5.35,5.35,0,0,0,1.25,4.9,1.48,1.48,0,0,0,1.67.65c.63-.24.58-.88.65-1.43.29-2.23-.58-4.21-1.31-6.22C78.74,28.38,78.05,27.32,79.11,26.2Z" fill="#79b3e1"/><path d="M79.11,26.2a5.92,5.92,0,0,0,.7,3.17A13.38,13.38,0,0,1,81.17,37a1.63,1.63,0,0,1-2.67.82A5.54,5.54,0,0,1,76.22,32a5.92,5.92,0,0,0-1-5.56c-.15-.18-.34-.43-.32-.62.35-3.1-2.27-3.91-4.1-5.28a11.08,11.08,0,0,1-2.32-2c-1.24-1.58-3.23-1.91-5.05-2.13a9.52,9.52,0,0,1-2.51-.23c-1.85-.75-3.36.45-5,.79a.94.94,0,0,0-.63.94c0,.87-.33,2,.08,2.58,1.07,1.6.32,2.58-.63,3.76-.72.9-.56,2.32-1.62,3.09a.46.46,0,0,0-.11.43c1.19,1.52-.16,3.25.41,4.8a2.14,2.14,0,0,1-1.07,2.81c-1.56-1.27-.82-3-.7-4.45A2.71,2.71,0,0,0,50.42,28c-.89-.58-1.5-.58-2,.6-.86,2-4.3,3.3-6.19,2.35a4,4,0,0,0-3.38-.26c-1.73.58-2.38,0-2.28-1.83.08-1.32.29-2.65-1.39-3.09-1.2-.31-2.84,1.05-3.09,2.72a8.63,8.63,0,0,1-3.17,5.67,7.7,7.7,0,0,0-2.73,5.16,29.29,29.29,0,0,1-1.94,8.1,4.81,4.81,0,0,0-.41,2.8c.34,1.8.23,3.3-1.71,4.18-.73.33-.67,1.19-.74,1.91-.27,2.75,1.12,5.28,1,8,0,.62.6.93,1.15,1.05a4.89,4.89,0,0,1,3,1.69c.65.81,1.59.47,2.37-.09s1.16-1.11,2-1.19c1,.58,1,2,2.06,2.56s.82,2,1.61,2.82c-.87.83-1.61-.34-2.58-.14-.44.92.22,1.77.37,2.66.32,1.85-.32,2.55-2,1.94A5.59,5.59,0,0,0,27,75.32c-1.06.28-1.77-.52-2.58-1-1.48-.89-3.37,0-3.15,1.65.26,2,.4,4.11,2.23,5.91.51-2.53,1.67-3.89,4.25-4.19s4.3.48,5.55,2.67c.82,1.44,1.51,3.13,3.79,2.31,1.69-.61,3.66-3,3.7-4.58a3.28,3.28,0,0,0-.91-1.9c-.42-.62-1.18-1.19-.5-2.09,3.13.61,3.41,1,3.36,4A5.39,5.39,0,0,1,41.28,82a3.37,3.37,0,0,0-.76.91c-1.24,2.88-3.79,4.13-6.4,5.41a6.64,6.64,0,0,1-6-.07C24.55,86.65,22,84,19.69,80.78c-2.79-3.86-2.81-8-1.93-12.29a77.86,77.86,0,0,1,1.64-7.67,18.76,18.76,0,0,0,.44-7.73,30.61,30.61,0,0,1,1.43-12.47,45.89,45.89,0,0,1,3.2-6.92A5.87,5.87,0,0,1,27.67,31a3.07,3.07,0,0,0,2.16-3.71C29.22,22.61,32,19.64,35.21,17a5.81,5.81,0,0,1,1.59-1C40.52,14.62,44,12.59,48,12c1.35-.2,2.47-1.07,3.9-1,1.84.07,3.62.44,5.43.67,4,.5,7.61,2.23,11.39,3.44,2.7.87,4.46,3,6.31,5A24.75,24.75,0,0,1,79.11,26.2Z" fill="#66a9dc"/><path d="M31.24,66a11.37,11.37,0,0,0-2,1.72A2.23,2.23,0,0,1,25.57,67c-.28-.51-.44-.81-1-.62-1,.35-1.49-.77-2.39-.79-.66,0-.51-.71-.48-1.14a13.49,13.49,0,0,0-.76-4.91c-.48-1.53-.19-3.16-.15-4.75a1.33,1.33,0,0,1,1-1.21c1.7-.73,1.65-.75,1.42-2.63a6.79,6.79,0,0,1,.52-4,21.18,21.18,0,0,0,1.77-7.36A8.65,8.65,0,0,1,29,33.19a5.65,5.65,0,0,0,2.26-4.62c.09-1.58,2.17-3.7,3.75-3.71a2.73,2.73,0,0,1,2.36,3.23c-.12.75-.83,1.61-.05,2.21s1.51-.18,2.17-.55a1.94,1.94,0,0,1,2.57.43c.63.63,1.22,1,2,.27.52-.47,1.2-.31,1.83-.37,1.55-.13,2.11-.55,1.87-2-.22-1.33.4-1.32,1.26-1.29a3.18,3.18,0,0,1,3,4.34c-.05.15-.22.33-.17.43.54,1.24-.08,2.59.36,3.84-.81,1.73-1,1.8-2.4.71s-1.48-1.19-2.82.31l-.47.43a24,24,0,0,1-6.39,4.48c-2,.84-2.9.24-3.08-1.89-.09.3,0-.18-.06-.06-.36,1.47-.7,2.9-2.56,1.28-.55-.48-1-1.15-1.82-.63a2.47,2.47,0,0,0-1.27,2.41c1.13,6.67-.35,13.44.78,20.12A3.37,3.37,0,0,1,31.24,66Z" fill="#4e9dd4"/><path d="M39.38,74.1c0,1,.85,1.47,1.39,2.14,1.11,1.38,1.14,1.81.12,3.3a2.73,2.73,0,0,0-.56,1.29,2.26,2.26,0,0,1-1.59,1.88c-3.49,1.55-3.72,1.5-5.82-1.82A13.63,13.63,0,0,0,32,79.5c-.79-1-1.64-1.74-3.06-1.21a5.14,5.14,0,0,1-1.42.12c-2.23.15-2.58.48-3,2.79a3.38,3.38,0,0,1-.23.91c-.47,1-1.26,1-1.8.16a8,8,0,0,1-1.2-2.55,7.93,7.93,0,0,0-.92-3.14,1.44,1.44,0,0,1,.37-1.75,7.86,7.86,0,0,0,1.12-1.23c.61-1,1.27-1,2.12-.32.54.46,1.15.84,1.71,1.28.41.32.83.53,1.3.22,1.38-.9,2.56-.32,3.73.45a.93.93,0,0,0,1.1.11c.38-.27.3-.68.17-1.08-.32-1-.64-2-.93-3A1.13,1.13,0,0,1,31.55,70c.46-.35.91-.12,1.29.2.54.45,1,1.07,1.83,1C36,72.61,38.16,72.56,39.38,74.1Z" fill="#4e9dd4"/><path d="M39.51,45.36a10.24,10.24,0,0,0,6.49-1,8,8,0,0,1,6,.06c2.3.83,2.72,2.89,1,4.67a5.8,5.8,0,0,1-8.14.16c-.82-.75-1.31-1.2-2.24-.06a9.16,9.16,0,0,1-2.55,1.7c-1.12.66-2.2.15-3.17-.33s-1.55-1.67-2.62-2.29c-.65-.38-.2-1.28.38-1.83C36.07,45.21,37.72,45.17,39.51,45.36Z" fill="#6c9bca"/><path d="M31.24,66a6.63,6.63,0,0,0,.24-4.57,11.62,11.62,0,0,1-.32-4.52,3.64,3.64,0,0,0,.06-.95c-.54-3.62.25-7.24,0-10.86A3,3,0,0,0,31,43.68c-1.38-2,.33-3.21,1.27-4.53.51-.72,1.73-.31,2.58.72.3.36.13,1.31,1,.91.6-.26.61-.88.54-1.45,0-.24-.13-.46-.14-.7a.64.64,0,0,1,.5-.7.83.83,0,0,1,.94.53c.2.38,0,.76,0,1.15-.19,1.31.24,1.73,1.51,1.4a12.69,12.69,0,0,0,4.31-2.46,6.67,6.67,0,0,1,3-1.74c0,.16,0,.36-.08.46a14.17,14.17,0,0,1-8.26,5.2,5.39,5.39,0,0,1-3.64-.83c-1.61-.89-1.93-.7-1.95,1.12,0,6.13,0,12.25,0,18.38a11.05,11.05,0,0,1-.27,3.31c-.43,1.39.21,2.65.69,3.91A2.11,2.11,0,0,1,31.24,66Z" fill="#76b1df"/><path d="M40.62,56.81a6.32,6.32,0,0,0,4.94-1.29c1.62-1.12,2.39-1.11,3.45-.27,1.44,1.13,1.15,4.16-.67,5.12a19.7,19.7,0,0,1-5,2.12c-2.75.58-4.63-1.24-5.39-3.53-.38-1.14.31-2,1.54-2.14A8.44,8.44,0,0,1,40.62,56.81Z" fill="#e67bb0"/><path d="M58.49,43c.05-.71-.56-1.12-.75-1.7-.26-.78-.49-1.7.95-1.37a.85.85,0,0,0,1-.43A7.32,7.32,0,0,0,60.82,37c.11-1.81,1.42-2.68,2.52-4.2.25,1.18.25,2.34,1.66,1.69a1.47,1.47,0,0,1,.93.1c1.6.53,2.74,2.13,4.63,2,.68,1.25,2.29,2,2,3.77-.74.53-.51-1.36-1.58-.54s-1.33,2-.91,3.76c-1.46-1.21-3-1.55-3.11-3.43,0-.74-.73-.77-1.21-.2a2.94,2.94,0,0,0-.93,2.35,13.76,13.76,0,0,1-.38,3.15c-.22,2.31-2.42,3.4-2.57,5.77-2.2-2.49-2.3-3.16-1-5.46a6.94,6.94,0,0,0,.38-.6c.65-1.51.37-2-1.35-2.08a13.28,13.28,0,0,0-1.43,0Z" fill="#4e9dd4"/><path d="M51.64,47.27a2.47,2.47,0,0,1-1.84,1.9c-.6,0-.81-.36-.83-.91,0-1.05.62-2.28,1.22-2.31A1.55,1.55,0,0,1,51.64,47.27Z" fill="#d3ddee"/><path d="M43.32,60.78A8.69,8.69,0,0,1,42,60.64a1.32,1.32,0,0,1-1.09-1.36c0-.91.69-.94,1.33-.93a7.27,7.27,0,0,0,4.28-1.1.72.72,0,0,1,1,.07c.32.37.13.76-.07,1.09A4.68,4.68,0,0,1,43.32,60.78Z" fill="#f4e2ef"/></svg>