<svg id="Layer_1" data-name="Layer 1" xmlns="http://www.w3.org/2000/svg" viewBox="0 0 100 100"><title>f</title><path d="M23.15,48a10.57,10.57,0,0,0-1.86-5.47,5.37,5.37,0,0,1-1-3.48A10.22,10.22,0,0,0,19.94,36,2.93,2.93,0,0,1,21,32.44c1.22-.75,2.39-.3,3.39.62a5.85,5.85,0,0,0,.86.75c2.87,1.72,4.13,1,4.2-2.3,0-.86,0-1.72.09-2.58a2.5,2.5,0,0,1,2.15-2.65,2.27,2.27,0,0,0,2.06-2c.37-1.59,1.91-1.95,3-2.79a3.84,3.84,0,0,1,4-.58c1.89.62,2.21.27,2.54-1.8.47-3,1-3.45,3.84-2.76.84.21,1.27.09,1.5-.72.18-.64.33-1.29.53-1.93a2.36,2.36,0,0,1,4.5-.45c.28.5.52,1,.79,1.52s.78,1.17,1.54,1.11c1.67-.14,2.69.9,3.57,2s1.93,1.18,3.2.44c2.81-1.63,3.92-1.43,6.17,1,.73.78,1.29,1.31,2.37.45,1.49-1.19,2.53.16,3.82.72s2.28-1.67,3.86-.89a3.19,3.19,0,0,1,1.6,1.94C81,22.78,81.68,23,83,22.64c2.33-.59,2.84-.16,2.67,2.18a45.65,45.65,0,0,1-4,15.15c-.27.62-.68,1.3-1.33,1.43-1.8.37-2.32,1.71-2.88,3.19-.94,2.5-2.24,2.91-4.25,1.15-1.5-1.32-3.19-1.08-4.85-1.16-1.11-.05-1.47,1-2,1.84-1.34,2.18-2,2.38-4.33,1.13a1.94,1.94,0,0,0-2.12,0c-.67.39-1.62.88-2.16.4-2.64-2.33-4.92.75-7.42.35-.85-.13-1,.8-1.08,1.43-.24,1.89-.45,3.79-.57,5.7a8.25,8.25,0,0,1-1.46,4.83c-1.42,1.85-1.18,4.15-1.27,6.32,0,1,0,2.1,0,3.15a1.88,1.88,0,0,1-1.29,2,2,2,0,0,1-2.37-.39,4.56,4.56,0,0,0-1.86-1.28c-1.58-.62-2-1.88-1.93-3.46A55.15,55.15,0,0,0,38.64,59C35.2,62.7,35.26,67.45,34.73,72c-.14,1.23-.11,2.48-.17,3.72s-.4,2.15-1.58,2.46c-1.54.41-1.5,1.5-1.38,2.69a13.57,13.57,0,0,1-.36,5.4,2.64,2.64,0,0,1-2.85,1.92,2.69,2.69,0,0,1-2.48-2.34c-.46-4.88-2.54-9.14-5.2-13.12-1.1-1.65-2.24-3.08-1.13-5.2.45-.85-.37-1.61-.66-2.4-.65-1.75-.32-2.46,1.45-3,.93-.27,2.22.12,2.33-1.48a4.85,4.85,0,0,0-1.34-4.19c-1.48-1.34-3.05-2.6-4.58-3.88-.36-.31-.77-.56-1.11-.89a4.08,4.08,0,0,1,1.81-7,1.79,1.79,0,0,1,2,.68A10.31,10.31,0,0,0,23.15,48Z" fill="#502c36"/><path d="M58.32,77.79a9.19,9.19,0,0,1-6.54-2.19c-2-1.53-2.12-3.57-.29-5.31,1.42-1.35,2.35-1.44,4.1-.41,3.51,2.07,7,1.34,9.47-2,1.14-1.52,1.83-1.81,2.73-1.12a3.06,3.06,0,0,1,.74,3.76,51.28,51.28,0,0,1-5.12,5.74C62.06,77.69,60.25,77.91,58.32,77.79Z" fill="#e883b5"/><path d="M69.51,56.78c-.6,0-1.37-.07-2.12-.16a3.21,3.21,0,0,1-2.6-2,1.43,1.43,0,0,1,.54-2c1.49-1,5.19-1,6.51.2.89.79,1.59,1.73,1.06,3s-1.56,1.22-2.66,1C70,56.83,69.85,56.82,69.51,56.78Z" fill="#5b83b4"/><path d="M55.1,53.1a6.19,6.19,0,0,1,2.62.3c.87.39,1.94.68,1.7,1.93a2.52,2.52,0,0,1-2.19,2.31,6.29,6.29,0,0,1-5-1.52c-.49-.43-1.05-.92-.77-1.69a1.72,1.72,0,0,1,1.48-1.19C53.67,53.14,54.43,53.13,55.1,53.1Z" fill="#577eb0"/><path d="M49.51,30.08A1.6,1.6,0,0,0,49,31.35c0,1.52,0,3-2.29,2.43-.72-.17-1.19.68-1,1.4.25,1,.49,2.27,1.85,2.13,1-.1,2-.53,2.41.68a3.21,3.21,0,0,1-.38,3.26A10.77,10.77,0,0,0,47.34,49c.22,3.51-.78,6.79-1.34,10.14-.24,1.42-1.53,2.5-2,4-.25.85-1.73.69-3.06.56,1.46-2.77-.25-5-.66-7.49A.86.86,0,0,0,39,55.53c-1.47.56-2.09-.28-2.6-1.43-.83-1.89-1.7-2.12-3.34-.9a7.47,7.47,0,0,0-.83.79c-.81.82-1.39.33-1.82-.38a2.32,2.32,0,0,1-.36-1.34c.29-2.69-.86-5.54.88-8.09a1.27,1.27,0,0,0-.09-1.36,7.3,7.3,0,0,1-.77-1.5c-.83-3.06-.78-3.11,2.16-4.42,1.29-.57,2.36-1.58,3.87-1.77.87-.11.87-1,.66-1.61a6.44,6.44,0,0,1,.83-6.23c.67-.93-.14-2.3.89-3.39.82-.87,1.35-1.41,2.61-1A8.06,8.06,0,0,1,44.81,25a3.69,3.69,0,0,0,2.39,1.48c2.12.12,2.48,1.39,2.42,3.1A.31.31,0,0,1,49.51,30.08Z" fill="#3b0b12"/><path d="M77.69,31.2c.47-.31.7-.48.94-.62.63-.37.7-1.61,1.66-1.3s.78,1.38.86,2.22a7.88,7.88,0,0,1-.72,3.91,10.09,10.09,0,0,0-1.13,4.28c-1.53-.4-2.74-1.21-4.2-1.07a1.26,1.26,0,0,1-1.34-1.25c-.12-1.5-1.1-1.5-2.23-1.53a8.05,8.05,0,0,0-3.76,1.25c-.53.25-1.05.53-1.58,0a1.39,1.39,0,0,1-.27-1.82A12,12,0,0,1,67.68,32c1.87-1.84,1.38-4,1.35-6.18a3.54,3.54,0,0,0-.46-1.34,2.74,2.74,0,0,0-2.73-1.73A2.78,2.78,0,0,0,63.48,25c-.28,1.19-.35,2.43-.58,3.65a1.91,1.91,0,0,0,1,1.94c1.3.72,1,1.72.56,2.69-.63,1.28-1.35,2.51-2.1,3.73-.35.57-.93,1.21-1.61,1-2.51-.63-4.25,1.2-6.33,1.9-.82.27-1.16.24-1.6-.47-1.14-1.81-2.34-3.54-.63-5.71.53-.67.22-1.68.28-2.53a10.33,10.33,0,0,1,.2-2c.17-.62.4-1.36,1.26-1.33.69,0,1,.63,1.11,1.16.29,1.12.44,2.32,2,2.36s2.54-1.17,3.66-2c.5-.37.21-1,.14-1.61C60.44,24.64,62,22,63.38,19.3c.49-.92,1.3-.71,1.92-.11.9.87,2,1.49,2.88,2.33a6.06,6.06,0,0,0,6.09,1.43c2.08-.5,2.25-.32,1.82,1.88S76.42,29.1,77.69,31.2Z" fill="#3b0b12"/><path d="M26.82,49c1.32,2.88,2.29,5.65,5,7.36,1.27.81,2,1.87,1.31,3.62A7,7,0,0,0,33,63.56c.65,3.47-.36,6.75-.62,10.12-.1,1.26-1.1,1.93-1.26,3.1-.25,1.93-1.24,3.76-.58,5.82a2.41,2.41,0,0,1-.19,1.67c-.43.84-1,1.82-2,1.83-1.18,0-1.3-1.24-1.61-2.09a5.43,5.43,0,0,1-.13-1.7c0-2.18.16-4.34-1.37-6.27C24.48,75,25,73.4,24,72.31c-.34-.37,0-1,.41-1.23,2.1-1.25,2.05-3.31,1.34-5-1.36-3.29-1.46-6.86-2.6-10.18a6.53,6.53,0,0,0-.73-1.52c-.82-1.24-.51-2,.88-2.4a5.37,5.37,0,0,1,.57-.05C26.33,51.55,26.33,51.55,26.82,49Z" fill="#3b0b12"/><path d="M49.51,30.08a.62.62,0,0,0,.11-.49,8.3,8.3,0,0,0,1-3.53,6,6,0,0,1,.67-2.16c.21-.34.48-.67.87-.59a.86.86,0,0,1,.67,1.08c-.71,3.33-1.46,6.65-2.27,10.26C49,33.12,49.77,31.49,49.51,30.08Z" fill="#bebcc2"/><path d="M34.86,55.52c-.16.44-.27.94-.9.94s-.57-.45-.57-.8c0-.51.22-.93.86-.87A.58.58,0,0,1,34.86,55.52Z" fill="#afaab0"/><path d="M58.33,76.07a7.29,7.29,0,0,1-5.18-2,1.44,1.44,0,0,1-.43-2,1.34,1.34,0,0,1,2-.36,11.78,11.78,0,0,0,6.32,1.5c.58,0,1.22.1,1.33.79.08.51-.4.83-.8,1.1A4.78,4.78,0,0,1,58.33,76.07Z" fill="#f6e8f3"/></svg>