<svg id="Layer_1" data-name="Layer 1" xmlns="http://www.w3.org/2000/svg" viewBox="0 0 100 100"><title>f</title><path d="M58.19,87.72c-5.44,1.46-8-3.16-11.22-6.49a2.92,2.92,0,0,1-.41-2.84c.85-3.62,2.22-7.12,2-11-.05-.79.66-1.61.93-2.44a10.7,10.7,0,0,0,.89-3.5c0-.82-.17-1.66-1-1.87s-.94.72-1.14,1.29c-1.32,3.79-4.63,4.78-8,5.56a2.36,2.36,0,0,1-2.76-2.82c1.79-7.68-3-12.69-7.12-18a4.34,4.34,0,0,0-3.86-1.54C20.6,44.57,14.82,43.3,9,43.4c-3.57.06-5-1.48-5-5a13,13,0,0,1,.46-3.92,11.3,11.3,0,0,0,.34-4.85c-.53-4.13,1.68-7.31,4-10.48,2.66-3.62,6.7-4.3,10.57-5.43.21-.06.47,0,.65-.05,5.68-2.6,11.67-1.37,17.53-1.3,4.06,0,8,1.26,11.94,2.26a5.54,5.54,0,0,1,2.71,1.83c1.7,1.93,4.12,2.93,6,4.62a2,2,0,0,0,3.16-.45C62,19.82,62.51,19,63,18.13a5.14,5.14,0,0,1,3.41-2.41,51,51,0,0,0,7.62-2c4.22-1.63,7.67.41,11.13,2.39a20.87,20.87,0,0,1,8.59,9.33c2.06,4.45,3.11,9.22,1.2,14.34-2.42,6.5-7,10.39-13.24,12.78-2.54,1-3,1.39-2.9,4.09.19,5-1.07,9.81-1.45,14.73-.14,1.86-1.41,3.52-2.54,4.93-2.72,3.4-4.95,7.21-8.79,9.71a8.35,8.35,0,0,1-5.76,1.73C59.76,87.67,59.21,87.72,58.19,87.72Z" fill="#f6a4b5"/><path d="M21.12,83.2a12.79,12.79,0,0,1-6.39-1.62c-2.58-1.27-3.61-3.71-2.59-5.93.86-1.87,4.44-3.32,6.29-2.06,2.16,1.47,3.43.47,4.86-.83A12.08,12.08,0,0,1,26,70.44c2-1,3.35-.52,4.18,1.55,1.06,2.64-.46,7.51-2.84,9.09C24.15,83.24,24.15,83.24,21.12,83.2Z" fill="#ea91be"/><path d="M14.05,58.73c-1.26-.21-2.47.46-3.76.67a13.36,13.36,0,0,1-2.24.41,1.11,1.11,0,0,1-.82-1.87c1.31-1.8,5.72-3.15,7.8-2.34.95.37,1.77.91,1.66,2.14C16.61,58.66,16.28,58.78,14.05,58.73Z" fill="#6184b1"/><path d="M26.76,52.87a4.23,4.23,0,0,1,2.46.47c.7.4,1.33.88,1.06,1.8a1.39,1.39,0,0,1-1.54,1A12.89,12.89,0,0,0,23,57.37a1.66,1.66,0,0,1-2.1-.41c-.48-.77.14-1.46.68-2C23.07,53.43,25,53.14,26.76,52.87Z" fill="#6987b5"/><path d="M20.65,81.21a6.62,6.62,0,0,1-4.95-1.32c-.6-.51-1.16-1.07-.95-2a1.66,1.66,0,0,1,2-1.29c3.5.5,6.14-1.16,8.64-3.25.6-.5,1.25-1.07,2-.54.61.41.43,1.18.45,1.82C28,79.27,26,81.2,20.65,81.21Z" fill="#f6e3ef"/></svg>