<svg id="Layer_1" data-name="Layer 1" xmlns="http://www.w3.org/2000/svg" viewBox="0 0 100 100"><title>f</title><path d="M72.62,15.53a7.5,7.5,0,0,1,6.94,6.84,4.88,4.88,0,0,0,1.67,3.73,5.83,5.83,0,0,1,2.11,5A22.65,22.65,0,0,0,84.19,38a8.4,8.4,0,0,1,0,4.25,6.17,6.17,0,0,0,.27,4.19c1.38,3.43,1.64,7.07,2.24,10.69A20,20,0,0,1,84.77,69.8a6.71,6.71,0,0,0-.17,4.75c.85,3-.82,5.34-1.95,7.82a1.23,1.23,0,0,1-.81.65c-2,.18-4,.86-6.09.58s-3.51-2.28-3.7-4.42a17.4,17.4,0,0,1,0-2.42,4.67,4.67,0,0,0-1.1-3.17C69,71,68.11,68,69.47,64.81a3.29,3.29,0,0,0-.36-3.53c-2.17-2.88-2.15-6.18-1.6-9.44a6.69,6.69,0,0,0-.62-4.33c-1.7-3.57-2.43-7.28-.49-11,1.11-2.15.65-4.51,1.23-6.74-1.18-.18-1.5.75-2.12,1.18-2.57,1.82-5.18,3.21-8.44,1.57a5.45,5.45,0,0,0-4-.12,25.4,25.4,0,0,1-9.56.8,3,3,0,0,0-1.58.16,6.22,6.22,0,0,1-5.66.49.82.82,0,0,0-1,.23c-.28.44,0,.83.33,1.18A5.94,5.94,0,0,0,37.5,36.3c2.45,1.37,2.82,3.35,1,5.46a12.14,12.14,0,0,1-2.74,2.3c.64,1.18,1.88,1.48,2.61,2.34,1.15,1.35,1.34,2.07.49,3.6a12.61,12.61,0,0,1-4,4.28c-.9.61-.92,1.23-.13,1.94a6.37,6.37,0,0,0,.79.73c2.08,1.3,2.65,3,1.58,5.27a2,2,0,0,0,.2,2.21,4.73,4.73,0,0,1,0,5.54,2.6,2.6,0,0,0,.21,3.62,4.3,4.3,0,0,1,.95,4.17C38,80,38,82.17,36.7,84.11a8.76,8.76,0,0,1-2.55,2.72,31.53,31.53,0,0,1-7.22,2.73c-2.31.7-5.6-1.26-6.59-3.58a23.87,23.87,0,0,0-3.9-6.68,4.57,4.57,0,0,1-.84-3.57,12.08,12.08,0,0,0-1.34-6.93,11.23,11.23,0,0,1-.46-9.37,36.22,36.22,0,0,1,3.15-7.1,3.9,3.9,0,0,0,.55-3.26,15.79,15.79,0,0,1,4.33-15.23c1.71-1.76,1.72-1.93.21-3.72-2.07-2.46-2.22-5-.19-7.52a24.57,24.57,0,0,1,12.5-8.39,3.67,3.67,0,0,1,1-.26c3,.08,6-.33,9.07-.55,2.31-.17,4.61.06,6.85-.9,1.39-.6,3-.21,4.53-.2a7.53,7.53,0,0,0,3.86-.9,8.8,8.8,0,0,1,10.18,1.14,11.92,11.92,0,0,1,2.71,2.95c-3.34,1-4.77,4.45-7.6,6.15-.72.43-.48,1.24-.17,1.94,1,2.3,3,3.06,5.78,2.49,1.56-.32,3.58-1.59,4.25,1.28-.53.78-2.28.65-1.93,1.84s1.72.45,2.64.6a3.18,3.18,0,0,0,.53,0c3,0,3-.11,2-3A5.85,5.85,0,0,1,78.21,25c.25-1.69-.21-2.78-2.15-2.89-2.1-.12-3.2-1.23-2.54-3.37C73.94,17.34,72.21,16.77,72.62,15.53Z" fill="#ffcf80"/><path d="M49.17,58.57a8.77,8.77,0,0,0,6.08-1.72c.89-.71,1.61-.42,2.36.26A3.21,3.21,0,0,1,57,62.58c-2.27,1.25-4.52,2.47-7.25,2.33-3.2-.16-5.13-2-5.35-5.17-.06-.88.46-1.12,1.1-1.16C46.52,58.52,47.59,58.57,49.17,58.57Z" fill="#7b9cc6"/><path d="M57,41.52a8,8,0,0,1,3.81,1c1.27.79,1.44,1.68.56,2.88a6.56,6.56,0,0,1-10.2.43c-.53-.62-.25-1.1,0-1.69C52.4,41.68,54.8,41.87,57,41.52Z" fill="#6089ba"/><path d="M44.52,47.85c-2.46,0-4.18-.55-5.42-2.22a1.63,1.63,0,0,1,.26-2.54,7.43,7.43,0,0,1,7.32-.76,3.07,3.07,0,0,1,1.7,2.82c0,1.16-.87,1.67-1.78,2.11A5.36,5.36,0,0,1,44.52,47.85Z" fill="#5883b6"/><path d="M74.77,27.34c-.47-1.16-1.46-1.22-2.47-1a9.16,9.16,0,0,0-2,.62c-2.06.89-3.65.13-5-1.39a10.84,10.84,0,0,1-1.37-2c-.66-1.2-.51-2,.72-2.66a9.16,9.16,0,0,0,3.67-3.39,4,4,0,0,1,4.32-2l0,0c.45,1.06,1.59,1.39,2.3,2.11.18.63-.37.76-.62,1.09a1.57,1.57,0,0,0,.87,2.62,10.93,10.93,0,0,0,1.6.05c1.63.11,2.11.64,2.3,2.31.13,1.12-.43,2.09-.54,3.15A2.57,2.57,0,0,1,74.77,27.34Z" fill="#fdc167"/><path d="M74.27,52.59a5.29,5.29,0,0,0,5.22-2.36,6.23,6.23,0,0,1,1.16-1.1.94.94,0,0,1,.74-.18c1.17.39,1,1.59,1.32,2.45.26.68.16,1.51-.76,1.72-1.71.38-2.92,1.16-3.19,3.06-.08.57-.75.68-1.31.72a8.39,8.39,0,0,0-5.1,2.1c-.92.79-1.61.44-1.83-.8a14.24,14.24,0,0,1-.11-2.14C70.36,52.15,70.46,52.39,74.27,52.59Z" fill="#fbf2f0"/><path d="M73,70.54c-1.29-1.67-.91-3.46-.24-5.25a2.08,2.08,0,0,1,2.09-1.4,4.23,4.23,0,0,0,3.75-2.2c.37-.6.68-1.46,1.47-1.43a15.53,15.53,0,0,1,3.38.63c.47.13.48.73.39,1.17a12.3,12.3,0,0,1-1.66,4.22,1.28,1.28,0,0,1-1.33.71c-3-.55-5.15.79-6.92,3a3.41,3.41,0,0,1-.59.53C73.27,70.59,73.15,70.54,73,70.54Z" fill="#f9f1ef"/><path d="M68.37,42a11,11,0,0,1,.26-1.22c.25-.81.68-1.16,1.58-.69,2.77,1.45,5.14.58,7.31-1.35.27-.24.51-.5.79-.72a1.55,1.55,0,0,1,2.18,0,1.69,1.69,0,0,1,.44,2.17c-.08.16-.13.39-.26.46-1.88,1-3.19,2.73-5,3.73-1.42.8-3.16,1.12-4.64,1.95a1.18,1.18,0,0,1-1.9-.69A8.9,8.9,0,0,1,68.37,42Z" fill="#fbf1f1"/><path d="M23.13,61a2.78,2.78,0,0,1-.9,2.52c-1.15,1.12-2.29,2.25-3.44,3.37-.31.3-.63.7-1.13.42s-.34-.76-.41-1.19C16.53,62,18.39,58.5,20.16,55a.92.92,0,0,1,1.08-.57.87.87,0,0,1,.7.72A23.87,23.87,0,0,0,23.13,61Z" fill="#fbf1ee"/><path d="M32.24,65.5c2,0,2.5.8,1.87,2.26a6.58,6.58,0,0,1-3.34,3.33,2.09,2.09,0,0,1-2.67-.48,2.17,2.17,0,0,1-.24-2.71C28.83,65.84,30.91,66,32.24,65.5Z" fill="#fbefea"/><path d="M74.78,78.06a1.87,1.87,0,0,1,1.58-2.29A11.83,11.83,0,0,0,79,74.54c1.33-.73,2.23-.11,2.21,1.42a1.9,1.9,0,0,1-.47,1.49c-1.33,1.17-2.67,2.35-4.1,3.4-.59.44-1.17.08-1.49-.61A4.84,4.84,0,0,1,74.78,78.06Z" fill="#f9eee9"/><path d="M74.77,27.34c1.32.29,2.51-.32,3.77-.49.47,1,1.94,1.71,1.28,3s-2.07.66-3.17.72a30.5,30.5,0,0,1-3.72,0c-1.33-.09-1.74-1.09-1-2.2S73.7,27.32,74.77,27.34Z" fill="#fbede3"/><path d="M64.05,19.18c-.63-1-1.24-1.88-1.72-2.8-.89-1.7-.36-2.76,1.55-3a4.63,4.63,0,0,1,3.6.62c1,.76,1.14,1.62.19,2.46C66.55,17.43,65.3,18.25,64.05,19.18Z" fill="#fbf1ec"/><path d="M35,48a3.62,3.62,0,0,1-.19.7A7.25,7.25,0,0,1,31,52.37a1.52,1.52,0,0,1-1.53,0c-.51-.36-.4-1-.29-1.47.35-1.72,3-3.74,4.77-3.66A.9.9,0,0,1,35,48Z" fill="#fbeee4"/><path d="M75.33,35a2.64,2.64,0,0,1-1.06,2.23c-1,.91-2.1,1-2.81.3a2.33,2.33,0,0,1,.08-2.92,4.07,4.07,0,0,1,1.7-1.22C74.72,32.84,75.37,33.33,75.33,35Z" fill="#fbf0e9"/><path d="M30,62.27c-.54,0-1.1-.05-1.29-.69a1.21,1.21,0,0,1,.38-1.2,7.49,7.49,0,0,1,2.2-1.89c.56-.25,1.14-.6,1.71,0a1.6,1.6,0,0,1,.24,2A3.41,3.41,0,0,1,30,62.27Z" fill="#fbede5"/><path d="M49.88,63.87a2.64,2.64,0,0,1-2.29-1.13,1.2,1.2,0,0,1,1-2,15.39,15.39,0,0,0,5.67-1.23c.65-.24,1.42-.71,1.92.08s-.22,1.44-.76,2C53.92,63.24,51.9,63.55,49.88,63.87Z" fill="#ededf4"/></svg>