<svg id="Layer_1" data-name="Layer 1" xmlns="http://www.w3.org/2000/svg" viewBox="0 0 100 100"><title>f</title><path d="M14,64c.79-.17.85-1,1.37-1.47,1.2,1.14.61,2.61.75,3.95-.07,2-.61,4-.26,6-.42.84-1.24.35-1.86.55Z" fill="#bdafab"/><path d="M15.86,72.54c-.93-.66-.85-1.65-.78-2.59s.24-2,.36-3.06A18,18,0,0,0,17,61.22c.19-3.88,3.46-6.31,4.7-9.72,1.16-3.17,2.8-6.23,2-9.79a3.14,3.14,0,0,1,0-.7c.31-2.74,1.48-5.37,1-8.21a1.35,1.35,0,0,1,.89-1.54c3-1.1,4.62-4.39,7.95-5A2,2,0,0,0,34.86,25c.56-1.54,1.84-2.32,3.08-3.17,1.8-2,4.24-2.33,6.69-2.67,2.79.8,3.35,1.64,3.67,5.38a5.2,5.2,0,0,1-.41,1.37,11.17,11.17,0,0,0-.4,1.11,1.77,1.77,0,0,0,.56,2.12c.92.56,1.51-.3,1.93-.89,1.77-2.49,3.77-4.85,4.66-7.87.29-1,.95-1.82,1.25-2.8a3.4,3.4,0,0,1,.79-1.47,1.28,1.28,0,0,1,1.51-.34c1.23.64,1.91-.13,2.6-.94.45-.7.91-1.4,1.54-2.28-.73.51-1.17,1.11-1.92,1.13-1.79-1.07-2.14-2.38-1-4.19.7-1.12,1.57-2.13,2.37-3.19a23.29,23.29,0,0,1,9.11-2c2.13-.06,3.94.92,5.75,1.89C78.51,7.45,81,8.13,80.94,11.1A1.67,1.67,0,0,1,79,12.93a3.28,3.28,0,0,1-.7-.1,4.17,4.17,0,0,0-1.4-.23c-.92.06-2.09-.54-2.69.38-.81,1.25-1.78,2.85-1.49,4.15a4.65,4.65,0,0,0,2.46,3.17,3.12,3.12,0,0,1,2.17,2.25,1.06,1.06,0,0,0,.55.75c2.25.72,2.28,2.33,2.08,4.33-.27,2.77-.12,2.79-3,2,.94,2.74.44,5-2,6.66-.47.32-.37.81-.41,1.28-.51,6.16-2.51,11.59-7.6,15.51l-.51.43h0c-.4.46-1.05.1-1.48.46-2.38,1.07-4.45,2.8-7.11,3.26-1.18.21-1.14,1.18-1.1,2.06.12,2.54.2,5.09.44,7.62a16.31,16.31,0,0,1-1.05,8.4A12.87,12.87,0,0,0,55.58,79a8.55,8.55,0,0,1-3,6,38.48,38.48,0,0,0-5.78,6.32,1.81,1.81,0,0,1-2,.91c-.85-.19-1-.85-1.17-1.6-.38-2.34-.62-4.71-1.81-6.85-.34-.62-.48-1.35-1.32-1.85a8.84,8.84,0,0,1-1.73,3.26c-.61.95-1.43,1.66-2.57,1.15A2.92,2.92,0,0,1,34.1,83.7a10.82,10.82,0,0,1,.52-3,9.17,9.17,0,0,0-6.4-11.08A36.58,36.58,0,0,0,21.58,69c-.23,0-.59,0-.69.09C19.58,70.8,17.05,70.69,15.86,72.54Z" fill="#55271d"/><path d="M38.31,22.34c-1.3.83-2.53,1.64-3.06,3.29a2.66,2.66,0,0,1-2.18,1.63,6.74,6.74,0,0,0-4.45,2.91,2.56,2.56,0,0,1-2.26,1.4c-.94,0-1.5.5-1,1.57.16.36.42.8.33,1.11-.68,2.25-.58,4.67-1.61,6.83-.75.6-.71,1.41-.65,2.48.13-.87,0-1.57.67-2,.58,2.29,1.16,4.59-.66,6.65,0,2.22-1.54,3.86-2.17,5.83a4.07,4.07,0,0,1-1.07,1.82c-2.06,1.84-2.28,4.22-2.52,6.78a5.81,5.81,0,0,1-2.2,4.25l-.07-4.33a49.15,49.15,0,0,1,3.57-9.08,14.43,14.43,0,0,1,2.17-2.82A2.2,2.2,0,0,0,21.58,48c-2.83-5.72-.72-11,1.51-16.24a25,25,0,0,1,1.46-2.73,19.54,19.54,0,0,1,6.28-7c4.43-2.82,8.85-5.6,13.8-7.44a5.4,5.4,0,0,1,4.15-.08,7.22,7.22,0,0,0,1.84.41,2.34,2.34,0,0,0,2.84-1.53A11.14,11.14,0,0,1,58.9,7.93c1-.49,1.73-1.42,2.88-1.62,0,1.39-.82,2.3-1.67,3.27-1.27,1.45-1,2.82.6,3.78.68.51,0,1.44.6,2a5.82,5.82,0,0,0-.73.57c-.85.9-1.68,1.38-2.69.18-.09-.11-.57.1-.86.16-.19-1.41-.19-1.41.49-3.33-.85,1.72-1.89,3-1,4.67-1.17,2-1.34,4.35-2.82,6.29a17.73,17.73,0,0,0-2.32,3.68,5,5,0,0,1-1.15,1.49c-.68.7-1.38,1.36-2.46.9-.75-.32-1.19-1.76-.91-2.91.11-.45.16-.95.61-1.23.59.39.44,1.12.75,1.64,1.39-1.86,1.39-1.94-.26-2.58A8.2,8.2,0,0,1,47.48,23c0-2-1.16-3-2.92-3.46-.22-.81.3-1.13.9-1.41-2.82,1.3-5.94,2-8.13,3.91A1,1,0,0,1,38.31,22.34Z" fill="#61362d"/><path d="M72.26,49.1c-1.21,1-2.4,2-3.64,3a3.38,3.38,0,0,1-2.06,1,15.43,15.43,0,0,1,3.22-3.76,12.83,12.83,0,0,0,3-5.73c.48-1.5.52-3.12,1.18-4.58a2.88,2.88,0,0,0-.15-2.07c-.22-.81-.28-1.71,1.05-1.44.72.14,1.1-.11,1-.83,0-.43,0-.8.33-1.05,1.12-.77.92-1.71.37-2.7a4.46,4.46,0,0,1-.45-.83,1.35,1.35,0,0,1,.37-1.53c.59-.49,1,0,1.43.34s.58.77,1.26.81a3.24,3.24,0,0,0,.1-2c-.06-.46-.46-.92-.13-1.36,1-1.27.5-1.82-.91-2a1.79,1.79,0,0,1-1.69-1.72c0-1.26-.58-1.67-1.76-1.61-.93,0-1.47-.25-1.27-1.42.17-1-.36-1.43-1.45-1.19-.91.2-.91-.47-.61-1a18.4,18.4,0,0,0,1.9-4.82c.15-.64.57-1.16,1.4-.79,1.15.52,2.56-.35,3.63.66A2.72,2.72,0,0,0,78,13.61c.32-.39.25-.85.51-1.17,1,0,2.06.08,1.92-1.44,1.91.13,2.8,1.59,3.76,2.93a15.18,15.18,0,0,1,1.52,10.15c-.29,1.31,0,2.68-.33,4a11.24,11.24,0,0,1-8.22,8.69c-1.48.46-1.87,1.15-1.6,2.53.32,1.65-.75,3.05-.92,4.62-.49.52.2,1.39-.55,1.84Z" fill="#673e37"/><path d="M19.58,75.48c1.79-.4,3.32,1.42,5.27.4,1.57-.82,3.45-.2,5.18-.33a4.88,4.88,0,0,1,2.77.54,2.26,2.26,0,0,1,.28,4c-2.4,1.85-4.58,1.95-7.16.24a2.11,2.11,0,0,0-2.55,0,7.69,7.69,0,0,1-6.89.38c-1-.42-1.71-1.06-.65-2.14.36-.36.37-.64,0-1-.89-.85-.27-1.22.51-1.47A8.42,8.42,0,0,1,19.58,75.48Z" fill="#5980af"/><path d="M22.58,94.67c-2.21-.91-2.69-3-3.22-5a1.29,1.29,0,0,1,1.84-1.55,9.7,9.7,0,0,1,1.43.84c1.79,1.05,2.43,1,4.07-.22a8.7,8.7,0,0,0,.9-.77c.73-.73,1.35-1.6,2.6-.87a2.54,2.54,0,0,1,1.38,3,5.1,5.1,0,0,1-.41,1.1c-.06.05-.14.17-.16.16-2.31-1.18-4.27,0-6.34.83-.84.34-1.38.31-1,1.44C24,94.44,23.64,95.06,22.58,94.67Z" fill="#7ea0c8"/><path d="M22.58,94.67c.57-.13,1.16-.27.71-1.05-.3-.52-.91-.89-.77-1.77a6.44,6.44,0,0,0,5.36-2.17c.47-.54,1.13-.5,1.43.37s1,1.07,1.85,1.16l-1,2.13C29.11,95.58,24.63,96.56,22.58,94.67Z" fill="#cdd6e9"/><path d="M84.16,13.93c-1.49-.68-2.39-2.11-3.76-2.93-.32-1.71-.87-3.22-2.78-3.78a1.66,1.66,0,0,1-1-1,10.32,10.32,0,0,1,7.18,5.89A2.78,2.78,0,0,1,84.16,13.93Z" fill="#8292b2"/><path d="M74.06,45.77a3.08,3.08,0,0,1,.55-1.84C74.73,44.64,74.93,45.36,74.06,45.77Z" fill="#89a9d8"/><path d="M65,53.94c.38-.53.93-.5,1.48-.46A1.24,1.24,0,0,1,65,53.94Z" fill="#89a9d8"/><path d="M40.74,79.1c-.68.2-.48,1.07-1,1.45s-.86.76-1.45.29-1-.86-.77-1.6a1.29,1.29,0,0,1,.36-.61c2-1.75,1.38-4.07,1.43-6.25,0-.83-.35-1.06-1.18-1-.61,0-1.23-.31-1.87-.09a.78.78,0,0,1-1-.28c-1-1.89-3.11-2.32-4.66-3.46s-1.62-2.22,0-3.47a3.26,3.26,0,0,0-2.94-1.56.48.48,0,0,1-.49-.43c0-.35.22-.7.54-.64,1.09.21,2.12-.6,3.26,0,.94.46,2,.2,3.06.2,1.45,0,1.45,0,1.26-1.65,0-.25,0-.51.25-.59a.89.89,0,0,1,.68,0,5.22,5.22,0,0,1,2.2,2.41c.25.66.57,1.3.85,2A1.69,1.69,0,0,0,40.8,65,3.71,3.71,0,0,1,44,66.7a1.93,1.93,0,0,0,2.23.86c1.25-.24,1.74.35,1.6,1.59,0,.31-.34.65-.27.9.61,2.09.19,3.64-2,4.54-.43.18-.59.94-.52,1.51.15,1.22-.45,2.33-.5,3.51s-.76,1.57-1.88,1.62-1.5-.6-1.51-1.61A.48.48,0,0,0,40.74,79.1Z" fill="#3f1406"/><path d="M62.26,34a3,3,0,0,1-.73,2.21,9,9,0,0,0-1.82,3.76c-.36,1.36-1.59,2.49-2.47,3.7a.43.43,0,0,1-.63,0c-.14-.15-.29-.49-.22-.59a5.15,5.15,0,0,0,.6-3.22c0-.56,0-1.2-.74-1.3a1.53,1.53,0,0,0-1.41.74,1.2,1.2,0,0,0-.18.44c-.13.6-.05,1.49-.82,1.55-1,.09-.55-.91-.74-1.42a.74.74,0,0,0-.66-.58,1,1,0,0,0-1.06.78,13.58,13.58,0,0,1-.55,2.54,3.73,3.73,0,0,1-3.27,1.72c-.49-.12-.56-.51-.57-.91,0-.88,1.09-1.57.31-2.65-.21-.29.75-.68,1.23-.91a2,2,0,0,0,1.31-2A5.32,5.32,0,0,1,51.4,34c.68.62.51,1.82,1.53,2.25,1.64-1.16,1.07-3.55,2.65-4.71A1.33,1.33,0,0,0,57,30.24c0-.39,0-.79,0-1.17a2.31,2.31,0,0,1,2.26-2c1.2-.05,1.39,1,1.45,1.75a6.26,6.26,0,0,0,1.06,2.78c.08,1.12-1.21,1.35-1.47,2.28C60.94,34.27,61.64,33.36,62.26,34Z" fill="#713f37"/><path d="M55.57,31.53c-.46,2.17-1,4.32-2.64,6.14-.87-1.15-2-2-1.54-3.68l2.25-2.36C54.25,31,54.88,30.68,55.57,31.53Z" fill="#e0d8da"/><path d="M38.31,22.34c-.53.1-1.07.4-1.59,0C37.9,20.58,43.4,18,47.26,17.37c-.69,1.16-2.14,1.18-2.7,2.22a6,6,0,0,1-2.22.61A5.65,5.65,0,0,0,38.31,22.34Z" fill="#ae9897"/><path d="M39.12,32.84a1.49,1.49,0,0,1-.3-1.63c.73-1.67,1.52-3.32,2.29-5,.29-.62.71-1.16,1.47-.81s.43,1.09.13,1.6C41.58,28.92,40.4,30.78,39.12,32.84Z" fill="#c9bcbb"/><path d="M34.88,53.55a5.84,5.84,0,0,1-.21.65,2.72,2.72,0,0,0-.36,2.26c.33.87-.32,1.41-1,1.6a1.8,1.8,0,0,1-1.84-.84.66.66,0,0,1,.07-.87q1.18-1.49,2.39-3a.51.51,0,0,1,.63-.2C34.68,53.25,34.76,53.4,34.88,53.55Z" fill="#755e5f"/><path d="M47.92,24.87c.44,0,.65-.4,1-.57.81-.4,1.23-.16,1.12.68a9,9,0,0,1-1.43,3.7.74.74,0,0,1-.76.42c-.41-.07-.43-.41-.43-.71,0-.86,0-1.72,0-2.59Z" fill="#cdc2c2"/><path d="M56.47,17.6a.77.77,0,0,1-1-.75,5.08,5.08,0,0,1,3.1-5c-.09,1.71-1.46,2.84-1.6,4.37A2.78,2.78,0,0,0,56.47,17.6Z" fill="#c5b9b8"/><path d="M62.26,34a7,7,0,0,1-3.06.93c.11-1.82,1.51-2.43,2.57-3.29C63.12,32.16,62.58,33.08,62.26,34Z" fill="#c6bbbc"/><path d="M66.84,9.67c-.52-.08-1,0-1.13-.47s.18-.74.51-.94a8.46,8.46,0,0,1,1.45-.75c.71-.27,1.71-.71,2,.21S69,9,68.27,9.29A7.7,7.7,0,0,1,66.84,9.67Z" fill="#c4b7b7"/><path d="M61.3,15.35c-1.91-.14-.55-1.27-.6-2A10.44,10.44,0,0,1,63,11.06C63.5,13.13,61.64,13.94,61.3,15.35Z" fill="#beaeae"/><path d="M24.06,41.56c-.19,1.2.22,2.46-.22,3.7a3.33,3.33,0,0,1-.57-4.44c.22-.27.56,0,.76.27Z" fill="#b2a3a4"/><path d="M65,28c-.24.59-.52,1.26-1.29,1.16s-1-.78-1-1.42.58-.89,1.19-.79S65,27.28,65,28Z" fill="#d3cacb"/><path d="M44.77,32.56c-.12.61,0,1.44-1.07,1.41-.48,0-.64-.36-.68-.78-.07-.82.25-1.4,1.11-1.46C44.58,31.69,44.78,32.06,44.77,32.56Z" fill="#cec6c6"/><path d="M71.33,25.14c0,.65-.22,1.26-.91,1.43-.5.12-.63-.34-.59-.73.06-.62.23-1.23,1-1.32C71.23,24.47,71.26,24.86,71.33,25.14Z" fill="#9f8582"/><path d="M70.68,12.09c-.16.46-.08,1.15-.83,1.21-.43,0-.47-.37-.49-.67,0-.51.11-1,.68-1.09A.52.52,0,0,1,70.68,12.09Z" fill="#ad938e"/><path d="M36.85,43.77a.58.58,0,0,1-.39-.74c.13-.54.35-1.07,1.06-.9a.64.64,0,0,1,.28.55C37.69,43.2,37.51,43.73,36.85,43.77Z" fill="#b29b98"/><path d="M68.38,37.3a1,1,0,0,1-.81.93c-.34,0-.56-.18-.55-.54a.86.86,0,0,1,.78-.93A.49.49,0,0,1,68.38,37.3Z" fill="#b8a7a4"/><path d="M78.48,12.44c.26.62.74,1.22.31,1.95a1,1,0,0,1-.93.58c-.43,0-.63-.41-.66-.82-.07-.93.06-1.73,1.28-1.71Z" fill="#c7b9b9"/><path d="M28.85,79.43a4.51,4.51,0,0,1-.47,0c-.65-.12-1.64.24-1.8-.69a2.47,2.47,0,0,1,.74-2.15,1.52,1.52,0,0,1,2.15-.13c.24.2.51.37.77.55C30.8,78.37,30.24,79.13,28.85,79.43Z" fill="#624648"/><path d="M18.81,77.42c.9-.7,1.78-.33,2.67,0,.53.2,1,.43,1.07,1.1a1.44,1.44,0,0,1-.84,1.31,1.62,1.62,0,0,1-2.16,0C19,79.1,18.48,78.4,18.81,77.42Z" fill="#d4d7e2"/><path d="M18.81,77.42c.56.71,1.12,1.41.74,2.41a2.41,2.41,0,0,1-1.31.42,1.34,1.34,0,0,1-1.34-1.07,1.1,1.1,0,0,1,.79-1.45C18.06,77.59,18.44,77.52,18.81,77.42Z" fill="#6d5151"/><path d="M28.85,79.43A3.81,3.81,0,0,0,30.23,77c.68.43,2.06.31,1.48,1.75C31.27,79.82,30.57,80,28.85,79.43Z" fill="#bec5d4"/></svg>