<svg id="Layer_1" data-name="Layer 1" xmlns="http://www.w3.org/2000/svg" viewBox="0 0 100 100"><title>m</title><path d="M78.75,80.33c-1-.09-2,.22-3-.13-1.42-2-1.54-4.3-1.37-6.6.36-4.76-1.64-9-2.93-13.35a2.42,2.42,0,0,0-2.64-1.76c-1.25,0-2.51-.14-3.76-.06a9.37,9.37,0,0,1-5.61-1.58c-2.94-1.77-4.52-4.05-4-7.7a44.52,44.52,0,0,0,.05-7.51c-.07-1.72-.62-2-2.2-1.46a7.36,7.36,0,0,0-4.76,5.07c-1.37,5.18-5.36,8-9.27,11a6.65,6.65,0,0,1-6.84.75c-2.82-1.15-4.06-3-3.79-6.1.14-1.55.49-3.09.74-4.64a16.64,16.64,0,0,0,.44-4.36c-1.44,0-2.32,1-3.33,1.64a14.35,14.35,0,0,1-4.22,2,5.89,5.89,0,0,1-5.62-1c-.79-.67-1.7-1.19-2.54-1.81-1.81-1.33-1.8-1.66-.59-3.73A39.8,39.8,0,0,0,16,34,43,43,0,0,1,22.8,22.83,15.81,15.81,0,0,1,28,19c6.63-3.5,13.84-5.09,21.06-6.68a12.64,12.64,0,0,1,6.81.29,78.73,78.73,0,0,0,8.22,1.82c4,.9,7.76,2.35,10.7,5.44a22.49,22.49,0,0,0,2.95,2.32,21,21,0,0,1,8.06,11.9,55.16,55.16,0,0,1,0,27.8c-.82,3.32-1.32,6.65-3.18,9.68-.81,1.31-.65,3.24-.84,4.89C81.58,78.42,80.73,79.81,78.75,80.33Z" fill="#1d2938"/><path d="M38.6,87.71a28.37,28.37,0,0,1-9.83-1.45,6.08,6.08,0,0,1-3.19-8,1.72,1.72,0,0,1,2.11-.89c3.66,1,7.21.24,10.77-.61a13,13,0,0,0,4-1.7c2.85-1.8,4.49-1.85,6.21-.26,1.34,1.24,1.9,4.72.9,6.74A16.82,16.82,0,0,1,44.1,87.4C42.48,88.59,40.44,87.63,38.6,87.71Z" fill="#2c3a49"/><path d="M46.2,59.69c1.24,0,2.48,0,3.72-.09a6.43,6.43,0,0,1,4,1.45c3.18,2.27,3,4.59-.69,6.1-6.39,2.63-9.46,1.55-14-2.24-.69-.58-.79-1.23-.16-1.86,1.31-1.3,2.53-2.78,4.62-2.8a2,2,0,0,1,.08,1.19c-.75,4.1-.75,4.1,3.45,3.9.4,0,.8.13,1.2.16,1,.06,2.2,0,2.59-1.09.5-1.45-1-1.46-1.76-2-.26-.16-.53-.3-.78-.46C47.8,61.17,46.29,61.14,46.2,59.69Z" fill="#6d93be"/><path d="M22.91,59.74c1.68.92,2.93,2.63,5.2,2.48.93-.06,1.05.88.61,1.63a5.11,5.11,0,0,1-3.55,2.35,20.93,20.93,0,0,1-10.42-1.07c-2.43-.79-2.89-2.77-1.77-5a2.78,2.78,0,0,1,2.19-1.55A20.9,20.9,0,0,1,18,58.44,1.41,1.41,0,0,1,17.26,60c-.7.5-2,.54-1.63,1.87.24.93,1.1,1.18,1.94,1.29a21.13,21.13,0,0,0,3.66.58c.86,0,1.08-.41.83-1.18A3.31,3.31,0,0,1,22.91,59.74Z" fill="#6b8fbd"/><path d="M47.24,65.78c-.29.09-.59.16-.88.26-1.3.44-2.77.83-3.67-.39s-.49-2.54.14-3.79c.28-.54.59-1.07.89-1.6a3.06,3.06,0,0,1,2.47-.57c.81.67,2.07.71,2.54,1.84,0,.13,0,.26,0,.39a7,7,0,0,1-.19,2.37C48.29,64.94,48,65.61,47.24,65.78Z" fill="#304153"/><path d="M17.26,59.62l.7-1.18c1.9-.53,3.66-.54,4.95,1.29a3.26,3.26,0,0,1-.63,2.91c-.82,1.8-2.17,1.14-3.32.58C17.5,62.53,16.5,61.44,17.26,59.62Z" fill="#324355"/><path d="M31.08,82.28c4.27-.59,8.06-1,12-1.91C40.92,84.31,36.37,85.05,31.08,82.28Z" fill="#c4c7cf"/><path d="M47.24,65.78,48,63.92c.76-.65-.1-1.78.71-2.42v0c.78.22,1.57.39,2.34.66A1.7,1.7,0,0,1,52,65C51,66.39,49.09,66.7,47.24,65.78Z" fill="#e4e5ed"/><path d="M17.26,59.62c1.3,3.4,1.79,3.7,5,3,.59.08,1.48-.16,1.65.51.25,1-.77,1.07-1.41,1.21-2.29.51-4.48-.36-6.68-.71A2.19,2.19,0,0,1,14.28,61C14.56,59.34,16,59.55,17.26,59.62Z" fill="#c8d0dd"/><path d="M48.75,61.5c-.09.85.08,1.78-.71,2.42C48,63,47.72,62.07,48.75,61.5Z" fill="#6d93be"/></svg>