<svg id="Layer_1" data-name="Layer 1" xmlns="http://www.w3.org/2000/svg" viewBox="0 0 100 100"><title>m</title><path d="M24.36,60.81a8.2,8.2,0,0,1,1.39-3.61,10.61,10.61,0,0,0,1.71-4.63A59.58,59.58,0,0,1,28.87,46c.3-1.16.42-2.4,1.77-3.05.64-.31.69-1.21.84-1.93a55,55,0,0,1,2.08-7.74c.25-.67.57-1.32.85-2a12.17,12.17,0,0,1,1.42-2.16,2.66,2.66,0,0,0,.66-3.46,4.71,4.71,0,0,1,1.69-5.44c2.6-2.16,4.86-4.76,7.84-6.46A4.53,4.53,0,0,1,50,13.23a3.42,3.42,0,0,0,2.73-.13c.26-.12.55-.34.8-.3,2.83.42,5-1.39,7.45-2.06,3.13-.85,6.5.37,9.65,1.4.25.08.42.38.61.61A2.3,2.3,0,0,1,71,15.89c-.32.39-.7.75-.65,1.32a.74.74,0,0,0,.44.69c.25.1.41-.09.52-.27.62-1,1.27-2.2,2.67-1.52a4.11,4.11,0,0,1,2.28,3.47,7.52,7.52,0,0,1-5.52,7.49,1.31,1.31,0,0,1-1.54-.44c-2.29-3.47-5.64-2.34-8.63-1.74-2.45.49-5,.6-7.32,1.84a1.45,1.45,0,0,1-1.78-.4c-.72-.73-1.06-2.1-2.45-1.77-1.64.39-3.53.28-4.59,2A21.31,21.31,0,0,0,39,37.46c-.56,3.27-1.11,6.53-2,9.74-.27,1,.19,1.28,1.17,1.09a31.28,31.28,0,0,0,4.46-.84c2.93-1,6.16-.79,9-2.16a2,2,0,0,1,1.7.09c3.49,1.9,7.68,1.21,11.21,3.09,1.8,1,1.28-1.44,2.14-1.95.82-1,2.09-2,2.41-2.92.87-2.42,2.78-4.83,2.17-7.41s-.09-5,.51-7.44c.19-.77.53-1.67,1.54-1.5s1.07,1.05,1,1.89c-.43,4.53-.23,9.16-1.12,13.58-.8,4-.78,8.23-2.89,11.91a1.59,1.59,0,0,0,0,1.46,10.47,10.47,0,0,1,.48,3.63,1.44,1.44,0,0,1-2.13.82c-1.43-.71-2,0-2.39,1.17a3.61,3.61,0,0,1-1.47,1.82,2.08,2.08,0,0,1-2.25.17c-.8-.46-.53-1.25-.42-1.95.24-1.53,1-3.06-.15-4.56-.57-.72-.91-1.53-1.83-.24s-1.66.7-1.84-.53a2.18,2.18,0,0,0-1.82-2.09c-.87-.36-1.13-1.2-1.52-2-.69,1.89-2.26,2.11-3.88,2.18s-3-.1-4.43.66a3.62,3.62,0,0,1-1.23.14c-.83-.26-2.22.32-2.4-.85-.22-1.37,1.18-1.57,2.19-1.89a1.26,1.26,0,0,0,.58-.25c0-.13-.12-.27-.25-.19a15.94,15.94,0,0,1-6.7,2.49c-3.45,2-5.64,5.1-7.85,8.24a3.25,3.25,0,0,0-.76,1.76C30,70.07,29,75.52,29.34,81.05a22,22,0,0,0,.72,5.14,2.68,2.68,0,0,1-.35,2.17,2,2,0,0,1-1.82.27c-3.69-1.83-4.14-2.45-3.38-6.34.38-1.92-.42-3.49-.76-5.22-.57-2.87.44-5.69.3-8.57a6.27,6.27,0,0,0-.34-2.72C22.8,64,24.31,62.49,24.36,60.81Z" fill="#f57f24"/><path d="M56.57,53.92c2.33-.12,2.15,1.78,2.3,3.32,1.13-.39,1-1.25,1.37-1.83s1.06-.69,1.34,0A5.79,5.79,0,0,0,63,57.53a1.25,1.25,0,0,1,.26,1.38c-.34,1.39-.57,2.81-.85,4.22,1.59.43,2.19.26,2.94-.87a7.4,7.4,0,0,0,.5-1.19c.87-2,.91-2.1,2.77-1,.73.44,1.24-.14,1.86-.1a3.92,3.92,0,0,1,.19,4.21c-.1.1-.23.23-.36.21-3.29-.49-3.3-.49-3.63,3a3.42,3.42,0,0,0-.09,1.07c1.15-.79,2.74-.85,3.61-2.12,1.73.31,1.3,2,1.93,3a16.06,16.06,0,0,1-.48,5.74c-.24,1-.8,2.07-2,1.94s-1-1.36-1.12-2.26c-.12-1.35.22-2.72-.14-4-1.4.27-.57,1.39-.81,2.09.29,2.09-.71,3.85-1.44,5.69-.16.41-.35.8-.54,1.19-.76,1.77-1.87,3.06-4,3.1a2.67,2.67,0,0,0-1.69.91,2.3,2.3,0,0,1-2.78.43c-.74-.34-1.63-.66-2.24,0-1.34,1.45-3.11,1.63-4.87,1.91l0,0c-.7.41-1.52,0-2.22.33a4.89,4.89,0,0,0-1.36,1.31,13.7,13.7,0,0,0-1.65,1h0c-2.23.08-4.25.57-5.61,2.58-.28.41-.91.82-1.3.66-2.14-.84-4.57.25-6.61-1.05l0,0a1.21,1.21,0,0,1,.5-2,3.17,3.17,0,0,0,1.73-2.73c.3-1.75,1.49-3.05,2.36-4.51a25,25,0,0,0,1.87-3.43,3.8,3.8,0,0,0-1-3.44A1.16,1.16,0,0,1,37,73.44c.55-.17.92-.45.67-1.11.21-1.16.83-1.91,2.06-1.5S42,70,43.23,70.5c-.66,2.91-.27,6-2.83,8.49-1.71,1.66-1.82,4.42-2.06,7.11,2.5-1.21,4.95-1.84,7.25-2.85a1.13,1.13,0,0,0,.62-.58c-2-2.43-2-4.62.23-8.47.44-1,1.85-1.77.89-3.18-2.21-.56-2.58-1.46-1.16-3.23a35.92,35.92,0,0,1,4.38-4.41,2.46,2.46,0,0,1,.57-.28c2.81-.09,3.74,1,3,3.67-.15.56-.36,1.1-.55,1.65-1,2.76-.93,3,1.54,4.53A2,2,0,0,1,56,75.35,10.92,10.92,0,0,1,55.45,77a8.68,8.68,0,0,0-.64,1.6c1.72-2,3.31-3.77,3.56-6.44a12.93,12.93,0,0,1,2.42-5.75c-.63.95-1.1,2-1.8,2.9a2.47,2.47,0,0,1-3.06,1,2,2,0,0,1-1.14-2.54c1.2-3.21-.32-7,2-9.9C57.85,56.43,55.91,55.26,56.57,53.92Z" fill="#f78f25"/><path d="M70.06,64.35c.88-1.38.25-2.91.42-4.36a3.31,3.31,0,0,0,0-1.29c-1.44-3,.25-5.83.68-8.71.21-1.41.9-2.76.53-4.24a.83.83,0,0,1,.09-.61c1.32-1.82,1-3.86,1-5.91a30.11,30.11,0,0,1,.39-5.15c.39-1.79.12-3.61.57-5.36.12-.47.1-.9-.39-1.08s-.8.31-.89.69c-.4,1.68-.78,3.36-1.07,5.06a2.66,2.66,0,0,0,.38,1.85,3.08,3.08,0,0,1-.44,4.12,3.22,3.22,0,0,0-.83,2.78c0,1.07,0,2-1.37,2.32a1.9,1.9,0,0,0-1.31,1.59,1.23,1.23,0,0,1-.87.89c-.73-1.06-.09-2,.42-2.8a8.62,8.62,0,0,0,1.38-5.35,20.21,20.21,0,0,1,.51-4.3c.56-3.75,0-4.69-3.82-5.18a33.28,33.28,0,0,1-7.55-1.83,2.53,2.53,0,0,0-2.31.1c-2,1.27-3.79.68-5.38-.66a2.93,2.93,0,0,0-3.53-.58A2.42,2.42,0,0,1,44,26.18a3.51,3.51,0,0,1,3-1.84,1.43,1.43,0,0,0,.43,0c2-.89,3.59-.6,4.43,1.7a.77.77,0,0,0,1.29.24c1.24-1.07,2.81-1,4.25-1.37a44.91,44.91,0,0,1,8.26-1.28c1.56-.1,2.63,1,3.58,2.08a8.73,8.73,0,0,1,.71,1.16c1-.28,1.67-1.46,2.94-1,.36.14.84-.51,1.05-1a42.86,42.86,0,0,0,1.7-4A4.46,4.46,0,0,0,74,16.54c-.7-.45-1.37-.19-1.89.78-.36.67-.32,1.6-1.24,1.92-.48-.15-.54-.63-.75-1-.86-1.45-.89-1.49.34-2.58A1.86,1.86,0,0,0,70.93,13c0-1-1.18-1.55-.87-2.62a3.41,3.41,0,0,1,2,.63c.39.31,1,.67.84,1.16-.63,1.7.65,1.52,1.57,1.73a8,8,0,0,1,1,.29c1.34.5,1.71,1.2,1.12,2.49-.33.72-.55,1.23,0,1.93a2.61,2.61,0,0,1,.14,2.49,23.9,23.9,0,0,0-.77,6.41,25.72,25.72,0,0,1-1.28,6.78,5.41,5.41,0,0,0-.43,1.88c.43,5.12-1.08,10-1.77,15A3.1,3.1,0,0,1,72,53c-2,1.73-1.39,4-.85,5.85a27.37,27.37,0,0,1,.68,7.06c0,.65,0,1.3,0,2a1,1,0,0,1,0,1.29c-.65-.83-.43-2.23-1.72-2.63A1.47,1.47,0,0,1,70.06,64.35Z" fill="#fba93b"/><path d="M70.06,10.41a6.67,6.67,0,0,0,.75,1c.6.54.46,1.08.12,1.65a4,4,0,0,0-4.53-1c-.78.31-1.4-.18-2-.56a3.49,3.49,0,0,0-4.41.22c-1.64,1.36-3.26,2.39-5.48,1.48-.54-.22-.94.2-1.38.43a3.31,3.31,0,0,1-3.46.19c-1-.58-2.07-.25-3.21.37-3,1.62-4.8,4.56-7.73,6.23-1.3.74-1.74,2.43-2.13,3.9a2,2,0,0,0,.72,1.94c.72.73.86,1.74,0,2.26-1.22.74-1.68,2.17-2.91,2.84A26.64,26.64,0,0,0,35.69,27a3.76,3.76,0,0,0,.21-1.06c-.55-3.36,1.69-5.85,2.68-8.72.19-.56.64-1.11,1.26-1,1.58.17,2.43-.81,3.1-1.92a3,3,0,0,1,3.81-1.55,1.84,1.84,0,0,0,2-.62c.67-.66,1.34-1.32,2-2a3.73,3.73,0,0,1,2.9-.88c2,0,4-.62,6-.34.34,0,.76-.37,1.13-.6A1.89,1.89,0,0,1,63,8.45c.59.41,1.15.85,1.78,1.21,1.26.72,2.41,1.52,3.89.42A1.15,1.15,0,0,1,70.06,10.41Z" fill="#f9a132"/><path d="M71.79,69.15q0-.64,0-1.29a1.82,1.82,0,0,1,.65,1.33c.5,4.37.33,8.43-2.6,12.26a11.23,11.23,0,0,1-9.62,4.69c-3.39,0-6.77,0-10.16,0a9,9,0,0,0,4.74-2.68c.6-.73,1.51-.39,2.18.06A1.87,1.87,0,0,0,59.9,83a2,2,0,0,1,1.89-.84,2.54,2.54,0,0,0,2.87-1.76,4.71,4.71,0,0,1,.63-.85c.29.06.32.84.73.36a5.53,5.53,0,0,0,1.41-2.35c-.78,0-.69,1.5-1.75,1A3.75,3.75,0,0,1,66,77.38a8,8,0,0,0,1.1-4.82c1.79-.3.68-2.22,1.66-3,.68.55.44,1.32.45,2,0,1.44,0,2.87,0,4.31,0,.36,0,.77.45.85s.65-.24.88-.51a3,3,0,0,0,.7-1.78C71.33,72.68,72,71,71.79,69.15Z" fill="#fcb54d"/><path d="M36.54,81.69a4.89,4.89,0,0,1-.94,1.67A6.21,6.21,0,0,0,34,87.44c0,1-.36,1.63-1.45,1.73s-1.19.86-1.17,1.72a40.46,40.46,0,0,1-7.16-3,1.39,1.39,0,0,1-.74-1.39,19.45,19.45,0,0,1,.62-4.71c.21-1.25.51-2.39-.67-3.36-.56-.46-.37-1.2-.41-1.85-.14-2.9.58-5.76.45-8.67,0-.51.18-1.12,0-1.5-1.25-2.16.06-3.84.94-5.61a8.45,8.45,0,0,1-.25,2.56c-.21,1.09-.54,2.32.68,3.16a.58.58,0,0,1,.26.75c-1.08,2.2-.4,4.61-.84,6.92-.34,1.81.34,3.82.65,5.73a5.87,5.87,0,0,1,0,3,6.45,6.45,0,0,0-.07,1.94,2,2,0,0,0,1.54,2.29,2.2,2.2,0,0,1,1.51,1.15,1.19,1.19,0,0,0,1.73,0V86.1c-.45-1.43.46-2.08,1.5-2.67,1.27-.71,2.49-1.48,2.85-3A2.38,2.38,0,0,1,35,79.18c.42-.18.83-.34,1.25,0C36.92,80,36.38,80.86,36.54,81.69Z" fill="#faaa44"/><path d="M56.57,53.92a4.48,4.48,0,0,1,.13,5.5c-.27.41-.25,1-.54,1.4a2.14,2.14,0,0,0,0,2.93,1.26,1.26,0,0,1-.08,1.76,3.74,3.74,0,0,0-.84,2.62c0,.73,0,1.52.86,1.79a1.9,1.9,0,0,0,2.31-.72c.64-1,1.19-2,1.78-3a4.5,4.5,0,0,1,1.21-1.81,1.73,1.73,0,0,1-.16,2.26,13.34,13.34,0,0,0-2.52,7.24,1.22,1.22,0,0,1-.15.62A19.27,19.27,0,0,1,53.93,80a4.33,4.33,0,0,1,.66-2.59,20.5,20.5,0,0,0,.8-2c.51-1.59.49-1.59-1-2.2-1.94-.77-2.49-2.1-1.71-4.08.37-.94.71-1.89,1-2.85.6-1.91.08-2.65-1.92-2.85-.29,0-.58,0-.87-.05-.16-.3.08-.67-.17-.95,0,0-.12,0-.16.08-.23.41.1.62.31.87C50,65,48.53,65.9,47.42,67.19a7.17,7.17,0,0,0-1.34,1.65c-.53,1.17-.38,1.46.94,1.6.28,0,.57,0,.86,0,.23,1.2-.78,1.73-1.38,2.43-.82.95,0,1.12.53,1.51a9.2,9.2,0,0,0-1.75,5.23c0,1.64,0,1.63,1.67,2.19a2.36,2.36,0,0,1,.55.32c.05,0,.07.12.17.3a5.42,5.42,0,0,1-2.75,1.81c-1.57.33-2.93,1.18-4.49,1.51-1,.21-1.62,1.13-2.68,1.62-.37-1.26.09-2.37.22-3.41a22.75,22.75,0,0,1,1.3-4.51,2.94,2.94,0,0,1,1.29-1.67,2.92,2.92,0,0,0,1.4-3.5,2.32,2.32,0,0,1,.25-1.65,6.75,6.75,0,0,0,.9-2.18,11.75,11.75,0,0,1,.86-2.9c.41-1.43,0-2.27-1.55-2.37-1-.07-1.9-.19-2.29-1.29a1.2,1.2,0,0,1,.51-1.37c1.89,0,3.38-1.65,5.7-.94-1.77-2-3.37-1.42-5-.61a9.09,9.09,0,0,0-1.71-1.78c-.11-1.33,1.83-1.66,1.45-3.06-2.1,1.12-2.33,1.59-1.46,3-.24,1.26-1.43,1.47-2.31,2a1.26,1.26,0,0,1-1.6-.24c-.42-.45,0-.94,0-1.4,0-2.42,1.72-3.87,3-5.57.75-.43,1.41-1.43,2.38-.27.32.38.81.2,1.17-.1s.63-.59.94-.9c1.67-1.62,1.67-1.62,4-.61-.82,1.72-3.38.33-4,2.37.65.38,1.53-.18,2.12.41A1.36,1.36,0,0,1,45.59,56c-.15.52-.51,1,.22,1.46,2.11,1.37,6.85,1.32,8.84-.17.65-.48,1.38-.95.44-1.81a1.56,1.56,0,0,0-2.2-.58c-1.82.52-3.68-.15-5.5.27a1,1,0,0,1-.82-.55,3.65,3.65,0,0,1,2.61-.75,19.71,19.71,0,0,0,2.58,0c2.07-.2,2.5-.66,2.66-2.73.81,0,1.13.54,1.23,1.18S55.88,53.62,56.57,53.92Z" fill="#faa93a"/><path d="M40.9,62.61c-.47.33-.4.84-.41,1.31C36.65,65,36.07,68.57,35,71.62c-.73,2-1.33,4.1-2.13,6.12S32.36,80,34.4,80.45c0,1.91-1.48,2.64-2.85,3.36-1,.52-1.86,1-1.95,2.29a7.1,7.1,0,0,1-.87-3.71c0-3-.06-6.08,0-9.12a24.75,24.75,0,0,1,.57-4.71,9.35,9.35,0,0,0,.1-4.07c-.1-.46-.19-.91.19-1.19A12.7,12.7,0,0,0,32.85,59c1.41-2.46,4-3.34,5.9-5.12.13,1.37-1,2-1.75,2.77-.22.23-.83.44-.48.76,1.2,1.09.22,1.69-.42,2.39-.2.22-.34.52-.14.77a.79.79,0,0,0,1,.18c.9-.53,1.75-1.14,2.62-1.72h0c1.66.18,1.66.18,1.81,1.85C41.9,61.69,41.71,62.24,40.9,62.61Z" fill="#f78f25"/><path d="M53,54.41c1.62-.67,1.7-.65,2.24.79A6.43,6.43,0,0,1,45.56,57a1,1,0,0,1-.42-.94l.21-1.2,1.22-.17.8.21C49.32,55.53,51.26,56,53,54.41Z" fill="#5f76a3"/><path d="M34.4,80.45c-.71.15-1.33,1.17-2.09.43a2.27,2.27,0,0,1-.36-2.44A9,9,0,0,1,32.44,77c1.39-2.61,1.79-5.56,2.9-8.26a19,19,0,0,1,1.4-2.9,3.52,3.52,0,0,1,3.75-1.93,2.09,2.09,0,0,0,1.88.67c2.19-.1,2.87.83,2.19,2.89-.34,1-.31,2.31-1.45,3s-2.17,1.53-3.73.82c-1.07-.49-1.07.8-1.5,1.35.22.48,0,.7-.45.86-.49.33-.41.83-.42,1.31.24.43,0,.77-.21,1.12-1.15,1-.5,2.66-1.54,3.65A1.57,1.57,0,0,0,34.4,80.45Z" fill="#f57f24"/><path d="M70.06,64.35q0,1.08,0,2.17c.07,1-.09,1.91-1.47,1.75s-1.82,1.27-3.35,1.84c1.21-2,.69-3.85,1.28-5.57.54-1.55,1.54-2,2.86-1A3.92,3.92,0,0,1,70.06,64.35Z" fill="#f57f24"/><path d="M65.68,78.59c1-.57.81-2.24,2.29-2.29.35,1.78-.35,3.12-2.44,4.69-.45-.41-.12-.95-.25-1.41C65.34,79.22,65.26,78.81,65.68,78.59Z" fill="#fce4d1"/><path d="M47,74.39c-.55.11-1.11.23-1.66.32-.11,0-.24-.11-.46-.23.55-1.67,2-2.66,3-4,.39,0,.71.1.6.63A6.83,6.83,0,0,1,47,74.39Z" fill="#fcdbbf"/><path d="M68.73,69.58c0,.92,0,1.84,0,2.75a1,1,0,0,1-.59,1c-.71.24-.68-.57-1.05-.81a7.46,7.46,0,0,1,.25-2.48C67.59,69.32,68,69.09,68.73,69.58Z" fill="#fbe4d1"/><path d="M36.56,75.66,37,74.8c.43,0,1,.13,1,.54.2,1,.76,1.91.28,2.94-.74.2-1.51.66-2.09-.29A2.49,2.49,0,0,1,36.56,75.66Z" fill="#faa93a"/><path d="M36.6,78.33c.58,0,1.13-.81,1.73-.05a13.21,13.21,0,0,1-1.79,3.42c-.84-.73-.3-1.7-.47-2.55C35.94,78.67,36.17,78.43,36.6,78.33Z" fill="#fdd7b7"/><path d="M37.43,73.48l.45-.86c.4.07.9.13.63.71S37.87,74,37.43,73.48Z" fill="#faa93a"/><path d="M36.6,78.33l-.52.81-.81.43c-.13-.84.46-1.59.18-2.51-.2-.67.57-1.06,1.12-1.39Z" fill="#f78f25"/><path d="M45.93,39.19c-1.67.31-2.87-.74-3.93-2s-1-2.5.37-3.51a11.59,11.59,0,0,1,6.32-1.89,25.91,25.91,0,0,0,2.77.22c.87-.13,1.22.7,1,1.51C51.73,36.83,50.43,39.32,45.93,39.19Z" fill="#5e82b3"/><path d="M59.68,31.8A7.7,7.7,0,0,1,64.4,33a1.6,1.6,0,0,1,1,1.32c.13,1.5-1.91,4.34-3.73,4a14.09,14.09,0,0,1-4.92-1.49A3.7,3.7,0,0,1,54.92,34c-.17-1.22.44-1.79,1.74-2A12.67,12.67,0,0,1,59.68,31.8Z" fill="#5f7ca9"/><path d="M45.15,56a8.08,8.08,0,0,0,2.6,1.47,4.88,4.88,0,0,0,5.07-.57c.78-.63,1.63-1.16,2.45-1.73,1.35,1.05,1.36,1.21.33,2.2a6.57,6.57,0,0,1-4.34,1.65,15.65,15.65,0,0,1-5.91-1C44.15,57.62,44.16,57.24,45.15,56Z" fill="#ece1dd"/><path d="M40.9,62.61l.49-1.67c1.25-1.87,1.27-1.88,3.3-1.18.55.19,1.08.42,1.62.61s1.07.3.93,1-.69.68-1.18.81a.74.74,0,0,1-.43,0c-1.43-.61-2.5.06-3.54.92C41.44,63.61,41.05,63.39,40.9,62.61Z" fill="#fce7da"/><path d="M39.57,59.08c-.29,0-.57,0-.86,0-.8,0-1.06-.48-.63-1.12A12.21,12.21,0,0,1,40.9,55a.79.79,0,0,1,1,0c.29.22.12.51.06.78a4.27,4.27,0,0,1-2.37,3.29Z" fill="#fee3d0"/><path d="M53,54.41c-1.79,2.26-3.24,2.38-5.67.46a4.81,4.81,0,0,1,3.56-.26C51.69,54.91,52.33,54.42,53,54.41Z" fill="#eed9ce"/><path d="M50.85,63.42c-.35.06-.78.26-1,.13s-.25-.64-.1-1a2,2,0,0,1,.94-1.14.78.78,0,0,1,1,.14.66.66,0,0,1,0,.81c-.24.36-.51.7-.76,1Z" fill="#fdd5af"/><path d="M46.33,37.35a4.6,4.6,0,0,1-2.46-.47,1.35,1.35,0,0,1-.17-2.42,11.5,11.5,0,0,1,5.43-.65c1.09.42,1.3,1,.63,2A3.72,3.72,0,0,1,46.33,37.35Z" fill="#ebe1de"/><path d="M60.4,36.8a4.35,4.35,0,0,1-3-1.46,1.14,1.14,0,0,1-.26-1.19.9.9,0,0,1,1.06-.54c1,.16,2-.38,2.91.38A2.07,2.07,0,0,1,60.4,36.8Z" fill="#edad66"/><path d="M60.4,36.8A16.59,16.59,0,0,0,61.09,34c.94.13,2,.21,1.94,1.5C63,36.58,62.09,37,60.4,36.8Z" fill="#e8e0e1"/></svg>