<svg id="Layer_1" data-name="Layer 1" xmlns="http://www.w3.org/2000/svg" viewBox="0 0 100 100"><title>m</title><path d="M61.58,13.64c-.15,1.06.54,1.42,1.38,1.58a8.6,8.6,0,0,1,3,1.35c.5.32,1.11.66,1,1.34-.31,2.76,2,3.71,3.6,5C73,25,75,27.09,74.24,30.63c-.29,1.37.66,2.59.54,4.06-.48,5.94-1.27,11.85-1.45,17.84-.17,5.31-2.31,10.17-5.2,14.63a2.82,2.82,0,0,1-3.61,1.25,2.79,2.79,0,0,1-1.95-3.47,2.25,2.25,0,0,1,.11-.58c1.7-3.63,1.43-7.79,3-11.45a2.2,2.2,0,0,0-.05-2.27c-.65-.93-.51-2.09-.9-3.1-1,0-1.08.79-1.39,1.35-1.56,2.88-3.14,5.75-4.6,8.68-.56,1.13-1,2.24-2.54,1.91A2.79,2.79,0,0,1,54,56.41a26.25,26.25,0,0,1,1.84-9.31A66,66,0,0,1,59.54,39a7.16,7.16,0,0,0,.74-1.61c.15-.56.2-1.23-.43-1.59a1.08,1.08,0,0,0-1.35.31c-1.27,1.33-3.21.88-4.66,1.82-.85.55-1.67-.06-2.33-.78-1.09-1.18-2.18-1.16-3.29.08-1.31,1.46-2.82,1.81-4.46.49a1.61,1.61,0,0,0-2.38.12,2.36,2.36,0,0,1-3,.52c-2.08-1.37-3.88-.29-5.45.69-1.25.78-2.14.87-3.19,0a13,13,0,0,0-2.52-1.57,3.21,3.21,0,0,1-1.84-3.94c1-3.31,1.54-6.81,4-9.55a4.76,4.76,0,0,0,1.09-2.1c.72-3.61,3.18-5.57,6.11-7.47,1.69-1.09,3-2.15,5-1.42a.71.71,0,0,0,.58,0c2.4-2,5.43-1,8.1-1.74,1.22-.33,2.58-.56,3.55.73.46.61.7,1.74,1.63,1.51,1.16-.29,2.71,0,3.25-1.63C60.05,11.82,61.32,11.91,61.58,13.64Z" fill="#0097d6"/><path d="M55,79.05c1.23,3.39-1.48,6-3.27,8.91-.15.24-.47.59-.65.56-2.23-.37-4.48,1.13-6.64,0a13.36,13.36,0,0,0-3.7-1,3,3,0,0,0-2.69.67c-2,1.44-3.91.78-4.52-1.51A4.21,4.21,0,0,0,31.41,84c-1.86-1.14-3-5.7-2.06-7.52A1.27,1.27,0,0,1,30,75.9c2-.58,3.6-2.05,5.53-2.79a3.54,3.54,0,0,1,3.45.27c2.26,1.75,4.33.69,6.27-.37a4.16,4.16,0,0,1,3.35-.6,7.56,7.56,0,0,0,3.23,0c2.22-.29,3.13.55,3.2,2.76C55,76.3,55,77.4,55,79.05Z" fill="#0195d4"/><path d="M39.88,63.33a19.37,19.37,0,0,0,5.87-.62c2.11-.69,3.37-.34,4,.78a4.69,4.69,0,0,1-.93,5,9.75,9.75,0,0,1-15-1.35c-1-1.48-.34-3,1.6-3.6C36.9,63.06,38.4,63.35,39.88,63.33Z" fill="#5482b4"/><path d="M45.16,46.39c1.84-1,3.52-.16,5.07.63,2.16,1.1,2.49,3.34,1,5.28-2.27,2.89-7.54,3.41-10.29,1a3.72,3.72,0,0,1,0-5.13,5.21,5.21,0,0,1,4-1.71c.28.8-.32,1.28-.67,1.84-.54.85-1.1,1.73-.53,2.73.66,1.16,1.72.58,2.65.46,2.58-.65,2.73-1,1.17-2.66C47,47.81,45.81,47.33,45.16,46.39Z" fill="#4f82b5"/><path d="M32.49,45.92a4.47,4.47,0,0,1,3.75,1.27,3.07,3.07,0,0,1-.54,5.33c-2.48,1.31-6.73.26-8.3-2.05a2.48,2.48,0,0,1,.77-3.59A6.93,6.93,0,0,1,32.49,45.92Z" fill="#6a98c4"/><path d="M45.16,46.39c1.51.11,2.81.46,2.65,2.4.77,1.57.11,2.5-1.36,3.08-.92.83-1.81,1.47-3.07.45s-.89-1.92-.63-3.15,1.61-1.66,2.13-2.69A.26.26,0,0,1,45.16,46.39Z" fill="#0499d2"/><path d="M41.85,65.66c1,0,2-.06,3,0,1.24.1,1.57.8.92,1.75a5.3,5.3,0,0,1-8.2.06c-.71-1-.45-1.74.73-1.83s2.38,0,3.57,0Z" fill="#e3e6ee"/><path d="M46.45,51.87a8.56,8.56,0,0,0,1.36-3.08c.55-.18,1.14-.53,1.52.22a1.76,1.76,0,0,1-.24,2.17C48.37,51.85,47.67,53,46.45,51.87Z" fill="#bfd2e6"/><path d="M33.27,46.56c.93.06,2.4,1.52,2.35,2.33a3.36,3.36,0,0,1-3,2.38,1.9,1.9,0,0,1-1.9-1.88C30.68,48.12,32.22,46.49,33.27,46.56Z" fill="#049ad4"/></svg>