<svg id="Layer_1" data-name="Layer 1" xmlns="http://www.w3.org/2000/svg" viewBox="0 0 100 100"><title>m</title><path d="M15.3,39.39a2,2,0,0,1-1.86-1.09c-1.76-3.28-3.87-6.5-2.1-10.52A7.81,7.81,0,0,0,12,25a2.4,2.4,0,0,1,1.62-2.46A2.81,2.81,0,0,0,15,21.22c1.72-3.74,5.11-5.32,8.69-6.26,5.06-1.32,10.24-2.16,15.37-3.2,4.88-1,9.82-.49,14.74-.73,5.63-.27,11.06.77,16.51,1.91a10.56,10.56,0,0,1,7.34,5.62c2.25,3.91,4,8,6,12a19.71,19.71,0,0,1,1.81,6.79,21.74,21.74,0,0,0,1.17,5.3c1.61,4.58,1.78,9.45,2.64,14.17a8,8,0,0,1-1,5.25,2.24,2.24,0,0,1-.89-2.28c.51-3.93-1.46-7.26-2.44-10.83a1.89,1.89,0,0,0-2-1.63c-3-.17-4.72-1.82-5-5-.13-1.74-.34-2.49-2.42-2.06-4.06.83-6.3-1.94-5-5.93a18.46,18.46,0,0,0,1-2.7c.46-2.95-.63-4.18-3.58-4s-3.28-2.23-3.82-4.26c-.45-1.71-.26-3.75-2.66-4.2-1.35-1.06.77-2,.11-3.18-1.6,1-1,2-.3,3.13a2.48,2.48,0,0,1-2.17,2.68c-1.46.23-2.39-.71-3-1.87a17.86,17.86,0,0,1-1.82-4c.51-2.11-.84-2-2.35-2,.66.52,1.6.58,1.71,1.54.56,2.48,2.45,4.79.64,7.57-.52.8.62,1.45,1.34,1.91s1.65,1.17,1.23,2.32a2.1,2.1,0,0,1-2.7,1.18c-2.17-.54-4.23.1-6.33.24-1.44-2.22,1.4-3.17,1.47-4.95-4,1.36-4.79,2.94-2.92,5.73-.16.29-.37.64-.66.66-3.08.22-5.87,1.5-8.75,2.42-.78-.38-.83-1.12-.95-1.85-.09-.53-.28-1-.95-1a.64.64,0,0,0-.61.59,1.22,1.22,0,0,0,.6,1.33c.61.38,1.42.42,1.85,1.11.62,2.38,0,4-2.63,4.49-3.09-1.57-5.54-3.6-5.49-7.48,0-.69.16-1.71-1-1.61-.87.08-1.06,1-1.16,1.72A15.79,15.79,0,0,0,29,41.46c-2.5,2.61-5.54,1.56-8.28.87-2.45-.61-2.06-3-2.23-5.09-.31-3.76,1-6.93,3-9.9,1.11-1.64,2.54-2.89,4.77-2.7C27,24.71,28,25,28.13,24c.11-.83-1-1-1.53-1.45-.77-1-1.34-2.09-3-1.11-1.16.69-1.23,1.24-.41,2.15a4.54,4.54,0,0,1-1.64,2.69,16.08,16.08,0,0,0-4.12,8.57A7.24,7.24,0,0,1,15.3,39.39Z" fill="#8ec748"/><path d="M36.55,32.32c.4-.12.94-.12,1.19-.39a7.17,7.17,0,0,1,6.43-2.19,2,2,0,0,0,2-.66c-.12-1,.41-1,1.09-.73,2.27-.89,4.54-1.55,7-.59a2.18,2.18,0,0,0,1.55-.16.81.81,0,0,0,.14-1.5,9.18,9.18,0,0,0-1.46-.63c-2-1.07-2.13-1.41-1-3.39,1.35-2.4,1.4-2.46-.64-4.5-1.2-1.2-.25-1.57.57-2.09a.78.78,0,0,1,1.14,0,21.2,21.2,0,0,1,1.73,3c.47,1.21.82,2.52,2.26,2.75,1.7.26,1.81-1.43,2.52-2.39l0,0c.75,0,1.5,0,2.25,0,1,0,1.68.4,1.36,1.57-.46,1.66.24,3.14.73,4.63.73,2.24,1,2.36,3.19,1.58.4-.15.77-.38,1.18-.51,1-.3,1.92.06,2,1,.22,2.31,1.85,4.67-.3,7-1.41,1.52-.4,3.28.18,4.81.37,1,2.43,1,4.26.26,2.12-.85,3.68.22,2.92,2.34-1,2.69,1.4,3.53,2.24,5.2.24.48.91.14,1.43-.07,1.79-.73,3.53.17,3.36,2a5.19,5.19,0,0,0,1,3.52,8.25,8.25,0,0,1,1.23,4.57c0,1.82,0,3.64.07,5.45-1.55,4.64-5.08,6.18-9.2,4a4.84,4.84,0,0,1-2.55-4.53C76.38,57.19,74.83,53,75,48.54a5.81,5.81,0,0,0-.49-2.19,2.27,2.27,0,0,0-4.05-.74c-.76.89-1.26,2-2,2.91a5.73,5.73,0,0,1-9.21.09,3.29,3.29,0,0,1-.52-3c.41-1.88.83-3.77,1.18-5.66.45-2.46.42-2.45-1.89-3.07A10.5,10.5,0,0,1,55.6,36a13,13,0,0,0-9-1.71,3.4,3.4,0,0,1-1.91-.1c-2.78-1.26-4.39.23-5.95,2.24-1.31,1.69-2.81,3.24-4.21,4.86a7.58,7.58,0,0,1-3.66,2.52,30.46,30.46,0,0,1-10.84.7A4.42,4.42,0,0,1,16.58,42c-.44-.85-.85-1.72-1.28-2.58.72-2.71,1.38-5.43,2.17-8.12,1-3.26,3.51-5.46,5.55-8,.39-1.94,1.56-2.09,3.12-1.35.93.15,2-.11,2.77.59.57.49,1.2,1,.89,1.87a1.77,1.77,0,0,1-1.86,1.44,1.93,1.93,0,0,1-.64,0c-3-1.38-4.44.7-5.57,2.74-1.41,2.56-3.28,5.09-2.11,8.39.18.5-.26,1.22-.38,1.84-.29,1.51.41,2.82,1.76,3,2.59.29,5.28.86,7.83-.38A10.64,10.64,0,0,1,34,36.85c2.5-.58,2.48-2.57,2.53-4.53Z" fill="#6fbd46"/><path d="M36.36,81.13a3.42,3.42,0,0,1-1.22-2.39,4.08,4.08,0,0,0,1.21-2.89,4.6,4.6,0,0,1,3.48-4.13c3.05-1,6.07-2.12,9.15-3,4-1.18,7.5.38,10.24,2.92a30.71,30.71,0,0,1,7.87,12.69c.42,1.21.63,2.35-.65,3.13a2.25,2.25,0,0,1-2.9-.6,8.13,8.13,0,0,1-2.32-2.61,6.08,6.08,0,0,0-2.58-2.8C56.77,80.71,55.51,79.16,54,78c-.39-.52-.82-1-1.57-.74a3.78,3.78,0,0,1-3.1.08,1.51,1.51,0,0,0-2.15.62,1.81,1.81,0,0,1-1.32.82C42.5,78.89,39.66,80.91,36.36,81.13Z" fill="#7ac048"/><path d="M51.6,52.26c2.7-.06,5.34,0,7.39,2.21,1.68,1.82,1.72,3.62-.11,5.27-3.41,3.08-7.43,2.85-11.42,1.79C45.39,61,43.52,57.89,44,56.29c.62-2,1.57-4.08,5-4C49.89,52.27,50.74,52.26,51.6,52.26Z" fill="#6190b8"/><path d="M35.31,51.61c4.44,0,6.22,1.62,6.32,5.29.05,1.86-.59,2.8-2.42,3.22-3.81.88-7.49,1-10.21-2.5-.64-.82-1.46-.71-2.28-.86-1.23-.22-1.33-1-.58-1.83a5.05,5.05,0,0,1,1.79-1.32A27.42,27.42,0,0,1,35.31,51.61Z" fill="#608db2"/><path d="M55.91,83.93c-1.68,2-3.13,4.08-6,4.75a10.22,10.22,0,0,1-7.53-.93c.71-1.27-1.19-2-.67-3.24l0,0c1.1-1.13,2.57-.79,3.9-.93a18.52,18.52,0,0,0,6-2C55.09,79.94,55.25,80,55.91,83.93Z" fill="#c3d1e6"/><path d="M55.91,83.93c-2.27-.07-.4-2.16-1.56-3-3.75,2.69-7.91,4.28-12.68,3.63-.39-.79-.85-1.61.53-1.89a7.72,7.72,0,0,1,1.26-.13A16.72,16.72,0,0,0,54,78c2.49-.13,3.46,1.81,4.68,3.42A10.72,10.72,0,0,1,55.91,83.93Z" fill="#6390bc"/><path d="M41.69,84.5a4.34,4.34,0,0,0,1.59,1.43c.39.27,1,.63.71,1.23s-1.08.41-1.63.58C40,86.79,39.83,86.21,41.69,84.5Z" fill="#6390bc"/><path d="M34,36.85a17.67,17.67,0,0,1-5.19,4.52c-.6-.11-1.66.11-1.68-.54-.06-1.79-1.48-3.07-1.63-4.67a41.3,41.3,0,0,1,.19-7,4.25,4.25,0,0,1,1-2,1.61,1.61,0,0,1,2-.35c.74.28,1.46.75,1.18,1.62-1,3.21.34,5.29,3,6.86A2.69,2.69,0,0,1,34,36.85Z" fill="#e0ebb7"/><path d="M66.89,20.56a9.08,9.08,0,0,1,.31-3.8c.53-1.22,1.13-1.94,2.68-1.36,1.73.65,1.82.56.63,2.31a2.06,2.06,0,0,0-.21,2.11,8.78,8.78,0,0,1,.42,3.47c0,1.09-.24,1.91-1.57,1.91S67,24.78,66.9,23.45C66.82,22.49,66.89,21.53,66.89,20.56Z" fill="#c3db69"/><path d="M47.3,28.36l-1.09.73c-2.61,0-3-.48-1.92-2.56s3.15-3.37,5.39-4.2a.89.89,0,0,1,1.14.24,1,1,0,0,1-.11,1.17C49.58,25.29,48.44,26.82,47.3,28.36Z" fill="#e8efe0"/><path d="M36.55,32.33c-2.54,1-3.58.18-3.32-2.4.1-1,.55-1.59,1.62-1.49s2.27.21,2.2,1.72a12,12,0,0,1-.49,2.17Z" fill="#e0ebc7"/><path d="M61.07,18.83c-2.08-.41-2.2-.55-1.55-1.92a9.79,9.79,0,0,1,.66-1.09c.51-.79,1-1.93,2.14-1.1a1.83,1.83,0,0,1,.16,2.81,11.58,11.58,0,0,1-1.38,1.28Z" fill="#dbebc4"/><path d="M54.56,15.49H53.42c-.73-.59-1.63-.42-2.47-.53-.52-.06-1.18-.08-1.18-.79s.63-1.06,1.31-1.11a7,7,0,0,1,2.87.21c.68.24,1.38.4,2,.59C56.1,15,55,14.92,54.56,15.49Z" fill="#dbecc5"/><path d="M26.14,21.94A3.62,3.62,0,0,0,23,23.29c-.59-.07-1.27.64-1.73,0s.17-1.13.55-1.61c.76-1,2-1,2.93-1.77a1.16,1.16,0,0,1,1.69.1C27.19,20.78,26.55,21.35,26.14,21.94Z" fill="#cde4aa"/><path d="M15.1,33.6c-1.53-1.24-1.2-2.59-1.2-3.82,0-.77.25-1.59,1.22-1.51a1.46,1.46,0,0,1,1.32,1.83A23.87,23.87,0,0,1,15.1,33.6Z" fill="#e2eecc"/><path d="M46.67,16.11a1.58,1.58,0,0,1-1.76,1.48c-.84,0-2,.06-2-.95s.87-1.57,1.9-1.67A1.58,1.58,0,0,1,46.67,16.11Z" fill="#d7e9bc"/><path d="M50.31,60.11a9.81,9.81,0,0,1-1.9-.15,2.15,2.15,0,0,1-1.11-3.67,6.92,6.92,0,0,1,7.24-1.73c.71.32,1.3.76,1.27,1.64a3.43,3.43,0,0,1-1.52,3A6.6,6.6,0,0,1,50.31,60.11Z" fill="#6cb54a"/><path d="M34.1,58.61a17.41,17.41,0,0,1-2.41-.73c-.83-.35-2-.51-2-1.74,0-1,.95-1.64,1.73-2.15a6.1,6.1,0,0,1,7.35.79c.76.76.92,1.52-.05,2.08C37.45,57.59,36.43,58.86,34.1,58.61Z" fill="#5ead4b"/></svg>