<svg id="Layer_1" data-name="Layer 1" xmlns="http://www.w3.org/2000/svg" viewBox="0 0 100 100"><title>m</title><path d="M57.28,53.58c-.71.5-1.63.87-.87,2,.36.56.56,1.38,1.21,1.52,3.59.77,5.15,3.85,7.33,6.25a5.64,5.64,0,0,1,1.57,2.88c.9,5.7,1.3,11.4.09,17.11-.14.68-.25,1.5-.91,1.65-1.61.38-2.46,2-3.93,2.39-2.94.73-5.85,2-9,.79a6.22,6.22,0,0,0-6.18.61c-3.77,2.32-8.11,2.32-12.32.59-.52-.21-1.18-.36-1.32-.9-.37-1.4-1.7-2-2.34-3.07-1.05-1.71-1.2-3.93-2.59-5.55,1.38-2.66-1.26-5.77,1-8.42a4.83,4.83,0,0,0,.74-2.86c.06-3,1.65-5.27,3.09-7.6,2.15-3.47,3.06-4.08,6.76-5.37a2.1,2.1,0,0,1,1.28-.2,5.53,5.53,0,0,0,5.38-.5,1.46,1.46,0,0,1,1.6.05c2.5,1.84,4.06.55,5.41-1.56C54.64,52.24,56,52.13,57.28,53.58Z" fill="#d3c9b4"/><path d="M29.09,26.28c0-1,.07-2,0-3a4.2,4.2,0,0,1,1.92-4,6.35,6.35,0,0,0,1.8-1.43c1-1.71,2.29-2.63,4.39-2,.87.26,1.71-.26,2.56-.54,1.75-.59,3.45-1.54,5.44-.83,1,.35,1.65-.5,2.36-1a6.19,6.19,0,0,1,4.33-1.36A2.57,2.57,0,0,0,53.51,12c3-2.29,6.83-1.14,10.11-2.29,2.22-.78,4.4-.17,6.51.53A2.44,2.44,0,0,1,72,12.74c-.17,2.86.27,5.77-.75,8.58a8.56,8.56,0,0,1-2.28,4,5.87,5.87,0,0,0-1.41,2.21c-1,2.18-2.36,2.83-4.53,1.84-1.77-.8-3-.32-4.61.46C55,31.47,51,31.86,47.74,34a2.77,2.77,0,0,1-2.27,0c-2.17-1-3.84-.25-5.46,1.13-.51.43-1.14,1-1.76.83a48.12,48.12,0,0,1-7.65-2.81c-1.93-1-1.44-3.3-1.51-5.16C29.07,27.39,29.09,26.83,29.09,26.28Z" fill="#918865"/><path d="M57.28,53.58l-4-.13C51.44,51.71,50,50,51.13,47.09a3.94,3.94,0,0,1,3.6-2.87,9.45,9.45,0,0,1,6.83,2,2.76,2.76,0,0,1,.38,4.34A9.88,9.88,0,0,1,57.28,53.58Z" fill="#749ac6"/><path d="M31.71,48.83c0,1.36.57,1.53,1.11,1.69s1.12.33.87,1.09c-.16.49-.65.53-1.09.56a4.08,4.08,0,0,1-4-2.85c-.49-1.65,0-2.61,2-3.65a25.27,25.27,0,0,1,5.94-2,6.09,6.09,0,0,1,4.13.8,2.08,2.08,0,0,1,1.17,1.52c.47,2.25-1.1,3.49-2.5,4.69A3.21,3.21,0,0,1,35,51C34.08,50.3,33.06,49.7,31.71,48.83Z" fill="#527db0"/><path d="M39.1,67.43c.85-.64,1.69-1.31,2.56-1.91,1.34-.93,2.72-1.24,4.12-.07,1.62,2.38,3.61,2.84,6.06,1.22A2.94,2.94,0,0,1,54.55,66a4.69,4.69,0,0,1,4.08,3.41c.5,2.3-1,3.78-2.33,5.21-4.37,4.6-11.61,4.76-15.7.4C38.54,72.82,37.64,70.36,39.1,67.43Z" fill="#e67db2"/><path d="M39.1,67.43c-.31,4.16,1.26,7.26,5,9.24a5.68,5.68,0,0,0,3.15.76c4.68-.33,8.57-2,10.66-6.53.23-.5.48-1,.71-1.49,1,.08,1.55.7,1.1,1.55-1.39,2.64-1.88,6.13-5.82,6.57a2.47,2.47,0,0,0-1.35.91c-1,1.21-2.09,1.87-3.69.87-.89-.56-1.73.09-2.41.63C45,81.13,43.61,81,42.4,79.56a15.23,15.23,0,0,0-5.62-4c-1.37-.62-1.87-1.54-1.11-2.91C36.68,70.79,37,68.55,39.1,67.43Z" fill="#f2e9ed"/><path d="M54.55,66c-1,.65-2.06,1.27-3,2-1.68,1.16-3.39.63-5.06.06-1.42-.48-.44-1.71-.67-2.57C48.9,62.66,52,62.86,54.55,66Z" fill="#f2eaed"/><path d="M48.25,74.83c-3.43,0-4.78-1-5.41-3.7-.35-1.47.18-2.12,1.42-1.5a9.63,9.63,0,0,0,9.81-.31.89.89,0,0,1,1.21.06c.37.41.12.79-.09,1.18C53.62,73.45,51.3,75,48.25,74.83Z" fill="#f5e7f1"/></svg>