<svg id="Layer_1" data-name="Layer 1" xmlns="http://www.w3.org/2000/svg" viewBox="0 0 100 100"><title>m</title><path d="M74,25.09a28.67,28.67,0,0,1,5.87,15.23c.29,3.11,1.39,6,2.05,9,1,4.69,2.47,9.43,1.94,14.37C83.63,66.1,82.45,67,80.31,66c-2.66-1.21-5.29-2.42-6.41-5.73A43,43,0,0,0,70,51.17c-.79-1.27-.63-2.78-.76-4.22-.07-.78-.17-1.78-1.18-1.65s-2.29.25-2.63,1.59a3.73,3.73,0,0,0,0,1.65c.85,3.85.43,7.74.41,11.61,0,2.5-.58,3.3-2.14,3.54-2.07.33-4.54-1.07-4.92-3A28.31,28.31,0,0,1,58,54.78c.06-3.66,0-7.32-.09-11a3.08,3.08,0,0,0-.66-2.43c-1.08.79-1.36,2.32-2.67,3-1.13.56-2.09.91-3-.07-1.37-1.49-2.37-.94-3.55.26a2.77,2.77,0,0,1-3.31.88,2.87,2.87,0,0,0-3.59.79c-1.33,1.29-2.75,1.88-4.38.45-1-.91-2-.92-2.69.4a2.52,2.52,0,0,1-2.46,1.38A3.32,3.32,0,0,0,29,49.77a4,4,0,0,1-4.84,1c-1.5-.63-2.47-.47-3.32,1-.53.9-1.16,2.16-2.54,1.54a3.24,3.24,0,0,1-2.26-3c.14-4.31-.44-8.63.44-12.93.48-2.35,0-4.91,1.51-7,1.25,1.65,2.22,3.49,4.39,4.31s4.16,1.35,5.93-.91c1.55-2,3.74-1.06,5.57-.57,2,.53,3.58,1,4.7-1.35a1.64,1.64,0,0,1,2.79-.49c2.08,1.86,3.06.79,3.79-1.26a7.71,7.71,0,0,1,2.25-2.83c1.4-1.35,2.76-2.67,4.92-1.49S56.47,28.12,56,31a3.67,3.67,0,0,0,2.07,4.12,3.49,3.49,0,0,0,4.34-.51c3-3.62,5.94-3.11,9.22-.47-2.17-1.91-3.87-4.3-7.18-4-1,.09-1.78-1.23-2.35-2.18-1.25-2.08-.58-3.53,1.83-3.57a10.88,10.88,0,0,0,4.82-.91A20.62,20.62,0,0,1,74,25.09Z" fill="#f5d464"/><path d="M68.63,23.77a2.45,2.45,0,0,1-3.46,1.47c-.91-.31-2.35-.69-2.93.64-.49,1.12.79,1.67,1.28,2.49a2.29,2.29,0,0,0,3.05,1.14c1.63-.53,3.1-.49,3.17,1.86,0,.63.56.9,1.14,1a5,5,0,0,1,1,.16c1,.43,2.33,1,1.71,2.31-.73,1.54-1.88.36-2.79-.09-.59-.29-1.09-.76-1.66-1.08-2.9-1.63-2.85-1.58-5,1a6,6,0,0,1-5,2c-1.67-.14-3.35-1.61-4.28-3.36-.35-.65,0-1.28.21-1.91.3-1.09.57-2.33-.41-3.1a9.77,9.77,0,0,0-4.26-2.44c-.19,0-.54,0-.61.17-1,2-3.53,2.44-4.19,4.92-.92,3.48-2,3.62-4.51,1-.87-.89-1.47-.84-2,.25-.19.4-.29.84-.49,1.23-.81,1.62-1.61,2-3.13,1.18a12.64,12.64,0,0,0-3.41-1c-1.88-.48-3.16-.38-3.93,1.67-.56,1.5-2,1.16-3.19,1-2.26-.22-4.14-1.44-6-2.7-1.17-.81-.94-2.15-1-3.34a1.47,1.47,0,0,1,.1-.57,4,4,0,0,1,3.32-3.95,1.83,1.83,0,0,0,.9-.42c3.35-3.47,7.05-3.71,11.08-1.26.37.22-.13,0,.3.14s1.13.27,1.23-.09c1.11-3.92,6.2-.71,7.59-4.38,1.13-3,2.61-3.33,4.93-1.22,1.69,1.54,3.7,1.57,5.58,1.6,2.16,0,4.31-.94,6.55-.22.61.2.9-.36,1.3-.77,2.48-2.53,4.91-2.21,6.48,1C67.9,21.28,69,22.31,68.63,23.77Z" fill="#f3cb3d"/><path d="M68.63,23.77a16,16,0,0,0-2.75-4.49A2.77,2.77,0,0,0,63,18.39c-1.05.26-1.48.44-1.25,1.7S61.14,22,59.9,21.26a5,5,0,0,0-5.58-.08,2,2,0,0,1-2.16,0c-.59-.27-1.19-.78-1.86-.47-1.59.73-2.44,0-3.2-1.33-.49-.85-1.18-1.7-2.37-1.45s-1.23,1.36-1.44,2.33a5.22,5.22,0,0,1-1.39,2.59,1.17,1.17,0,0,1-1.45.29c-2.89-1.11-2.91-1.07-4.52,1.5-.29.46-.56.92-.88,1.44a24.19,24.19,0,0,0-5.77-2.72,3.61,3.61,0,0,0-4.2,1,5.59,5.59,0,0,1-3.52,2.3c-1.92.2-2.76,1.53-3.45,3.08-.48-2.89.5-5.45,1.81-7.94,1.13-2.14,2.42-2.5,4.56-1.24s2.17,1.27,3.55-.75c.06-.09.11-.2.17-.29,2.7-4,3.76-4.08,6.85-.28,1-.84,1-2.14,1.55-3.2.62-1.28,1.42-2.26,2.94-2.32a2.54,2.54,0,0,1,2.66,2c.55,1.57,1.6,1.8,2.76.62,1.44-1.47,2.83-1.19,4,.17s2.24,1,3.88.75C54.89,17,56.6,16.63,58,15c.13-.16.44-.35.57-.3,2.16,1,4.47.57,6.69.87,1.41.2,2.39,1.77,2.54,3.23.31,2.95,2,4.46,4.63,5.26a2.44,2.44,0,0,1,1.65,1A18.6,18.6,0,0,1,68.63,23.77Z" fill="#f4d365"/><path d="M58.66,76.76c-.81,5.83-2.53,8.2-8.06,9.41a6.12,6.12,0,0,1-6.53-4c-.42-1.38.06-2.93,1.24-3,3.77-.07,5.73-3,8.31-4.91,1-.74,1.61-2.29,3.27-1.55C58.19,73.38,58.78,74.77,58.66,76.76Z" fill="#6e90bf"/><path d="M33.9,59A24,24,0,0,1,37,60.16c1.69.9,2.05,2.36.86,3.85a16.75,16.75,0,0,1-6.81,5.17c-1.81.73-6.11-.72-7.23-2.31-.83-1.18-.83-3.16.21-4C27,60.6,30.71,60.12,33.9,59Z" fill="#8198b7"/><path d="M46.67,65.14c-3.34.93-4.09-2.54-6.1-4-.58-.42,0-1,.41-1.35,2.77-2.85,9.82-4.15,13.36-2.49,1.47.69,1.88,2.11.66,3.56C52.89,63.38,50.46,65.48,46.67,65.14Z" fill="#7d99bb"/><path d="M46.11,81.87A17.36,17.36,0,0,0,55,76.43c.59-.62,1.31-.42,1.44.46.55,3.89-3,7.64-7,7.57A3.16,3.16,0,0,1,46.11,81.87Z" fill="#e9e8f2"/><path d="M30.54,62.37c1.52-.79,3.6-1.27,4.43,0,.93,1.46-.86,2.88-2,4-.83.87-1.77,1.68-3.15,1C28.93,65.63,28.94,63.89,30.54,62.37Z" fill="#e7ca68"/><path d="M30.54,62.37l-.67,5.12c-1.69-.37-3.56-.3-4.54-2.22-.45-.88-.37-1.62.5-1.89C27.36,62.89,28.76,61.68,30.54,62.37Z" fill="#eeeaeb"/><path d="M47.78,63.74a6.68,6.68,0,0,1-2.27-.15,3.27,3.27,0,0,1-2-2.81c-.06-1.37,1.4-1.16,2.22-1.5A7.56,7.56,0,0,1,49.33,59C50.77,61.21,49.85,62.66,47.78,63.74Z" fill="#e4c564"/><path d="M47.78,63.74A6.16,6.16,0,0,0,49.33,59c.63-.45,1.26,0,1.87.06,1.14.17,1.4.88.88,1.88C51.17,62.67,50,64,47.78,63.74Z" fill="#e1e2e4"/></svg>