<svg id="Layer_1" data-name="Layer 1" xmlns="http://www.w3.org/2000/svg" viewBox="0 0 100 100"><title>m</title><path d="M10.89,39.06c.69-4.09,2.36-7.14,6.64-8.83a159.07,159.07,0,0,1,25.39-7.41c8-1.71,15.76-.83,22.91,3.51,4.23,2.74,9.13,4.86,10,10.74a1.49,1.49,0,0,1-.74.81c-2.77-.06-4.13.6-2.84,3.86s1.64,6.61,3.41,9.61a2.65,2.65,0,0,1,.1,2.65,1.4,1.4,0,0,1-1,.5,4.15,4.15,0,0,1-1.62-.61c-1-.56-1.85-1.5-3.32-2-.91,3.79-2.7,7.24-3.75,11a11.42,11.42,0,0,1-3.29,5.77c-1.67,1.47-3.26,1.26-5.09.3s-2.28-2.39-2.13-4.26c.26-3.18,2.64-2.69,5.08-2.68-3-6-2.86-12.29-3-18.53,0-2-.74-3.24-2.82-3.6a5.36,5.36,0,0,1-3-1.77,3.64,3.64,0,0,1-.43-4.74c1-1.57,2.58-1.7,4.23-1.07s2.88,2,4.8,1.45c-3.18-3.61-8.8-5.18-14.44-4.06a47.2,47.2,0,0,1-7.61,1.74c-2.31.48-4.83.17-6.86,1.73A16.43,16.43,0,0,0,30,37.22a4,4,0,0,1-.62,1.87A18.28,18.28,0,0,1,17.66,45C14.22,45.37,12.07,42.94,10.89,39.06Z" fill="#242939"/><path d="M30.06,31.89c2.49-1.4,5.35-.91,8-1.54,2.1,1.22,6.44,1.45,11.31.46-1.49-.63-3-.63-3.4-2.1,1.8-1.87,4.13-.53,6-.47,3.61.12,6.8,2.43,10,4.16.62.33,1.39,1,1.11,1.91S61.76,35,61,35c-1.86.07-3.65.07-5.12-1.49a2.42,2.42,0,0,0-3.84,0c-1.1,1.2-.53,3.12,1.05,4.38A3.92,3.92,0,0,0,56,39c2.22-.22,2.82,1.07,2.65,2.91-.45,4.78.91,9.46.78,14.21,0,1.44.23,2.55,1.6,3.31,1.79,1,1.09,2.5.54,3.82-.41,1-1,1.25-2.14.4-2-1.52-2.83-.94-3.13,1.44S57.83,67.5,59,68.42c1.31,1,2.18.38,3.05-.54.64-.67,1.58-1.29,1.79-2.08,1.24-4.69,4.06-8.87,4.4-13.83.06-.82.11-1.73,1-2s1.36.6,1.94,1.1l2.68,2.32a5.89,5.89,0,0,0-4.29,5c-.32,1.79-1.33,3.44-1.88,5.21-2.15,6.94-3.08,7.49-10.6,6.55-2.15-1.56-2.69-3.67-2.49-6.24A74.93,74.93,0,0,0,54,51.3c-.26-2.79-1.49-4.27-4.13-5S44.59,44.6,42,43.73c-2-.71-4.15-.3-6.22-.29-4.11,0-5.68-1.79-4.86-5.85C31.29,35.59,32.39,33.49,30.06,31.89Z" fill="#454d61"/><path d="M84.93,51.77l.81.79c2.34,2.18,2.78,4.63,1.18,7.46-1.14,2-.66,4.41-1.39,6.53-.67,1.92-1.49,3.93-3.8,4-2.5.11-3.12-1.95-3.55-4s-1.74-3.82-2.29-5.87c-.45-1.69-1-3.32.41-4.83,1.28-1,2.47-.21,3.69.19,1.05.35,2.23,1.6,3.2.37,1.12-1.41.15-2.87-.93-3.82-3.42-3-4.71-7.22-6.66-11.06-.65-1.27-1.38-2.62-.28-4.05l.26-.32c2.42-.53,2.37,1.57,2.93,2.87C80.27,44.2,82,48.3,84.93,51.77Z" fill="#222433"/><path d="M30.06,31.89c3.08.34,3.07.33,2.57,3a25.48,25.48,0,0,1-.56,3.06c-1,3.14.17,4.95,3.46,5.06,1.7.06,3.4,0,5.1.06.46,0,.9.45,1.35.69A20.5,20.5,0,0,0,32.29,45,25.57,25.57,0,0,1,16,45.42c-3.87-1.17-5-2.48-5.09-6.36,1,.62.84,1.87,1.53,2.7,1.69,2,4.56,3.26,6.64,2.34,2.5-1.11,5-2.34,7.42-3.54S29.87,36.39,30.06,31.89Z" fill="#656f86"/><path d="M77.07,55.71c-1.81,2.55-.42,4.85.73,7,.8,1.53,1.73,2.91,1.57,4.77A2.1,2.1,0,0,0,81,69.92a2.37,2.37,0,0,0,2.81-1.69A11.39,11.39,0,0,0,85,63.66c-.08-2-.1-4,1.65-5.46.71-.61.32-1.46.08-2.23-.36-1.13-.67-2.28-1-3.41a2.87,2.87,0,0,1,3,2.62A18.57,18.57,0,0,1,87.39,67a22.41,22.41,0,0,0-1,2.12,4.26,4.26,0,0,1-7,1.8,10,10,0,0,1-3.07-5c-.68-2.27-1.32-4.55-2-6.82-.11-1.67-.83-3.36.21-5l.84-.09C76.65,54,77.23,54.49,77.07,55.71Z" fill="#5e6576"/><path d="M22,63.79c-.89-.06-1.15-.06-1.41-.1-1.79-.25-4-.06-4.71-2.13-.81-2.39,1.45-3.69,2.89-4.64a12.05,12.05,0,0,1,8.31-1.75,3.16,3.16,0,0,1,2.7,2.05c.47,1.36-.37,2.16-1.38,2.94C26.3,61.8,24.79,64.58,22,63.79Z" fill="#5981b1"/><path d="M42.44,60.79A6.09,6.09,0,0,1,37.36,59c-1.34-1.5-1.28-2.36.3-3.5,2.89-2.09,5.93-3.34,9.57-2.08,1.15.4,2.34.68,2.61,2.06a3.56,3.56,0,0,1-1.44,3.83A9.86,9.86,0,0,1,42.44,60.79Z" fill="#5b83b4"/><path d="M37.2,78a14,14,0,0,1-6.35-2.09,1.65,1.65,0,0,1-.75-2c.28-.77,1-.76,1.64-.72a6.77,6.77,0,0,1,2.32.36c2.9,1.3,4.76.12,6.24-2.33a6.88,6.88,0,0,1,1.56-1.74A1.86,1.86,0,0,1,44,69.12a2.06,2.06,0,0,1,1.06,2.32C44.74,74.18,40.36,78,37.2,78Z" fill="#5980b1"/><path d="M74.63,54.12c-.07,1.66.24,3.33-.21,5-1-.76-.06-2.45-1.73-3.18-2.12,2.66-3,5.95-4,9.12-1.87,6-5.66,7.71-11.69,5.1l2.76,0c4.11,0,5-.5,6-4.66.93-3.8,3.48-7.09,3.37-11.21a1.36,1.36,0,0,1,1.94-1.31,6.28,6.28,0,0,0,2.69.45Z" fill="#8e98a7"/><path d="M84.93,51.77a6.87,6.87,0,0,1-3.36-3.69c-1.4-2.81-3.12-5.48-4-8.53a3.25,3.25,0,0,0-2-2.32,18.17,18.17,0,0,0-7.92-8.93,3.31,3.31,0,0,1-1.81-2,2.82,2.82,0,0,1,2.6.5c4,2.62,7.82,5.52,9.61,10.08C80,42,82.64,46.81,84.93,51.77Z" fill="#5e6576"/><path d="M77.07,55.71,75.47,54a4,4,0,0,0-.59-2.25c-1.63-2.14-2.27-4.64-2.88-7.21-.36-1.49-.38-3.14-1.44-4.43a2,2,0,0,1-.27-2.54,2.38,2.38,0,0,1,2.81-.83,19.66,19.66,0,0,1,2.22.77c1.74,5.07,3.41,10.17,7.41,14a9.2,9.2,0,0,1,1.83,2.05A3.88,3.88,0,0,1,84,58.09c-1.11,1.37-2.14,0-3.11-.41C79.6,57.12,78.35,56.38,77.07,55.71Z" fill="#010109"/><path d="M66.35,39.62c3.11,2.87,3.11,3.16,1.49,6.85-.63,1.42-.79,3-1.33,4.51-1,2.69-1.86,2.9-3.91,1.08-2.93-2.6-3-4.11.08-6.62C64.63,43.87,64.74,41.31,66.35,39.62Z" fill="#4b5267"/><path d="M46,28.7c1.5,1,3.32.54,4.93,1,.52.15,1,.54.82,1.11a1.24,1.24,0,0,1-.78.77,26.94,26.94,0,0,1-5.73,1,47.23,47.23,0,0,0-6.17,0c-2.06.24-1.6-1.07-1-2.24Z" fill="#727c90"/></svg>