<svg id="Layer_1" data-name="Layer 1" xmlns="http://www.w3.org/2000/svg" viewBox="0 0 100 100"><title>m</title><path d="M41.5,79.32a12.13,12.13,0,0,1-6.16.8c-3.09-.29-4.76-2.45-5.12-5.51-.52-4.44,1.93-7.79,3.67-11.43a2.78,2.78,0,0,1,1.6-1.25,9.8,9.8,0,0,0,2.72-1.52c3.29-2.95,7.26-3.08,11.21-2.51,2.08.3,4.17.28,6.21.6a23.49,23.49,0,0,1,10.66,4.87,10.94,10.94,0,0,0,3.58,2.1c1.86.54,2.41,1.87,2.45,3.72.09,3.8-1.72,7-3.29,10.18-.86,1.76-3.09,1.94-5.3,1-1.34-.55-2.14-1.8-3.4-2.42-1.34-5-1.46-5.07-6.69-3.32-2.55.85-5.13,2-7.82,1.42C42.87,75.47,41.84,76.78,41.5,79.32Z" fill="#ffdeba"/><path d="M14.9,55.58l-3.58-4.07a20.63,20.63,0,0,1,.29-15.3,4.2,4.2,0,0,0,.4-1.68c-.36-6.15,3.57-9.79,7.81-13.17,1.19-1,2.22-2,3.35-3.05,3.52-3.15,7.14-2.57,9.47,1.51,3.53,6.19,3.94,6.33,1.59,13.26-1.58,4.65-3.51,9.36-6.84,13.24a32.89,32.89,0,0,0-3.91,5.32C21.53,55.14,18.5,55.89,14.9,55.58Z" fill="#ffdeba"/><path d="M69.45,42.37c.23-.39.67-.8.64-1.17-.27-3.52,1-6.91.81-10.42a9.72,9.72,0,0,1,1.32-5c1.4-2.69,3.85-4.55,6.71-4.22,3.11.36,6.55,1.24,7.45,5.25a24.35,24.35,0,0,0,1.23,3.64,7,7,0,0,1,.09,5.39c-1.08,2.8-1.28,5.47,1,8.12,2.09,2.42,1.52,9-.6,11.56A14.3,14.3,0,0,0,86,58.68a4.75,4.75,0,0,1-6,2.2c-.88-.31-1.71-.73-2.58-1.06-5.3-2-7.06-4.52-7.29-10.25,0-1.25.35-2.58-.53-3.72A2.23,2.23,0,0,1,69.45,42.37Z" fill="#fbdebb"/><path d="M41.5,79.32c-1.41-4.47-1.24-4.68,3.47-4.12a18,18,0,0,0,8.17-1.35c1.09-.39,2.17-.84,3.28-1.18,3.25-1,4.9.57,4.27,4-.08.45-.24.89-.36,1.34-1.54,1-2.6,2.6-4.14,3.7-4.85,3.47-8.68,1.92-12.26-.38A26.48,26.48,0,0,1,41.5,79.32Z" fill="#7797be"/><path d="M69.45,42.37l.2,3.47c-2.16,3.49-5.41,4.6-9.13,3.1C58.18,48,56.35,44.45,57,42.09a1.78,1.78,0,0,1,1.13-1.18c2-.95,4.11-.43,6.15-.68A5.76,5.76,0,0,1,69.45,42.37Z" fill="#6489b7"/><path d="M43.26,46.37a10.69,10.69,0,0,1-4-1.26,2.66,2.66,0,0,1-1.75-2.74c.16-1.43.56-2.7,2.14-3.28a23.82,23.82,0,0,1,6.09-1.39,5.41,5.41,0,0,1,4.35,1.87c1.6,1.65,1.32,3.73-.56,5.07A13.57,13.57,0,0,1,43.26,46.37Z" fill="#698cba"/><path d="M44.71,78.36a1.64,1.64,0,0,1,1.46-.74,25.19,25.19,0,0,0,8.75-2,1.66,1.66,0,0,1,2.19.38c.49.66.13,1.32-.16,2C55.16,81.84,49.12,84.57,44.71,78.36Z" fill="#edecf4"/><path d="M62.34,42.45h.46c2.28.06,3.51.78,3.76,2.29a2.53,2.53,0,0,1-1.44,2.89c-1,.52-3.53-.24-4.4-1.38-.69-.92-1.48-1.95-.81-3.17C60.46,42.08,61.56,42.53,62.34,42.45Z" fill="#dfd5cb"/><path d="M44.71,44.59c-1.55-.37-3.31-.59-4.27-2.31A.92.92,0,0,1,40.63,41a6.78,6.78,0,0,1,4.88-1.09c1.7.35,2.62,1.54,2.32,2.88C47.46,44.43,46.13,44.48,44.71,44.59Z" fill="#e1d8d1"/></svg>