<svg id="Layer_1" data-name="Layer 1" xmlns="http://www.w3.org/2000/svg" viewBox="0 0 100 100"><title>m</title><path d="M74,28.2a26,26,0,0,1,5.5,16.25c0,5.93,1,11.86.11,17.8A13.42,13.42,0,0,1,79.43,64a2.43,2.43,0,0,1-3.83,1.55,6.42,6.42,0,0,1-3.06-4.08c-.69-2.34-1.36-4.69-2.07-7-.81-2.64-2-5-4.89-5.94a6.9,6.9,0,0,0-4.43-.31A15.38,15.38,0,0,1,48.37,47c-2.46-1.38-5-2.38-6.61-4.84A6.88,6.88,0,0,1,40,38.44c-.35-2.29-1.72-2.65-3.48-1.38-2.51,1.81-5.82,2.69-6.73,6.37-.32,1.3-1.91,1.95-3.3,2.37-1.62.49-2.52,0-3.19-1.67-2-4.88-.07-9.49.56-14.25.78-5.87,3.78-8.47,9.6-9.54C41,19,48.35,17.63,55.9,19.86c2.34.69,5-.06,7.2,1.16A68,68,0,0,1,74,28.2Z" fill="#b78b2b"/><path d="M74,28.2a31.26,31.26,0,0,0-3.46-1.53A7.19,7.19,0,0,1,66,23.78c-1.24-1.88-3.52-2.44-5.55-2.43-3.57,0-6.86-1.06-10.24-1.83-2.1-.48-4.1-.78-5.95.75a2.28,2.28,0,0,1-2.54.15c-2.32-.92-4.74-1.2-6.75.9a1.43,1.43,0,0,1-1.58.5c-1.92-1-3.34.5-4.92,1a3.81,3.81,0,0,0-2.75,2.92c-.68,3.93-2.28,7.63-2.64,11.65-.14,1.58-.32,2.93.72,4.26.75,1,.25,2.27.56,3.37,4.42-.29,6.21-2.31,5.85-6.71,2.35-.24,4.59-.45,6.55-2.37s4.2-.68,4.22,2.15a16.33,16.33,0,0,0,.79,4.07c-1.82-1-2.83-2.71-4-4.53a6.08,6.08,0,0,0-2.63,3.08,19.24,19.24,0,0,1-5.21,6.07,6.65,6.65,0,0,1-9.16-.43c-.58-.67-1-1.39-.62-2.21,2.07-4.18,1.59-8.86,2.69-13.23.65-2.6,1.05-5.29,2.18-7.72,1.88-4.07,5.35-7.62,11-6.78a4.73,4.73,0,0,1,2.33.6c2.1,1.89,4.26,1.09,6.51.48,8.8-2.36,16.84-.42,24.24,4.59C71.31,23.58,73.29,25.42,74,28.2Z" fill="#cfaa59"/><path d="M40.43,83.68a22.61,22.61,0,0,0-2.44,0c-2.29.25-3.75-1.3-4.43-3.21-.81-2.28,0-4.37,1.2-6.24.57-.85,1.67-.71,2.59-.43A13.13,13.13,0,0,0,49,72.49c1-.66,2.08-1,3.16,0a3.26,3.26,0,0,1,1.06,3.42c-1.08,4.28-4.45,7.15-9.33,7.63-1.15.11-2.33,0-3.49,0Z" fill="#e887b7"/><path d="M34.25,54.21a9.19,9.19,0,0,1,6.54,3c2.08,2.28,2,4.41-.4,6.27-4.06,3.2-8.06,2.56-11.15-1.59-1.19-1.6-1-3.27-.93-5a1.69,1.69,0,0,1,1.25-1.52A18.65,18.65,0,0,1,34.25,54.21Z" fill="#5e7fa8"/><path d="M57,56.28a5.84,5.84,0,0,1,2.92,1.81c3.31,3,2,5-.91,7s-8.21,1.08-10.73-1.43-2.23-5,.79-6.82a7.12,7.12,0,0,1,3.22-1.27c.14,2.63-1.76,5.7,1.64,7.62a2.25,2.25,0,0,0,3.25-.71c1.13-1.4-.15-2.51-.6-3.72A2.48,2.48,0,0,1,57,56.28Z" fill="#6c8eb5"/><path d="M53.63,63.93c-3.59-2.11-4-4.3-1.38-8.38,1.77-1.06,3.27-.31,4.71.73q.11,1.45.22,2.9C57.3,61.73,57,64,53.63,63.93Z" fill="#9b854c"/><path d="M48.42,77a7.69,7.69,0,0,1-9.32,4.38A2,2,0,0,1,37.59,79c.11-1.12.86-1.87,1.85-1.54,2.75.93,5.22-.07,7.75-.77A1.1,1.1,0,0,1,48.42,77Z" fill="#f7e6f0"/><path d="M33,57a4.67,4.67,0,0,1,5.23,1.81c1,2.14-.41,3.28-2,4.1a2.65,2.65,0,0,1-3.36-1C31.65,60.33,31.26,58.64,33,57Z" fill="#b89342"/><path d="M33,57c-.12.79-.3,1.58-.35,2.38a2.73,2.73,0,0,0,2.29,3c1.53.38,2.34-.63,2.83-1.92.2-.53.31-1.11.46-1.66.86.67,1.76,1.41.76,2.53s-2.1,2.89-4.24,2.44c-1.76-.37-4.3-3.3-4.2-5C30.64,57.32,31.67,56.9,33,57Z" fill="#babcc3"/><path d="M53.63,63.93c2.47-.63,2.4-3.15,3.56-4.75,1.84.78,1.91,2.12,1,3.64S55.51,64.75,53.63,63.93Z" fill="#d4d4d7"/></svg>