<svg id="Layer_1" data-name="Layer 1" xmlns="http://www.w3.org/2000/svg" xmlns:xlink="http://www.w3.org/1999/xlink" viewBox="0 0 200 100"><defs><clipPath id="clip-path"><rect x="96" y="3.25" width="7.98" height="27.69" fill="none"/></clipPath><clipPath id="clip-path-2"><rect x="148.42" y="56.69" width="28.04" height="33.83" transform="translate(42.15 205.27) rotate(-71.96)" fill="none"/></clipPath></defs><title>share-your-wall-01</title><path d="M99.92,27.64a.32.32,0,0,0-.54,0c-.24.3-.15.64-.15,1a7.53,7.53,0,0,1-.15,1.48c-.1.39.49.54.64.19a5.39,5.39,0,0,0,.29-1.28c.05-.49.2-1-.1-1.43Zm0,0" fill="#575756"/><path d="M100,25.57a5.28,5.28,0,0,1-.2-.84,1.31,1.31,0,0,0,0-.44,1.24,1.24,0,0,0-.15-.39.32.32,0,0,0-.54,0,1.24,1.24,0,0,0,0,.93,3.91,3.91,0,0,0,.34,1,.33.33,0,0,0,.59-.24Zm0,0" fill="#575756"/><path d="M99.62,19.52a.33.33,0,0,0-.49,0c-.2.24-.15.44-.15.74s.05.54.05.84a.3.3,0,1,0,.59,0c0-.24,0-.49,0-.74s.2-.54,0-.84Zm0,0" fill="#575756"/><path d="M99.67,17.3c-.2-.54-.1-1.08-.25-1.62a.34.34,0,0,0-.64,0,2.22,2.22,0,0,0,.35,1.82c.15.3.64.1.54-.2Zm0,0" fill="#575756"/><path d="M99.32,11a.3.3,0,0,0-.39,0c-.3.3-.2.69-.2,1.08a8.07,8.07,0,0,0,0,1.08.31.31,0,0,0,.59,0,6.43,6.43,0,0,0,.05-1,1.25,1.25,0,0,0-.1-1.18Zm0,0" fill="#575756"/><g clip-path="url(#clip-path)"><path d="M98.83,6.76a.41.41,0,0,0-.39.54,11.6,11.6,0,0,1,.15,1.28.29.29,0,0,0,.54,0,5.36,5.36,0,0,1,.15-1.28.46.46,0,0,0-.44-.54Zm0,0" fill="#575756"/><path d="M103.51,6.57a14.59,14.59,0,0,0-3.89-3.25.46.46,0,0,0-.59.1C98,4.65,97.21,6,96.12,7.21c-.39.39.25,1,.59.59,1-1.08,1.72-2.36,2.71-3.45a23.31,23.31,0,0,1,3.3,3,.54.54,0,0,0,.79-.74Zm0,0" fill="#575756"/></g><path d="M46.16,50.3a.49.49,0,0,1-.08.26l-.07,0,0,.17-.22.07a.22.22,0,0,1-.18.2l-.16.16h-.2l-.11.18v0a.84.84,0,0,1-.43.22l-.13.16a.71.71,0,0,1-.38.13h0l-.07.11h-.25l-.17.13-.23-.13-.3-.23-.22-.46v-.61l0-.14.06-.49.06-.53.08-.14,0-.25v-.35a.31.31,0,0,1,0-.07.38.38,0,0,1,.12-.28l0,0,0-.32-.23.14-.44,0-.22.1-.34.08-.65.1-.06-.06a.37.37,0,0,1-.25.08h-.11l-.32.13-.24-.07a.35.35,0,0,1-.24.16v.08l0,.17.07.2-.16.31,0,.48-.06.17,0,.16-.13.26,0,.16a.09.09,0,0,1,0,.06,2.35,2.35,0,0,1,0,.32,2.28,2.28,0,0,0,0,.37v.14l.11.2-.07.17.08.24-.06.19.13.59,0,.65.14.28-.06.23a.89.89,0,0,1,.14.41v0a.2.2,0,0,0,0,.06v.06q0,.46-.53.48l-.1-.19L39.42,55l0-.22-.24-.67V54a2.08,2.08,0,0,1,0-.25.2.2,0,0,1,0-.08l0-.2,0-.2,0-.13v-.26L39,52.12h0L39,52l0-.17-.08-.16.07-.12,0-.43.13-.34-.1-.28.1-.19,0-.38.1-.26v-.25a3,3,0,0,1,.1-.54h0l-.16,0h-.18l-.34,0-.2,0-.35.07-.12,0h-.14q-.52-.22-.56-.37l-.06-.2c.1-.3.23-.46.41-.46a.14.14,0,0,1,.11,0h.07l.25,0h.24l.46,0,.36-.06h.37l0-.14,0-.36.06-.13,0-.24a.31.31,0,0,1,.1-.23s0-.06,0-.13l.13-.14.06-.37,0,0,0-.16a.48.48,0,0,0,.14-.28v-.07a.83.83,0,0,1,.06-.19L40,45l0,0a1.92,1.92,0,0,1,0-.34l0,0v0a.31.31,0,0,1,.17-.29l.07-.12.14-.34h0c.09,0,.13-.05.13-.16v0l.34-.12h.1a1.18,1.18,0,0,1,.35-.13l.12-.06.26-.05.22,0,.25,0,.18.11h.22l.16.13h0l.14,0q.18,0,.32.28l.16.12.1.25.17.19a1.3,1.3,0,0,0,0,.2,1.39,1.39,0,0,1,0,.21c0,.16-.12.31-.35.46l-.35,0-.3-.2-.14-.25,0-.12v0l0-.07-.4-.26-.25,0-.11.06-.4.08a.31.31,0,0,1-.3.22,3.13,3.13,0,0,0-.46,1h0l0,.12-.06.12.08.23-.17.22,0,.18,0,.11v.17l-.16.42v.14a.5.5,0,0,1,0,.23,1.37,1.37,0,0,0-.08.22l.19,0h.07l.11,0H41a.79.79,0,0,1,.22,0l.24,0,.25-.11.29,0,.23-.14a2.31,2.31,0,0,0,.7-.14l.12-.1h0a.23.23,0,0,0,.24-.16l.23.08a.18.18,0,0,0,0-.13h.35l.22.35-.14.36v.38l.07.17v0a1.2,1.2,0,0,1-.14.37l0,.16-.14.47-.06.46v.3l-.07.18,0,.12,0,.28,0,.32,0,0L44,51l.23-.18.2-.07.17-.16,0,0,.28-.13.12-.08h.06l.14-.16.18-.1.17-.28L46,50A.41.41,0,0,1,46.16,50.3Z" fill="#8acde0"/><path d="M51.26,47.44l-.1.4-.44.06-.24.16L50.33,48l-.17.09-.18.07-.12.08v0l-.25.13-.17.22h-.08a1.56,1.56,0,0,1-.28.25l-.17.28-.06,0a2.85,2.85,0,0,0-.08.29l-.17.06-.07.14-.1.12,0,.18-.1,0v.18l0,0,.08.13-.18.07,0,.16-.12.2.07.16-.16.22a1,1,0,0,1,0,.17v0a.2.2,0,0,0,0,.06l0,.11.2.22L48,52l-.14.11-.34.17-.44-.18v-.28l0-.11,0-.18a2.52,2.52,0,0,1,0-.29.51.51,0,0,1,0-.1V51a.27.27,0,0,1-.08-.19.39.39,0,0,1,.08-.22s0-.16,0-.36l0,0,0-.16,0-.14,0-.08,0-.28L47,49.38l0-.13,0-.16a1.25,1.25,0,0,0,0-.19.42.42,0,0,0,0-.24l0-.07,0-.22-.11-.16.06-.19,0-.07,0-.29v-.1a.27.27,0,0,1-.06-.18q0-.24.53-.41l.3.06.06.23.12.16,0,.32.08.53,0,.19a.54.54,0,0,1,0,.13.28.28,0,0,1-.06.16l0,.24,0,.26,0,.12,0,0,0,.12a.34.34,0,0,0,.08-.18l0-.18a.24.24,0,0,1,.11-.11l0-.18.17-.1,0-.14.13-.14.1-.18a.76.76,0,0,1,.3-.22l0,0,.11-.17.12,0,0,0,0-.07.13-.07.07-.08h.07l.1,0,0-.07.14-.07.2-.13.29-.1.18,0h0a.38.38,0,0,0,.14,0,.26.26,0,0,1,.17,0l.17,0A.32.32,0,0,1,51.26,47.44Z" fill="#8acde0"/><path d="M55.9,50.92l-.14.17-.13.31-.1.07-.08.17-.24,0-.16.16H54.8l-.14.12-.13,0-.16,0V52l-.44,0h-.19l-.14.08L53.47,52h.19l-.58,0,0,0L53,52l-.16.08L52.54,52l-.35,0h-.1a.46.46,0,0,0-.18,0,.56.56,0,0,0-.19,0l-.17-.11-.1,0-.13,0q-.44,0-.44-.74V51l.23-.17.29-.11.22.11h.17v0A.37.37,0,0,1,52,51h.1v.16l.16,0,0,0,1.54-.1.37-.06h0l0-.06.17,0,0,0a1.49,1.49,0,0,0,.47-.14V50.8l0-.08h-.06l-.16-.12h-.11l-.06-.08,0,0-.13,0-.1-.1h-.12a.86.86,0,0,1-.31-.06h-.11l-.08,0-.17.06-.1-.11h0l-.17-.13L52.81,50l-.12-.1-.46-.08,0-.08-.34-.22-.18-.4-.14-.2,0-.62,0-.07a.85.85,0,0,1,.19-.48.3.3,0,0,0,.18-.28l.18,0a.47.47,0,0,1,.19-.18l.18-.14.76-.29.13,0,.24,0,.4-.11.76,0,0,.06a.6.6,0,0,1,.24.19V47l.19.12-.08.29,0,.11a.33.33,0,0,1-.34.3.35.35,0,0,1-.32-.2v0h-.14l-.17,0L54,47.5l-.08.06a.47.47,0,0,0-.29.1.53.53,0,0,0-.35.15h-.16l-.11.07-.17,0,0,0-.07,0-.11.11h0l-.11.17-.13.07a1.5,1.5,0,0,0-.06.26.62.62,0,0,0,0,.22.35.35,0,0,0,.16.11V49l.16.08a1,1,0,0,1,.29.16h.24l.15.14.28,0,.11.07.47.13.06.13,0-.08a1,1,0,0,1,.42.14l.22,0,0,.08h.19l.34.19a.63.63,0,0,0,.26.29l.13.08,0,.14a.43.43,0,0,1,.08.25Z" fill="#8acde0"/><path d="M60.56,47.59c0,.07-.07.14-.22.2a.41.41,0,0,1-.18.11l-.24.12-.25-.08a.8.8,0,0,1-.49.14L59,48l-.11.08h-.32l-.2.14a.73.73,0,0,0-.25,0l-.17,0a.29.29,0,0,1-.13,0l0,.46v1.21l0,.22v.17l.17.36a.12.12,0,0,0,0,.08q0,.08.26.13l0,.14.08,0,.14.1.1.07.17,0a.67.67,0,0,1,.22,0,1.33,1.33,0,0,0,.2-.17.31.31,0,0,1,.2-.1h.07a.55.55,0,0,1,.38-.29.6.6,0,0,1,.42.16v.08a.49.49,0,0,1-.29.52.58.58,0,0,1-.46.32l-.14.13h-.16l-.28.07a1.17,1.17,0,0,1-.28,0,.5.5,0,0,1-.2,0h-.16l-.42-.23-.11,0-.25-.34-.14-.16-.26-.6L57,50l0-.14L57,49.74l.06-.17L57,49.31l.08-.08,0-.16,0-.14,0-.22L57,48.52l.06-.06v-.19l-.08,0-.23,0-.22-.14h0q-.36,0-.36-.39v0L56,47.48l.23-.22.3,0,.16,0,.23.06h.25V47.1L57,46.76l.16-.08-.06-.18v-.37L57,46a.46.46,0,0,1-.08-.24.36.36,0,0,1,.06-.22l0-.17.1-.1.43-.06a.36.36,0,0,1,.42.35l0,.06a.38.38,0,0,1,.07.21v.06l0,.07V46l0,.16v.06l0,.17-.11.14.06.24,0,.29.1.11-.1.22.37-.06.66.06.53-.08h.71C60.44,47.33,60.56,47.42,60.56,47.59Z" fill="#8acde0"/><path d="M68.63,50.92l-.14.17-.13.31-.1.07-.08.17-.24,0-.16.16h-.24l-.14.12-.13,0-.16,0V52l-.44,0h-.19l-.14.08L66.2,52h.19l-.58,0,0,0-.1,0-.16.08L65.27,52l-.35,0h-.1a.46.46,0,0,0-.18,0,.56.56,0,0,0-.19,0l-.17-.11-.1,0-.13,0q-.44,0-.44-.74V51l.23-.17.29-.11.22.11h.17v0a.37.37,0,0,1,.19.19h.1v.16l.16,0,0,0,1.54-.1.37-.06h0l0-.06.17,0,0,0a1.49,1.49,0,0,0,.47-.14V50.8l0-.08h-.06l-.16-.12h-.11l-.06-.08,0,0-.13,0-.1-.1h-.12a.86.86,0,0,1-.31-.06h-.11l-.08,0-.17.06-.1-.11h0l-.17-.13L65.54,50l-.12-.1L65,49.8l0-.08-.34-.22-.18-.4-.14-.2,0-.62,0-.07a.85.85,0,0,1,.19-.48.3.3,0,0,0,.18-.28l.18,0a.47.47,0,0,1,.19-.18l.18-.14.76-.29.13,0,.24,0,.4-.11.76,0,0,.06a.6.6,0,0,1,.24.19V47l.19.12-.08.29,0,.11a.33.33,0,0,1-.34.3.35.35,0,0,1-.32-.2v0H67l-.17,0-.16-.12-.08.06a.47.47,0,0,0-.29.1.53.53,0,0,0-.35.15H65.8l-.11.07-.17,0,0,0-.07,0-.11.11h0l-.11.17-.13.07a1.5,1.5,0,0,0-.06.26.62.62,0,0,0,0,.22.35.35,0,0,0,.16.11V49l.16.08a1,1,0,0,1,.29.16h.24l.15.14.28,0,.11.07.47.13.06.13,0-.08a1,1,0,0,1,.42.14l.22,0,0,.08h.19l.34.19a.63.63,0,0,0,.26.29l.13.08,0,.14a.43.43,0,0,1,.08.25Z" fill="#8acde0"/><path d="M74.67,51.78q0,.48-.52.48a.41.41,0,0,1-.38-.2,1.7,1.7,0,0,1-.21-.64v-.17a.19.19,0,0,0,0-.12.2.2,0,0,0,0-.06l-.17-.25.13-.23-.06-.25.06-.14v-.3l0-.22,0-.11v-.91l-.06-.4.06-.14-.08-.3-.1.08-.27.11-.36.46h-.15l-.22.35,0,.14-.13.06-.14.2-.06.13-.08.43-.24.26-.05.17-.13.1-.05.29-.26.21,0,.44h-.11l0,.07-.22.37-.2.22-.18.24-.19-.06h-.16l-.14-.19-.13-.43v-.64l0-.2,0-.24v-.56l.08,0,.05-.83,0-.16v-.25l.06,0,0-.38,0-.13,0-.17,0-.06,0,0,0-.34-.1-.08.08-.17V46.8L70,46.45l.08-.11L70,46v-.19l0-.08-.06-.38-.06-.18-.18-.35.13-.17.12-.2H70a.45.45,0,0,1,.39.19l.17.13.07.22.18.16,0,.17.1.25v1l.08.34-.06.14,0,.2-.06.17,0,.29,0,.24v.95l-.07.08,0,.4,0,.18.06.32-.06.1v.24c.09,0,.13-.07.13-.14l.1-.1L71,49.8l0-.23.13-.19.07-.24.17-.19,0-.23h.11v-.25l.17-.08v-.1l.12,0,0-.19V48l.21-.1.05-.05,0-.12.11,0,.08-.21h.14l.13-.08a.42.42,0,0,1,0-.12l.13-.06a.92.92,0,0,1,.41-.22v0a1.23,1.23,0,0,1,.43-.16.42.42,0,0,1,.32.17.25.25,0,0,1,.17.18l.11.07,0,.17.16.28V49l.06.11V50l-.06.16v.24l.06.26-.06.23a1.88,1.88,0,0,1,.06.3l.14.13v.1l0,0A1.22,1.22,0,0,1,74.67,51.78Z" fill="#8acde0"/><path d="M80.76,47l-.12.16.1.29-.16.18-.06.25,0,.06,0,.06a.34.34,0,0,1-.08.25l0,0v0a.4.4,0,0,1,0,.16.21.21,0,0,1,0,.08v0l0,.13,0,.14-.1.1,0,.17.07.08-.11.1v.19l-.08.19.06.19-.07.1.12.08-.17.28v0l.12,0-.08.28v0a.58.58,0,0,1,0,.13v0l.19,0,.16.24-.08.18h.13a.78.78,0,0,1,.08.25l-.18.18a1,1,0,0,1-.24.17l-.2.11L80,52l-.12.06-.37-.43v-.2a1.54,1.54,0,0,1-.07-.44V51l-.07-.71.1-.5-.07-.29-.2.34-.11.31-.1,0-.17.26-.3.28-.08.14-.26.23-.06.16-.38.24-.41.46-.23,0-.16.12a.56.56,0,0,1-.46-.23.88.88,0,0,1-.56-.76l.06,0v-.22l-.07-.16.07-.17,0-.25.08-.4v0a.11.11,0,0,1,0,0,.39.39,0,0,1,0-.12.25.25,0,0,1,0-.1.94.94,0,0,1,.07-.28l.08,0a.18.18,0,0,1-.07-.13V49a.23.23,0,0,1,.14-.22.71.71,0,0,1,.13-.24l-.06-.1.14-.18v0a.65.65,0,0,1,.16-.42v-.22l0,0v-.07a.16.16,0,0,1,0-.12v-.07a1.56,1.56,0,0,1,.25-.36,2.54,2.54,0,0,0,.3-.42l.06.06.13-.06.06,0,.4-.18.92,0v.08l.29.06a.36.36,0,0,1,.36.18.35.35,0,0,1,0-.08v0l.25.23.23,0,.43-.11.16.3Zm-1.14.62,0-.08-.1,0-.37-.3-.24,0h-.19l0,0-.1,0-.11,0h-.31l0,0-.28.1,0,.06h0a1.75,1.75,0,0,0-.3.3l-.08.29,0,.11.12.17-.2.16,0,0a.89.89,0,0,0-.13.44l-.1.12v.22l-.1.11,0,.11,0,0v.17l0,.06a.87.87,0,0,1,0,.23l0,.06-.11.23,0,.07-.08.12.08.23-.13.17,0,.23v0l0,0h.06L77,51l0-.1.17,0,0-.08.71-.58.07,0L78,50l.2-.1.08-.19h.1l0-.2.17,0,.08-.12.11-.13.61-.82.1-.18v0l.08-.13,0-.13.11-.1Z" fill="#8acde0"/><path d="M86.71,47.44l-.1.4-.44.06-.24.16L85.77,48l-.17.09-.18.07-.12.08v0l-.25.13-.17.22H84.8a1.56,1.56,0,0,1-.28.25l-.17.28-.06,0a2.85,2.85,0,0,0-.08.29l-.17.06-.07.14-.1.12,0,.18-.1,0v.18l0,0,.08.13-.18.07,0,.16-.12.2.07.16-.16.22a1,1,0,0,1,0,.17v0a.2.2,0,0,0,0,.06l0,.11.2.22-.16.28-.14.11L83,52.3l-.44-.18v-.28l0-.11,0-.18a2.52,2.52,0,0,1,0-.29.51.51,0,0,1,0-.1V51a.27.27,0,0,1-.08-.19.39.39,0,0,1,.08-.22s0-.16,0-.36l0,0,0-.16,0-.14,0-.08,0-.28-.07-.12,0-.13,0-.16a1.25,1.25,0,0,0,0-.19.42.42,0,0,0,0-.24l0-.07,0-.22-.11-.16.06-.19,0-.07,0-.29v-.1a.27.27,0,0,1-.06-.18q0-.24.53-.41l.3.06.06.23.12.16,0,.32.08.53,0,.19a.54.54,0,0,1,0,.13.28.28,0,0,1-.06.16l0,.24,0,.26,0,.12,0,0,0,.12a.34.34,0,0,0,.08-.18l0-.18a.24.24,0,0,1,.11-.11l0-.18.17-.1,0-.14.13-.14.1-.18a.76.76,0,0,1,.3-.22l0,0,.11-.17.12,0,0,0,0-.07.13-.07.07-.08h.07l.1,0,0-.07.14-.07.2-.13.29-.1.18,0h0a.38.38,0,0,0,.14,0,.26.26,0,0,1,.17,0l.17,0A.32.32,0,0,1,86.71,47.44Z" fill="#8acde0"/><path d="M90.62,50.92a.59.59,0,0,1-.22.36.75.75,0,0,1-.18.31h-.07l-.13.23-.22,0-.23.14-.12.22h-.13l-.22.06-.07.09h-.11a.39.39,0,0,0-.3.2l-.17-.14h-.14a.55.55,0,0,1-.26-.06h-.2l-.1-.06a.68.68,0,0,1-.58-.35v0L87,51.87l-.07-.2-.14-.1v-.18l-.14-.52v-.43l.07-.19V50l.06-.19v-.08l.08-.14,0,0a.51.51,0,0,1,.06-.23v-.06l0-.29a.46.46,0,0,1,.18-.36.17.17,0,0,0,0-.07,1,1,0,0,0,0-.2.93.93,0,0,1,0-.21.71.71,0,0,1,.07-.3.31.31,0,0,0,.28.14h0a.34.34,0,0,1,.11-.11,1.49,1.49,0,0,1,.26-.5l0,0a1.52,1.52,0,0,1,.07-.28H88L88,47l.1,0,.08-.11.26-.15a.51.51,0,0,1,.14-.16l.12,0,0-.07a1.88,1.88,0,0,1,.41-.11.37.37,0,0,1,.18,0h.06l.08,0a1.94,1.94,0,0,0,.29.18l.2.16v0a.73.73,0,0,1,.28.61l0,.12,0,.4-.11.07-.12.31-.23.25v.19a5.78,5.78,0,0,1-.71.44.37.37,0,0,1-.34.17h0l-.23.14h-.19l-.29.12-.22-.11h0a2.57,2.57,0,0,0,0,.29l-.1.07v.14l-.07.21c0,.19,0,.32,0,.37l0,0a2,2,0,0,1,0,.23V51a.18.18,0,0,0,.1.16.24.24,0,0,0,.12.18l.08.07.26.07v0l.1,0h.41l.24,0,.12-.08.07,0,.12-.18h.06l.3-.09A.39.39,0,0,1,89.6,51l0-.06a.3.3,0,0,0,.28-.25.59.59,0,0,1,.43-.17h0A.75.75,0,0,1,90.62,50.92Zm-1.19-3.46a.6.6,0,0,0,0-.14h-.25L89,47.4h-.11l-.06,0-.2.26-.13.1-.19.34-.11.07a.68.68,0,0,1-.17.35l0,.08a.54.54,0,0,1,.3-.08l.08,0,0-.11h.17l.1-.14h.07l.13,0,.06-.18H89V48l.16,0,0,0,0-.11.16-.23A.4.4,0,0,0,89.43,47.46Z" fill="#8acde0"/><path d="M100.71,49.63a2.74,2.74,0,0,1-.08.3V50l.06.43-.07.46v.22l0,.16,0,.53,0,.08v.62l0,.12,0,.76.07.22,0,.1v.2l0,.06,0,.2-.1.12v.08l0,.11a2,2,0,0,1-.26.59l-.08.3-.12.07,0,0-.11.14-.12.18-.2.11a.52.52,0,0,1-.34.3l-.08.07,0,0-.17.07-.1.1h-.12l-.06.1-.22,0-.23.17L98,56.62l-.4.07h-.14l-.4-.07h-.18l-.07-.07-.48-.16-.41-.06-.06-.11-.22,0-.07-.2-.14,0-.1-.18-.23-.08-.19-.28-.35-.22,0-.23a2.18,2.18,0,0,1-.11-.47,1.65,1.65,0,0,1,.08-.47v-.11l.12-.06.07-.2,0,0,.12-.19.22-.16.17,0,.32-.25h.31a.42.42,0,0,1,.31-.12c.18.09.28.2.28.32a.36.36,0,0,1-.11.24l-.17.08-.18.13-.18,0-.11.2h-.18l-.07.12-.16.13v.18l-.1.17,0,.12.08.19.26.17.06.18.32.25h.18l.22.17h.22l.13.11H97l.1.08.58,0,.37-.12h.23l.25-.14a.48.48,0,0,1,.17,0l.08,0,.06-.1.12,0,0,0v-.1s.06-.09.16-.12a.43.43,0,0,1,.2-.2.77.77,0,0,0,.06-.26l.17-.1,0-.08.1-.2v0l0-.47,0,0v-.19l-.07-.18.07-.14V51.9l-.08-.16.08-.25v-.85l-.06-.16.06-.08v-.26l-.1-.28v-.42l-.13.22-.14.11-.14.14-.1,0,0,.14-.11.06v0l-.17.14-.23.28-.32.34-.12,0,0,.06-.36.26H97.7l-.12.12,0,.12-.26.08,0,.08-.18,0-.25.17-.2,0-.1.07-.13,0,0,0a.64.64,0,0,1-.49.17.72.72,0,0,1-.56-.23l-.26-.4v-.23L94.85,51v-.36l0-.14.07-.12-.06-.26.1-.07v-.12l.08-.14,0-.25,0-.1V49.3a2.46,2.46,0,0,1,.08-.59l0-.32,0-.3L95,47.65v-.08l0-.07.14-.38a1.59,1.59,0,0,0,0-.38.64.64,0,0,1,.29-.07.67.67,0,0,1,.22,0l.11.24.2.14-.06.29.11.18,0,.12.15.13-.14.26.07.31-.08.13v0L95.9,49v.47l-.07.07,0,.42-.11.13a1.25,1.25,0,0,0,0,.16v.12l.08.22-.08.16,0,.19,0,0,0,.14.11.1.08,0v.07l.08-.12h.35a.6.6,0,0,1,.18-.12,1.11,1.11,0,0,1,.49-.22V50.7l.85-.47,0-.1-.06,0,.17-.11,0-.16.08-.13.17-.06.1-.14h.06l.07,0,.15-.15h.06v0l.22-.23.13-.22a.42.42,0,0,0,.23-.17l.17-.35V48l.08,0v0l-.08-.22,0,0a.44.44,0,0,1-.08-.21.59.59,0,0,1,.14-.33v0l0-.12v0q.1-.24.48-.25l.38.37,0,.31.12.2-.07.19V48l0,.11,0,.07v.19l0,.19,0,.26v.5Z" fill="#8acde0"/><path d="M106.59,49.09l-.07.22a2.6,2.6,0,0,1,0,.49l-.07.12v.13l-.06.08,0,.17-.13.13-.08.3-.1,0,0,.13-.14.08-.1.2-.14.07v.14l-.23.08a.68.68,0,0,1-.38.28h0a.51.51,0,0,1-.44.25.53.53,0,0,1-.28.07l-.12.08-.12,0-.16.12h-.16l-.17,0-.2-.08-.52,0-.18-.28-.26-.28.06-.19-.18-.41.06-.16,0-.29,0-.18v-.24a.42.42,0,0,1,.13-.34,1.26,1.26,0,0,1,.16-.4h.06l0-.08,0-.17v-.18a.6.6,0,0,0,.11-.14l0-.17v0a.76.76,0,0,0,.08-.35L103,48l.08-.07v0h0l.18-.2v-.28l.3-.11a.52.52,0,0,0,.22-.36H104a.51.51,0,0,1,.24-.07.44.44,0,0,1,.2,0h.13l.31-.12L105,47l.13.08h.1l.18.1h.1a4.06,4.06,0,0,1,.36.4l0,.06.08,0,.25.32.23.56v.12Zm-.79.28v-.06a.31.31,0,0,1-.1-.18l0-.06-.11-.23,0-.23,0-.06c-.1-.08-.16-.14-.17-.19s-.11-.11-.11-.24h-.07l-.14-.24L105,47.8l-.25-.1-.1,0a.1.1,0,0,1-.1,0l-.24.26-.16.33-.25.13,0,.13-.12.06,0,.31-.14.07a1.12,1.12,0,0,0,0,.31l-.19.18.06,0a.33.33,0,0,1-.12.25,2.47,2.47,0,0,1-.11.24v.29l-.13.32,0,.06v.33l0,.17v.17l.11.15.17.06.06,0h.41l0-.12h0s.08,0,.08,0l.11,0,.1,0,.16-.11,0,0,.11,0a.89.89,0,0,1,.4-.27l0-.06.24-.17.13-.19.19-.1v-.06l.06-.13v-.16l.14-.12,0-.08.06-.07a.79.79,0,0,1,0-.2.46.46,0,0,1,.07-.23Z" fill="#8acde0"/><path d="M114.18,51.2a.55.55,0,0,1-.22.35l-.1,0-.08.11-.22.06c0,.06-.08.08-.12.08h-.06a1.42,1.42,0,0,1-.64.13h-.1l-.3-.06-.2-.1-.46-.38-.1-.32-.19-.16a.27.27,0,0,0,0-.16.59.59,0,0,0-.1-.24l0-.29v0a1.17,1.17,0,0,0-.08-.37l.07-.36-.16.31-.18,0,0,.25a.5.5,0,0,1-.23,0l-.13.29-.16.18a.33.33,0,0,1-.17.12l0,0-.43.44h0l-.23.27-.22.11-.12.16-.28.09-.4.16-.24-.12a.34.34,0,0,1-.34-.22l-.11-.06a.55.55,0,0,1,0-.1v-.08l-.19-.17,0-.07-.14-.34,0,0v-.1a.1.1,0,0,1,0-.06,1.14,1.14,0,0,1,0-.25V50l0-.25a.48.48,0,0,0,0-.17.27.27,0,0,0,0-.16l.13-.1V49.2l0-.4.13-.77a2.25,2.25,0,0,0-.11-.56c0-.26.19-.4.5-.42l.1,0,.17,0,.22.24-.1.31v.52l0,.4-.07.14,0,.1-.1.19v.26a2.35,2.35,0,0,1,0,.32l0,.08,0,.18,0,.14v.17a.22.22,0,0,1,.1.18.28.28,0,0,1-.1.19v0a1.17,1.17,0,0,1,.06.26l.11.11.18-.12a.23.23,0,0,1,.18-.16v-.12l.23,0,0-.11.2-.08,0,0a.78.78,0,0,1,.28-.16v0l.23-.17a.47.47,0,0,1,.3-.3,1,1,0,0,1,.18-.16l.16-.2v0l0,0,.11,0,.06-.17.25-.11h0l.08-.08v-.11l.07,0a.41.41,0,0,1,.19-.29l.17-.41.07-.21,0,0h0l.09-.06-.07,0a2,2,0,0,0,.2-.46h.35l.28.23.12.19-.13.52-.18.24-.14.47-.12.07V49l-.07.13,0,.22-.1.08,0,.38,0,.54h.06v.31l.17.2.16.08v.06l.2.06.3,0,.18,0,.32-.16a.53.53,0,0,1,.24,0C114.06,50.89,114.18,51,114.18,51.2Z" fill="#8acde0"/><path d="M119.46,47.44l-.1.4-.44.06-.24.16-.16-.07-.17.09-.18.07-.12.08v0l-.25.13-.17.22h-.08a1.59,1.59,0,0,1-.28.25l-.17.28-.06,0c0,.06-.05.16-.08.29l-.17.06-.07.14-.1.12,0,.18-.1,0v.18l0,0,.08.13-.18.07,0,.16-.12.2.07.16-.16.22a1,1,0,0,1,0,.17v0a.2.2,0,0,0,0,.06l0,.11.21.22-.16.28-.14.11-.34.17-.44-.18v-.28l0-.11,0-.18a2.44,2.44,0,0,1,0-.29.48.48,0,0,1,0-.1V51a.27.27,0,0,1-.08-.19.39.39,0,0,1,.08-.22s0-.16,0-.36l0,0,0-.16,0-.14,0-.08,0-.28-.07-.12,0-.13,0-.16a1.24,1.24,0,0,0,0-.19.41.41,0,0,0,0-.24l0-.07,0-.22-.11-.16.06-.19,0-.07,0-.29v-.1a.27.27,0,0,1-.06-.18q0-.24.53-.41l.3.06.06.23.12.16,0,.32.08.53,0,.19a.55.55,0,0,1,0,.13.27.27,0,0,1-.06.16l0,.24,0,.26,0,.12,0,0,0,.12a.36.36,0,0,0,.08-.18l0-.18a.24.24,0,0,1,.11-.11l0-.18.17-.1,0-.14.13-.14.1-.18a.76.76,0,0,1,.3-.22l0,0,.11-.17.12,0,0,0,0-.07.13-.07.07-.08h.07l.1,0,0-.07.14-.07.2-.13.29-.1.18,0h0a.38.38,0,0,0,.14,0,.26.26,0,0,1,.17,0l.17,0A.32.32,0,0,1,119.46,47.44Z" fill="#8acde0"/><path d="M130.27,47l-.06.23,0,.12-.14.47,0,.17-.17.18-.06.23-.13.19-.19.42-.23.38-.35.52-.06.16-.18.32-.2.42-.36.65-.07.29-.19.28-.36-.12-.2-.12-.19-.56-.24-.41v-.12l-.15-.33-.06-.07-.5-1.06L126,49l-.13.2-.19.16-.28.38-.19.2-.11.31-.26.32,0,.11-.18.37v.18l-.12.17v.17l-.12,0-.26.28,0,0a.81.81,0,0,1-.32.1l-.08-.1-.18-.07v-.13l-.07-.1-.07-.32-.1-.22v-.2l-.18-.52,0-.32-.12-.13,0-.16-.12-.29v-.11l-.1-.26-.17-.23,0-.26v-.08l-.13-.31,0-.19-.07-.12a1,1,0,0,1-.11-.24l-.21-.52.17-.22a.39.39,0,0,1,.3-.17l.25,0,.08.12.16.07.11.22.1.08,0,.19,0,.12,0,.11.12.19,0,.18.16.54,0,.13.06.32.17.38.07.46.12.14v.29l.09.25v.1l.17-.11.28-.44.08-.2.1-.17a.29.29,0,0,1,0-.18h.07l0-.22.13,0a.22.22,0,0,1,.11-.14v0a.21.21,0,0,1,.07-.14l0-.08.06,0v-.07a.9.9,0,0,1,.24-.29v-.24l.17-.1,0,0,0,0a.58.58,0,0,1-.06-.26.61.61,0,0,1,.19-.42.66.66,0,0,1,.26,0h.14l.23.2.12.18.07.29.11.19,0,.13.08.26v.11l.2.36v0l0,0,.24.58v.16l.12.13.28.62.06-.11.22-.44L128,50l.08-.26.12-.06v-.18a1,1,0,0,1,.19-.12s.07,0,.07-.06V49l.14-.14.06,0,.18-.3v0a.72.72,0,0,1,.16-.3l0-.13.22-.26.11-.26a1.83,1.83,0,0,1-.13-.61.39.39,0,0,1,.38-.42l.32.1,0-.1.08.11.12.08,0,.13Z" fill="#8acde0"/><path d="M135.57,47l-.12.16.1.29-.16.18-.06.25,0,.06,0,.06a.35.35,0,0,1-.08.25l0,0v0a.4.4,0,0,1,0,.16.21.21,0,0,1,0,.08v0l0,.13,0,.14-.1.1,0,.17.07.08-.11.1v.19l-.08.19.06.19-.07.1.12.08-.17.28v0l.12,0-.08.28v0a.58.58,0,0,1,0,.13v0l.19,0,.16.24-.08.18h.13a.77.77,0,0,1,.08.25l-.18.18a1,1,0,0,1-.24.17l-.2.11-.06-.06-.12.06-.37-.43v-.2a1.51,1.51,0,0,1-.07-.44V51l-.07-.71.1-.5-.07-.29-.2.34-.11.31-.1,0-.17.26-.3.28-.08.14-.26.23-.06.16-.38.24-.41.46-.23,0-.16.12a.56.56,0,0,1-.46-.23.88.88,0,0,1-.56-.76l.06,0v-.22l-.07-.16.07-.17,0-.25.08-.4v0a.11.11,0,0,1,0,0,.38.38,0,0,1,0-.12.24.24,0,0,1,0-.1,1,1,0,0,1,.07-.28l.08,0a.18.18,0,0,1-.07-.13V49a.23.23,0,0,1,.14-.22.71.71,0,0,1,.13-.24l-.06-.1.14-.18v0a.65.65,0,0,1,.16-.42v-.22l0,0v-.07a.16.16,0,0,1,0-.12v-.07a1.59,1.59,0,0,1,.25-.36,2.57,2.57,0,0,0,.3-.42l.06.06.13-.06.06,0,.4-.18.92,0v.08l.29.06a.36.36,0,0,1,.36.18.35.35,0,0,1,0-.08v0l.25.23.23,0,.43-.11.16.3Zm-1.14.62,0-.08-.1,0-.37-.3-.24,0h-.19l0,0-.1,0-.11,0h-.31l0,0-.28.1,0,.06h0a1.76,1.76,0,0,0-.3.3l-.08.29,0,.11.12.17-.2.16,0,0a.9.9,0,0,0-.13.44l-.1.12v.22l-.1.11,0,.11,0,0v.17l0,.06a.87.87,0,0,1,0,.23l0,.06-.11.23,0,.07-.08.12.08.23-.13.17,0,.23v0l0,0h.06l.12-.11,0-.1.17,0,0-.08.71-.58.07,0,.08-.2.2-.1.08-.19h.09l0-.2.17,0,.08-.12.11-.13.61-.82.1-.18v0l.08-.13,0-.13.11-.1Z" fill="#8acde0"/><path d="M140.29,50.59a.27.27,0,0,1-.1.22,1.24,1.24,0,0,1-.31.3l-.12.08-.11.14-.11,0-.17.11h-.12l0,0a.72.72,0,0,0-.37.24.27.27,0,0,1-.15.06h-.08a1,1,0,0,1-.53.12.85.85,0,0,1-.36,0l-.21-.12-.07-.12v0a.29.29,0,0,0-.14-.25l0-.24-.1-.11-.06-.44v-.46l0-.07a.34.34,0,0,1,0-.16q.06-.5.06-.64l-.11-.22.11-.18,0-.3,0-.2.07-.18-.07-.24.13-.17V46.67l0-.52,0-.1v-.8l.07-.72a2,2,0,0,0,.43-.12.35.35,0,0,1,.3.2l0,.1.18.18,0,.25v0a.8.8,0,0,1-.08.3l0,.25,0,.23-.08.25a1.1,1.1,0,0,1-.06.37,1.27,1.27,0,0,1,0,.19v.07l.1.13,0,.13a.48.48,0,0,1,0,.13.46.46,0,0,1-.06.19l0,.11-.07.38v.25l-.08.25,0,.23,0,.53,0,.06-.06.28,0,.34,0,.08c0,.14,0,.25,0,.34l0,.17v.18l.07.16v.06a.54.54,0,0,1,.13.19h.11l.16,0,.07-.1h.11l.11,0h0a.31.31,0,0,0,.19-.12l.07,0a.43.43,0,0,1,.28-.18l.23-.19a.27.27,0,0,1,.2-.25.34.34,0,0,0,.24-.06.47.47,0,0,1,.3.13A.64.64,0,0,1,140.29,50.59Z" fill="#8acde0"/><path d="M144.21,50.59a.27.27,0,0,1-.1.22,1.24,1.24,0,0,1-.31.3l-.12.08-.11.14-.11,0-.17.11h-.12l0,0a.72.72,0,0,0-.37.24.27.27,0,0,1-.15.06h-.08A1,1,0,0,1,142,52a.85.85,0,0,1-.36,0l-.21-.12-.07-.12v0a.29.29,0,0,0-.14-.25l0-.24-.1-.11-.06-.44v-.46l0-.07a.34.34,0,0,1,0-.16q.06-.5.06-.64l-.11-.22.11-.18,0-.3,0-.2.07-.18-.07-.24.13-.17V46.67l0-.52,0-.1v-.8l.07-.72a2,2,0,0,0,.43-.12.35.35,0,0,1,.3.2l0,.1.18.18,0,.25v0a.8.8,0,0,1-.08.3l0,.25,0,.23-.08.25a1.1,1.1,0,0,1-.06.37,1.27,1.27,0,0,1,0,.19v.07l.1.13,0,.13a.48.48,0,0,1,0,.13.46.46,0,0,1-.06.19l0,.11-.07.38v.25l-.08.25,0,.23,0,.53,0,.06-.06.28,0,.34,0,.08c0,.14,0,.25,0,.34l0,.17v.18l.07.16v.06a.54.54,0,0,1,.13.19h.11l.16,0,.07-.1h.11l.11,0h0a.31.31,0,0,0,.19-.12l.07,0a.43.43,0,0,1,.28-.18l.23-.19a.27.27,0,0,1,.2-.25.34.34,0,0,0,.24-.06.47.47,0,0,1,.3.13A.64.64,0,0,1,144.21,50.59Z" fill="#8acde0"/><path d="M151.59,47.59c0,.07-.07.14-.22.2a.42.42,0,0,1-.18.11L151,48l-.25-.08a.79.79,0,0,1-.49.14l-.14,0-.11.08h-.32l-.2.14a.73.73,0,0,0-.25,0l-.17,0a.29.29,0,0,1-.13,0l0,.46v1.21l0,.22v.17l.17.36a.12.12,0,0,0,0,.08q0,.08.26.13l0,.14.08,0,.14.1.1.07.17,0a.67.67,0,0,1,.22,0,1.39,1.39,0,0,0,.2-.17.31.31,0,0,1,.2-.1h.07a.54.54,0,0,1,.38-.29.6.6,0,0,1,.42.16v.08a.49.49,0,0,1-.29.52.58.58,0,0,1-.46.32l-.14.13h-.16L150,52a1.16,1.16,0,0,1-.28,0,.5.5,0,0,1-.2,0h-.16l-.42-.23-.11,0-.25-.34-.14-.16-.26-.6-.1-.56,0-.14-.11-.13.06-.17-.06-.26.08-.08,0-.16,0-.14,0-.22-.06-.19.06-.06v-.19l-.08,0-.23,0-.22-.14h0c-.24,0-.36-.13-.36-.39v0l-.14-.23.23-.22.3,0,.16,0,.23.06h.25V47.1l-.16-.34.16-.08-.06-.18v-.37L148,46a.47.47,0,0,1-.08-.24.36.36,0,0,1,.06-.22l0-.17.1-.1.43-.06a.37.37,0,0,1,.42.35l0,.06a.37.37,0,0,1,.07.21v.06l0,.07V46l0,.16v.06l0,.17-.11.14.06.24,0,.29.1.11-.1.22.37-.06.66.06.53-.08h.71C151.47,47.33,151.59,47.42,151.59,47.59Z" fill="#8acde0"/><path d="M156.33,49.09l-.07.22a2.6,2.6,0,0,1,0,.49l-.07.12v.13l-.06.08,0,.17-.13.13-.08.3-.1,0,0,.13-.14.08-.1.2-.14.07v.14l-.23.08a.68.68,0,0,1-.38.28h0a.51.51,0,0,1-.44.25.53.53,0,0,1-.28.07l-.12.08-.12,0-.16.12h-.16l-.17,0-.2-.08-.52,0L152.3,52l-.26-.28.06-.19-.18-.41L152,51l0-.29,0-.18v-.24a.43.43,0,0,1,.12-.34,1.3,1.3,0,0,1,.16-.4h.06l0-.08,0-.17v-.18a.62.62,0,0,0,.11-.14l0-.17v0a.79.79,0,0,0,.08-.35l.25-.35.08-.07v0h0l.18-.2v-.28l.3-.11a.53.53,0,0,0,.22-.36h.16a.51.51,0,0,1,.24-.07.45.45,0,0,1,.2,0h.13l.31-.12.17.16.13.08h.1l.18.1h.1a3.82,3.82,0,0,1,.36.4l0,.06.08,0L156,48l.23.56v.12Zm-.79.28v-.06a.31.31,0,0,1-.1-.18l0-.06-.11-.23,0-.23,0-.06c-.1-.08-.16-.14-.17-.19s-.11-.11-.11-.24H155l-.14-.24-.11-.08-.25-.1-.1,0a.1.1,0,0,1-.1,0l-.24.26-.16.33-.25.13,0,.13-.12.06,0,.31-.14.07a1.12,1.12,0,0,0,0,.31l-.19.18.06,0a.33.33,0,0,1-.12.25,2.25,2.25,0,0,1-.11.24v.29l-.13.32,0,.06v.33l0,.17v.17l.11.15.17.06.06,0h.41l0-.12h0s.08,0,.08,0l.11,0,.1,0,.16-.11,0,0,.11,0a.88.88,0,0,1,.39-.27l0-.06.24-.17.13-.19.19-.1v-.06l.06-.13v-.16l.14-.12,0-.08.06-.07a.75.75,0,0,1,0-.2.44.44,0,0,1,.07-.23Z" fill="#8acde0"/><path d="M54.54,64.81l-.12.44,0,.14,0,0a.39.39,0,0,1,.07.22.32.32,0,0,1,0,.14v0q0,.15-.11,1.18l0,.23v0l0,0v.12l0,0,0,.07h0v.06l0,.07a.29.29,0,0,1-.06.17l-.06.19a.68.68,0,0,1-.12.24,3,3,0,0,1-.3.42l-.2.16L53.2,69l-.18.08-.14.11-.1,0a1.34,1.34,0,0,1-.54.16h-.07l-.11,0v0a1.54,1.54,0,0,1-.35,0h-.47L51,69.47l-.25.06-.12-.11-.36,0L50,69.17l-.18-.1a.79.79,0,0,1-.55-.64l0,0,0-.19c.1-.15.18-.23.26-.24a.36.36,0,0,1,.19-.06,6.67,6.67,0,0,0,.68.08l0,.18.14.1v.14l-.1.12.55.17.28-.06v.08l.08,0h0l.16,0v0l.12-.06a1.5,1.5,0,0,1,.57-.07l.12-.1h.13s.1,0,.14-.14a0,0,0,0,0,0,0l.06,0,0,0h0l.39-.33.18-.28v-.16l.13-.17v-.16l.07-.14.06-.32.09-.3V66.3a2,2,0,0,1,.07-.53l-.07-.19V65l-.07-.2v-.34l-.1-.25v-.44l-.08,0-.07.18-.18.16-.22.35-.31.22-.33.35a3.15,3.15,0,0,1-.67.53l-.12.14-.18.11-.17.08-.16.16-.19.1a.53.53,0,0,1-.28.13,1,1,0,0,1-.6.18h-.66l-.31-.3-.23-.3-.1-.25-.08-.48,0-.35.12-.41,0-.13.11-.37.11-.22a1.28,1.28,0,0,0,0-.37l.26-.49a.51.51,0,0,1,.18-.2l.12-.2.14-.16a.58.58,0,0,1,.19-.28.28.28,0,0,0,.14-.18q0-.13.45-.24h-.06l.06,0,.17-.24.14,0,.11-.07a.61.61,0,0,1,.41-.17h.08l.31-.12.18.06h.22l.13.07a.26.26,0,0,1,.19.11l.17.17,0,0,0,0,.11.17v.06l0,.19,0,.13-.15.24-.34,0L52.11,62l-.17-.06-.08-.08h-.12l-.25.12V62h-.3a.37.37,0,0,1-.27.19l-.14.08-.1.23h-.08v.11H50.4l-.15.26-.13.08,0,.17-.18.25,0,.24-.14.14-.13.52-.1.1v.13l-.15.46,0,.14v.14a.44.44,0,0,1,.08.25l.08,0,0,.07a.47.47,0,0,1,.26,0,1.79,1.79,0,0,1,.59-.18.5.5,0,0,1,.2-.25l.54-.29h0a.27.27,0,0,1,.07-.18l.22-.1a.21.21,0,0,0,.11-.16l.19,0,.12-.11.3-.41.08,0a2.78,2.78,0,0,1,.26-.32l.29-.34,0-.16a2.06,2.06,0,0,0,.34-.77l-.06-.25-.1-.17.07-.18L53,61.7l0-.17,0-.12.12-.22a.74.74,0,0,1,.28-.1.62.62,0,0,1,.29.11l.08.16.16.12,0,.26c0,.07.05.18.08.32a.51.51,0,0,1,.06.25v.08l0,.07.13.19,0,.22.07.1a.45.45,0,0,1,0,.18.55.55,0,0,1,0,.13l.13,0-.11.3,0,.23a.49.49,0,0,1,.06.22.65.65,0,0,1-.06.24l.07.06Z" fill="#8acde0"/><path d="M59.73,65.32a.59.59,0,0,1-.22.36.75.75,0,0,1-.18.31h-.07l-.13.23-.22,0-.23.14-.12.22h-.13l-.22.06-.07.09H58a.39.39,0,0,0-.3.2l-.17-.14h-.14a.55.55,0,0,1-.26-.06H57l-.1-.06a.68.68,0,0,1-.58-.35v0l-.14-.07-.07-.2-.14-.1v-.18l-.14-.52v-.43l.07-.19V64.4l.06-.19v-.08L56,64l0,0a.51.51,0,0,1,.06-.23v-.06l0-.29a.46.46,0,0,1,.18-.36.17.17,0,0,0,0-.07,1,1,0,0,0,0-.2.93.93,0,0,1,0-.21.71.71,0,0,1,.07-.3.31.31,0,0,0,.28.14h0a.34.34,0,0,1,.11-.11,1.49,1.49,0,0,1,.26-.5l0,0A1.52,1.52,0,0,1,57,61.5h.1l0-.06.1,0,.08-.11.26-.15a.51.51,0,0,1,.14-.16l.12,0,0-.07a1.88,1.88,0,0,1,.41-.11.37.37,0,0,1,.18,0h.06l.08,0a1.94,1.94,0,0,0,.29.18l.2.16v0a.73.73,0,0,1,.28.61l0,.12,0,.4-.11.07-.12.31-.23.25v.19a5.78,5.78,0,0,1-.71.44.37.37,0,0,1-.34.17h0l-.23.14h-.19l-.29.12L56.86,64h0a2.57,2.57,0,0,0,0,.29l-.1.07v.14l-.07.21c0,.19,0,.32,0,.37l0,0a2,2,0,0,1,0,.23v.07a.18.18,0,0,0,.1.16.24.24,0,0,0,.12.18l.08.07.26.07v0l.1,0h.41l.24,0,.12-.08.07,0,.12-.18h.06l.3-.09a.39.39,0,0,1,.16-.14l0-.06A.3.3,0,0,0,59,65a.59.59,0,0,1,.43-.17h0A.75.75,0,0,1,59.73,65.32Zm-1.19-3.46a.6.6,0,0,0,0-.14h-.25l-.12.08H58l-.06,0-.2.26-.13.1-.19.34-.11.07a.68.68,0,0,1-.17.35l0,.08a.54.54,0,0,1,.3-.08l.08,0,0-.11h.17l.1-.14h.07l.13,0,.06-.18h.08v-.13l.16,0,0,0,0-.11.16-.23A.4.4,0,0,0,58.54,61.86Z" fill="#8acde0"/><path d="M64.19,62c0,.07-.07.14-.22.2a.41.41,0,0,1-.18.11l-.24.12-.25-.08a.8.8,0,0,1-.49.14l-.14,0-.11.08h-.32l-.2.14a.73.73,0,0,0-.25,0l-.17,0a.29.29,0,0,1-.13,0l0,.46v1.21l0,.22v.17l.17.36a.12.12,0,0,0,0,.08q0,.08.26.13l0,.14.08,0,.14.1.1.07.17,0a.67.67,0,0,1,.22,0,1.33,1.33,0,0,0,.2-.17.31.31,0,0,1,.2-.1h.07a.55.55,0,0,1,.38-.29.6.6,0,0,1,.42.16v.08a.49.49,0,0,1-.29.52.58.58,0,0,1-.46.32l-.14.13h-.16l-.28.07a1.17,1.17,0,0,1-.28,0,.5.5,0,0,1-.2,0h-.16l-.42-.23-.11,0-.25-.34L61,65.58l-.26-.6-.1-.56,0-.14-.11-.13.06-.17-.06-.26.08-.08,0-.16,0-.14,0-.22-.06-.19.06-.06v-.19l-.08,0-.23,0-.22-.14h0q-.36,0-.36-.39v0l-.14-.23.23-.22.3,0,.16,0,.23.06h.25V61.5l-.16-.34.16-.08-.06-.18v-.37l-.1-.16a.46.46,0,0,1-.08-.24.36.36,0,0,1,.06-.22l0-.17.1-.1.43-.06a.36.36,0,0,1,.42.35l0,.06a.38.38,0,0,1,.07.21v.06l0,.07v.08l0,.16v.06l0,.17-.11.14.06.24,0,.29.1.11-.1.22.37-.06.66.06.53-.08h.71C64.07,61.73,64.19,61.82,64.19,62Z" fill="#8acde0"/><path d="M72.26,65.32l-.14.17L72,65.8l-.1.07L71.8,66l-.24,0-.16.16h-.24l-.14.12-.13,0-.16,0v.1l-.44,0H70.1l-.14.08-.12-.07H70l-.58,0,0,0-.1,0-.16.08-.26-.07-.35,0h-.1a.46.46,0,0,0-.18,0,.56.56,0,0,0-.19,0l-.17-.11-.1,0-.13,0q-.44,0-.44-.74v-.11l.23-.17.29-.11.22.11h.17v0a.37.37,0,0,1,.19.19h.1v.16l.16,0,0,0,1.54-.1.37-.06h0l0-.06.17,0,0,0a1.49,1.49,0,0,0,.47-.14V65.2l0-.08h-.06L71,65h-.11l-.06-.08,0,0-.13,0-.1-.1h-.12a.86.86,0,0,1-.31-.06H70.1l-.08,0-.17.06-.1-.11h0l-.17-.13-.37-.14-.12-.1-.46-.08,0-.08-.34-.22L68,63.5l-.14-.2,0-.62,0-.07a.85.85,0,0,1,.19-.48.3.3,0,0,0,.18-.28l.18,0a.47.47,0,0,1,.19-.18l.18-.14.76-.29.13,0,.24,0,.4-.11.76,0,0,.06a.6.6,0,0,1,.24.19v.06l.19.12-.08.29,0,.11a.33.33,0,0,1-.34.3.35.35,0,0,1-.32-.2v0h-.14l-.17,0-.16-.12-.08.06a.47.47,0,0,0-.29.1.53.53,0,0,0-.35.15h-.16l-.11.07-.17,0,0,0-.07,0-.11.11h0l-.11.17-.13.07a1.5,1.5,0,0,0-.06.26.62.62,0,0,0,0,.22.35.35,0,0,0,.16.11v.06l.16.08a1,1,0,0,1,.29.16h.24l.15.14.28,0,.11.07.47.13.06.13,0-.08a1,1,0,0,1,.42.14l.22,0,0,.08h.19l.34.19a.63.63,0,0,0,.26.29l.13.08,0,.14a.43.43,0,0,1,.08.25Z" fill="#8acde0"/><path d="M77.44,63.49l-.07.22a2.6,2.6,0,0,1,0,.49l-.07.12v.13l-.06.08,0,.17-.13.13-.08.3-.1,0,0,.13-.14.08-.1.2-.14.07v.14l-.23.08a.68.68,0,0,1-.38.28h0a.51.51,0,0,1-.44.25.53.53,0,0,1-.28.07l-.12.08-.12,0-.16.12h-.16l-.17,0-.2-.08-.52,0-.18-.28-.26-.28.06-.19L73,65.51l.06-.16,0-.29,0-.18v-.24a.42.42,0,0,1,.12-.34,1.28,1.28,0,0,1,.16-.4h.06l0-.08,0-.17v-.18a.61.61,0,0,0,.11-.14l0-.17v0a.78.78,0,0,0,.08-.35l.25-.35.08-.07v0h0l.18-.2v-.28l.3-.11a.52.52,0,0,0,.22-.36h.16a.51.51,0,0,1,.24-.07.45.45,0,0,1,.2,0h.13l.31-.12.17.16.13.08h.1l.18.1h.1a3.94,3.94,0,0,1,.36.4l0,.06.08,0,.25.32.23.56v.12Zm-.79.28v-.06a.31.31,0,0,1-.1-.18l0-.06-.11-.23,0-.23,0-.06c-.1-.08-.16-.14-.17-.19s-.11-.11-.11-.24H76.1L76,62.28l-.11-.08-.25-.1-.1,0a.1.1,0,0,1-.1,0l-.24.26-.16.33-.25.13,0,.13-.12.06,0,.31-.14.07a1.12,1.12,0,0,0,0,.31l-.19.18.06,0a.33.33,0,0,1-.12.25,2.35,2.35,0,0,1-.11.24v.29l-.13.32,0,.06v.33l0,.17v.17l.11.15.17.06.06,0h.41l0-.12h0s.08,0,.08,0l.11,0,.1,0,.16-.11,0,0,.11,0a.89.89,0,0,1,.4-.27l0-.06.24-.17.13-.19.19-.1v-.06l.06-.13v-.16l.14-.12,0-.08.06-.07a.77.77,0,0,1,0-.2.45.45,0,0,1,.07-.23Z" fill="#8acde0"/><path d="M88.47,64.88a.59.59,0,0,1-.16.25.37.37,0,0,1-.11.19.38.38,0,0,1-.14.17l0,.07a.15.15,0,0,1-.13.07l-.06.12h-.08l-.06.11-.1,0-.07.08-.06,0a.43.43,0,0,0-.3.11.9.9,0,0,1-.32.06.75.75,0,0,1-.34-.08c-.13,0-.19,0-.19-.06l-.17,0,0,0L86,65.86l-.13-.11a.54.54,0,0,1-.14-.29,1.53,1.53,0,0,1-.17-.46l-.12-.19V64.7l-.08-.36V64.2l-.07-.37,0-.3-.06-.08-.12.3L84.9,64a.13.13,0,0,1-.1.05h0l-.07.13a.07.07,0,0,0,0,0s0,.08.08.08l-.12.17a.56.56,0,0,1-.08.13l0-.06,0,.17a.63.63,0,0,0-.22.36l-.37.44-.16.17s-.06,0-.06,0v0a.54.54,0,0,1-.25.26l-.14.18H83.2l-.29.11a.44.44,0,0,1-.44-.31v-.13l-.07-.16V65.6l-.1-.35v-.11L82.22,65l0-.37v-.42l-.06-.13.1-.23-.07-.31,0-.11,0-.35-.1-.25,0-.2,0-.11-.08-.23-.08,0-.16.19-.14.13-.29.36,0,.13-.2.22-.08.17-.08.1a.45.45,0,0,1-.26.37v.17a1.17,1.17,0,0,0-.15.19.57.57,0,0,1-.11.14l-.1.08-.14.2a.3.3,0,0,1-.16.29v.07a1.1,1.1,0,0,1-.19.19v0l0,.17c-.06,0-.13.08-.18.23l0,0a.34.34,0,0,1-.21.29l-.17.16a.79.79,0,0,1-.26.1q-.32,0-.41-.52l0-.26a.16.16,0,0,1,0-.07.33.33,0,0,1,0-.17l0-.23V64.7a.57.57,0,0,1,.08-.31c0-.17,0-.26,0-.29v-.22l.12-.22-.09-.07,0-.11a.62.62,0,0,1,.17-.29L78.65,63l0-.14-.07-.35,0-.17L78.57,62l0-.18-.08-.22q.23-.47.5-.47a.4.4,0,0,1,.27.12l0,.12a.35.35,0,0,1,.2.32,1.9,1.9,0,0,0,0,.25h0l.11.2-.09.1,0,0,.1.55,0,.47,0,.08,0,.19a.19.19,0,0,1,0,.12.28.28,0,0,1-.1.19.57.57,0,0,1-.06.28l0,.36v.12l.07-.11.17-.3h0s.1-.08.16-.23l.08-.23a.77.77,0,0,1,.18-.23l0-.22.14-.22,0-.17.12-.08v0l.26-.25.07,0,0-.12.06,0a.44.44,0,0,1,.3-.34l0,0,0,0a0,0,0,0,1,0,0,.19.19,0,0,1,0-.07l.19-.08,0-.19h.13l0-.08.24-.19.23,0a1.36,1.36,0,0,1,.4.08l.12.17,0,0,.06.14.17.23v.16l.11.12v.18a1.22,1.22,0,0,1,.13.49l0,.14.07.2-.13.13,0,.26v.13A1,1,0,0,0,83,64a1,1,0,0,0,.06.24l0,.13,0,.17,0,0q0,.17.07.57v0l.38-.42.12-.23.15-.23v0a.42.42,0,0,1,.16-.26s0-.11.12-.18l.1-.06a.54.54,0,0,1,.25-.34l.06-.17.11-.14.12-.12a.54.54,0,0,0,.17-.26l.1-.14,0-.18.13-.07.13-.17.13-.29s0,0,0,0l0,0,.09-.07.1-.19.23-.08,0,0H86l.19.08.17.19,0,.17v.13l-.06,0-.13.25-.06.28a.27.27,0,0,1,.07.22.3.3,0,0,0,0,.16l0,.1v.19a.69.69,0,0,1,0,.16l0,.06.06.08-.1.11s.07.05.07.16a.39.39,0,0,1,0,.1v.34s.05.18.16.49l0,.12.13.14.07.17.07,0,0,.07h.06l.11,0h.1a.62.62,0,0,0,.29-.1.62.62,0,0,1,.25-.25.77.77,0,0,1,.14-.23l.2-.14.07-.14a.38.38,0,0,1,.2-.06.7.7,0,0,1,.29.07A.72.72,0,0,1,88.47,64.88Z" fill="#8acde0"/><path d="M92.92,65.32a.59.59,0,0,1-.22.36.75.75,0,0,1-.18.31h-.07l-.13.23-.22,0-.23.14-.12.22h-.13l-.22.06-.07.09h-.11a.39.39,0,0,0-.3.2l-.17-.14h-.14a.55.55,0,0,1-.26-.06h-.2l-.1-.06a.68.68,0,0,1-.58-.35v0l-.14-.07-.07-.2-.14-.1v-.18L89,65.27v-.43l.07-.19V64.4l.06-.19v-.08l.08-.14,0,0a.51.51,0,0,1,.06-.23v-.06l0-.29a.46.46,0,0,1,.18-.36.17.17,0,0,0,0-.07,1,1,0,0,0,0-.2.93.93,0,0,1,0-.21.71.71,0,0,1,.07-.3.31.31,0,0,0,.28.14h0a.34.34,0,0,1,.11-.11,1.49,1.49,0,0,1,.26-.5l0,0a1.52,1.52,0,0,1,.07-.28h.1l0-.06.1,0,.08-.11.26-.15a.51.51,0,0,1,.14-.16l.12,0,0-.07a1.88,1.88,0,0,1,.41-.11.37.37,0,0,1,.18,0h.06l.08,0A1.94,1.94,0,0,0,92,61l.2.16v0a.73.73,0,0,1,.28.61l0,.12,0,.4-.11.07-.12.31-.23.25v.19a5.78,5.78,0,0,1-.71.44.37.37,0,0,1-.34.17h0l-.23.14h-.19l-.29.12L90.05,64h0a2.57,2.57,0,0,0,0,.29l-.1.07v.14l-.07.21c0,.19,0,.32,0,.37l0,0a2,2,0,0,1,0,.23v.07a.18.18,0,0,0,.1.16.24.24,0,0,0,.12.18l.08.07.26.07v0l.1,0h.41l.24,0,.12-.08.07,0,.12-.18h.06l.3-.09a.39.39,0,0,1,.16-.14l0-.06a.3.3,0,0,0,.28-.25.59.59,0,0,1,.43-.17h0A.75.75,0,0,1,92.92,65.32Zm-1.19-3.46a.6.6,0,0,0,0-.14h-.25l-.12.08h-.11l-.06,0-.2.26-.13.1-.19.34-.11.07a.68.68,0,0,1-.17.35l0,.08a.54.54,0,0,1,.3-.08l.08,0,0-.11h.17l.1-.14h.07l.13,0,.06-.18h.08v-.13l.16,0,0,0,0-.11.16-.23A.4.4,0,0,0,91.73,61.86Z" fill="#8acde0"/><path d="M106.86,64.88a.58.58,0,0,1-.16.25.37.37,0,0,1-.11.19.38.38,0,0,1-.14.17l0,.07a.15.15,0,0,1-.13.07l-.06.12h-.08l-.06.11-.1,0-.07.08-.06,0a.43.43,0,0,0-.3.11.9.9,0,0,1-.32.06.75.75,0,0,1-.34-.08c-.13,0-.19,0-.19-.06l-.17,0,0,0-.07-.14-.13-.11a.54.54,0,0,1-.14-.29A1.53,1.53,0,0,1,104,65l-.12-.19V64.7l-.08-.36V64.2l-.07-.37,0-.3-.06-.08-.12.3-.27.31a.12.12,0,0,1-.1.05h0l-.07.13a.07.07,0,0,0,0,0s0,.08.08.08l-.12.17a.51.51,0,0,1-.08.13l0-.06,0,.17a.62.62,0,0,0-.22.36l-.37.44-.16.17s-.06,0-.06,0v0a.55.55,0,0,1-.25.26l-.14.18h-.08l-.29.11a.44.44,0,0,1-.44-.31v-.13l-.07-.16V65.6l-.1-.35v-.11l-.07-.12,0-.37v-.42l-.06-.13.1-.23-.07-.31,0-.11,0-.35-.1-.25,0-.2,0-.11-.08-.23-.08,0-.16.19-.14.13-.29.36,0,.13-.2.22-.08.17-.08.1a.45.45,0,0,1-.26.37v.17a1.17,1.17,0,0,0-.15.19.57.57,0,0,1-.11.14l-.1.08-.14.2a.3.3,0,0,1-.16.29v.07a1.1,1.1,0,0,1-.19.19v0l0,.17c-.06,0-.13.08-.18.23l0,0a.34.34,0,0,1-.21.29l-.17.16a.79.79,0,0,1-.26.1q-.32,0-.41-.52l0-.26a.16.16,0,0,1,0-.07.33.33,0,0,1,0-.17l0-.23V64.7a.57.57,0,0,1,.08-.31c0-.17,0-.26,0-.29v-.22l.12-.22L97,63.59l0-.11a.62.62,0,0,1,.17-.29L97,63l0-.14L97,62.47l0-.17L97,62l0-.18-.08-.22q.23-.47.5-.47a.4.4,0,0,1,.27.12l0,.12a.35.35,0,0,1,.2.32,1.9,1.9,0,0,0,0,.25h0l.11.2-.09.1,0,0,.1.55,0,.47,0,.08,0,.19a.19.19,0,0,1,0,.12.28.28,0,0,1-.1.19.57.57,0,0,1-.06.28l0,.36v.12l.07-.11.17-.3h0s.1-.08.16-.23l.08-.23a.77.77,0,0,1,.18-.23l0-.22.14-.22,0-.17.12-.08v0l.26-.25.07,0,0-.12.06,0a.44.44,0,0,1,.3-.34l0,0,0,0a0,0,0,0,1,0,0,.19.19,0,0,1,0-.07l.19-.08,0-.19H100l0-.08.24-.19.23,0a1.36,1.36,0,0,1,.4.08l.12.17,0,0,.06.14.17.23v.16l.11.12v.18a1.21,1.21,0,0,1,.13.49l0,.14.07.2-.13.13,0,.26v.13a1,1,0,0,0,0,.18,1,1,0,0,0,.06.24l0,.13,0,.17,0,0q0,.17.07.57v0l.38-.42.12-.23.15-.23v0a.42.42,0,0,1,.16-.26s0-.11.12-.18l.1-.06a.55.55,0,0,1,.25-.34l.06-.17.11-.14.12-.12a.53.53,0,0,0,.17-.26l.1-.14,0-.18.13-.07.13-.17.13-.29s0,0,0,0l0,0,.09-.07.1-.19.23-.08,0,0h.21l.19.08.17.19,0,.17v.13l-.06,0-.13.25-.06.28a.27.27,0,0,1,.07.22.29.29,0,0,0,0,.16l0,.1v.19a.65.65,0,0,1,0,.16l0,.06.06.08-.1.11s.07.05.07.16a.37.37,0,0,1,0,.1v.34s.05.18.16.49l0,.12.13.14.07.17.07,0,0,.07h.06l.11,0h.1a.61.61,0,0,0,.29-.1.63.63,0,0,1,.25-.25.78.78,0,0,1,.14-.23l.21-.14.07-.14a.38.38,0,0,1,.2-.06.7.7,0,0,1,.29.07A.72.72,0,0,1,106.86,64.88Z" fill="#8acde0"/><path d="M111.32,65.32a.59.59,0,0,1-.22.36.77.77,0,0,1-.18.31h-.07l-.13.23-.21,0-.23.14-.12.22H110l-.22.06-.07.09h-.11a.39.39,0,0,0-.3.2l-.17-.14H109a.54.54,0,0,1-.26-.06h-.21l-.1-.06a.68.68,0,0,1-.58-.35v0l-.14-.07-.07-.2-.14-.1v-.18l-.14-.52v-.43l.07-.19V64.4l.06-.19v-.08l.08-.14,0,0a.51.51,0,0,1,.06-.23v-.06l0-.29a.46.46,0,0,1,.18-.36.17.17,0,0,0,0-.07,1,1,0,0,0,0-.2.94.94,0,0,1,0-.21.7.7,0,0,1,.07-.3.31.31,0,0,0,.28.14h0a.34.34,0,0,1,.11-.11,1.48,1.48,0,0,1,.26-.5l0,0a1.59,1.59,0,0,1,.07-.28h.1l0-.06.1,0,.08-.11.26-.15a.51.51,0,0,1,.14-.16l.12,0,0-.07a1.86,1.86,0,0,1,.41-.11.37.37,0,0,1,.18,0h.06l.08,0a2,2,0,0,0,.29.18l.2.16v0a.74.74,0,0,1,.28.61l0,.12,0,.4-.11.07-.12.31-.23.25v.19a5.82,5.82,0,0,1-.71.44.37.37,0,0,1-.34.17h0l-.23.14H109l-.29.12-.22-.11h0a2.42,2.42,0,0,0,0,.29l-.1.07v.14l-.07.21c0,.19,0,.32,0,.37l0,0a2.07,2.07,0,0,1,0,.23v.07a.18.18,0,0,0,.1.16.24.24,0,0,0,.12.18l.08.07.26.07v0l.1,0h.41l.24,0,.12-.08.07,0,.12-.18h.06l.3-.09a.39.39,0,0,1,.16-.14l0-.06a.3.3,0,0,0,.28-.25.59.59,0,0,1,.43-.17h0A.76.76,0,0,1,111.32,65.32Zm-1.19-3.46a.61.61,0,0,0,0-.14h-.25l-.12.08h-.11l-.06,0-.2.26-.13.1-.19.34-.11.07a.69.69,0,0,1-.17.35l0,.08A.54.54,0,0,1,109,63l.08,0,0-.11h.17l.1-.14h.07l.13,0,.06-.18h.08v-.13l.16,0,0,0,0-.11.16-.23A.4.4,0,0,0,110.13,61.86Z" fill="#8acde0"/><path d="M116.56,65.32l-.14.17-.13.31-.1.07-.08.17-.24,0-.16.16h-.24l-.14.12-.13,0-.16,0v.1l-.44,0h-.19l-.14.08-.12-.07h.19l-.58,0,0,0-.1,0-.16.08-.26-.07-.35,0h-.1a.47.47,0,0,0-.18,0,.56.56,0,0,0-.19,0l-.17-.11-.1,0-.13,0q-.44,0-.44-.74v-.11l.23-.17.29-.11.22.11h.17v0a.37.37,0,0,1,.19.19h.1v.16l.16,0,0,0,1.54-.1.37-.06h0l0-.06.17,0,0,0a1.48,1.48,0,0,0,.47-.14V65.2l0-.08h-.06L115.3,65h-.11l-.06-.08,0,0-.13,0-.1-.1h-.12a.86.86,0,0,1-.31-.06h-.11l-.08,0-.17.06-.1-.11h0l-.17-.13-.37-.14-.12-.1-.46-.08,0-.08-.34-.22-.18-.4-.14-.2,0-.62,0-.07a.85.85,0,0,1,.19-.48.3.3,0,0,0,.18-.28l.18,0a.47.47,0,0,1,.19-.18l.18-.14.76-.29.13,0,.24,0,.4-.11.76,0,0,.06a.6.6,0,0,1,.24.19v.06l.19.12-.08.29,0,.11a.33.33,0,0,1-.34.3.35.35,0,0,1-.32-.2v0h-.14l-.17,0-.16-.12-.08.06a.47.47,0,0,0-.29.1.53.53,0,0,0-.35.15h-.16l-.11.07-.17,0,0,0-.07,0-.11.11h0l-.11.17-.13.07a1.53,1.53,0,0,0-.06.26.64.64,0,0,0,0,.22.36.36,0,0,0,.16.11v.06l.16.08a1,1,0,0,1,.29.16h.24l.15.14.28,0,.11.07.47.13.06.13,0-.08a1,1,0,0,1,.42.14l.22,0,0,.08h.19l.34.19a.63.63,0,0,0,.26.29l.13.08,0,.14a.43.43,0,0,1,.08.25Z" fill="#8acde0"/><path d="M122,65.32l-.14.17-.13.31-.1.07-.08.17-.24,0-.16.16h-.24l-.14.12-.13,0-.16,0v.1l-.44,0h-.19l-.14.08-.12-.07h.19l-.58,0,0,0-.1,0-.16.08-.26-.07-.35,0h-.1a.46.46,0,0,0-.18,0,.55.55,0,0,0-.19,0l-.17-.11-.1,0-.13,0q-.44,0-.44-.74v-.11l.23-.17.29-.11.22.11h.17v0a.38.38,0,0,1,.19.19h.1v.16l.16,0,0,0,1.54-.1.37-.06h0l0-.06.17,0,0,0a1.51,1.51,0,0,0,.47-.14V65.2l0-.08h-.06l-.16-.12h-.11l-.06-.08,0,0-.13,0-.1-.1h-.12a.87.87,0,0,1-.31-.06h-.11l-.08,0-.17.06-.1-.11h0l-.17-.13-.37-.14-.12-.1-.46-.08,0-.08L118,63.9l-.18-.4-.14-.2,0-.62,0-.07a.84.84,0,0,1,.19-.48.3.3,0,0,0,.18-.28l.18,0a.46.46,0,0,1,.19-.18l.18-.14.76-.29.13,0,.24,0,.4-.11.76,0,0,.06a.6.6,0,0,1,.24.19v.06l.19.12-.08.29,0,.11a.33.33,0,0,1-.34.3.35.35,0,0,1-.32-.2v0h-.14l-.17,0-.16-.12L120,62a.47.47,0,0,0-.29.1.52.52,0,0,0-.35.15h-.16l-.11.07-.17,0,0,0-.07,0-.11.11h0l-.11.17-.13.07a1.47,1.47,0,0,0-.06.26.61.61,0,0,0,0,.22.35.35,0,0,0,.16.11v.06l.16.08a1,1,0,0,1,.29.16h.24l.15.14.28,0,.11.07.47.13.06.13,0-.08a1,1,0,0,1,.42.14l.22,0,0,.08h.19l.34.19a.64.64,0,0,0,.26.29l.13.08,0,.14a.44.44,0,0,1,.08.25Z" fill="#8acde0"/><path d="M127.74,61.44l-.12.16.1.29-.16.18-.06.25,0,.06,0,.06a.34.34,0,0,1-.08.25l0,0v0a.4.4,0,0,1,0,.16.21.21,0,0,1,0,.08v0l0,.13,0,.14-.1.1,0,.17.07.08-.11.1V64l-.08.19.06.19-.07.1.12.08-.17.28v0l.12,0-.08.28v0a.58.58,0,0,1,0,.13v0l.19,0,.16.24-.08.18h.13a.82.82,0,0,1,.08.25l-.18.18a1,1,0,0,1-.24.17l-.21.11-.06-.06-.12.06-.37-.43v-.2a1.54,1.54,0,0,1-.07-.44v-.07l-.07-.71.1-.5-.07-.29-.2.34-.11.31-.1,0-.17.26-.3.28-.08.14-.26.23-.06.16-.38.24-.41.46-.23,0-.16.12a.56.56,0,0,1-.46-.23.88.88,0,0,1-.56-.76l.06,0v-.22l-.07-.16.07-.17,0-.25.08-.4v0a.11.11,0,0,1,0,0,.4.4,0,0,1,0-.12.26.26,0,0,1,0-.1.94.94,0,0,1,.07-.28l.08,0a.18.18,0,0,1-.07-.13v-.16a.23.23,0,0,1,.14-.22.7.7,0,0,1,.13-.24l-.06-.1.14-.18v0a.65.65,0,0,1,.16-.42V62l0,0v-.07a.17.17,0,0,1,0-.12v-.07a1.59,1.59,0,0,1,.25-.36,2.53,2.53,0,0,0,.3-.42l.06.06.13-.06.06,0,.4-.18.92,0v.08l.29.06a.36.36,0,0,1,.36.18.35.35,0,0,1,0-.08v0l.25.23.23,0,.43-.11.16.3Zm-1.14.62,0-.08-.1,0-.37-.3-.24,0h-.19l0,0-.1,0-.11,0h-.31l0,0-.28.1,0,.06h0a1.73,1.73,0,0,0-.3.3l-.08.29,0,.11.12.17-.2.16,0,0a.9.9,0,0,0-.13.44l-.1.12v.22l-.1.11,0,.11,0,0V64l0,.06a.88.88,0,0,1,0,.23l0,.06-.11.23,0,.07-.08.12.08.23-.13.17,0,.23v0l0,0h.06l.12-.11,0-.1.17,0,0-.08.71-.58.07,0,.08-.2.2-.1.08-.19h.1l0-.2.17,0,.08-.12.11-.13.61-.82.1-.18v0l.08-.13,0-.13.11-.1Z" fill="#8acde0"/><path d="M134.93,64.81l-.12.44,0,.14,0,0a.39.39,0,0,1,.07.22.32.32,0,0,1,0,.14v0q0,.15-.11,1.18l0,.23v0l0,0v.12l0,0,0,.07h0v.06l0,.07a.29.29,0,0,1-.06.17l-.06.19a.68.68,0,0,1-.12.24,2.91,2.91,0,0,1-.3.42l-.2.16-.23.19-.18.08-.14.11-.1,0a1.34,1.34,0,0,1-.54.16h-.07l-.11,0v0a1.54,1.54,0,0,1-.35,0h-.47l-.29-.06-.25.06-.12-.11-.36,0-.24-.22-.18-.1a.79.79,0,0,1-.55-.64l0,0,0-.19c.1-.15.18-.23.26-.24a.36.36,0,0,1,.19-.06,6.63,6.63,0,0,0,.68.08l0,.18.14.1v.14l-.1.12.55.17.28-.06v.08l.08,0h0l.16,0v0l.12-.06a1.5,1.5,0,0,1,.57-.07l.12-.1h.13s.1,0,.14-.14a0,0,0,0,0,0,0l.06,0,0,0h0l.39-.33.18-.28v-.16l.13-.17v-.16l.07-.14.06-.32.09-.3V66.3a2,2,0,0,1,.07-.53l-.07-.19V65l-.07-.2v-.34l-.1-.25v-.44l-.08,0-.07.18-.18.16-.21.35-.31.22-.33.35a3.15,3.15,0,0,1-.67.53l-.12.14-.18.11-.17.08-.16.16-.19.1a.53.53,0,0,1-.28.13,1,1,0,0,1-.6.18h-.66l-.31-.3-.23-.3-.1-.25-.08-.48,0-.35.12-.41,0-.13.11-.37.11-.22a1.29,1.29,0,0,0,0-.37l.26-.49a.51.51,0,0,1,.18-.2l.12-.2.14-.16a.58.58,0,0,1,.19-.28.28.28,0,0,0,.14-.18c0-.09.18-.17.45-.24h-.06l.06,0,.17-.24.14,0,.11-.07a.61.61,0,0,1,.41-.17h.08l.31-.12.18.06h.22l.13.07a.27.27,0,0,1,.19.11l.17.17,0,0,0,0,.11.17v.06l0,.19,0,.13-.15.24-.34,0L132.5,62l-.17-.06-.08-.08h-.12l-.25.12V62h-.3a.37.37,0,0,1-.26.19l-.14.08-.1.23H131v.11h-.17l-.15.26-.13.08,0,.17-.18.25,0,.24-.14.14-.13.52-.1.1,0,.13-.15.46,0,.14v.14a.44.44,0,0,1,.08.25l.08,0,0,.07a.47.47,0,0,1,.26,0,1.79,1.79,0,0,1,.59-.18.5.5,0,0,1,.2-.25l.54-.29h0a.27.27,0,0,1,.07-.18l.22-.1a.21.21,0,0,0,.11-.16l.19,0,.12-.11.3-.41.08,0a2.68,2.68,0,0,1,.26-.32l.29-.34,0-.16a2.06,2.06,0,0,0,.34-.77l-.06-.25-.1-.17.07-.18-.1-.13,0-.17,0-.12.12-.22a.73.73,0,0,1,.28-.1.61.61,0,0,1,.29.11l.08.16.16.12,0,.26c0,.07.05.18.08.32a.51.51,0,0,1,.06.25v.08l0,.07.13.19,0,.22.07.1a.44.44,0,0,1,0,.18.58.58,0,0,1,0,.13l.13,0-.11.3,0,.23a.5.5,0,0,1,.06.22.67.67,0,0,1-.06.24l.07.06Z" fill="#8acde0"/><path d="M140.12,65.32a.59.59,0,0,1-.22.36.74.74,0,0,1-.18.31h-.07l-.13.23-.22,0-.23.14-.12.22h-.13l-.22.06-.07.09h-.11a.39.39,0,0,0-.3.2l-.17-.14h-.14a.55.55,0,0,1-.26-.06h-.2l-.1-.06a.69.69,0,0,1-.58-.35v0l-.14-.07-.07-.2-.14-.1v-.18l-.14-.52v-.43l.07-.19V64.4l.06-.19v-.08l.08-.14,0,0a.51.51,0,0,1,.06-.23v-.06l0-.29a.47.47,0,0,1,.18-.36.17.17,0,0,0,0-.07,1,1,0,0,0,0-.2.92.92,0,0,1,0-.21.72.72,0,0,1,.07-.3.31.31,0,0,0,.28.14h0a.34.34,0,0,1,.11-.11,1.5,1.5,0,0,1,.26-.5l0,0a1.45,1.45,0,0,1,.07-.28h.1l0-.06.1,0,.08-.11.26-.15a.52.52,0,0,1,.14-.16l.12,0,0-.07a1.89,1.89,0,0,1,.41-.11.36.36,0,0,1,.18,0h.06l.08,0a1.89,1.89,0,0,0,.29.18l.2.16v0a.73.73,0,0,1,.28.61l0,.12,0,.4-.11.07-.12.31-.23.25v.19a5.74,5.74,0,0,1-.71.44.37.37,0,0,1-.34.17h0l-.23.14h-.19l-.29.12-.22-.11h0a2.74,2.74,0,0,0,0,.29l-.1.07v.14l-.07.21c0,.19,0,.32,0,.37l0,0a1.85,1.85,0,0,1,0,.23v.07a.18.18,0,0,0,.1.16.25.25,0,0,0,.12.18l.08.07.26.07v0l.1,0H138l.24,0,.12-.08.07,0,.12-.18h.06l.3-.09a.38.38,0,0,1,.16-.14l0-.06a.31.31,0,0,0,.28-.25.59.59,0,0,1,.43-.17h0A.75.75,0,0,1,140.12,65.32Zm-1.19-3.46a.6.6,0,0,0,0-.14h-.25l-.12.08h-.11l-.06,0-.21.26-.13.1-.19.34-.11.07a.68.68,0,0,1-.17.35l0,.08a.54.54,0,0,1,.3-.08l.08,0,0-.11h.17l.1-.14h.07l.13,0,.06-.18h.08v-.13l.16,0,0,0,0-.11.16-.23A.4.4,0,0,0,138.93,61.86Z" fill="#8acde0"/><path d="M145.36,65.32l-.14.17-.13.31-.1.07-.08.17-.24,0-.16.16h-.24l-.14.12-.13,0-.16,0v.1l-.44,0h-.19l-.14.08-.12-.07h.19l-.58,0,0,0-.1,0-.16.08-.26-.07-.35,0h-.1a.46.46,0,0,0-.18,0,.55.55,0,0,0-.19,0l-.17-.11-.1,0-.13,0q-.44,0-.44-.74v-.11l.23-.17.29-.11.22.11h.17v0a.38.38,0,0,1,.19.19h.1v.16l.16,0,0,0,1.54-.1.37-.06h0l0-.06.17,0,0,0a1.51,1.51,0,0,0,.47-.14V65.2l0-.08h-.06L144.1,65H144l-.06-.08,0,0-.13,0-.1-.1h-.12a.87.87,0,0,1-.31-.06h-.11l-.08,0-.17.06-.1-.11h0l-.17-.13-.37-.14-.12-.1-.46-.08,0-.08-.34-.22-.18-.4-.14-.2,0-.62,0-.07a.84.84,0,0,1,.19-.48.3.3,0,0,0,.18-.28l.18,0a.46.46,0,0,1,.19-.18l.18-.14.76-.29.13,0,.24,0,.4-.11.76,0,0,.06a.6.6,0,0,1,.24.19v.06l.19.12-.08.29,0,.11a.33.33,0,0,1-.34.3.35.35,0,0,1-.32-.2v0h-.14l-.17,0-.16-.12-.08.06a.47.47,0,0,0-.29.1.52.52,0,0,0-.35.15h-.16l-.11.07-.17,0,0,0-.07,0-.11.11h0l-.11.17-.13.07a1.47,1.47,0,0,0-.06.26.61.61,0,0,0,0,.22.35.35,0,0,0,.16.11v.06l.16.08a1,1,0,0,1,.29.16h.24l.15.14.28,0,.11.07.47.13.06.13,0-.08a1,1,0,0,1,.42.14l.22,0,0,.08h.19l.34.19a.64.64,0,0,0,.26.29l.13.08,0,.14a.44.44,0,0,1,.08.25Z" fill="#8acde0"/><g clip-path="url(#clip-path-2)"><path d="M182.81,65.71c-1.42,3.9-4.27,7.4-6.22,11.07-2.36,4.44-4.28,9.06-6.21,13.69-.06.14-.28.07-.23-.07a90.8,90.8,0,0,1,5.17-12q1.53-3,3.23-5.95a62.67,62.67,0,0,0,3.54-6.08c-6.26,5.42-12.43,11-18.9,16.17l.06,0c.32.34.63.69.93,1a6.6,6.6,0,0,1,.7-1.59c.06-.09.17,0,.13.08a16.51,16.51,0,0,0-.73,1.63c.75.88,1.45,1.79,2.16,2.69a18.62,18.62,0,0,1,1-2.59c0-.09.19,0,.15,0-.34.9-.69,1.79-1,2.7l1.06,1.32c.42-1.07.83-2.14,1.28-3.19,0-.1.2-.05.16.05-.41,1.11-.87,2.19-1.32,3.29.41.49.83,1,1.27,1.45.49-1.36,1-2.72,1.5-4.07,0-.11.22-.06.18.06-.48,1.4-1,2.79-1.53,4.18.22.23.43.47.66.7s-.1.41-.29.25l-.61-.56a.09.09,0,0,1-.07-.06,33.55,33.55,0,0,1-5.76-7.33.06.06,0,0,1,0,0l0,0,0,0a.05.05,0,0,1-.07-.08h0s0,0,0,0v0a.06.06,0,0,1,0-.08v0a26.64,26.64,0,0,1-.75-5.48h0l-2.27,1.2v0a.06.06,0,0,1-.1,0l-.3.16a.17.17,0,0,1-.16-.31l.53-.28a19.75,19.75,0,0,1,1.49-3.71c0-.1.22,0,.17.08-.54,1.15-1,2.32-1.44,3.51l2.24-1.2a13.12,13.12,0,0,1,.81-2.28c0-.1.21-.06.17.06-.26.7-.53,1.4-.76,2.11l1-.51a.07.07,0,0,1,0-.08c.33-.7.58-1.43.86-2.15a.08.08,0,0,1,.16.05,10.92,10.92,0,0,1-.83,2.09q8.74-4.65,17.44-9.4a145.57,145.57,0,0,1-17.5,2.7c-1.17.11-2.34.21-3.51.28a30,30,0,0,0-3.3-.08q-1.25-.72-.88.5a1.79,1.79,0,0,0,.2,1.17c0,.18.11.36.17.54.21-.7.43-1.41.68-2.09a.08.08,0,0,1,.15,0c-.22.76-.48,1.5-.75,2.24.19.49.41,1,.61,1.43a16.84,16.84,0,0,1,.62-2.06.06.06,0,0,1,.12,0c-.23.72-.47,1.44-.67,2.17l0,.07c.44,1.06.92,2.1,1.39,3.14a14.4,14.4,0,0,1,1.16-2.94c0-.09.19,0,.15.07-.45,1-.86,2-1.21,3.09.2.45.41.89.6,1.34a.1.1,0,0,1-.18.09,42.14,42.14,0,0,1-2.79-5.95l0,.06a0,0,0,0,1-.09,0l.05-.18c-.43-1.12-.84-2.25-1.23-3.37,0-.13.11-.25.23-.21,4.32,1.54,9.93.2,14.36-.4,4.28-.57,8.52-1.36,12.73-2.28l.12-.06.06,0,0-.11c.09-.25.48-.12.39.13ZM171,72.28c-2.87,1.54-5.76,3.06-8.64,4.58h0a.12.12,0,0,1,.07.09c.11.53.19,1.06.26,1.6v0c.14-.47.3-.92.47-1.38a.07.07,0,0,1,.13,0c-.1.36-.21.73-.33,1.08,0,.08-.15.36-.24.58.06.5.12,1,.17,1.51.19-.65.39-1.3.62-1.94a.08.08,0,0,1,.15,0c-.21.74-.48,1.47-.73,2.19,0,.43.1.86.15,1.28.38-1,.76-1.94,1.18-2.89,0-.1.2-.05.16.05-.4,1.07-.86,2.12-1.3,3.17l0,.16c2.48-2.25,18.31-16,18.35-15.94S172,71.77,171,72.28Zm0,0"/><path d="M153.07,78.93c-.74,1.94-3.51,2.73-5.5,2.36v0a5,5,0,0,0,6.23,2.22,2.65,2.65,0,0,1-.3-2.19c.4-1.3,2.92-2.83,3.51-.84a2.76,2.76,0,0,1-2.56,3.21l.05.07c2.1,2.41,5.66.47,5.82-2.38a.09.09,0,0,1,.18,0,3.64,3.64,0,0,1-4,3.83,3.69,3.69,0,0,1-2.6-1.51c-2.32,1.44-5.93-.11-6.9-2.57h0c-2.64-.87-3.16-3.35-2.74-5.83,0-.23.39-.22.37,0-.21,2-.16,4,1.85,5.1l.4.19a3.39,3.39,0,0,1,.18-2c.65-1.62,2.55-3,4.34-2.64a2.17,2.17,0,0,1,1.67,3Zm3.31,2.88c.28-.68.61-1.92-1-1.78s-1.74,2.12-1.16,3.29a2.22,2.22,0,0,0,2.18-1.51Zm-5.47-5.45a3.16,3.16,0,0,0-2,.7,3.49,3.49,0,0,0-1.5,3.74,5.18,5.18,0,0,0,5.3-1.68.15.15,0,0,1,0-.13,1.93,1.93,0,0,0-1.76-2.63Zm0,0"/></g><path d="M166.15,83.07c-.23.64-.47,1.27-.71,1.9,0,.09-.18,0-.15,0,.23-.64.47-1.27.72-1.9,0-.09.17,0,.14,0Zm0,0"/><path d="M158.75,72.42c-.27.73-.59,1.42-.82,2.16,0,.07-.13,0-.11,0a9.35,9.35,0,0,1,.8-2.19.07.07,0,0,1,.13.06Zm0,0"/></svg>