<svg id="Layer_1" data-name="Layer 1" xmlns="http://www.w3.org/2000/svg" viewBox="0 0 20 20"><title>mask</title><path d="M13.37.85A24.64,24.64,0,0,1,1,4.11a.21.21,0,0,0-.2.24,19.52,19.52,0,0,0,4.28,8.11,14.12,14.12,0,0,0,3,2.72l.45.26a12.38,12.38,0,0,0,1.6,2.32,3.53,3.53,0,0,0,2.42,1.4,3.45,3.45,0,0,0,2.35-1.4,14.66,14.66,0,0,0,2.17-3.41,19.47,19.47,0,0,0,2-9,.2.2,0,0,0-.24-.19A29.86,29.86,0,0,1,14.39,6a16,16,0,0,0-.73-5C13.55.82,13.47.82,13.37.85Zm0,.46A19,19,0,0,1,13.62,10a14.11,14.11,0,0,1-1.2,3.73,3.17,3.17,0,0,1-1.68,1.75,3.27,3.27,0,0,1-2.41-.67A13.81,13.81,0,0,1,5.42,12.2,19.42,19.42,0,0,1,1.3,4.5a25,25,0,0,0,12-3.19ZM10.78,5c-.57,0-1.05.46-1.51,1.4a3.34,3.34,0,0,1,3-.82A2.59,2.59,0,0,0,10.78,5Zm8,.67a19.41,19.41,0,0,1-2,8.53,14.28,14.28,0,0,1-2.1,3.31,3.16,3.16,0,0,1-2,1.27,3.21,3.21,0,0,1-2.12-1.27,11.23,11.23,0,0,1-1.26-1.75,2.69,2.69,0,0,0,1.64.16,2,2,0,0,0,.75-.4c1.16.58,2.4.13,3.58-1.53a5,5,0,0,1-2.89.77,6.79,6.79,0,0,0,.48-.8A14.42,14.42,0,0,0,14,10.12c0-.24.09-.49.12-.74a3.32,3.32,0,0,1,2.66.21,2.29,2.29,0,0,0-1.51-1,1.65,1.65,0,0,0-1.11.45,22.39,22.39,0,0,0,.21-2.7,29.76,29.76,0,0,0,4.37-.7Zm-13,.68c-.57,0-1.05.46-1.51,1.4a3.34,3.34,0,0,1,3-.82,2.59,2.59,0,0,0-1.53-.59Zm6.18,3.89c-1.76,1.56-2.54,1.76-5,1.34C9,13.37,10.84,13.06,11.9,10.24Z"/><path d="M12.59,19.42A3.72,3.72,0,0,1,10,17.93a12.44,12.44,0,0,1-1.6-2.3L8,15.4a14.36,14.36,0,0,1-3.06-2.77A19.63,19.63,0,0,1,.59,4.4.44.44,0,0,1,.69,4,.45.45,0,0,1,1,3.86,24.43,24.43,0,0,0,13.25.63l0,0a.46.46,0,0,1,.58.21l0,.06a15.94,15.94,0,0,1,.75,4.81A29.65,29.65,0,0,0,18.84,5a.46.46,0,0,1,.55.38,19.57,19.57,0,0,1-2.06,9.11,14.83,14.83,0,0,1-2.21,3.47A3.6,3.6,0,0,1,12.59,19.42ZM9.77,16.17a9.81,9.81,0,0,0,.89,1.16,3,3,0,0,0,1.94,1.19,3,3,0,0,0,1.86-1.19,14,14,0,0,0,2.07-3.25A19.29,19.29,0,0,0,18.5,6a30.15,30.15,0,0,1-3.88.62c0,.65-.06,1.31-.13,2a1.66,1.66,0,0,1,.8-.19A2.49,2.49,0,0,1,17,9.43l.81.94-1.11-.55a3.09,3.09,0,0,0-2.32-.24c0,.2-.07.4-.1.6A14.6,14.6,0,0,1,13,14.07q-.12.24-.25.45a5.59,5.59,0,0,0,2.33-.76l.9-.45-.59.82c-1.47,2.06-2.83,2.07-3.75,1.67a2.19,2.19,0,0,1-.72.35A2.56,2.56,0,0,1,9.77,16.17Zm1.89-.91.05,0a2.1,2.1,0,0,0,2.57-.62,4.08,4.08,0,0,1-2,.33l-.33,0A3.41,3.41,0,0,1,11.66,15.26ZM1.62,4.75a19.58,19.58,0,0,0,4,7.29,13.5,13.5,0,0,0,2.86,2.6,3.06,3.06,0,0,0,2.21.64,3,3,0,0,0,1.52-1.62A14,14,0,0,0,13.37,10a18.91,18.91,0,0,0-.2-8.32A25,25,0,0,1,1.62,4.75ZM15.21,8.94a3.44,3.44,0,0,1,.51,0,1.06,1.06,0,0,0-.44-.13,1,1,0,0,0-.51.12A3.4,3.4,0,0,1,15.21,8.94Zm-5.9,4a4.14,4.14,0,0,1-2.58-1.18L6,11.17l.9.16c2.39.41,3.11.22,4.8-1.28l.75-.67-.35.94a3.64,3.64,0,0,1-2.24,2.54A2.26,2.26,0,0,1,9.31,12.94ZM7.86,12a2.53,2.53,0,0,0,1.9.42,2.47,2.47,0,0,0,1.45-1.26A4.15,4.15,0,0,1,7.86,12ZM3.42,8.78,4,7.64c.5-1,1-1.5,1.72-1.54h0a2.76,2.76,0,0,1,1.68.63l1,.7L7.19,7.17a3.08,3.08,0,0,0-2.82.76ZM5.73,6.59a1,1,0,0,0-.62.28A3.42,3.42,0,0,1,6,6.62a1.13,1.13,0,0,0-.32,0Zm2.76.83L9,6.28c.5-1,1-1.5,1.72-1.54h0a2.76,2.76,0,0,1,1.68.63l1,.7-1.21-.25a3.08,3.08,0,0,0-2.82.76ZM10.8,5.24a1,1,0,0,0-.62.28,3.41,3.41,0,0,1,.94-.25A1.24,1.24,0,0,0,10.8,5.24Z"/></svg>