<svg id="Layer_1" data-name="Layer 1" xmlns="http://www.w3.org/2000/svg" viewBox="0 0 100 100"><title>f</title><path d="M68.15,88.14c-1,0-1.39-.63-1.77-1.37a9.22,9.22,0,0,1-1.18-4.33,17.27,17.27,0,0,0-.85-4.67c-.76-2.75-1.23-5.59-1.8-8.39-1.14-5.61-2.23-11.23-3.42-16.84a53.9,53.9,0,0,1-.81-11.16c0-3.52-.62-7-.79-10.43a6.52,6.52,0,0,0-1-2.6c-.78-.19-1.12.34-1.46.74-1.88,2.16-3.8,4.28-5.6,6.52-2.43,3-5.52,5-9.57,5.07a4.41,4.41,0,0,0-1.18.17C35.1,42,32.69,40.3,30.7,37c-.27-.45-.22-1.12-1.13-1.36-.17,1.82-.43,3.59-.5,5.37a105.92,105.92,0,0,0,.71,14.76,84.16,84.16,0,0,1-.21,22.14,45.58,45.58,0,0,1-1.68,8.16,7.12,7.12,0,0,1-2.07,3.45C22.1,92.4,19.16,90.81,18,87a23.44,23.44,0,0,1-.5-9.24,68.65,68.65,0,0,0,.28-7.31c0-6.46.31-12.89.7-19.33.12-1.92.66-3.75.88-5.65.51-4.41.73-8.88,1.9-13.19,1-3.53,1.92-7.07,3.13-10.52a13.24,13.24,0,0,1,6.27-7.27A43.25,43.25,0,0,1,41.86,9.71a14.08,14.08,0,0,1,4.22-.57,19.11,19.11,0,0,0,2.86-.07,22.87,22.87,0,0,1,16.5,5.31C71.11,18.85,74,24.85,75.8,31.6c1.3,4.86,1.75,9.85,2.4,14.81.33,2.52.63,5.05.85,7.59a24,24,0,0,1-.1,6,18.2,18.2,0,0,0,2.52,13.49c1.84,2.81,1.46,5.8-.1,8.62a36.42,36.42,0,0,1-3.07,4.55C77,88.31,75,88.64,73,88.9c-.19-1.05.68-1.31,1.31-1.75s1.39-.51,1.27-1.47c-.78-.28-1,.4-1.3.78-.5.58-1,1.05-1.84.67a1.7,1.7,0,0,1-1-1.74c.05-3.1-.52-5.94-3-8.22-1.24-1.16-.95-2.64.44-3.69a5.75,5.75,0,0,1,2.57-1.21c1.12-.16,1.78-.52,1.6-1.81a1.37,1.37,0,0,1,1-1.69A1.69,1.69,0,0,1,76,69.87a6.73,6.73,0,0,0,3.3,3.57,31.28,31.28,0,0,1-2.38-15.27,3.76,3.76,0,0,0-1.48,3.18c-.17,1.48-1,1.92-2.33,1.33-1.53-.65-3.17-1.06-4.49-2.19a1.69,1.69,0,0,0-2.81,1.87,5.63,5.63,0,0,1-.16,4.38,3.85,3.85,0,0,0,.73,4c.48.56,1,1.27.49,1.94-2.17,2.85-.78,5.78-.25,8.66a22,22,0,0,0,1.51,4.78C68.4,86.8,68.83,87.47,68.15,88.14Z" fill="#79c145"/><path d="M42.72,57.85c1.53,1.24,3.45.23,5.43,0,2.3-.28,3.65,1.88,2.81,4.26a4.27,4.27,0,0,1-1.85,2.4,21.43,21.43,0,0,1-4.59,1.91A3.4,3.4,0,0,1,41.78,66c-1.71-1-3.12-4.34-2.62-6.24C39.53,58.31,40.26,57.88,42.72,57.85Z" fill="#7096c0"/><path d="M35.8,53.14a4.69,4.69,0,0,1-2.62-.58c-1.61-.91-2.08-2.09-1.81-4.25.2-1.61,1.41-2,2.64-2.33a10.64,10.64,0,0,0,1.83-.46c2-1.05,3.86-.2,5.65.62a2.49,2.49,0,0,1,1.24,3.24,4.53,4.53,0,0,1-2.63,2.9A9.33,9.33,0,0,1,35.8,53.14Z" fill="#85a8c5"/><path d="M52.32,42.07c1.85.07,2.69,1.47,3.6,2.76a1.52,1.52,0,0,1-.05,1.79c-1.17,1.88-2.65,3.37-5,3.52a27.58,27.58,0,0,1-3.56,0,4,4,0,0,1-3.34-5.88,1.72,1.72,0,0,1,.83-.81l3.8-1.87c.31.84-.32,1.33-.72,1.87-.78,1.05-1.09,2.12-.24,3.25a2.29,2.29,0,0,0,2.25,1c1.46-.29,1.53-1.63,1.83-2.76C51.94,44.05,51.56,42.94,52.32,42.07Z" fill="#8aacc9"/><path d="M52.32,42.07A9.23,9.23,0,0,1,52,46.53c-.39,1.13-.93,2.2-2.22,2.09a3.59,3.59,0,0,1-3.09-1.91,2.89,2.89,0,0,1,.52-3.5l1.39-1.61C50,40.7,51.11,41.59,52.32,42.07Z" fill="#74b44e"/><path d="M54.81,13.68A6.08,6.08,0,0,1,50,15.28c-.54-.07-1.24,0-1.21-.77s0-1.88,1.14-2A6.81,6.81,0,0,1,54.81,13.68Z" fill="#ddebd5"/><path d="M31.25,19.7c-1,2.74-1.61,5.39-4.09,7.58-.06-2.61,1.19-4.34,2.09-6.19C29.58,20.4,29.84,19.58,31.25,19.7Z" fill="#cae2b9"/><path d="M35.84,16.42A8.12,8.12,0,0,1,40.29,14c.53-.15.72.53.53,1a2.23,2.23,0,0,1-2.21,1.52A13.68,13.68,0,0,0,35.84,16.42Z" fill="#cde4b9"/><path d="M34.55,32.22c1.1,1.11,1,2.76,2.21,3.69a.67.67,0,0,1,0,.64.75.75,0,0,1-.85.26,2.16,2.16,0,0,1-1.37-1.23A3.83,3.83,0,0,1,34.55,32.22Z" fill="#cbe4b7"/><path d="M58.88,21.24a11.09,11.09,0,0,1-.76-4.71c0-.32.16-.65.55-.61a.77.77,0,0,1,.49.42A5.26,5.26,0,0,1,58.88,21.24Z" fill="#d8e7cb"/><path d="M44.65,65.13A4,4,0,0,1,41.88,64a1.54,1.54,0,0,1,.76-2.7c1.57-.32,3.06-.86,4.59-1.29s2.09,0,1.87,1.63a1.9,1.9,0,0,1-.26.9A9.84,9.84,0,0,1,44.65,65.13Z" fill="#eeeef5"/><path d="M39.53,49.08c-.07,2-.5,2.63-1.89,2.58a2.93,2.93,0,0,1-2.91-2.8,2.31,2.31,0,0,1,2.45-2.54C38.88,46.32,39.59,47.17,39.53,49.08Z" fill="#76bb49"/></svg>