<svg id="Layer_1" data-name="Layer 1" xmlns="http://www.w3.org/2000/svg" viewBox="0 0 100 100"><title>f</title><path d="M30.93,54.7a6.42,6.42,0,0,0-.63,2.76c0,4-.14,7.94,0,11.91a8.9,8.9,0,0,0,2.82,6.73c2,1.77,3.11,1.9,5.2.29a11.28,11.28,0,0,1,2.64-1.61c1.87-.75,3.18-.25,4,1.57a4.4,4.4,0,0,1,.38,2c-.34,8.12-8.64,12.49-14.63,9.88a12.78,12.78,0,0,0-3.22-.94,9.45,9.45,0,0,1-7.1-5.08,21.38,21.38,0,0,1-2.42-6.8,56.87,56.87,0,0,1,1.37-25.09c1.7-6.21,3.49-12.41,4.79-18.73a15.92,15.92,0,0,1,4.36-7.53c5-5.27,10.79-9.34,18.05-11C50.95,12,55.4,10.41,60,11.23c4.37.77,8.68,2.08,11.61,5.93,1.68,2.21,3.35,4.39,4.06,7.15a3.73,3.73,0,0,0,.57,1.16c3.58,5.14,4.58,11.1,5.32,17.12.26,2.13.87,4.19,1.09,6.33.65,6.14-.08,12.21-.46,18.31,0,.77-.05,1.54-.08,2.32-.36,1.4.48,3.12-1.1,4.21-.81,2-1.69,3.91-2.42,5.9a9.29,9.29,0,0,1-5.11,5.56,27.15,27.15,0,0,1-16.59,2.15,15.35,15.35,0,0,1-5.43-2.28C48.38,83,47.64,77.9,49.89,74.35c1-1.66,2.11-3.28,4.45-3.42,2.19-.13,3.12.38,3.69,2.57a5.26,5.26,0,0,0,1.42,3c1.19,1,2,1.05,3.15-.09a6.64,6.64,0,0,0,2.09-4.84c-.14-7.33-.72-14.64-1.43-21.93a19.25,19.25,0,0,0-1.74-6.19,9.56,9.56,0,0,0-8.69-5.93,38.58,38.58,0,0,0-9.51.84c-4.09.8-7.07,3.44-9.84,6.31-1,1-1.09,2.51-1.66,3.76-.18,1.61.64,3.25-.18,4.83A2.16,2.16,0,0,1,30.93,54.7Z" fill="#1c4ca1"/><path d="M44.4,70.74c-3.09,0-5.08-1.25-6.06-3.81-.5-1.31-.29-1.82,1-2.49a3.57,3.57,0,0,1,2-.46,18.56,18.56,0,0,0,8-1.55c.83-.3,1.72-1,2.64-.2a3.3,3.3,0,0,1,.23,3.64C50.57,68.54,47.91,71.18,44.4,70.74Z" fill="#e77bb1"/><path d="M30.86,53.08a5.54,5.54,0,0,0,.51-2.75c0-.67-.18-1.4.45-1.92.12,1.56,1,1.91,2.46,1.78a17.19,17.19,0,0,1,6.86.26c.49.15,1,.31,1.46.48a2.29,2.29,0,0,1,1.76,2,2.39,2.39,0,0,1-1.48,2.47c-.69.33-1.41.6-2.12.9-2.43.29-4.65,0-5.95-2.44-.35-.67-.91-.68-1.54-.5A2.25,2.25,0,0,1,30.86,53.08Z" fill="#4f7cb5"/><path d="M52.81,48.35a8.32,8.32,0,0,1,5.68,2,1.82,1.82,0,0,1,.28,2.74c-2,2.53-6.49,4.64-10,1.84a6.23,6.23,0,0,1-1.81-3c-.36-1,.33-1.65,1-2.17A7.15,7.15,0,0,1,52.81,48.35Z" fill="#7ca1cd"/><path d="M30.86,53.08a4.65,4.65,0,0,0,2.88-.86c.73-.46,1.64-.33,1.65.8,0,2,1.52,2.31,2.93,2.61.83.18,1.72.06,2.44.65-2.09,1.62-4.3,1.28-6.49.33a35.18,35.18,0,0,1-3.35-1.9Z" fill="#90b0d7"/><path d="M58.86,31.74c0-.58.24-1,.9-.94a.67.67,0,0,1,.62.69c0,.57-.2,1.08-.78,1.12A.76.76,0,0,1,58.86,31.74Z" fill="#b9c7e5"/><path d="M45.33,68.15a3.47,3.47,0,0,1-2-.39c-.43-.28-1-.55-.86-1.15s.77-.54,1.25-.58a21.94,21.94,0,0,0,4-.88c.58-.16,1.29-.37,1.64.23s-.15,1.32-.67,1.76A4.75,4.75,0,0,1,45.33,68.15Z" fill="#f3deec"/><path d="M53.59,48.94c1.34.05,2.2.73,2.17,1.7-.06,1.72-1.58,4-2.7,4a2.75,2.75,0,0,1-2.49-2.76A3,3,0,0,1,53.59,48.94Z" fill="#1f56a7"/></svg>