<svg id="Layer_1" data-name="Layer 1" xmlns="http://www.w3.org/2000/svg" viewBox="0 0 100 100"><title>f</title><path d="M25.63,51.24c-1.52,1.5-1.95,3.44-2.61,5.41-1.49,4.43-1.2,9-1.51,13.5a76.47,76.47,0,0,0-.32,9c.09,1.78.05,3.72-2,4.4s-4,1-5.86-.54a21.51,21.51,0,0,0-4.64-3,3,3,0,0,1-1.9-3.12,4.39,4.39,0,0,0-1.61-4c-.92-.78-.93-1.77-.84-3,.44-5.6,1.78-11.1,1.83-16.75,0-3.15.24-6.31,3.05-8.51.74-.58.82-1.51,1.12-2.31.82-2.24,1.66-4.48,2.42-6.74,1.47-4.35,5-7.31,7.49-10.95.83-1.2,2.66-1.24,4.2-1.41,4.51-.5,8.94-1.35,12.73-4.11A8.19,8.19,0,0,1,42,17.34a25.41,25.41,0,0,0,11.28-2.66c2.48-1.22,4.29-.86,6.3,1.65a15.93,15.93,0,0,0,5.73,4.13,3.67,3.67,0,0,0,1.81.65c2.83-.4,5.37,1,7.87,1.66,3.2.89,6.25,2.72,7,6.84a15.65,15.65,0,0,0,4.38,7.85c3.28,3.36,4.46,7.59,6.47,11.5a28.5,28.5,0,0,1,2.79,14.17c-.12,4.35,0,8.71,0,13.06a8.82,8.82,0,0,1-3.12,7.23c-2,1.59-4.56,1.83-6.92,2.36a6.6,6.6,0,0,1-5.63-1c-.34-.26-.72-.67-1.09-.69-3-.12-4.56-2.31-6-4.46a58,58,0,0,0-4.07-5.45c-1.74-2-2-4.78-2.43-7.33-.3-1.91-.4-3.86-.63-5.8s-.7-4.13.81-6c.55-.67.27-1.42-.07-2.15A15.92,15.92,0,0,1,65,45.06a7.76,7.76,0,0,0-1-4.7,5.86,5.86,0,0,1-.57-5c.77-3.2-.41-4.58-3.68-4.33a26,26,0,0,0-4.45.91,12.32,12.32,0,0,1-5.8.09,12,12,0,0,0-7.95.52c-1.93.9-4.1.49-6.13.35a4.48,4.48,0,0,0-4.87,2.91,72.43,72.43,0,0,0-4.22,10.22,12.39,12.39,0,0,0-.51,3.84A.83.83,0,0,1,25.63,51.24Z" fill="#ffe2c1"/><path d="M52.83,53.32a17.64,17.64,0,0,1-4.49-.68c-2.18-.67-2.92-2.57-3.44-4.41-.32-1.11.79-2,1.75-2.51a11.19,11.19,0,0,1,5.88-1.62,19.66,19.66,0,0,1,6,1.33c2.91,1.11,3.28,3.73,1,5.88C58,52.71,55.77,53.38,52.83,53.32Z" fill="#5a87b3"/><path d="M40.51,75.28c-2-.44-4-.88-5.08-3S35,68,36,66.07a2.37,2.37,0,0,1,2.89-1c3.63,1.31,6.25-.63,8.93-2.49a3.58,3.58,0,0,1,1.71-.85,4,4,0,0,1,3.81,1.33,3.71,3.71,0,0,1,0,4.29,15.77,15.77,0,0,1-5.92,5.88A27.28,27.28,0,0,1,40.51,75.28Z" fill="#638dbe"/><path d="M25.63,51.24l.12-1.33A20.78,20.78,0,0,0,29,47.79c3.32-3.16,7.33-3.35,11.52-2.92,2.22.23,2.7.87,2,3-.9,2.73-2.06,5.56-5,6.37-3.6,1-7.32,1-10.5-1.58A17.61,17.61,0,0,1,25.63,51.24Z" fill="#6f98c0"/><path d="M42.36,72.35a5.31,5.31,0,0,1-3.4-.78,2.64,2.64,0,0,1-.8-2.93c.21-1,1.1-.91,1.84-.88a13.46,13.46,0,0,0,8.26-2.32c.46-.31.95-.6,1.48-.27.7.45.45,1.09.28,1.73C49.27,69.66,45.52,72.35,42.36,72.35Z" fill="#ecedf5"/><path d="M36.45,51.68c-.34-.95-.61-1.76-.93-2.56s-.74-1.44.1-2,1.47,0,2.12.33a1.31,1.31,0,0,1,.73,1.88A3.73,3.73,0,0,1,36.45,51.68Z" fill="#d8cec1"/></svg>