<svg id="Layer_1" data-name="Layer 1" xmlns="http://www.w3.org/2000/svg" viewBox="0 0 100 100"><title>f</title><path d="M38.17,37.53c-1.16-1.17-2,0-2.94.43a3.31,3.31,0,0,0-1.13,1,1.93,1.93,0,0,1-2.37.67,2.69,2.69,0,0,0-3.18.87A3.65,3.65,0,0,1,25,41.83a5.55,5.55,0,0,0-1.94.31,6.37,6.37,0,0,1-1.5.34c-1.89-.11-3.78-.46-5.67,0a1.1,1.1,0,0,1-.65-.1c-.84-.38-2-.43-2.26-1.53s.79-1.42,1.46-1.94a1,1,0,0,0,.54-1c-.57-.48-1,.11-1.51.28-2,.72-3.18,0-4.1-2a2.7,2.7,0,0,1,.85-3.63,10.32,10.32,0,0,1,1.67-1.44,1.78,1.78,0,0,0,1-1.36c.13-2,1.56-3,3.05-3.77a12.57,12.57,0,0,1,5.22-1.65,4.86,4.86,0,0,0,2.52-.73,8.05,8.05,0,0,1,4.65-1.1,67.92,67.92,0,0,1,12.35.76c.51.09,1,0,1.54.13a2.1,2.1,0,0,0,2.61-1.43,25.3,25.3,0,0,1,4.59-6.73,7.29,7.29,0,0,1,3.63-2.4,26.27,26.27,0,0,1,9.36-1.38c2.28.16,4.58-.24,6.85.17a14,14,0,0,1,4.21,1.78c3.23,1.79,5.34,4.55,7.47,7.36a13.37,13.37,0,0,1,2.58,5.8A4.45,4.45,0,0,0,86,29.75c1.34.77,2.72,1.48,4.06,2.26.56.33,1.26.75.8,1.55a1.45,1.45,0,0,1-1.89.69c-.66-.23-1.25-.86-2.18-.46a3,3,0,0,0,1.3,2.1,13.54,13.54,0,0,1,1.47,1.32c1.34,1.58,1.39,1.59-.13,2.94a1,1,0,0,0-.27,1.34c.5,1.07,1,2.12,1.49,3.21.76,1.89.17,2.59-1.89,2.31-1.41-.19-1.39-.19-1.48,1.28a9.5,9.5,0,0,0,1,5.35c.26.47.8.93.42,1.6a2.25,2.25,0,0,0-1.2,3,7.14,7.14,0,0,1,0,6.2c-1.06,2.34-.44,5.24-.37,7.89a10.8,10.8,0,0,1-1.16,6.15,14.55,14.55,0,0,0-1.5,5.45c-.5,3.76-2,4.5-5.09,2.33-1.69,1.48-3.87,1-5.83,1.41a13.17,13.17,0,0,0-2.34.59c-2.24.87-3.31.12-3.35-2.34,0-1.84,0-3.69,0-5.53A86.88,86.88,0,0,0,67,67.84a1.84,1.84,0,0,0-.17-.86c-1.43-1.81-.82-3.83-.49-5.73a63.88,63.88,0,0,0,.71-8.8c0-.84,0-1.63-.89-2.07s-1-1.37-.91-2.28a67.9,67.9,0,0,0,.37-9.72,2.26,2.26,0,0,1,1.21-2.19c.82-.47,1-1.06-.07-1.32-2-.52-2.24-2-2-3.61a13.14,13.14,0,0,0-2.4-10,4.43,4.43,0,0,0-4.22-2.3c-3.13,1.57-3.64,4.83-4.87,7.61-.29.66.22,1.25.61,1.8,2.25,3.15,2,7,2.89,10.53A1.67,1.67,0,0,1,56,40.76a1.73,1.73,0,0,1-2-.33c-1.46-1.2-2.41-2.63-1.73-4.62a3.46,3.46,0,0,0-.45-3.36c-.44-.61-.93-1.25-1.78-1.06a2.21,2.21,0,0,0-1.77,1.78c-.67,3.27-.63,6.27,2.73,8.28a3.6,3.6,0,0,1,1.55,3.69,12.72,12.72,0,0,1-.58,3.26,5.82,5.82,0,0,0,.29,4.49c1.08,2.68-1.05,7-3.83,7.87a3.24,3.24,0,0,1-4-3.62,5.49,5.49,0,0,1,.53-1.9,2.2,2.2,0,0,1,.78-1.34c.78-4,1.16-7.84-2.09-11a4.21,4.21,0,0,1-1.11-3c0-.84-.3-1.51-1.34-1.17C39.79,39.07,39,38.26,38.17,37.53Z" fill="#ef4532"/><path d="M44.84,55.24c0,.66,0,1.33,0,2,0,1.47.87,2.9,1.95,3.16a3.22,3.22,0,0,0,3.11-1.28c1-1,1.18-2.64,2.3-3.65.28-.25.13-.7,0-1s-.4-.8-.56-1.21c-.64-1.63-1.37-3.18-.28-5A8.26,8.26,0,0,0,51.91,45,3,3,0,0,0,50,41.58a3.42,3.42,0,0,1-1.92-2c-.12-.27-.1-.66-.29-.83-1.39-1.23-1-2.57-.32-4a1.13,1.13,0,0,0,.14-.83c-1-1.92.91-2.35,1.73-3.29a1.26,1.26,0,0,1,1.46-.08,4.77,4.77,0,0,1,2.1,4.88,3.57,3.57,0,0,0,1.48,4.73,1.18,1.18,0,0,0,1.23.26,1.08,1.08,0,0,0,.68-1.27c-.71-2.18-.51-4.54-1.12-6.66a17.58,17.58,0,0,0-2-4.61,2,2,0,0,1-.09-2.08c.71-1.54,1.39-3.09,2.08-4.64a3.45,3.45,0,0,1,3-2.28,17.64,17.64,0,0,0-4.28,6.9,1.85,1.85,0,0,0,.2,2.25C57,31,57.78,34.73,58.49,38.52a33.78,33.78,0,0,1-.7,16c-.71,2.42-1.72,4.71-4,6.19a5.66,5.66,0,0,0-1.28,1.22C51.11,63.76,49,64,47,64.18s-3.09-1-2.76-3.14a2.56,2.56,0,0,0-.32-1.89c-1.08-1.73-1.05-1.74.37-3.24C44.47,55.7,44.65,55.46,44.84,55.24Z" fill="#f0503e"/><path d="M38.17,37.53c.35.06.84,0,1,.2.71.72,1.27.6,2.1.12,1.22-.69,1.68-.33,1.75,1.1,0,.58,0,1.17,0,1.76a1.52,1.52,0,0,0,.66,1.53c1.41.74,1.8,2.28,2.6,3.45s.47,2.77.2,4.07.15,2.94-.91,4.14a18.78,18.78,0,0,0-1.13-8.78c-.82.32-.78,1-1,1.49a8.48,8.48,0,0,1-1.77,2.77,3.68,3.68,0,0,1-4.05.93c-1.16-.4-1.44-1-1.07-2.21a21.16,21.16,0,0,1,1.18-3.32A8.79,8.79,0,0,0,38.17,37.53Z" fill="#f0503e"/><path d="M21.82,65.57a7.93,7.93,0,0,1-5.11-1.8A3.31,3.31,0,0,1,16.35,59a2.39,2.39,0,0,1,3.17-.64,5.36,5.36,0,0,0,5.28.3,2.71,2.71,0,0,1,2.36.11A1.25,1.25,0,0,1,28,60.2c-.35,2.23-1.21,4.08-3.56,4.86A7.34,7.34,0,0,1,21.82,65.57Z" fill="#6086b5"/><path d="M29.13,51.78c-1.63.24-3.07-.63-4.57-1.17a1.67,1.67,0,0,1-1-1.8,1.37,1.37,0,0,1,1.23-1.34c1.35-.33,2.69-.68,4.05-.95,1.66-.32,3,.58,4.28,1.38.68.42.62,1.08.28,1.75C32.52,51.39,31,51.92,29.13,51.78Z" fill="#6587b5"/><path d="M79.47,86.27a3.89,3.89,0,0,1,1.69.45c1.57.65,1.8.58,2.54-1a14.37,14.37,0,0,0,1-5.36,3.71,3.71,0,0,1,1-2.81c1.5-1.27,1.26-2.83,1-4.47a20.81,20.81,0,0,1,.15-8.32A14,14,0,0,0,87,58.26c-.34-1.6,0-2.26,1.71-3-1.57,1.78-.6,3.62,0,5.38.38,1.16,1,2.15-.43,3-.56.35-.46,1.08-.32,1.65.6,2.51.08,5-.15,7.49s-.79,4.94-.86,7.45a2.1,2.1,0,0,1-1.17,2c-1,.47-1.06,1.26-1,2.22a4.22,4.22,0,0,1-3.58,4,1.13,1.13,0,0,1-1.24-.71C79.74,87.27,79.62,86.76,79.47,86.27Z" fill="#f2695a"/><path d="M16,46.33a11.06,11.06,0,0,1,3.55.49c1.84.55,2.32,2,.9,3.24a7,7,0,0,1-9.1.33c-.83-.65-.54-2.21.55-3A5.49,5.49,0,0,1,16,46.33Z" fill="#6284b4"/><path d="M79.09,66.83a9.06,9.06,0,0,1-1.07-5,1.56,1.56,0,0,1,1-1.37c.46-.24,1-.51,1.44-.12a1.17,1.17,0,0,1,.27,1.24A21.54,21.54,0,0,1,79.09,66.83Z" fill="#fadad9"/><path d="M78.23,46.62c.86,3.58-.43,6.59-.11,9.94-1-1.05-1-1.05-.89-4.87C77.28,50.14,76.77,48.46,78.23,46.62Z" fill="#f47d73"/><path d="M63,15.55c2.33-.4,4.32.23,6.33.3.14.75-.36.8-.77.92-1.53.44-3,0-4.57-.13C63.55,16.61,63.26,16.2,63,15.55Z" fill="#f7cfcc"/><path d="M77,79.43a15.65,15.65,0,0,1,.43-7.74C77.93,75.35,77.84,78,77,79.43Z" fill="#f8ada8"/><path d="M21.65,64.19c-2,0-3.27-.66-3.76-2a1.37,1.37,0,0,1,0-1.26c.3-.45.79-.32,1.19-.14A5.92,5.92,0,0,0,24,61a.87.87,0,0,1,1.16.3A1.25,1.25,0,0,1,25,62.57,3.39,3.39,0,0,1,21.65,64.19Z" fill="#e6e6f2"/><path d="M14.45,47.75c.64,0,1.09.15,1,.9-.13,1.24-.65,1.87-1.52,1.79-.68-.06-1.46-.89-1.31-1.51C12.86,48,13.67,47.8,14.45,47.75Z" fill="#dcdfe9"/><path d="M17.92,49.91A.91.91,0,0,1,17,49a1,1,0,0,1,1-1.18c.54,0,1,.32,1,.94A1.57,1.57,0,0,1,17.92,49.91Z" fill="#c6d0e5"/></svg>