<svg id="Layer_1" data-name="Layer 1" xmlns="http://www.w3.org/2000/svg" viewBox="0 0 100 100"><title>f</title><path d="M70.57,59.37c1.62,4.89,2.63,9.8.52,14.84a8.79,8.79,0,0,1-3.47,4.17c-4.57,2.87-9.5.35-9.87-5.08a4.22,4.22,0,0,0-1.1-3.07,3,3,0,0,1-.8-1.93,34.78,34.78,0,0,0-4.31-12c-1.06-2-1.54-2-3.46-.55a55.19,55.19,0,0,1-10.54,6.2c-3.84,1.66-7.65.21-10.95-2.08-3-2.1-3.49-2.1-5,1.21a21,21,0,0,0-1.41,5.28c-.57,3.25-1.77,6.37-2.55,9.6-.43,1.79-2.35,2.45-4.32,1.64-2.55-1-5.07-2.25-5.5-5.51s-1.13-6.68-.72-10.25a130.76,130.76,0,0,1,2.57-14.1,8.83,8.83,0,0,1,4.72-6c.45-.25.92-.44,1.36-.7,1.7-1,1.89-1.63.56-3.05a24.73,24.73,0,0,1-4-5.37c-2.16-4.1-1.57-8,.35-12,2.3-4.73,6.69-5.84,11.29-6.58a3,3,0,0,1,1.5.17,63.35,63.35,0,0,1,6.75,2.85c4.77,2.58,7.69,6.86,9.88,11.66,1,2.23.89,2.27,3.46,1.9,4.35-.61,8.27.87,12.08,2.67a4.14,4.14,0,0,0,3.75.2c4.27,1.05,5.6,3.52,3.6,7.42-1.81,3.52.3,6.5.84,9.71.07.38.51.62.88.81,4.87,2.62,12.8.39,16-4.42,1.53-2.33,2.19-5.29,5.11-6.67,1.09-.51.54-1.84.23-2.8-.53-1.66-1.59-3.08-2.22-4.7a3,3,0,0,1,.51-3.42,2.3,2.3,0,0,1,3.31-.1c.95,1.68,2.67,2.86,3.17,4.84a7.51,7.51,0,0,1,0,4.37l-1.29,4.89a43.84,43.84,0,0,0-3.35,5.73c-1.63,3.38-4.8,5.4-8,7.2-1.25.7-2.57-.05-3.86-.27C72.92,55.52,70.73,56.81,70.57,59.37Z" fill="#ecb6ad"/><path d="M89.57,29.31a9,9,0,0,0-1.53,0c-1.74.3-2.38,1.49-1.65,3.07,1,2.2,2.52,4.15,3,6.64.23,1.34.32,2.08-1.37,2.29-1.37.17-2.12,1.25-2.75,2.58a19.74,19.74,0,0,1-5.39,7.15,7.46,7.46,0,0,1-7.38,1.66c-1.55-.37-3.26,0-4.89-.1-2.18-.09-2.87-.72-3.07-2.94A12.81,12.81,0,0,0,63.92,47c-.77-2.46-1.23-4.7.63-7.14,1.46-1.93.6-3.79-1.51-5.11-.6-.37-1.34-.55-1.69-1.25a28.24,28.24,0,0,1,14.17-7.83,17.91,17.91,0,0,1,6-.66A10.85,10.85,0,0,1,89.57,29.31Z" fill="#f2c4bc"/><path d="M43.17,66.11A11.49,11.49,0,0,1,50,68c2.15,1.2,2.24,2.71.49,4.39-3.23,3.12-10.22,2-12.25-2a2.77,2.77,0,0,1,2.07-4.11C41.24,66.14,42.16,66.16,43.17,66.11Z" fill="#5f83b0"/><path d="M28.72,66.73c2.11-.47,3.89,1,5.38,3a3.18,3.18,0,0,1-.91,5,6.23,6.23,0,0,1-6.43,0A5.21,5.21,0,0,1,24,69.34c.23-2.16.65-2.57,2.9-2.62Z" fill="#5a81b0"/><path d="M70.65,59.47c-1-1.06-.65-2,.22-2.93,1.05-1.08,4.62-1.85,5.9-1.07,2.08,1.27,3.66.64,5.14-.93a19.86,19.86,0,0,1,2.79-2.36,6.92,6.92,0,0,0,2.93-3.82,8.69,8.69,0,0,1,3.71-5,20.8,20.8,0,0,1-8.14,12c-3,2.09-6.34,1.84-9.61,2.26C72.25,57.77,70.83,57.59,70.65,59.47Z" fill="#f2c4bc"/><path d="M38.64,86c-2,.19-3.8-.66-5.55-1.5-.45-.22-.93-.54-.83-1.14s.67-.73,1.18-.72a10.24,10.24,0,0,1,2.73.27,4.37,4.37,0,0,0,5.52-2c.53-.81.95-2,2.29-1.53,1,.32,1.1,1.8.3,3.26C43.08,84.82,41.36,86.26,38.64,86Z" fill="#5c82b3"/><path d="M44.28,68.66a7.8,7.8,0,0,1,3.54.86c1.24.58,1.33,1.52.29,2.29-1.63,1.21-5.66.41-6.64-1.34a1,1,0,0,1,.68-1.64A12.51,12.51,0,0,1,44.28,68.66Z" fill="#d3c2c8"/><path d="M28.08,69.29a3.84,3.84,0,0,1,2.83,1.16c.81.73,1.44,1.66.7,2.61a2.15,2.15,0,0,1-2.78.28,4,4,0,0,1-1.89-1.85c-.22-.54-.66-1.07-.34-1.69S27.66,69.39,28.08,69.29Z" fill="#d3b9be"/></svg>