<svg id="Layer_1" data-name="Layer 1" xmlns="http://www.w3.org/2000/svg" viewBox="0 0 100 100"><title>f</title><path d="M44.82,10.22a26.64,26.64,0,0,1,9.71,1.65,5.53,5.53,0,0,0,4.64-.11,11.64,11.64,0,0,1,9.07-.45c2.32.77,4.65,1.52,7,2.31a6.2,6.2,0,0,1,1.52.73,39.57,39.57,0,0,1,10.41,11,9.84,9.84,0,0,1,1.27,4.31c1,7.83,1.1,15.6-2,23.09a14.3,14.3,0,0,0-.9,3.26c-1.2,7.51-4.1,14.44-7.11,21.35a69.53,69.53,0,0,0-2.74,8c-.61,2.07-2,3-4,3.56-3.71,1.12-7.44.91-11.2.43s-5.53-3.58-3.9-7a31.83,31.83,0,0,0,2.62-6.82,5.39,5.39,0,0,1,1.49-2.69c4.1-4,5.63-9.2,6.94-14.58a62.21,62.21,0,0,0,1.24-17.42,28.22,28.22,0,0,0-2.48-9.23A3.86,3.86,0,0,0,63,29.45a61.45,61.45,0,0,1-7.17-1.24C49,26.53,38.5,30.48,35,38.35c-2.1,4.74-4.55,9.35-5.45,14.46C28.44,59.19,26.94,65.54,27,72.09a10.49,10.49,0,0,1-.19,2.25c-.36,1.65-1.18,2.36-2.81,2-3.51-.71-7.13-.63-10.62-1.52-2-.51-2.78-1.53-2.08-3.46,1.39-3.85,1.75-7.89,2.56-11.85a18.18,18.18,0,0,1,1-3.82c1.18-2.62,1.3-5.48,2.12-8.15,2.17-7.11,3.46-14.46,5.89-21.48A24.94,24.94,0,0,1,30,15.43,21.35,21.35,0,0,1,44.82,10.22Z" fill="#e7294c"/><path d="M44.23,71.19a12.11,12.11,0,0,1-1.84-.39c-2.7-1-5.27-6.76-4.39-9.55.29-.91.74-1.24,1.61-1.13a1.58,1.58,0,0,1,.55.13c3.74,2,7.5,1,11.26.11a6.41,6.41,0,0,1,3.89,0c.73.28,1.1.8.66,1.53-2.51,4.18-5.43,7.88-10.53,9Z" fill="#6088b9"/><path d="M42.59,37.93c4.58.08,6.67,1.86,7,5.92.13,1.8-.3,2.6-2,3.25a15.62,15.62,0,0,1-5.19,1.12,4.51,4.51,0,0,1-4.89-4.28c-.05-.47-.09-.93-.15-1.4-.4-3.35.43-4.35,3.84-4.6C41.66,37.91,42.13,37.93,42.59,37.93Z" fill="#537baf"/><path d="M61.3,42.39c3,.24,4.67,1.56,5.34,4.08.28,1.05,0,1.65-1,1.9-1.73.43-3.43,1-5.15,1.43-2.93.75-5.6-1.22-6.24-4.23-.23-1.08-.11-1.79,1.1-2.15a13,13,0,0,1,3.25-.88c.32,1-.46,1.52-.86,2.21s-.58,1.41.1,2a1.7,1.7,0,0,0,2.28-.09C61.67,45.58,61.17,43.9,61.3,42.39Z" fill="#6383b4"/><path d="M61.3,42.39c.61.91,1.5,1.65.7,3-.69,1.16-1.21,2.34-2.71,2.63a2.32,2.32,0,0,1-2.48-1,1.94,1.94,0,0,1,.13-2.59c.53-.66,1.08-1.29,1.63-1.94C59.44,41.88,60.38,42.2,61.3,42.39Z" fill="#9b4265"/><path d="M31.57,20.13c2.94-3.45,6.35-6,10.95-6.42a21,21,0,0,1,10,1.12,2.21,2.21,0,0,1,1.64,2.55c-.16,1.59-.06,3.2-.26,4.78-.15,1.2-.48,2.39-2.06,2.65-2.11.34-3-.48-2.42-2.6.14-.57.34-1.1,0-1.61-.63-.93-.36-1.61.25-2.51,1.07-1.6.65-2.55-1.1-3.24a5.69,5.69,0,0,0-4.6-.06c-3.79,1.63-7.72,2.95-11.1,5.41A1,1,0,0,1,31.57,20.13Z" fill="#f7dce1"/><path d="M62.16,15.11c.16.61-.39.77-.71,1.05-.86.77-1.08,1.64,0,2.34,1.34.9,1.27,1.91.57,3.14-.58,1,0,1.6.87,2s1.59.56,2.38.86,1.57.61,2.33,1c.49.23,1.23.46,1,1.14s-1,.3-1.41.06a10.55,10.55,0,0,0-5.17-1.14c-.92,0-1.84-.36-2.77-.44a1.27,1.27,0,0,1-1.3-1.49,8.8,8.8,0,0,1,.23-3.07,51.21,51.21,0,0,1,2.83-5.31c.1-.18.48-.25.75-.28S62,15,62.16,15.11Z" fill="#f4d6db"/><path d="M30.44,39.18C29.16,42.68,28,45.65,27,48.65c-.49,1.41-.75,2.9-1.15,4.35-.1.35-.26.75-.76.64s-.53-.52-.46-.87c.13-.64.34-1.26.53-1.89a41.48,41.48,0,0,0,1.73-6.8A5.73,5.73,0,0,1,30.44,39.18Z" fill="#f2abb8"/><path d="M78.39,21.38A14.85,14.85,0,0,1,83,25.69.84.84,0,0,1,83,26.94c-.45.38-.86.17-1.24-.15A9.37,9.37,0,0,1,78.39,21.38Z" fill="#f5c1ca"/><path d="M73.74,21.48a22.67,22.67,0,0,1-6.66-2.54c-.22-.11-.49-.39-.25-.68s.5-.42.67-.36C69.69,18.65,72.29,18.7,73.74,21.48Z" fill="#f19cae"/><path d="M28.45,32.57a10.73,10.73,0,0,1,2.63-5,1,1,0,0,1,1.49,0c.43.45.13.86-.2,1.19C31.06,30,29.75,31.3,28.45,32.57Z" fill="#f38fa3"/><path d="M44.49,25.85c-1.66,1-3.26,2-5.57,2.17C40.23,25,42.42,25.49,44.49,25.85Z" fill="#ef99a9"/><path d="M66,14.48c2.16-.51,3.73.56,5.61,1.37C69.29,16.68,68,16.35,66,14.48Z" fill="#ed94a5"/><path d="M45.86,17.25c-1.62,1.48-2.89,2.28-5,1.7C42.33,17.62,43.55,16.7,45.86,17.25Z" fill="#f394a8"/><path d="M45.42,69.13c-2.13.21-2.73-1.22-3.66-2.23a5.43,5.43,0,0,1-1.08-2.54c-.23-.91,0-1.57,1.1-1.29a16.13,16.13,0,0,0,9.11-.37c.36-.12.73-.24,1,.11a.78.78,0,0,1,0,1,15.62,15.62,0,0,1-5.5,5A3.7,3.7,0,0,1,45.42,69.13Z" fill="#efedf6"/><path d="M40.05,42.48c-.1-2.32.51-3,2.53-2.72A4.7,4.7,0,0,1,45.34,41c1.16,1.14,1.75,3,1.25,4.06s-1.79,1.48-3.9,1.1c-.13-.51.29-.82.45-1.22.71-1.82.25-2.46-1.75-2.42A3,3,0,0,1,40.05,42.48Z" fill="#e4dae5"/><path d="M40.05,42.48a5.45,5.45,0,0,1,.48-.29c2-1,3-.85,3.65.39s.27,2.44-1.49,3.58C40.69,45.74,40.09,44.31,40.05,42.48Z" fill="#de3453"/></svg>