<svg id="Layer_1" data-name="Layer 1" xmlns="http://www.w3.org/2000/svg" viewBox="0 0 100 100"><title>m</title><path d="M26.44,12.32c2.69,1.1,4.33,3.4,6,5.55a10.91,10.91,0,0,0,4.35,3.74c2.19,1.35,4.51,1.2,7,1.07,7.34-.36,14.71-2.76,22-.43,3.54,1.13,7.5,1.93,9.65,5.61a5.28,5.28,0,0,0,.37,5.56,5.1,5.1,0,0,1,.44,2.88,5.26,5.26,0,0,0-.68,2.32c.17,3-.95,5.16-4,6.14a1.52,1.52,0,0,0-1.16,1.63c2.68-.06,3.61-2,4.65-4,.58-1.07.47-2.94,2.54-2.6a5.17,5.17,0,0,1,.86,3.63,51.27,51.27,0,0,0-1.73,8c-.25,1.57-.14,3.57-2.4,4-1.88-1.11-.36-2.88-1-5,.28,2.17-.71,3.7.65,4.94-.17,1.77-1.42,3.27-2.88,2.76-3.18-1.1-.53-4-1.43-6.29a11.75,11.75,0,0,0-.37,5.33c.14,1.35.66,2.48,2.34,2.49,2.51,0,3,1.8,3.15,3.78.06.92,0,1.85.12,2.79.23,1.8-.24,3.53-2.15,3.82-2.11.33-1.43-2-2.51-3.63,1.24,4.59,1.51,8.63,2.06,12.63.25,1.79.92,4.19-2.43,3.93-1-.08-.18.51-.19.7,0,.94.06,1.88-.9,2.48-1.43-.91-1.25-2.38-1.28-3.75-.07-4.41,0-8.83-.17-13.24-.12-3.23-.17-6.55-2.62-9.13-.35-2.8-.73-5.54-2.89-7.73a4.89,4.89,0,0,1-1-4.89,42.22,42.22,0,0,0,.83-6.16c-1.17,0-1.28.93-1.62,1.56-.61,1.12-1.36,2-2.73,1.44s-1.56-1.85-1.29-3.21a3.42,3.42,0,0,1,1.8-2.79c4.82-.86,7.58-5,11.59-7.22.8-.43,1.66-1.14,1.26-2.23a2.63,2.63,0,0,0-2.27-1.44c-1.87-.3-3,.93-4.13,2.15-1,1.06-.87,3.86-3.66,2.23-.5-.29-.77,1-1.06,1.54-.78,1.56-.54,3.48-1.69,4.92-1.82.45-1.72-1-2-2-.21-.79.27-2.17-1.34-1.71-1.27.36-2.06,1.17-1.11,2.58,1.49,2.2.59,3.66-1.46,4.77-.31.17-.77.46-1,.31-2-1.62-4.75-.71-6.83-2,.05-2.12-.55-4.53,2.35-5.41,3-.7,5.16-3,8.07-3.9,1.58-.49.93-1.45-.09-2.24-1.22-.94-2.6-.83-4-.9-2.23-.1-4.4.51-6.63.38A14.63,14.63,0,0,1,42,27.94a7.23,7.23,0,0,1-.93-.18c-1.71-.67-2.86.54-4.15,1.27a3.05,3.05,0,0,1-2.33.41c-1.57-1.89-1.25-4.94-3.81-6.24-1.44-1.63-2.2-3.77-3.92-5.19,0,0-.18.12-.25.21a1.09,1.09,0,0,0-.14.33c-.14,1.91-2.23,2.41-2.84,4a12.93,12.93,0,0,0-1.22,4.24c0,1.06.31,1.56,1.39.85s1.07-1.78,1.68-2.62a2.46,2.46,0,0,1,3-1.09c1.22.44,1.32,1.52,1.24,2.61A5.2,5.2,0,0,1,29,29.18c-1.22,1.71-1.33,2.81.77,4.12,1.7,1.07.43,3.63-2.07,4.09-2,.37-4.13,0-6.47.39,1.22,2.63,3.47,3.59,5.62,4.6.81.38,1.86.26,1.69-.93-.42-2.92,2.11-3.61,3.6-5.07a1.69,1.69,0,0,1,2.51-.13c.7.67.43,1.51.06,2.26a2.53,2.53,0,0,1-2.15,1.42c2.41.3,3.38-.59,4.2-1.81,1.26-1.88,2.74-2.25,4.1-.21.77,1.15,2.08,1.45,3,2.35-1.74,3.08-5,2.36-7.64,2.83-1.93.34-3.87.27-4.88,2.35-1.25,1.05-2.66.68-4,.33a17.06,17.06,0,0,1-10.28-7.27c-1-1.86-1.76-3.63.83-4.9a1.38,1.38,0,0,0,.56-1.84c-1.52-3.68-.43-7.35.08-11a7.63,7.63,0,0,0-.47-4.7c-1.06-2.21-.21-3.6,2.18-3.92C22.31,11.86,24.41,11.48,26.44,12.32Z" fill="#4d83bb"/><path d="M75.35,33.49c-1.85-.79-1.53-2.65-1.8-4.08-.19-1,1.1-.77,1.8-.93,5.33.73,7.3,4.53,8.32,9.17C86.4,44,86.59,50.71,86.49,57.47c0,1.74-1.29,2.91-1.52,4.57a100.65,100.65,0,0,0-1.28,11,4.75,4.75,0,0,1-.64,3c-1.86,2.38-2.41,5.22-2.81,8.1-.27,1.93-1,3.36-3.24,3.25a1.62,1.62,0,0,0-1,.17c-3,2.46-5.09.82-7.1-1.43.76-2-1-4-.24-6.06,1.23.05.91,1,1.11,1.53s.47,1.16,1.15,1,.84-.75.89-1.36c.17-2-.72-3.84-.81-5.83-.08-1.82-.7-3.63-.58-5.51a3.81,3.81,0,0,0-.92-2.2c-.38-.62-1.24-1.3-.3-2.09a1.73,1.73,0,0,1,1.94-.33A1.46,1.46,0,0,1,72,67.55c-.27.7-.58,1.79.6,2a1.48,1.48,0,0,0,1.49-1.59c-.7-2.2.59-4.55-.64-6.67-.49-.85-1-1.3-1.91-.57-1.31,1.1-1.8.16-2.3-.85-1.49-3-1.23-6.06-.24-9.14.19-.6.52-1.07,1.23-.92s.77.76.85,1.35a11.82,11.82,0,0,1-.6,4.46,2.37,2.37,0,0,0,.44,2.16c1.48-.29,2.22-1.45,3-2.57h0c2.19-1,1.76-3.19,2-5,.38-2.47.39-5,2.22-7,2.11.13,1.74,1.66,1.78,3,.08,3.34-.16,6.7.56,10.64a5.93,5.93,0,0,0,.81-4c-.75-5.5-1.19-11.06-2.8-16.42C78,34.69,76.74,34.09,75.35,33.49Z" fill="#3166a3"/><path d="M44.51,40.46c.57-.08,1.26,0,1.68-.26,1.5-1,2.52-1.76,3.65.7.91,2,2-.37,3.05-.67s.91-1.5.25-2.29S51,36.87,51.35,35.67s1.85-1.61,2.95-2.2a4.6,4.6,0,0,1,.63-.29c1.62-.58,2.33-.16,2,1.46-.28,1.46-.53,2.72.89,3.68h0c-.72,1-.65,2.2-1,3.29s-.2,1.91.92,2.2,1.23-.56,1.54-1.39c.81-2.2.87-2.17,3.72-3,.86,1.52-1,2.57-.75,3.86s.44,2.46-.31,3.65a3.16,3.16,0,0,0-.3,2.65c.66,2.52.58,2.54,3.57,2.78-1.12,1.74-1.26,3.28.38,4.85,1,.92,1.18,2.36-.77,2.86-3.12-.48-4.28.3-5.5,3.95a29.67,29.67,0,0,0-.83,3.73c-.19,1-.49,1.82-1.58,2a2.71,2.71,0,0,1-2.7-1.21,4.75,4.75,0,0,1-.74-2.28,37.69,37.69,0,0,1-.23-13.83c.54-3.12-.56-5.61-2.74-7.84-1.77-1.81-3.92-1-5.9-1.29-.88.6-2,0-2.89.54L40.45,44c-.69.44-1.58,0-2.25.54l-1.33.11c-1.58.83-3.42-.28-5,.68l-.27.1-.29,0c-.45-.2-1.46-.23-.85-1,1.21-1.47,3.07-2.72,4.79-2.36,3.21.67,5.68-1.34,8.56-1.6A.4.4,0,0,1,44.51,40.46Z" fill="#386eaa"/><path d="M40.36,88c-4.71,0-8-2.48-9.16-7.11a6.21,6.21,0,0,0-1-1.8,1.75,1.75,0,0,1,.12-2.25,1.78,1.78,0,0,1,2.23-.34,4.45,4.45,0,0,1,1.29.51c2.23,2,4.07,1.27,6.1-.49a7.74,7.74,0,0,1,5.22-1.68c3.07.05,4.7,2.23,3.81,5.12a12.22,12.22,0,0,1-5,6.91A5.92,5.92,0,0,1,40.36,88Z" fill="#5d88ba"/><path d="M25.41,65.73a7,7,0,0,1-6.4-2.8c-2.26-3-1.46-6.38,1.87-8A19.33,19.33,0,0,1,29,53.12c4-.07,5.32,1.83,4.47,5.76,0,.23-.09.46-.13.68C32.29,64.66,30.91,65.79,25.41,65.73Z" fill="#608dc0"/><path d="M36.09,57.4a17.45,17.45,0,0,1,.14-2.5,3.67,3.67,0,0,1,2.84-3.17c2.42-.4,4.82.37,7.18,1a1.41,1.41,0,0,1,1,1.28c.24,3.53.19,7-2.54,9.75a3.1,3.1,0,0,1-3.47.91C38,63.49,35.51,62.29,36.09,57.4Z" fill="#487ab0"/><path d="M26.44,12.32c-1.75,0-3.49.12-5.24.12A2.94,2.94,0,0,0,18.3,14c-.63,1.31.53,1.89,1.36,2.43s.85,1.25.49,2.08c-1.08,2.5-.8,5.25-1.44,7.85s.64,4.95,1.81,7.2c-4,1.88-4,1.88-3.43,4.92-4.41-5.32-4.19-11.32-2.34-17.42.74-2.43,1.85-4.76,2.43-7.24a2.41,2.41,0,0,1,2.69-2.11C22.08,11.71,24.42,10.16,26.44,12.32Z" fill="#7ba3cf"/><path d="M83.68,37.65c-1.71-1.58-1.1-4.54-2.85-5.73s-3.67-1.8-5.17-3.27a1.4,1.4,0,0,0-.3-.17c-1.78-1.58-3.35-3.36-6.05-3.6-1.53-.13-2.43-2.44-4.44-1.7-3.73-1.86-7.73-.94-11.5-.59s-7.81.18-11.68.94a4.78,4.78,0,0,1-4.91-1.9c2.51.73,5,.37,7.53.13,4-.38,8.13-.5,12.14-1.06a27.5,27.5,0,0,1,9,.1c5.78,1.07,10.89,3.31,14.72,8C82.3,31.37,83.76,34.19,83.68,37.65Z" fill="#80a6d2"/><path d="M31.89,45.37c1.51-1.3,3.29-.64,5-.68A10.33,10.33,0,0,1,31.89,45.37Z" fill="#4d83bb"/><path d="M41.71,43.85c.83-.9,1.88-.61,2.89-.54A3.67,3.67,0,0,1,41.71,43.85Z" fill="#4d83bb"/><path d="M38.2,44.58c.6-.77,1.42-.67,2.25-.55A2.43,2.43,0,0,1,38.2,44.58Z" fill="#4d83bb"/><path d="M44.51,40.46l-.67,0c-1.53-.14-2.85-.33-3.68-2.06s-1.58-1.71-2.67.3c-1.42,2.62-1.82,2.77-5.2,1.74.41-1.1,1.72-1.56,2-2.7.09-.44.41-.9-.12-1.24a.87.87,0,0,0-1.24.17,6.44,6.44,0,0,1-3.17,2.59c-.78.27-.5,1.1-.23,1.81.72,1.86-.27,3.3-2,2.66-2.83-1.07-5.52-2.51-7.34-5.1a1.59,1.59,0,0,1-.37-1.62,1.34,1.34,0,0,1,1.77-.71c1.89,1.2,3.87-.49,5.76.34.72.32,1.28-.36,1.79-.83,1.31-1.22,1.22-1.78-.41-2.38-2.9-1.07-3-1.36-1-3.73.87-1,.82-2.37,1.21-3.56a1.22,1.22,0,0,0-.81-1.68,1.6,1.6,0,0,0-1.84.61c-.85,1.07-.54,2.85-2.14,3.43-1.83-1.81.16-4.46-1.41-6.33a2,2,0,0,1,1.55-2c1.22-.27,1.25-1.16,1.24-2.11,1.27-.4,1.64.67,1.93,1.41.71,1.76,2.38,2.38,3.67,3.44a16.74,16.74,0,0,0,1.4.95c1.51.83,2.66,1.76,1.66,3.73-.27.54.26,1.06.47,1.57.84,1.48-1.38,2.59-.47,4.17,2.85-.61,1.7-3.28,2.56-4.87C37.93,27.21,39,25.76,41,27.11a.38.38,0,0,0,.64.07h2.17c.73,2.3-.85,3.68-2.13,5.12-1.62,1.81-1.8,3.38.4,4.88,1.27-.8.66-2.14,1-3.15.46-1.2.84-2.69,2.32-2.65s1.74,1.6,2.06,2.82a1.72,1.72,0,0,1-.2,1.33c-1.09,0-2.12.17-2.08,1.63A5.93,5.93,0,0,1,44.51,40.46Z" fill="#6798ca"/><path d="M47.32,35.53c-.8-1.12-.62-2.74-1.92-3.77a4.47,4.47,0,0,0-1.58,3.66,13.73,13.73,0,0,1-.08,2.44c-.2,1.14-1.17,1.46-2,.67S40.43,36.61,39.37,36c-.53-.32-.45-1-.22-1.59A5.25,5.25,0,0,1,40.62,32a10.69,10.69,0,0,0,3.21-4.86c2.51.32,4.92-.65,7.48-.49,1.6.1,3,.08,4,1.34.63.84,1.7.48,2.44,1.2a6.73,6.73,0,0,1-4.63,3.4c-1.46.29-2.62.52-3.35,2C49.28,35.54,48.27,35.56,47.32,35.53Z" fill="#8eb3dd"/><path d="M57.84,38.32c-.11-2.59.14-5.1,1.92-7.17.32-.38,1-1.16,1.37-.46,1.22,2.09,1.29.91,1.61-.41.51-2.16,2.48-3,4.11-4,.87-.56,5.11,1.31,5.47,2.29a1.79,1.79,0,0,1-.38,1.62c-1.2,1.93-3.79,2-5,3.34s-2,3.4-4.34,4a11.57,11.57,0,0,1-4.75.78Z" fill="#95b8e0"/><path d="M75.35,33.49c2.55-.85,3.37-.3,4.11,2.27,1.17,4.11,1.36,8.38,2.23,12.52a31.92,31.92,0,0,1,.59,6.19,8.26,8.26,0,0,1-.61,3c-.23.62-.37,1.47-1.29,1.31-.66-.11-.75-.8-.85-1.38a45.65,45.65,0,0,1-.46-11.62c.09-1.18.14-2-.91-2.66a5.5,5.5,0,0,1-.77-3.43A4.32,4.32,0,0,1,76,36.28,4.94,4.94,0,0,1,75.35,33.49Z" fill="#759fce"/><path d="M76,36.28a3.1,3.1,0,0,1,1.42,3.45,18.21,18.21,0,0,0-2.1,4.3c-.4,1.48-3.69,4-5.17,4a1.54,1.54,0,0,1-1.45-.81A1,1,0,0,1,68.83,46c.95-1,1.69-2.47,3.16-2.61,2.46-.23,2.71-1.72,2.63-3.66A13,13,0,0,1,74.85,37C74.94,36.44,75.52,36.39,76,36.28Z" fill="#3166a3"/><path d="M36.79,28.49c.89,2.55.57,4.18-1,5.6a2.09,2.09,0,0,1-2.53.54c-1-.59-.73-1.62-.3-2.47.53-1,1.17-2,1.77-3Z" fill="#8eb3dd"/><path d="M22.78,22.21c1.45.07,2,.73,1.74,2.24a40.42,40.42,0,0,0-.33,4.09c-2.23,1.31-2.54,1.18-2.69-1C21.37,25.6,22.18,23.94,22.78,22.21Z" fill="#bed2ec"/><path d="M31.17,22.94c-2.12.34-3.57-.43-4.22-2.54a4,4,0,0,0-1.38-2.31c0-.66-.27-1.45.48-1.81.59-.29,1.11.19,1.41.66C28.75,18.9,30.29,20.72,31.17,22.94Z" fill="#c7d5e8"/><path d="M73.91,55.16c-1.61-1.24-2-4.61-.7-5.83A1.21,1.21,0,0,1,74.48,49c.51.19.59.61.49,1.1-.36,1.67-.7,3.34-1.05,5Z" fill="#8fb2da"/><path d="M41.66,27.18c0,.45,0,.94-.6,1.05a.59.59,0,0,1-.48-.31c-.13-.38.15-.62.44-.82Z" fill="#8eb3dd"/><path d="M37.37,83c1.91-1.24,3.68-2.41,5.48-3.54a1.28,1.28,0,0,1,1.84.22c.54.67.2,1.27-.21,1.86C42.55,84.3,40.2,84.9,37.37,83Z" fill="#d9ddea"/><path d="M28,61.69a4.35,4.35,0,0,1-.34-3.33,1.37,1.37,0,0,1,1.82-1.08c.9.19.92,1,.72,1.62C29.9,60.06,29.54,61.29,28,61.69Z" fill="#d2dbea"/><path d="M23.46,59.49c-.11.87.27,2.11-1.07,2.16a1.67,1.67,0,0,1-1.65-1.85,2,2,0,0,1,1.84-2.15C23.8,57.6,23.33,58.78,23.46,59.49Z" fill="#d7dcec"/></svg>