<svg id="Layer_1" data-name="Layer 1" xmlns="http://www.w3.org/2000/svg" viewBox="0 0 100 100"><title>m</title><path d="M64.83,65.5a14.09,14.09,0,0,0-.36,5.23,1.64,1.64,0,0,1-1,1.76,2.51,2.51,0,0,0-1.56,2.16A2.37,2.37,0,0,1,60,76.79a2.72,2.72,0,0,0-1.86,1.68,3.52,3.52,0,0,1-2.36,2.07c-.88.19-1.06.9-1.29,1.58-.49,1.51-1.05,2.9-3.09,2.61a1,1,0,0,0-1.09.86,1.94,1.94,0,0,1-2.42,1.6,1.58,1.58,0,0,0-1.84,1.14,3.21,3.21,0,0,1-.56.92,2,2,0,0,1-3.27-.33c-.39-.85-.72-1.2-1.69-1.23-1.57-.05-1.89-.36-2-1.94-.07-1.12-.48-1.51-1.56-1.55a1.73,1.73,0,0,1-1.82-2,1.43,1.43,0,0,0-1-1.5c-1.12-.52-1.23-1.37-1-2.53.38-2.21.55-4.45.85-6.67a2.1,2.1,0,0,0-1-2.41,1.86,1.86,0,0,1-1-2.36,44.14,44.14,0,0,1,1.36-5.91,3.44,3.44,0,0,0-.1-2.91c-.56-1.11,0-2.54-.85-3.65-.11-.15,0-.57.17-.82A32.4,32.4,0,0,1,36,48.19c.26-.33.63-.8,1-.81,2-.1,3-1.68,4.09-2.94a3.91,3.91,0,0,1,4-1.55,2.84,2.84,0,0,0,2.43-.65,3.35,3.35,0,0,1,3.3-.58c2,.85,4.23.86,6.3,1.5,1.88.59,3.24,1.53,3.75,3.5A2.52,2.52,0,0,0,62,48.44,2.73,2.73,0,0,1,63.31,51c.28,3,.46,6.06.45,9.11a8.75,8.75,0,0,0,.79,4.44A4.32,4.32,0,0,1,64.83,65.5Z" fill="#f04b37"/><path d="M63.23,34a16,16,0,0,1,.39-4.27,6,6,0,0,0,.13-2.37c-.19-1.49-.45-1.81-2-2.1C60.5,25,59.34,24,57.88,24.59a1.1,1.1,0,0,1-.94-.42c-.84-1.26-1.71-1.34-3-.56a3.4,3.4,0,0,1-3.52-.26c-1-.58-1.95-1-3.05-.36-.6.35-1.13,0-1.67-.15a4.33,4.33,0,0,0-3.52.52c-1.54,1-3.09,1.74-5,.77-1-.5-1.87.19-2.13,1.49-.33,1.63-.48,3.29-.75,4.93a5.66,5.66,0,0,1-1.48,3.31,1.89,1.89,0,0,1-3,.05,2.91,2.91,0,0,1-1.07-2.5c.34-3,.18-6.08.51-9.09.35-3.27,2.33-5.7,5-7.57a2.49,2.49,0,0,1,2.65-.39,1.8,1.8,0,0,0,2.32-.58,3.81,3.81,0,0,1,3.32-1.22c1,.07,2,0,3-.07a4.86,4.86,0,0,1,4.25,1.62,2.33,2.33,0,0,0,3.85-.2,2.35,2.35,0,0,1,2.2-1,35.66,35.66,0,0,1,5.94.11c.85.16,1.67-.61,2.24-1.46,1.21-1.8,1.24-1.76,3.28-1.18,1,.29,2.17.22,2.86,1.29a8.79,8.79,0,0,1,1,3.7c.72,4.94-.51,9.78-.61,14.67a32.58,32.58,0,0,1-.88,4.85c-.24,1.36-1.22,2.7-1.81,4.09a1.8,1.8,0,0,1-2.08.83,2.61,2.61,0,0,1-2.11-1.94A14.18,14.18,0,0,1,63.23,34Z" fill="#f04934"/><path d="M39.28,31c-.18-1.21-1-1.14-1.94-1.08-.34,0-.74,0-.87-.43a.76.76,0,0,1,.29-.76c2.21-2.07,7.77-1.92,9.85.25a3.21,3.21,0,0,1-.54,4.65c-1.62.94-3.53.61-5.3.89-1,.16-1.92-.56-2.74-1.16a3.31,3.31,0,0,1-1.37-1.9.93.93,0,0,1,.45-1.12.87.87,0,0,1,1.14.34c.51.64.48,1.73,1.59,1.86,1.08-.37,2.25-.2,3.33-.54s2.42-.28,1.09-1.89C42.36,29,40.73,29.5,39.28,31Z" fill="#6580af"/><path d="M54.29,28c2.88,0,6.08,2.5,6.62,4.86.33,1.43-1.42,3.8-3,4a5.37,5.37,0,0,1-3.75-.75,14.19,14.19,0,0,1-4.44-4.35,1.36,1.36,0,0,1,.34-2A6.07,6.07,0,0,1,54.29,28Z" fill="#688aba"/><path d="M43.31,32.44a3.22,3.22,0,0,1-3.46.09L39.28,31A1.62,1.62,0,0,1,41,29c1.27,0,2.76-.73,3.71.82A2.4,2.4,0,0,1,43.31,32.44Z" fill="#e84b3c"/><path d="M55.62,50.6A2.6,2.6,0,0,1,57,51.66c1.15,1.72.82,2.66-1.12,3.44a18.81,18.81,0,0,1-8.72,1.3c-2.18-.18-2.85-.74-3.55-2.87-.27-.82-.51-1.66-.85-2.45-.26-.61-.15-1,.49-1.14,1.84-.33,3.36-1.52,5.28-1.74,1.73-.2,3.3-.31,4.71.88-.45,1.93-2.14,1.84-3.55,2.14a9,9,0,0,1-2.81-.09c-.58-.06-1.21-.11-1.41.64a1.41,1.41,0,0,0,.63,1.5A5.47,5.47,0,0,0,53.14,53C54,52.16,54.43,51,55.62,50.6Z" fill="#efe1e5"/><path d="M55.62,50.6a10.55,10.55,0,0,1-2.21,2.89c-2,2.1-6.44,2.06-8.38-.11a2.09,2.09,0,0,1-.2-2.43c.34-.73,1.06-.7,1.7-.54,2.44.59,4.73.51,6.68-1.33A1.74,1.74,0,0,1,55.62,50.6Z" fill="#6888b8"/><path d="M41.74,63.33c-.07-1.9.66-3.28.79-4.75,0-.41.43-.56.82-.49a.69.69,0,0,1,.65.73A7.14,7.14,0,0,1,41.74,63.33Z" fill="#f8bfbc"/><path d="M43.84,73.25a7.25,7.25,0,0,1-.93,5.87c-.42-.65-.38-.64-.08-2.79A6.43,6.43,0,0,1,43.84,73.25Z" fill="#f8b2ad"/><path d="M37.22,62.12c-.14,1.16-.24,2.08-.37,3,0,.28-.16.57-.51.6a.66.66,0,0,1-.76-.59,6.39,6.39,0,0,1,.76-3.72.37.37,0,0,1,.53-.19.59.59,0,0,1,.27.29A3.89,3.89,0,0,1,37.22,62.12Z" fill="#f8cfcd"/><path d="M59.12,71.87a7.29,7.29,0,0,0-1.85,2.32c-.17.37-.43.89-.91.71s-.2-.7-.08-1.07.31-.79.42-1.2C57,71.41,57.78,71.29,59.12,71.87Z" fill="#f5b0ae"/><path d="M38.14,73.5c0,.47-.05,1-.63,1s-.76-.61-.72-1.15.11-1.14.78-1S38.1,73,38.14,73.5Z" fill="#f8aaa5"/><path d="M43.31,32.44l1.4-2.59c1.07.22.8,1,.72,1.72a1,1,0,0,1-1,.91C44,32.49,43.67,32.45,43.31,32.44Z" fill="#decbd2"/><path d="M57.46,31.07c1.62,1.31,1.85,2.12,1,3.39s-2.14,1.38-3.64.45a12.4,12.4,0,0,1-3.4-3c-.93-1.21-.91-1.35.57-1.88a5,5,0,0,1,.84-.15c.06,0,.16,0,.19.1C54.7,33.3,54.69,33.3,57.46,31.07Z" fill="#e1d5df"/><path d="M57.46,31.07c-.17.39-.32.79-.52,1.17-.45.86-1.09,1.56-2.15,1.39a2.55,2.55,0,0,1-2-2.43c0-.43,0-.85,0-1.28C55.29,29,55.93,29.18,57.46,31.07Z" fill="#ec5041"/><path d="M46.88,52.13a22.44,22.44,0,0,0,5.4-.7c.61-.18.74.28.63.75a1.72,1.72,0,0,1-.4.73,3.7,3.7,0,0,1-3.17.93A2.21,2.21,0,0,1,46.88,52.13Z" fill="#e6e3ed"/></svg>