<svg id="Layer_1" data-name="Layer 1" xmlns="http://www.w3.org/2000/svg" viewBox="0 0 100 100"><title>m</title><path d="M40.26,43.59a8.59,8.59,0,0,1,3.88.14,3.28,3.28,0,0,0,1.2.21,8.7,8.7,0,0,1,5.85.75c1,.54,2.3-.26,2.8-1.33.28-.59.39-1.33,1-1.64,1.87-1,1.89-2.67,2-4.4a2.72,2.72,0,0,0-.6-2,18.26,18.26,0,0,1-3.16-5.77,2.12,2.12,0,0,0-1.66-1.58,1,1,0,0,0-.24,0c-1.89,0-3.11-2-4.94-1.79s-3.35.61-5-.07c-.57-.23-1.1.17-1.57.49-1.33.91-2.91,1-4.42,1.33a2.16,2.16,0,0,1-2.73-1.5c-.36-1.51-1.43-2.09-2.52-2.78-.62-.39-1.25-.76-1.86-1.16s-.89-.77-.63-1.43A1.5,1.5,0,0,1,29,20.1a1.69,1.69,0,0,1,1,.11c1.86,1,3.2-.17,3.93-1.4A3.35,3.35,0,0,1,38.13,17a8.45,8.45,0,0,1,.25-1.5,2,2,0,0,1,3.11-1.12,1.8,1.8,0,0,0,2.14.26c1.29-.55,1.58-.31,2.15,1,.34.81.26,1.8,1,2.42.46.09.61-.22.72-.5.76-2.09,1.21-2.2,2.88-.65a2.17,2.17,0,0,0,.42.24c.7-2.15.89-2.26,3.05-1.65a17,17,0,0,1,2.09.69,2.71,2.71,0,0,0,2.79-.11,3,3,0,0,1,3.44.06c.42.24.94.59,1.34.51,1.79-.37,3.19-.17,4,1.75.23.55,1,.41,1.58.39A3.11,3.11,0,0,1,71.62,20a10.77,10.77,0,0,0,3.28,2.51A7.66,7.66,0,0,1,78,25.87c1,2.73,1.49,5.38,0,8.19-.76,1.44-.23,3.21-.37,4.82-.07.82-.12,1.72-1,2.08s-1.18-.6-1.64-1.09c-1-1-1.83-1-2.61.15a3.52,3.52,0,0,1-2.35,1.59c-.31.05-.05-.16-.22.07-2,2.77-4.92,4.61-7,7.24h0c-1.39,4.21-3,8.3-2.81,12.93.11,2.88-1.23,5.68-2.33,8.4a23,23,0,0,1-5.37,8,6.83,6.83,0,0,1-7.41,1.39,1.75,1.75,0,0,1-1.17-2,2.47,2.47,0,0,1,2.31-2.47c2.88.1,4.16-1.89,5.64-3.68s1.16-2.63-1.15-3c-.64-.1-1.29-.18-1.93-.34-3.05-.75-3.55-2.2-1.62-4.65a3.91,3.91,0,0,0-1.72-6.09c-3.2-1.29-4.53-.82-4.47,2.56.08,4.5-3.66,5.33-6,7.5-.72.66-1.57.17-2.19-.43-2.28-2.25-5.18-3.57-7.83-5.26-1.51-1-2.65-2.05-2.1-4a4.76,4.76,0,0,1,4-3.51c.79-.14,1.63-.06,2.44-.15a3.9,3.9,0,0,1,.72.11,7.51,7.51,0,0,0,1.72.36,7.42,7.42,0,0,1,1,.18c2.6.66,5.19,1.28,7.23-1.26.57-1,1.64-1.54,2.59-2.64-1.22-.13-2.36.18-3.28-.47a2.28,2.28,0,0,0-2.39-.12,68.4,68.4,0,0,0-7.3,3.48c-1.26.49-2.58.78-3.76,0a3.85,3.85,0,0,1-1.86-3.27,3.1,3.1,0,0,1,2.34-2.86,29.43,29.43,0,0,0,5.78-2.39.42.42,0,0,1,.45-.38c.63-.41,1.41,0,2-.38,1.24-.29,2.42-.88,3.75-.63C38.8,43.62,39.59,44,40.26,43.59Z" fill="#a81d72"/><path d="M29.65,54.73c-2,.07-4.06,0-5.59,1.79S22.7,59.9,24.79,61a4.31,4.31,0,0,1,1.94,1.42c.08.14.24.34.34.33,2.45-.32,3.24,2.21,5.06,2.91.91.35,1,2,2.2,1.51a5.28,5.28,0,0,0,2-2.06c.32-.47.83-.43,1.28-.59,1.91-.64,2.14-.84,2.1-2.73,0-1.41.52-2.7.58-4.1a2,2,0,0,1,2.88-1.66A6.76,6.76,0,0,0,46,56.8c.23,0,.65.08.67.18.27,1.69,2,2.53,2.38,4.12a2,2,0,0,1-.65,2c-.48.45-.94.91-1.38,1.39-1.22,1.35-1,2.35.73,2.83a7.35,7.35,0,0,0,3.55.54,1.51,1.51,0,0,1,1.86.7,2,2,0,0,1-.07,2.51c-1.19,1.33-2.42,2.63-3.5,4.06a1.76,1.76,0,0,1-2.19.63,2.25,2.25,0,0,0-2.61.81c-1.08,1.08-.73,2.28.75,2.75,3.21,1,4.55.6,6.53-2,.15-.2.24-.47.43-.58C57,74.16,57,69.22,58.81,65.26c1.3-2.78,1.07-5.68,1.06-8.58a3.87,3.87,0,0,1,1-3.14,4.53,4.53,0,0,0,1-2.47,3.28,3.28,0,0,1,1-2.14,31.92,31.92,0,0,1-1.61,6.38,10.57,10.57,0,0,0-.72,4.56,26.09,26.09,0,0,1-1,7.74,7.74,7.74,0,0,1-1.67,3.49,2.56,2.56,0,0,0-.74,1.25c-.43,2.83-2.63,4.57-4.06,6.78a1.52,1.52,0,0,1-1.16.82c-1.82,0-3.55,1.28-5.43.43a2.4,2.4,0,0,0-2.12.21,14.37,14.37,0,0,1-9.71,1.34,2.21,2.21,0,0,0-2.07.46,2.69,2.69,0,0,1-3.38.4c-1-.6-1.67-.21-2.23.66-.31.48-.62,1-.94,1.43A2.4,2.4,0,0,1,23.69,86c-.65-.06-1.3-.1-2-.1a2.76,2.76,0,0,1-2.58-1.52c-1-1.68-1.66-3.56-3.43-4.67a1.17,1.17,0,0,1-.45-.83,56.93,56.93,0,0,1-.14-6.28c.3-4.36,2.15-8.32,4-12.14A24.93,24.93,0,0,1,23,54.29a1.9,1.9,0,0,0,.39-2.6c-.81-1.34.15-2.67.45-4a1,1,0,0,1,.94-.69,16.27,16.27,0,0,0,5.36-1.54,4.57,4.57,0,0,1,1.69-.12c-.81,1.42-2.25,1.92-3.65,2.45-.45.17-1,.16-1.41.31-1.92.63-2.87,1.9-2.47,3.27a3.25,3.25,0,0,0,4.15,2.21l.93-.24A1,1,0,0,1,29.65,54.73Z" fill="#ae247c"/><path d="M62.84,48.94a2.33,2.33,0,0,1,1.7-2.83,4.76,4.76,0,0,0,3.09-3.17c.39-1.14,1-2.51,2.8-2,.71.18,1-.38,1.27-.89.47-.83.71-1.92,2-1.83a2.56,2.56,0,0,1,2.38,2.1,1.66,1.66,0,0,0,.3.41c.8-.28.67-1,.67-1.58,0-2.59-.26-5.2,1.27-7.56a2.4,2.4,0,0,0,0-2.37A5.33,5.33,0,0,1,78,25.87c3.62,4.6,5.46,10,6.71,15.59a3.48,3.48,0,0,1-.18,2.63,8.45,8.45,0,0,0-.82,2.79c-.3,1.46-.81,3-2.47,3.36s-2.94-.45-4-1.78c-1.41-1.78-2.91-1.66-5.08-1-2,.64-4.12,1-6.19,1.5a2,2,0,0,1-1.58-.55C63.64,47.8,63.32,48.61,62.84,48.94Z" fill="#b12c83"/><path d="M31.94,30.76c2,0,3.46.33,4.63,1.32a2.08,2.08,0,0,1-.42,3.72,5.67,5.67,0,0,1-3.75.75,11.11,11.11,0,0,0-2.65-.28,3,3,0,0,1-2.17-.94,1.31,1.31,0,0,1-.18-2.1C28.79,31.78,30.36,30.7,31.94,30.76Z" fill="#5079a9"/><path d="M47.61,36.18c-1.64-.42-3.4-.23-5-1-1.75-.82-1.92-2.14-.39-3.34,1.84-1.43,3.78-2.46,6.28-1.63a4.4,4.4,0,0,1,2.13,1.5,1.92,1.92,0,0,1-.37,2.94C49.5,35.34,48.88,36.36,47.61,36.18Z" fill="#577eae"/><path d="M40.26,43.59c-.62.65-1.4.39-2.14.36A2.92,2.92,0,0,1,40.26,43.59Z" fill="#ae247c"/><path d="M34.37,44.58c-.59.64-1.34.38-2,.38C32.91,44.31,33.67,44.56,34.37,44.58Z" fill="#ae247c"/><path d="M29.65,54.73l-.21-1.39a29.07,29.07,0,0,1,7.42-3.5,3,3,0,0,1,2.43.1c.86,1,1.91.73,2.89.34a2.4,2.4,0,0,1,1.51-.16c-.59,1.84-2.48,2.27-3.48,3.54-2.2,2.31-5,2.11-7.75,1.74l-.93-.11c-.44-.38-1.08-.06-1.53-.41A.38.38,0,0,0,29.65,54.73Z" fill="#ede0e8"/><path d="M32.45,55.39a17.84,17.84,0,0,0,7.75-1.74c.1,1-.47,1.35-1.3,1.72A7.46,7.46,0,0,1,32.45,55.39Z" fill="#ae247c"/><path d="M71.14,25a1.91,1.91,0,0,1-.19.52.45.45,0,0,1-.64.08,4.38,4.38,0,0,1-.75-.62c-.52-.59-1.32-1-1.51-1.83a.46.46,0,0,1,.25-.37c1.15-.12,1.71.76,2.37,1.45A3.88,3.88,0,0,1,71.14,25Z" fill="#ca87b2"/><path d="M39.29,49.94l-2.43-.1A1.67,1.67,0,0,1,39.29,49.94Z" fill="#ae247c"/><path d="M30,54.86a1.91,1.91,0,0,1,1.53.41C31,55.31,30.39,55.39,30,54.86Z" fill="#ae247c"/><path d="M21.69,77.16a11,11,0,0,1,1.2-4.56c.15-.37.47-.71.94-.5a.88.88,0,0,1,.54,1.18A7.32,7.32,0,0,1,21.69,77.16Z" fill="#daabcb"/><path d="M80.92,44.19c0,.68,0,1.21-.52,1.45s-.84-.27-1.11-.64a3.89,3.89,0,0,1-.48-.84c-.33-.83,0-2,.67-2,.85,0,.95.76,1.22,1.31A3.55,3.55,0,0,1,80.92,44.19Z" fill="#dbbbd4"/></svg>