<svg id="Layer_1" data-name="Layer 1" xmlns="http://www.w3.org/2000/svg" viewBox="0 0 100 100"><title>m</title><path d="M58.94,43.77a7.27,7.27,0,0,0-3.39.73c-2.87,1.16-5.87,1.11-8.88,1.42a79.9,79.9,0,0,1-12.7.71c-2.54-.14-4.67,2-5.62,4.58a10.23,10.23,0,0,0-.74,4.1c.25,4.18.45,8.33,2.29,12.25,1.48,3.15,1.26,3.46-1.62,5.33a19.28,19.28,0,0,1-5.67,2.65,8.76,8.76,0,0,1-5.48-.23A5,5,0,0,1,13.55,71c-.4-3.05-1.93-5.61-3.46-8.26C6.7,56.91,5,50.53,6,43.69a19.4,19.4,0,0,0,.41-3.46,5.44,5.44,0,0,1,1.28-3.54,9.81,9.81,0,0,0,1.5-1.92c2.07-5.06,6.52-7.33,11.07-9.41A18.86,18.86,0,0,0,24.54,23c1.88-1.54,3.6-2.51,6.29-1.93,1.88.4,3.74-1,5.21-2.41a12.23,12.23,0,0,1,4-2.82,7.42,7.42,0,0,1,5.77-.27,9.08,9.08,0,0,0,4.09.74c5.75-.68,11.5-1.35,17.26-.27,4.72.88,6.31,2.45,6.12,5.71-.16,2.71-1.29,3.76-4,3.56-3-.22-6-.55-8.61-2.43-2.27-1.62-4.55-1.14-6,1.2C53,26.7,50,28.5,49.74,32.2c3.18-.39,6.11-.36,7.42-4.09.76-2.17,2.82-2.33,4.5-.66a15.18,15.18,0,0,1,3.26,5.32A2.54,2.54,0,0,1,64,35.9c-1.83,1.33-1.49,2.57-.19,4a16.15,16.15,0,0,1,2.66,5.27c.59,1.55.33,3.13-1.46,3.76-1.62.57-2.63-.33-3.17-1.87A5.37,5.37,0,0,0,58.94,43.77Z" fill="#f8a289"/><path d="M58.94,43.77c1.89.1,2.9,1.37,3.52,2.92.48,1.21,1,2.3,2.47,1.62s1.31-2,.62-3.29c-1.21-2.22-2.05-4.62-4.11-6.36-1.31-1.11-1.07-1.74.45-2.59C65,34.33,65,34.33,63,31.2a27.49,27.49,0,0,0-2-3.26c-1.3-1.54-3.13-1.2-3.26.69-.22,3.06-1.76,4-4.54,4a7.23,7.23,0,0,0-2.59.95,1.8,1.8,0,0,1-2.24-.27c-.6-.64-.22-1.27,0-1.93a14,14,0,0,1,3.11-5,15.52,15.52,0,0,0,2-2.41c2.08-3.51,4.75-4.32,7.86-1.74,2.85,2.36,6.23,1.42,9.25,2.42.41.14.88-.2,1.2-.58,1.16-1.37.5-4.65-1-5.74a9.68,9.68,0,0,0-6.85-2A7.83,7.83,0,0,1,60.22,16a3.44,3.44,0,0,0-2.4-.15c-2.62.87-5.29.54-8,.52a40.54,40.54,0,0,1,16.47-.88c1.6.28,3.21,1,4.76.88C74.5,16,76.83,17.57,79,19.89a16.81,16.81,0,0,0,5.1,4.17c1.62.74,2.17,2.41,2.77,3.89a22.09,22.09,0,0,0,5.62,8.23c2.65,2.43,1.77,5.61.93,8.46-.91,3.11-2.42,6-2.24,9.42a1.78,1.78,0,0,1-.81,1.82c-2.28,1.07-4.14,3-6.83,3.25-.32-2.31,1.55-2.82,3-3.66,1.23-.7,2.8-5.55,2.23-6.78-.34-.73-1-.85-1.7-1-4-.83-5.05-2.64-3.82-6.65a8.94,8.94,0,0,0,.56-1.65,1.68,1.68,0,0,0-1.55-2c-1.14-.23-1.4.56-1.45,1.45a19.35,19.35,0,0,1-.7,4.12c-.26.94-.69,1.79-1.82,1.82s-1.62-.77-2-1.66c-.28-.64-.45-1.32-.7-2C75,39.48,73.92,38.3,71.92,39s-1.84,2.38-1.08,4A7,7,0,0,1,71.66,45c.28,2.29-.34,3.87-3.1,3.51-1-1.4-.43-3.13-1.17-5.26a73.09,73.09,0,0,1,.31,10.38,4.83,4.83,0,0,0,2,4.49c.67,1.08,1.45,2.1,2.1,3.19a3.94,3.94,0,0,1-.68.74c-4.11,2.63-6.61,1.8-8.76-2.86A2.61,2.61,0,0,1,62,56.6c1.27-2.65.42-5-.8-7.35A7.08,7.08,0,0,0,58.94,43.77Z" fill="#f9b09e"/><path d="M68.86,48.62c2.51-2.06,2.51-2.06,1-5.17s-1-4.72,2.41-5.65c1.81-.5,3.49.48,4.21,2.53.38,1.09.61,2.23,1,3.32a.8.8,0,0,0,1.12.51c.28-.12.66-.46.65-.69-.08-1.74,1.09-3.25.67-5.11s.63-2.72,2.54-2.17a5.8,5.8,0,0,1,1.27.57c1.88,1.09,2,1.6.94,3.52-.85,1.47-1.44,2.94-.76,4.62.55,1.34,1.06,2.32,3.06,1.84,2.56-.61,4,1.32,2.87,3.63a4.22,4.22,0,0,0-.53,3c.52,1.87-.46,2.66-2,2.88-1.83.27-2.8,1.47-3.68,2.87-2.55,1.17-5.16,1.89-8,1-1.58-.52-2.49,1-3.8,1.21-2.07.09-2.41-1.17-2.22-2.85-.13-2.1-1.69-3.81-1.62-6C68,51.14,67.67,49.7,68.86,48.62Z" fill="#f8a289"/><path d="M51.6,80c-1.71-2.21-3.4-2.9-6-1.71-3,1.38-6.36,2.15-8.31,5.38-1.05,1.75-2.69,1.66-4.15.37s-1.86-2.82-.6-4.24c2.21-2.5,3.66-5.64,6.54-7.6a12.11,12.11,0,0,1,7-2.59c5.09,0,9.5,1.94,13.71,4.4A9.9,9.9,0,0,1,63.59,79c1,2.4,0,3.63-2.52,3.22a7.81,7.81,0,0,1-1.88-.85,1.08,1.08,0,0,1-.68-1.08c.08-2.45-.88-2.36-2.64-1.28C54.62,79.75,53.39,81.18,51.6,80Z" fill="#f69a7d"/><path d="M40.68,52.12c2.52,0,4.17,1.16,4.67,2.74.42,1.34-.3,3-2,4A23.49,23.49,0,0,1,37,61.61c-3.08.74-4.83-1-6.79-2.51a1.86,1.86,0,0,1-.08-2.8,4.21,4.21,0,0,1,1.26-1.18C34.53,53.56,38.1,53.44,40.68,52.12Z" fill="#b6b6cb"/><path d="M61.16,49.25c3.15,2.62,3.2,2.72,2,6.29a16.17,16.17,0,0,0-.84,3.64,22.2,22.2,0,0,0-5.21.4,11.14,11.14,0,0,1-4.51.17c-1.59-.3-3.63-.3-4.07-2.59-.49-2.51.08-4,2.23-5.4a15.82,15.82,0,0,1,7.58-2.41C59.29,49.27,60.23,49.28,61.16,49.25Z" fill="#a4afcd"/><path d="M23.9,32.81a9,9,0,0,0,3.61,3.67c1.18.58,1.24,1.44.3,2.5-1.38,1.55-2.62,3.24-3.93,4.86a1.1,1.1,0,0,1-1.23.4A.85.85,0,0,1,22,43.16C23,39.84,23.06,36.36,23.9,32.81Z" fill="#fde2de"/><path d="M68.86,48.62c0,.91,0,1.82,0,2.73,0,1.72-.05,3.36,1.4,4.7,1.12,1,.26,1.8-.67,2.41-2.08.12-2.91-.91-2.86-2.93.07-2.88,0-5.77,0-8.65,0-1.26.17-2.55-.76-3.63-.41-.48-.56-1.08.12-1.43a1.41,1.41,0,0,1,1.62.18,3.38,3.38,0,0,1,1.07,2.47C68.84,45.85,68.85,47.23,68.86,48.62Z" fill="#fbd1c7"/><path d="M56.07,57.78c-.64,0-.75,0-.87,0-1.42-.13-3.15.38-3.78-1.56-.45-1.4.4-2.35,2.69-3.43a8.52,8.52,0,0,1,4-.66c1.46,0,2.85.12,2.89,2.09a3.32,3.32,0,0,1-2.73,3.42A18.26,18.26,0,0,1,56.07,57.78Z" fill="#f3b4a7"/></svg>