<svg id="Layer_1" data-name="Layer 1" xmlns="http://www.w3.org/2000/svg" viewBox="0 0 100 100"><title>m</title><path d="M80.95,31.34c-.57,3.17.1,6.57-1.86,9.54a48.51,48.51,0,0,0-3.38,5,1.67,1.67,0,0,1-2.33.86,3.28,3.28,0,0,0-2.43.1c-3.14,1.07-6.3,2.06-9.43,3.15a8.91,8.91,0,0,1-3.26.47c-2.17-.07-4.31-.89-6.53-.06-.79.3-1.61-.32-2.32-.73a5.42,5.42,0,0,0-4.77-.55c-1.21.43-2.54.23-3.8.67s-1.75-.54-2.37-1.41c-.93-1.28-1.72-1.16-2.37.3s-1,2.8.6,3.92c.42.3.91.75.41,1.38s-1.08,1-1.9.52a5.84,5.84,0,0,1-.73-.4c-2.39-2-5.16-2-8-1.51S21.53,51.64,21,48.8A3.59,3.59,0,0,0,20,46.36c-1.06-.87-1.12-1.81-.79-3.17.77-3.11,1.15-6.32,1.82-9.46a29.2,29.2,0,0,1,1.63-5.47A11.23,11.23,0,0,1,26,24.39a29.11,29.11,0,0,0,5.2-4.87,5.74,5.74,0,0,1,6.64-2.19,4,4,0,0,0,3.88-.68,6.46,6.46,0,0,0,1.14-.77A7.12,7.12,0,0,1,50.76,14a9.36,9.36,0,0,0,6.73,0c1.94-.66,4.07.86,5.83,2A31.84,31.84,0,0,0,72,20.09c2.8.81,5,3,6.77,5.43C80,27.24,81.28,29,80.95,31.34Z" fill="#d2eef7"/><path d="M47.1,79.88a2,2,0,0,1,.12-.72c.38-1.31,1-1.72,2.25-1.14,2.93,1.35,5.77.92,8.56-.25a10.8,10.8,0,0,1,6-.56c1.76.27,2.37,1.21,2,2.95a6.2,6.2,0,0,1-3.64,4.26,21.72,21.72,0,0,1-8,2,8.49,8.49,0,0,1-6.38-2.83C47.12,82.81,46.94,81.67,47.1,79.88Z" fill="#5e8abd"/><path d="M64.28,61.43c.18,3.18-1.33,4.49-4.37,3.86-2.7-.56-4-1.94-4-4.13a1.79,1.79,0,0,1,1-1.83c1.15-.58,2.26-1.24,3.41-1.81,3.31-1.64,6.28-.69,9,1.37,1.2.9,1.23,1.83.35,3.12a1.21,1.21,0,0,1-1.37.66c-.54-.14-.67-.56-.71-1a2.69,2.69,0,0,0,0-.55c-.4-1.37-1.2-2-2.36-1.75C63.72,59.59,64.14,60.6,64.28,61.43Z" fill="#6292c2"/><path d="M41.11,66.61c-1.18,2-2.46,2.28-4.15.93a9.28,9.28,0,0,1-2.7-3.8c-.37-.91-1.76-1.38-1.31-2.55.38-1,1.52-1.27,2.34-1.86,4-2.86,8.91-1,11.44,1.3,1.63,1.47,1.06,3.42.65,5.17s-1.14,2-3.25,2.06c-.23-.73.49-.89.79-1.29a3.51,3.51,0,0,0-1-5.44c-1.17-.69-1.69-.18-1.88,1-1.77-1.37-1.78-1.5-.21-2.24-2.06.29-2.58.61-2.78,2.06C38.75,63.88,38.65,65.84,41.11,66.61Z" fill="#6997c8"/><path d="M41.11,66.61c-2.54.56-2.84.36-2.91-2,0-.46,0-.92,0-1.38.1-4,.23-4.07,4.34-3.79-1.59.9-1.59.9-.56,2.65C42.35,63.73,42.54,65.33,41.11,66.61Z" fill="#326aa1"/><path d="M25.14,49.27a2.16,2.16,0,0,1-1.83-1.81,2,2,0,0,1,1.91-1.93c1.18.16,1.33,1.06,1.31,2A1.54,1.54,0,0,1,25.14,49.27Z" fill="#f7f4f9"/><path d="M58.61,48.12c-1,0-1.26-.87-1.42-1.64a1.06,1.06,0,0,1,.93-1.38c.63-.09,1.56,1.1,1.54,1.93C59.65,47.68,59.22,48,58.61,48.12Z" fill="#f7f4f9"/><path d="M63,79.7A4.76,4.76,0,0,1,59,84c-2,.45-4,1.38-6.18.54a3.8,3.8,0,0,1-2.25-1.87c-.61-1.23-.21-1.83,1.19-1.68a14.26,14.26,0,0,0,7.81-1.1A3.76,3.76,0,0,1,63,79.7Z" fill="#e7eaf5"/></svg>