<svg id="Layer_1" data-name="Layer 1" xmlns="http://www.w3.org/2000/svg" viewBox="0 0 100 100"><title>m</title><path d="M80.54,37.88c.11,0,.29,0,.33.09,2.59,4.92,4.37,10,2.21,15.56C81,58.86,75.8,59.77,71.62,55.82c-3.55-3.36-5.51-7.74-7.88-11.86-.41-.7-.69-1.48-1.14-2.15a1.2,1.2,0,0,0-2-.3c-.78.69-1.62,1.32-2.44,2-7.67,6-16.7,6.78-25.84,6-2.81-.24-6.11-.47-8.63-1.94-4.57-2.68-6.88-7.21-7.45-12.34a77,77,0,0,1-.06-11.52c.13-3.22.95-6.15,4-8a41.17,41.17,0,0,0,4.57-3.77c1.31-1.09,2.52-1.08,3.54.42a3.09,3.09,0,0,0,2.43,1.76c3.14.13,4.86,1.84,5.38,4.89a9.62,9.62,0,0,0,.42,1.33c-1.62.74-2.65-.41-3.7-1.25A15.63,15.63,0,0,0,27,16c-3.34-.88-7.3,2.2-6.79,5.46a90.81,90.81,0,0,0,5.53,20.09,4.12,4.12,0,0,0,1.59,2.18c.81-2.27,2.26-3.58,4.84-2.85a1.08,1.08,0,0,0,1.41-.72A1.45,1.45,0,0,0,33,38.6c-1.26-1-2.83-1.63-4.15-2.58-2.31-1.67-2.42-3.73-.47-6.68,1.54-2.32,3.38-2.19,5.34-.67a10.83,10.83,0,0,0,4.69,2.18c2.07.4,3.7.21,4.41-2.15A2.32,2.32,0,0,1,45,26.8a25.54,25.54,0,0,1,9,2.25c2.65,1.29-.08,3.26-.9,4.88,4.4-.05,9.42-2.69,12.42,3A19.59,19.59,0,0,0,71,45.69c2,1.79,4.21,3.46,6.82,2.24S80.52,44.08,80,41.5C79.77,40.25,79.46,39,80.54,37.88Z" fill="#6dc8e3"/><path d="M65.16,37.12c-.11,0-.29,0-.33-.08-2.23-3.82-5.78-2.85-9.13-2.47-1.58.18-3.14.58-4.73.88-.46-1.34.49-1.81,1.19-2.29a4.78,4.78,0,0,0,1.94-1.92c.58-1.3.1-2.4-1.18-2.05-2.31.63-4-.5-5.93-1.23-2.52-1-2.9-.82-3.46,1.93-.33,1.62-1.4,2.37-2.63,2.23-2.34-.27-4.93,0-6.82-2a8.33,8.33,0,0,0-1-.95c-2.12-1.55-3.16-1.25-4.25,1.18-1.58,3.55-1.57,3.52,1.7,5.52a17.89,17.89,0,0,0,2.76,1.43A2.76,2.76,0,0,1,35,39.74c.13,1.36-.24,2.32-1.85,2.25a17,17,0,0,1-1.74-.13c-2.34-.35-2.36-.36-2.69,1.89-.12.8,0,1.82-1,1.94s-1.41-.78-1.73-1.52c-1.17-2.63-3.08-5-3-8.1a6.35,6.35,0,0,0-1-2.57,13.27,13.27,0,0,1-1.69-6.69c.11-1.57-.62-2.94-1-4.39-.78-2.84-.29-4.59,2.29-5.8,1.35-.63,1.87-2.72,3.63-2.23,2.67.75,5.46,1.38,7.61,3.32a10.36,10.36,0,0,0,3.7,2.54c1.71,1,4.18,1,4.65,3.61.1.55.85.75,1.46.73a7.52,7.52,0,0,0,1.72-.22A84.34,84.34,0,0,1,65.3,21.78,5.36,5.36,0,0,0,67,21.6c3-1.11,4.58.46,5.72,2.92a2.12,2.12,0,0,1-1.1.81c-3.71,1-5.61,3.17-5.47,7.19C66.22,34,66.51,35.82,65.16,37.12Z" fill="#3fb7d8"/><path d="M65.16,37.12c.18-2-.42-4,.48-5.86.62-1.29-.88-2.08-.67-3.39,2.72-.78,4.31-4.13,7.77-3.35,4.22,2.69,6,6.87,7,11.51.15.67.11,1.4.78,1.85A16.24,16.24,0,0,0,81.13,42a6.12,6.12,0,0,1-1.61,6.12c-1.18,1.23-2.59,2.17-4.31,1-1.4-1-3.31-.48-4.56-2.22C68.45,43.81,65.11,41.45,65.16,37.12Z" fill="#27afcf"/><path d="M39.42,78.65c.87-.69,1.76-.25,2.63,0a8.8,8.8,0,0,0,9.29-2.16c1.79-1.76,2.42-1.71,4.14-.35s2.61,3.49,1.61,4.86c-2.39,3.25-4.71,6.68-9.06,7.7a6.59,6.59,0,0,1-8.17-7C40,80.55,39,79.73,39.42,78.65Z" fill="#668ebd"/><path d="M53.13,55.91a35.2,35.2,0,0,1,4,1.14A3.73,3.73,0,0,1,59,62.55a10.94,10.94,0,0,1-6.64,5.3,4.06,4.06,0,0,1-2.74-.09,6.86,6.86,0,0,1-1.89-.87c-1.81-1.51-4.9-2.4-4.68-5.12.2-2.42,3-3.33,5-4.45A9.66,9.66,0,0,1,53.13,55.91Z" fill="#4c89bc"/><path d="M30.12,59.42a24.06,24.06,0,0,1,5.93.77c1.49.45,3.32.7,3.41,2.39a4.32,4.32,0,0,1-2.56,4.23c-2.57.92-5.2,2-8.07,1.7a6.79,6.79,0,0,1-2-.57c-2.23-1-4.24-2.69-4.17-5.09s2.94-2.53,4.8-3.2A7.81,7.81,0,0,1,30.12,59.42Z" fill="#4880b3"/><path d="M44.63,81.8a8.72,8.72,0,0,0,4.63-1c.94-.44,1.85-1,2.78-1.43a1.21,1.21,0,0,1,1.31,0c.51.34.36.84.15,1.23-1.52,2.86-3.58,5.15-6.84,6a4.06,4.06,0,0,1-5.05-3.87,1.1,1.1,0,0,1,1.27-1.26A11.45,11.45,0,0,1,44.63,81.8Z" fill="#dfe2ed"/><path d="M53.54,59.59c2.41.07,2.88,1,1.75,2.93-2.13,3.68-5.66,4.37-8.27,1.61-1.1-1.16-.93-1.86.59-2.48s3.18-1.32,4.79-1.92A3.92,3.92,0,0,1,53.54,59.59Z" fill="#6ec0de"/><path d="M30.87,65.78a7.92,7.92,0,0,1-3.35-.3c-.61-.28-1.37-.49-1.41-1.33s.76-1,1.38-1.24c2.33-1,4.77-.49,7.17-.6.86,0,1.65.26,1.74,1.27a1.82,1.82,0,0,1-1.69,2.18A38.09,38.09,0,0,1,30.87,65.78Z" fill="#71bfdd"/></svg>