<svg id="Layer_1" data-name="Layer 1" xmlns="http://www.w3.org/2000/svg" viewBox="0 0 100 100"><title>m</title><path d="M72.92,35.79c-3.63-5-8.89-7.28-14.54-8.87-2.16-.61-2.93,0-4.16,2.05S52,33.08,50.93,35.1c-2.8,5.08-5.68,6.38-9.78,5C38,39,36.59,36.92,37.45,33.64A23.71,23.71,0,0,0,37.87,26a2.43,2.43,0,0,0-3.49-1.25c-.75.32-1.52.6-2.28.89-2.19.84-4.23.62-5.53-1.49s.56-3.34,1.74-4.74c.89-1.06,2.34-1,3.25-1.94,2.85-2.27,6.25-2.64,9.71-2.79,8.68-.93,16.87.07,24.88,4.18,4,2,8.17,3.41,10.22,7.65C79,31.93,82.26,37.23,80.3,43.66c-.54,1.77.47,3.46.15,5.2-.19,1-.44,2.2-1.6,2.5-1.41.37-1.6-1-2.13-1.84-1.23-2-2.26-4-2-6.43C75,40.46,74.07,38.09,72.92,35.79Z" fill="#827758"/><path d="M72.92,35.79a7.17,7.17,0,0,1,2.29,5.75c0,2-.22,4.59,1.89,6.25.89.7.39,2.23,1.5,3.34.79-1.63,1.88-2.88.57-4.53a1.56,1.56,0,0,1-.2-1.94c1.26-1.94.13-4.35,1.3-6.29a1.06,1.06,0,0,0-.21-1.29c-1.88-2.2-2.37-4.94-3-7.63a2.83,2.83,0,0,0-1.24-2,2.52,2.52,0,0,1-1.24-1.63c-.53-3.36-3.8-3.77-5.81-5.52-.39-.34-.87-.19-1.33-.07-1.51.38-2.67.16-3.37-1.5-.31-.73-1.31-.86-2.07-1.16a38.79,38.79,0,0,0-14.21-2.44,65,65,0,0,1-6.58-.41c3.59-1,7.2-1.82,10.9-.65,3.11,1,6.4.85,9.53,1.93a42,42,0,0,1,16.06,9.51c5.1,5,8,11.08,7.3,18.49a17.18,17.18,0,0,0,0,4.88c.89,4.44-.59,8.53-1.56,12.69A6.25,6.25,0,0,1,76,65.94,2.57,2.57,0,0,1,74,64.16a9.92,9.92,0,0,1-.5-3.44,99.1,99.1,0,0,1,.5-12.9A30.49,30.49,0,0,0,72.92,35.79Z" fill="#91896b"/><path d="M31.57,17.51c-.73,1.7-2.74,2-3.73,3.45-.52.76-1.36,1.38-.94,2.4a3,3,0,0,0,2.64,1.91,9.52,9.52,0,0,0,4.66-1c2.54-1.08,2.52-1.12,3.68,1.77-2.42-1.36-4.47-.57-6.35,1.12a14,14,0,0,0-4.4,6.54,33.22,33.22,0,0,1-3.72,8.64,18.64,18.64,0,0,0-1.74,4.92c-.73,2.42-2.21,3.21-4.51,2.64-1.94-.48-2.86-2-2.39-4.36.75-3.76,1.31-7.58,3.2-11a7.52,7.52,0,0,0,1-3.33,11.68,11.68,0,0,1,4-8.27c1.7-1.58,3.55-3,5.31-4.51C29.24,17.57,30.42,17.65,31.57,17.51Z" fill="#978d70"/><path d="M58.91,78.71a7.85,7.85,0,0,1-7.41,7.59c-3.5.34-6.89.45-10.16-.93A11.14,11.14,0,0,1,34.54,78c-.44-1.54-.28-3.08,1.36-3.92a2.72,2.72,0,0,1,3.88,1c1.58,2.17,4,1.54,6.11,1.15a15.68,15.68,0,0,0,5.38-2.39c3.89-2.46,7.3-.73,7.65,3.88C58.94,78,58.91,78.36,58.91,78.71Z" fill="#f6adc4"/><path d="M32.16,49.84c3.61.24,7.12.66,9.57,3.91a2.75,2.75,0,0,1,.52,2.86,8.52,8.52,0,0,1-5.88,5.47c-4.28,1.45-9.88-.86-11.76-4.85-1.13-2.41-.9-3.48,1.15-5.12C27.62,50.6,29.63,49.51,32.16,49.84Z" fill="#527bac"/><path d="M56.9,64.64c-4.27,0-6.73-2-7.14-5.93-.14-1.33-2-2.56-.67-3.78a8.37,8.37,0,0,1,3.8-1.61c3.56-.8,7.07-.73,10.19,1.5a5.48,5.48,0,0,1,2.24,5.54c-.29,2-2,2.77-3.7,3.27A15.3,15.3,0,0,1,56.9,64.64Z" fill="#5178a7"/><path d="M39.53,79.21c1.21,0,2.35,0,3.49,0,3.16.08,6.29.14,9.06-1.83.59-.41,1.44-1,2.17-.14a2.06,2.06,0,0,1,0,2.6,8.88,8.88,0,0,1-3.36,3C48,84.21,42,83.1,39.84,80.72A1.4,1.4,0,0,1,39.53,79.21Z" fill="#fbe5ed"/><path d="M29.4,53.37A5.47,5.47,0,0,1,34,52.81c1.11.25,2.23.46,3.35.69-.5,3.8-3,5.82-6.66,5.35h-.36C27.66,57.42,27.77,55.53,29.4,53.37Z" fill="#90896f"/><path d="M30.7,58.85c3.46-.24,5.12-2.72,6.66-5.35,1.34.61,1.49,1.67,1,2.89C37.16,59.52,34,60.51,30.7,58.85Z" fill="#cfd2db"/><path d="M29.4,53.37c-.2,1.91-.65,3.86.93,5.47A2.88,2.88,0,0,1,28,58.45a3.32,3.32,0,0,1-1.38-3.62C27,53.39,28.22,53.36,29.4,53.37Z" fill="#c7ced6"/><path d="M57.55,62.33a13.49,13.49,0,0,1-2.76-.07c-1.59-.36-2.27-1.8-2.21-3.82a2.14,2.14,0,0,1,2.68-2.34c1,.11,2-.72,3,0C60.91,58.48,59.39,60.43,57.55,62.33Z" fill="#908b73"/><path d="M57.55,62.33c.36-2.08,2.25-4,.72-6.27a3.18,3.18,0,0,1,2.63.51,3.23,3.23,0,0,1,1.45,3.29c-.18,1.21-1,1.7-2.1,2A6.5,6.5,0,0,1,57.55,62.33Z" fill="#d2d6df"/></svg>