<svg id="Layer_1" data-name="Layer 1" xmlns="http://www.w3.org/2000/svg" viewBox="0 0 100 100"><title>m</title><path d="M17,46.25a15,15,0,0,1,1.26-4.82,1.4,1.4,0,0,0,1.64,1.32,5,5,0,0,1,3.48.91.92.92,0,0,0,.32-1.41c-.74-1.31-.81-2.42.76-3.19A1.37,1.37,0,0,0,25.35,38a2.68,2.68,0,0,1,2.24-3c.82-.2.58-.85.41-1.44-.25-.88-.46-1.92.21-2.55,1.49-1.41,1.41-3.13,1.42-4.92,0-2.24.53-2.68,2.79-2.88,2.11-.18,4.07.6,6.39,1-.17-3,2-4.54,3.61-6.4,1.41-1.61,2.59-1.4,3.71.48a4.78,4.78,0,0,1,.69,2.54c0,.66-.2,1.39.54,2,1-.67.63-1.74.62-2.6A2.14,2.14,0,0,1,49.48,18c2.31-.86,4.68-1.71,7.16-1.1a21.24,21.24,0,0,0,4.11.34c1.14.06,2.17-.08,2.75-1.27S65,15,66,15.54a6.4,6.4,0,0,1,2.23,2.33c.58,1,1.41,1.48,2.43.7,1.82-1.39,3.39-.72,4.77.59.93.88,1.67,1.29,2.77.33a1.56,1.56,0,0,1,2.35.3c1.76,1.87,2.94,3.93,2.31,6.67-1,4.29-1.88,8.61-2.82,12.91a4,4,0,0,1-6.69,2.15c-1.47-1.24-3.26-2.27-4-4.24a1.09,1.09,0,0,0-1.39-.79A1.45,1.45,0,0,0,67,37.92c0,.39,0,.79,0,1.19,0,.91,0,1.89-1,2.26a2.71,2.71,0,0,1-3-.58,4.63,4.63,0,0,1-1.4-2.21,1.07,1.07,0,0,0-1.31-.9c-.51.12-.75.57-.9,1.07-1.28,4.08-1.28,4.08-5.07,2.37-.81-.37-1.58-.88-2.49-.24a3.05,3.05,0,0,1-3.6-.07,7,7,0,0,0-1.39-.51c-2.87-.94-3.27-.64-3,2.27.2,2.11.07,2.26-2.32,2.76a5.22,5.22,0,0,0-3,3.38c-.63,3.52-.9,3.77-4.43,4.22a2.27,2.27,0,0,0-.59.29c.23,2.75,0,5.43-2,7.6a1.82,1.82,0,0,0-.14,2.4c.84,1.61.75,1.67-1.18,2.11-.77.18-1.54.3-2,1.06.09.19.13.46.25.5,4.19,1.33,4.35,1.53,3.87,6.11a2.05,2.05,0,0,0,.38,1.64,1.53,1.53,0,0,1,0,2.15c-1.07,1.23-.49,2.15.49,3,.15.13.29.27.42.42,1.54,1.67,1.24,3.45-.93,3.86-2,.37-4,1-6.13.8s-2.6-1.09-1.83-2.95c.92-2.23.87-2.39-1.1-3.33s-2.1-1-1.46-3.06c.44-1.41-.83-5.32-2.09-6.39-1.7-1.46-1.74-1.5-.38-3a2,2,0,0,0,.45-2.54,51.42,51.42,0,0,1-1.69-7.12.8.8,0,0,1,0-.58c1.14-1.44,1.11-2.55-.68-3.52-.8-.43-.42-1.22.24-1.67a4,4,0,0,1,3.09-.75c.48.1.94.32,1.42.41a1.1,1.1,0,0,0,1.28-.5c.32-.58-.14-1-.52-1.22C21.32,47.47,19.43,46.15,17,46.25Z" fill="#c8e9f4"/><path d="M58.61,78.43c-4.09,0-5.64-1.68-5.26-5.57a2.41,2.41,0,0,1,1.82-2.35,9,9,0,0,1,3.19-.41,10.3,10.3,0,0,0,7.35-2.46c.64-.55,1.36-1.31,2.33-.75s.76,1.54.7,2.41C68.4,74.48,63.61,78.45,58.61,78.43Z" fill="#e993bf"/><path d="M58.11,56.78c.06,1.91-2,4.1-4.12,4.39-1.35.18-2.72.19-4.09.32-2.16.22-5.38-2.64-5.47-4.55-.13-2.54,2-4.45,5-4.73a10,10,0,0,1,7.16,2A2.91,2.91,0,0,1,58.11,56.78Z" fill="#e594bf"/><path d="M62.2,53.22c-.27-3-.06-3.38,2.27-4.5a7.93,7.93,0,0,1,8.94,1.5c1,1,1,4.16-.07,5.52a5.87,5.87,0,0,1-4.52,2.46c-.79,0-1.58.05-2.37,0-2.93-.07-4.09-1.18-4.26-4.08C62.18,53.77,62.2,53.37,62.2,53.22Z" fill="#e68fbd"/><path d="M66.12,70.75c-1,3.63-4.14,6.07-7.33,5.83a3.5,3.5,0,0,1-2.89-2.22c-.42-.84.13-1.51.84-2A1.87,1.87,0,0,1,57.81,72C60.65,72.41,63.21,70.43,66.12,70.75Z" fill="#f8ecf4"/><path d="M50.9,54.62c1.73-.06,3.29.16,4.47,1.67,1,1.24.88,2.09-.45,2.8-2,1.08-6,.16-7.47-1.73-1-1.31-.54-2.41,1.11-2.7a3.59,3.59,0,0,1,.59,0Z" fill="#d2dbeb"/><path d="M67.71,49.91a28.77,28.77,0,0,1,4,1.66c1.13.66.59,3.22-.9,4A23.3,23.3,0,0,1,67,56.85a1.5,1.5,0,0,1-.85-.09c-1.26-.44-1.79-2-1.43-4.06S65.88,49.85,67.71,49.91Z" fill="#d3e2f1"/></svg>